<svg width="25" height="25" viewBox="0 0 25 25" fill="none" xmlns="http://www.w3.org/2000/svg">
<path d="M23.4951 15.2695V15.2783C23.4951 15.4496 23.4644 15.6253 23.4029 15.801C22.9548 17.0618 21.8214 17.6768 20.7891 18.1556C19.4932 18.7575 18.0918 19.0606 17.0199 19.2539C16.8882 19.2758 16.7608 19.2495 16.6641 19.1792C16.5719 19.1133 16.5104 19.0123 16.4928 18.898C16.4533 18.6169 16.6114 18.4192 16.9233 18.3621C18.1533 18.1425 19.1549 17.8657 20.0818 17.4923C20.6309 17.2727 21.3338 16.9476 21.9356 16.4204C22.2871 16.1129 22.4804 15.7 22.4804 15.2607C22.4804 14.8258 22.2915 14.4129 21.9488 14.1054C21.7819 13.956 21.5974 13.8154 21.3909 13.6836C21.1537 13.5299 20.9077 13.2795 21.1054 12.972C21.1713 12.8665 21.2547 12.8006 21.347 12.7831C21.3733 12.7787 21.3997 12.7743 21.4305 12.7743C21.5578 12.7743 21.716 12.8314 21.8873 12.9412C22.353 13.2399 22.7176 13.565 23.0119 13.9428C23.1876 14.1669 23.315 14.426 23.4205 14.7643C23.4644 14.9268 23.4951 15.1025 23.4951 15.2695Z" fill="#27282D"/>
<path d="M12.6973 19.2055C12.6973 19.3417 12.6314 19.4647 12.5128 19.557C11.9901 19.9611 11.4278 20.3872 10.7293 20.8968C10.5053 21.0594 10.2505 21.0286 10.0923 20.8134C9.93858 20.6069 9.9869 20.3477 10.2065 20.172C10.2505 20.1368 10.29 20.1061 10.3427 20.0666L10.8743 19.6536L10.312 19.6009C10.1714 19.5877 10.0308 19.5746 9.89465 19.5614C9.60911 19.535 9.33675 19.5131 9.06878 19.4779C7.46535 19.2934 5.36992 18.9595 3.41946 18.0238C2.56284 17.6153 1.961 17.1672 1.52171 16.6225C0.832018 15.7615 0.827625 14.7731 1.49974 13.9033C1.81604 13.4991 2.23336 13.1433 2.7737 12.8226C2.84838 12.7787 2.92745 12.7567 3.00652 12.7567C3.15149 12.7567 3.29206 12.827 3.37553 12.9588C3.50732 13.1653 3.45899 13.42 3.25692 13.565C3.19103 13.6133 3.12074 13.6617 3.05484 13.7056C2.87473 13.8286 2.68584 13.956 2.51451 14.1185C2.50133 14.1317 2.48816 14.1449 2.47498 14.1581C2.44862 14.18 2.42226 14.2064 2.3959 14.2327C1.72818 14.9136 1.72818 15.6033 2.4003 16.2798C2.94502 16.829 3.61714 17.1584 4.20579 17.4044C5.39189 17.9096 6.71855 18.2567 8.37469 18.4895C8.75248 18.5422 9.13467 18.5861 9.50807 18.6257C9.67939 18.6432 9.85072 18.6652 10.022 18.6828L10.5624 18.7443L10.2241 18.3182C10.0879 18.1468 10.0177 18.037 10.0089 17.9096C9.99129 17.7119 10.0616 17.5758 10.2197 17.4791C10.3911 17.3781 10.5536 17.3825 10.7073 17.4967C10.9797 17.6944 11.274 17.914 11.5815 18.1425C11.8846 18.3709 12.2009 18.6081 12.5128 18.8453C12.6314 18.9464 12.6973 19.0694 12.6973 19.2055Z" fill="#27282D"/>
<path d="M12.8336 8.46041C12.4338 8.4033 12.0297 8.45162 11.6036 8.62295L11.2961 8.74156V8.41209C11.2961 8.28908 11.2961 8.17048 11.2961 8.05187C11.2961 7.77511 11.2961 7.51593 11.3005 7.24796C11.3092 6.55827 11.8188 6.04869 12.5129 6.04429C12.7194 6.04429 12.9258 6.04429 13.1367 6.04429C13.3827 6.04429 13.6331 6.04429 13.8791 6.04429C14.169 6.0399 14.3711 5.8554 14.3711 5.59621C14.3711 5.33703 14.169 5.15253 13.8791 5.15253C13.6287 5.15253 13.3915 5.15253 13.1718 5.15253C12.9478 5.15253 12.7413 5.15253 12.5393 5.15253C11.3136 5.16131 10.4175 6.04869 10.4087 7.27432C10.3999 8.41648 10.3999 9.47078 10.4087 10.4943C10.4131 11.1225 10.6547 11.6848 11.094 12.0802C11.5377 12.4756 12.1307 12.6601 12.7633 12.5942C13.7649 12.4931 14.56 11.6058 14.5776 10.5734C14.5908 9.53668 13.8264 8.60977 12.8336 8.46041ZM13.3212 11.3773C13.0972 11.597 12.8028 11.72 12.4953 11.72H12.4822C12.1615 11.7156 11.8628 11.5882 11.6431 11.3597C11.4191 11.1269 11.2961 10.8238 11.3005 10.4943C11.3092 9.85297 11.8408 9.32582 12.4865 9.32582H12.4953C12.8116 9.32582 13.1103 9.44882 13.3344 9.67286C13.5628 9.90129 13.6858 10.2088 13.6858 10.5339C13.677 10.8546 13.5496 11.1533 13.3212 11.3773Z" fill="#27282D"/>
<path d="M19.9412 9.10178V8.87774C19.9412 8.67127 19.9412 8.4648 19.9456 8.26273C19.95 7.81465 19.95 7.349 19.9412 6.89213C19.9193 5.95204 19.1329 5.17449 18.1841 5.15253C18.1709 5.15253 18.1533 5.15253 18.1401 5.15253C17.6437 5.15253 17.1825 5.33264 16.8442 5.66211C16.4884 6.00915 16.2863 6.49677 16.2863 7.0371C16.2775 8.21001 16.2819 9.40489 16.2863 10.5646V10.7316C16.2863 10.8985 16.3039 11.0522 16.339 11.1884C16.5587 12.1241 17.3933 12.6996 18.3686 12.5942C18.8079 12.5458 19.1988 12.3262 19.48 11.9967C19.7655 11.6716 19.9369 11.2411 19.9412 10.7799C19.9456 10.345 19.9456 9.8969 19.9456 9.47078C19.9412 9.34778 19.9412 9.22478 19.9412 9.10178ZM19.0495 9.40928C19.0495 9.84858 19.0495 10.2835 19.0495 10.7228C19.0495 11.2895 18.6629 11.7068 18.1357 11.7156C18.127 11.7156 18.1226 11.7156 18.1138 11.7156C17.8722 11.7156 17.6481 11.6233 17.4768 11.4564C17.2879 11.2719 17.1825 11.0083 17.1781 10.7228C17.1737 9.49714 17.1737 8.25833 17.1781 7.0327C17.1781 6.74277 17.2791 6.48359 17.4636 6.30348C17.635 6.13655 17.8634 6.04429 18.1138 6.04429H18.1226C18.6541 6.04869 19.0407 6.46601 19.0451 7.0327C19.0451 7.4676 19.0451 7.9069 19.0451 8.33741C19.0451 8.52191 19.0451 8.70641 19.0451 8.89092L19.0495 9.40928Z" fill="#27282D"/>
<path d="M8.50222 11.3773C8.142 12.1769 7.48306 12.5898 6.54736 12.6161C6.19153 12.6249 5.84449 12.6205 5.55016 12.6161C5.24266 12.6118 5.03619 12.4316 5.03619 12.1637C5.03619 11.8957 5.24266 11.7244 5.55456 11.72C5.5897 11.72 5.62484 11.72 5.66438 11.72C5.75224 11.72 5.84449 11.72 5.93235 11.72C6.15639 11.72 6.38482 11.7244 6.61325 11.7156C7.23705 11.6892 7.7027 11.2807 7.79495 10.6745C7.87403 10.1385 7.52698 9.57623 6.99983 9.39612C6.78458 9.32144 6.56932 9.32144 6.39361 9.32583C6.05096 9.33023 5.7742 9.33023 5.52381 9.32583C5.23826 9.32144 5.04498 9.15012 5.03619 8.89093C5.0318 8.77672 5.07573 8.66689 5.1548 8.58343C5.24266 8.49117 5.37445 8.43407 5.51502 8.43407C5.71709 8.42967 5.92356 8.42967 6.12124 8.42967C6.275 8.42967 6.43314 8.42967 6.5869 8.42967C7.27659 8.42089 7.79935 7.91131 7.80374 7.24358C7.80813 6.58025 7.27659 6.05749 6.59568 6.0487C6.41996 6.0487 6.23985 6.0487 6.06853 6.0487C5.89721 6.0487 5.72149 6.0487 5.54577 6.0487C5.38762 6.0487 5.25144 5.99159 5.15919 5.89934C5.08012 5.81588 5.04058 5.71045 5.04058 5.59623C5.04498 5.33705 5.24705 5.16133 5.54138 5.15694C5.67756 5.15694 5.81813 5.15694 5.95431 5.15694H6.14321H6.152C6.5869 5.14376 7.04376 5.14815 7.4567 5.33265C8.06292 5.60062 8.49782 6.12778 8.64279 6.77793C8.79215 7.42808 8.62522 8.09581 8.19032 8.60539L8.17714 8.62296C8.11564 8.69325 7.94871 8.88654 8.16396 9.14572C8.74822 9.83541 8.86244 10.5866 8.50222 11.3773Z" fill="#27282D"/>
<path d="M22.1728 3.91812V3.90495C22.1157 3.43051 21.6852 3.03954 21.1668 3.00439C21.1493 3.00439 21.1317 3 21.1141 3C21.0482 3 20.9823 3.00439 20.9208 3.01318C20.3761 3.09664 19.9764 3.55351 19.9764 4.10702C19.972 4.64735 20.3717 5.12179 20.9033 5.20525C20.9472 5.21404 20.9955 5.21843 21.0394 5.21843C21.0526 5.21843 21.0658 5.21843 21.079 5.21843H21.0834C21.0922 5.21843 21.1053 5.21843 21.1141 5.21843H21.1361C21.1449 5.21843 21.1537 5.21843 21.1581 5.21843H21.1668H21.1712L21.1976 5.21404C21.202 5.21404 21.2108 5.21404 21.2152 5.21404C21.2283 5.21404 21.2327 5.20965 21.2415 5.20965H21.2459C21.2503 5.20965 21.2547 5.20965 21.2547 5.20965H21.2635C21.2855 5.20525 21.303 5.20086 21.325 5.19647C21.3294 5.19647 21.3382 5.19208 21.347 5.19208H21.3513C21.3689 5.18768 21.3821 5.18329 21.3997 5.1789H21.4041C21.4128 5.1745 21.4172 5.1745 21.426 5.17011H21.4304C21.4436 5.16572 21.4612 5.16133 21.4743 5.15254C21.795 5.02954 22.0322 4.77475 22.1377 4.44967C22.1421 4.44088 22.1465 4.40574 22.1553 4.35302L22.1596 4.32667C22.1772 4.23881 22.1904 4.09384 22.1728 3.91812ZM21.8653 4.11581C21.8609 4.54192 21.5095 4.89336 21.0834 4.89336H21.079C20.6441 4.89336 20.3014 4.54631 20.3014 4.11141C20.3014 3.90055 20.3849 3.69848 20.5343 3.54912C20.6836 3.39976 20.8813 3.32068 21.0922 3.32508C21.5183 3.33386 21.8653 3.6853 21.8653 4.11141V4.11581Z" fill="#27282D"/>
</svg>
