<svg width="30" height="30" viewBox="0 0 30 30" fill="none" xmlns="http://www.w3.org/2000/svg">
<path d="M26 17.9994V18.008C26 18.1755 25.97 18.3474 25.9098 18.5192C25.4716 19.7522 24.3632 20.3537 23.3536 20.822C22.0862 21.4106 20.7157 21.707 19.6674 21.8961C19.5385 21.9176 19.4139 21.8918 19.3194 21.823C19.2292 21.7586 19.169 21.6598 19.1518 21.5481C19.1132 21.2731 19.2678 21.0798 19.5729 21.0239C20.7758 20.8091 21.7554 20.5385 22.6619 20.1733C23.1989 19.9585 23.8863 19.6405 24.4749 19.125C24.8186 18.8243 25.0076 18.4204 25.0076 17.9908C25.0076 17.5655 24.8229 17.1616 24.4878 16.8609C24.3245 16.7148 24.1441 16.5773 23.9421 16.4484C23.7101 16.2981 23.4696 16.0532 23.6629 15.7525C23.7273 15.6493 23.809 15.5849 23.8992 15.5677C23.925 15.5634 23.9507 15.5591 23.9808 15.5591C24.1054 15.5591 24.2601 15.615 24.4276 15.7224C24.883 16.0145 25.2396 16.3324 25.5275 16.7019C25.6993 16.921 25.8239 17.1745 25.927 17.5053C25.97 17.6643 26 17.8361 26 17.9994Z" fill="#666666"/>
<path d="M15.4399 21.8488C15.4399 21.982 15.3754 22.1023 15.2594 22.1925C14.7482 22.5878 14.1982 23.0045 13.5151 23.5029C13.296 23.6618 13.0468 23.6318 12.8922 23.4212C12.7418 23.2193 12.7891 22.9658 13.0039 22.794C13.0468 22.7596 13.0855 22.7296 13.1371 22.6909L13.6569 22.287L13.107 22.2355C12.9695 22.2226 12.832 22.2097 12.6989 22.1968C12.4196 22.171 12.1532 22.1496 11.8912 22.1152C10.323 21.9347 8.27373 21.6082 6.3662 20.6931C5.52843 20.2936 4.93985 19.8554 4.51022 19.3226C3.83572 18.4806 3.83142 17.5139 4.48874 16.6633C4.79807 16.268 5.20622 15.92 5.73465 15.6064C5.80769 15.5634 5.88502 15.5419 5.96235 15.5419C6.10413 15.5419 6.24161 15.6107 6.32324 15.7396C6.45212 15.9415 6.40487 16.1907 6.20724 16.3325C6.1428 16.3797 6.07406 16.427 6.00961 16.4699C5.83347 16.5902 5.64873 16.7148 5.48117 16.8738C5.46829 16.8867 5.4554 16.8996 5.44251 16.9124C5.41673 16.9339 5.39095 16.9597 5.36518 16.9855C4.71215 17.6514 4.71215 18.3259 5.36947 18.9875C5.90221 19.5246 6.55953 19.8468 7.13523 20.0874C8.29521 20.5814 9.59267 20.9208 11.2124 21.1485C11.5818 21.2001 11.9556 21.2431 12.3208 21.2817C12.4883 21.2989 12.6559 21.3204 12.8234 21.3376L13.3519 21.3977L13.0211 20.981C12.8879 20.8134 12.8191 20.706 12.8106 20.5814C12.7934 20.3881 12.8621 20.2549 13.0168 20.1604C13.1843 20.0616 13.3433 20.0659 13.4937 20.1776C13.76 20.3709 14.0479 20.5857 14.3486 20.8091C14.645 21.0325 14.9544 21.2645 15.2594 21.4965C15.3754 21.5953 15.4399 21.7156 15.4399 21.8488Z" fill="#666666"/>
<path d="M15.573 11.3402C15.1821 11.2844 14.7868 11.3316 14.3701 11.4992L14.0694 11.6152V11.293C14.0694 11.1727 14.0694 11.0567 14.0694 10.9407C14.0694 10.67 14.0694 10.4165 14.0736 10.1545C14.0822 9.47996 14.5806 8.9816 15.2594 8.9773C15.4613 8.9773 15.6633 8.9773 15.8695 8.9773C16.1101 8.9773 16.355 8.9773 16.5955 8.9773C16.8791 8.973 17.0767 8.79256 17.0767 8.53908C17.0767 8.28561 16.8791 8.10516 16.5955 8.10516C16.3507 8.10516 16.1187 8.10516 15.9038 8.10516C15.6847 8.10516 15.4828 8.10516 15.2852 8.10516C14.0865 8.11376 13.2101 8.9816 13.2015 10.1802C13.1929 11.2973 13.1929 12.3284 13.2015 13.3294C13.2058 13.9437 13.4421 14.4937 13.8717 14.8803C14.3056 15.267 14.8856 15.4474 15.5043 15.383C16.4838 15.2842 17.2615 14.4163 17.2786 13.4067C17.2915 12.3928 16.544 11.4863 15.573 11.3402ZM16.0499 14.1929C15.8308 14.4077 15.543 14.528 15.2422 14.528H15.2293C14.9157 14.5237 14.6236 14.3992 14.4088 14.1757C14.1896 13.948 14.0694 13.6516 14.0736 13.3294C14.0822 12.7021 14.6021 12.1866 15.2336 12.1866H15.2422C15.5516 12.1866 15.8437 12.3069 16.0628 12.526C16.2862 12.7494 16.4065 13.0501 16.4065 13.3681C16.3979 13.6817 16.2733 13.9738 16.0499 14.1929Z" fill="#666666"/>
<path d="M22.5245 11.9675V11.7484C22.5245 11.5464 22.5245 11.3445 22.5288 11.1469C22.5331 10.7087 22.5331 10.2533 22.5245 9.80647C22.503 8.88708 21.734 8.12664 20.806 8.10516C20.7931 8.10516 20.7759 8.10516 20.763 8.10516C20.2776 8.10516 19.8265 8.28131 19.4957 8.60353C19.1477 8.94293 18.95 9.41981 18.95 9.94825C18.9414 11.0953 18.9457 12.2639 18.95 13.3981V13.5614C18.95 13.7246 18.9672 13.875 19.0016 14.0082C19.2164 14.9233 20.0327 15.4861 20.9864 15.383C21.4161 15.3357 21.7984 15.1209 22.0734 14.7987C22.3526 14.4808 22.5202 14.0597 22.5245 13.6086C22.5288 13.1833 22.5288 12.7451 22.5288 12.3284C22.5245 12.2081 22.5245 12.0878 22.5245 11.9675ZM21.6524 12.2682C21.6524 12.6978 21.6524 13.1232 21.6524 13.5528C21.6524 14.107 21.2743 14.5151 20.7587 14.5237C20.7502 14.5237 20.7459 14.5237 20.7373 14.5237C20.501 14.5237 20.2819 14.4335 20.1143 14.2703C19.9296 14.0898 19.8265 13.832 19.8222 13.5528C19.8179 12.3541 19.8179 11.1426 19.8222 9.94395C19.8222 9.6604 19.921 9.40692 20.1014 9.23078C20.269 9.06752 20.4924 8.9773 20.7373 8.9773H20.7459C21.2657 8.9816 21.6438 9.38974 21.6481 9.94395C21.6481 10.3693 21.6481 10.7989 21.6481 11.2199C21.6481 11.4004 21.6481 11.5808 21.6481 11.7613L21.6524 12.2682Z" fill="#666666"/>
<path d="M11.3373 14.1929C10.985 14.9748 10.3406 15.3787 9.42546 15.4045C9.07747 15.413 8.73807 15.4088 8.45022 15.4045C8.14948 15.4002 7.94756 15.224 7.94756 14.9619C7.94756 14.6999 8.14948 14.5323 8.45452 14.528C8.48889 14.528 8.52326 14.528 8.56192 14.528C8.64785 14.528 8.73807 14.528 8.82399 14.528C9.0431 14.528 9.2665 14.5323 9.48991 14.5237C10.1 14.4979 10.5554 14.0984 10.6456 13.5055C10.7229 12.9814 10.3835 12.4315 9.86798 12.2553C9.65746 12.1823 9.44695 12.1823 9.2751 12.1866C8.93999 12.1909 8.66933 12.1909 8.42444 12.1866C8.14519 12.1823 7.95615 12.0147 7.94756 11.7612C7.94326 11.6495 7.98623 11.5421 8.06356 11.4605C8.14948 11.3703 8.27837 11.3144 8.41585 11.3144C8.61348 11.3101 8.8154 11.3101 9.00873 11.3101C9.1591 11.3101 9.31376 11.3101 9.46413 11.3101C10.1386 11.3015 10.6499 10.8032 10.6542 10.1502C10.6585 9.50142 10.1386 8.99017 9.47272 8.98158C9.30087 8.98158 9.12473 8.98158 8.95718 8.98158C8.78962 8.98158 8.61777 8.98158 8.44592 8.98158C8.29126 8.98158 8.15808 8.92573 8.06785 8.83551C7.99052 8.75388 7.95186 8.65077 7.95186 8.53907C7.95615 8.28559 8.15378 8.11374 8.44163 8.10944C8.57481 8.10944 8.71229 8.10944 8.84547 8.10944H9.03021H9.0388C9.46413 8.09655 9.91094 8.10085 10.3148 8.28129C10.9077 8.54336 11.333 9.05891 11.4748 9.69475C11.6208 10.3306 11.4576 10.9836 11.0323 11.482L11.0194 11.4992C10.9592 11.5679 10.796 11.7569 11.0065 12.0104C11.5779 12.6849 11.6896 13.4196 11.3373 14.1929Z" fill="#666666"/>
<path d="M24.707 6.89791V6.88502C24.6511 6.42103 24.2301 6.03867 23.7232 6.0043C23.706 6.0043 23.6888 6 23.6716 6C23.6072 6 23.5427 6.0043 23.4826 6.01289C22.9498 6.09452 22.5589 6.54133 22.5589 7.08265C22.5546 7.61109 22.9455 8.07508 23.4654 8.15671C23.5083 8.1653 23.5556 8.1696 23.5986 8.1696C23.6115 8.1696 23.6243 8.1696 23.6372 8.1696H23.6415C23.6501 8.1696 23.663 8.1696 23.6716 8.1696H23.6931C23.7017 8.1696 23.7103 8.1696 23.7146 8.1696H23.7232H23.7274L23.7532 8.1653C23.7575 8.1653 23.7661 8.1653 23.7704 8.1653C23.7833 8.1653 23.7876 8.16101 23.7962 8.16101H23.8005C23.8048 8.16101 23.8091 8.16101 23.8091 8.16101H23.8177C23.8392 8.15671 23.8563 8.15242 23.8778 8.14812C23.8821 8.14812 23.8907 8.14382 23.8993 8.14382H23.9036C23.9208 8.13953 23.9337 8.13523 23.9509 8.13093H23.9551C23.9637 8.12664 23.968 8.12664 23.9766 8.12234H23.9809C23.9938 8.11805 24.011 8.11375 24.0239 8.10516C24.3375 7.98486 24.5695 7.73568 24.6726 7.41776C24.6769 7.40917 24.6812 7.3748 24.6898 7.32324L24.6941 7.29746C24.7113 7.21154 24.7242 7.06976 24.707 6.89791ZM24.4063 7.09124C24.402 7.50798 24.0583 7.85168 23.6415 7.85168H23.6372C23.2119 7.85168 22.8768 7.51228 22.8768 7.08695C22.8768 6.88073 22.9584 6.6831 23.1045 6.53703C23.2506 6.39096 23.4439 6.31363 23.6501 6.31792C24.0669 6.32651 24.4063 6.67021 24.4063 7.08695V7.09124Z" fill="#666666"/>
</svg>
