<svg width="30" height="30" viewBox="0 0 30 30" fill="none" xmlns="http://www.w3.org/2000/svg">
<path d="M20.8396 11.068C18.9743 10.3527 17.1087 9.64064 15.2455 8.9219C15.0658 8.85237 14.906 8.8633 14.7318 8.93049C12.8802 9.64416 11.0283 10.3543 9.17634 11.0652C8.96619 11.1457 8.8615 11.2953 8.8615 11.5176C8.86111 12.6809 8.8615 13.8445 8.8615 15.0074H8.87205C8.87205 16.1297 8.87166 17.2523 8.87205 18.3746C8.87244 18.7316 8.93767 18.823 9.27205 18.9519C11.117 19.6629 12.9619 20.3746 14.806 21.0871C14.9408 21.1398 15.0677 21.1379 15.2021 21.0859C17.0283 20.382 18.8552 19.6789 20.6818 18.9758C21.0779 18.823 21.1302 18.7469 21.131 18.3265C21.1341 16.0617 21.1368 13.7965 21.1407 11.5317C21.1407 11.3082 21.0415 11.1457 20.8396 11.068ZM14.3966 19.9879C12.8904 19.4035 11.3814 18.8261 9.87283 18.2472C9.79392 18.2172 9.7404 18.189 9.74079 18.0797C9.74587 16.1027 9.74392 14.1258 9.74392 12.1262C11.3318 12.7371 12.8884 13.3383 14.4486 13.9328C14.5783 13.982 14.5591 14.068 14.5591 14.1605V17.875C14.5591 18.539 14.5564 19.2023 14.5615 19.866C14.5626 19.9996 14.5513 20.0484 14.3966 19.9879ZM15.1697 13.1488C15.074 13.1855 14.9861 13.2063 14.8771 13.1641C13.4662 12.6164 12.0533 12.075 10.6408 11.5317C10.6166 11.5223 10.5935 11.5098 10.5396 11.4844C10.9689 11.3199 11.3756 11.1649 11.7814 11.009C12.799 10.6172 13.8173 10.2262 14.8333 9.83127C14.949 9.78635 15.0474 9.78205 15.1658 9.82814C16.5576 10.3676 17.9517 10.9012 19.345 11.4375C19.3759 11.4488 19.404 11.4672 19.4595 11.4957C18.7376 11.7731 18.0408 12.0395 17.3439 12.3074C16.6189 12.5871 15.8943 12.8676 15.1697 13.1488ZM20.2611 18.0039C20.2611 18.1453 20.2259 18.214 20.0857 18.2672C18.588 18.8363 17.0939 19.414 15.5986 19.9894C15.5548 20.0062 15.5087 20.0179 15.4517 20.0359C15.4486 19.9718 15.4431 19.9191 15.4431 19.866C15.4427 17.9637 15.4427 16.0613 15.4427 14.1594C15.4427 14.0645 15.429 13.9812 15.556 13.9332C17.1162 13.3391 18.6732 12.7375 20.2349 12.1367C20.2767 12.2063 20.2568 12.2742 20.2568 12.3383C20.2579 14.2273 20.256 16.1152 20.2611 18.0039Z" fill="#666666"/>
<path d="M6.0862 18.476C6.17331 18.3838 6.30105 18.3334 6.45651 18.3306C6.72292 18.3256 6.91237 18.5377 6.9194 18.8451C6.93542 19.4787 7.04479 19.9744 7.2655 20.4041C7.99362 21.8216 9.12916 22.6193 10.6401 22.7759L10.6522 22.7783C10.7131 22.7916 10.8155 22.8138 10.9147 22.7439L11.0409 22.6537L10.8678 22.4654C10.8198 22.4138 10.7721 22.3619 10.7249 22.3091C10.5557 22.1181 10.5545 21.8423 10.7225 21.6677C10.8901 21.4939 11.153 21.4814 11.3487 21.6377C11.6319 21.865 11.8916 22.1318 12.1428 22.3896C12.3202 22.572 12.5038 22.7603 12.6959 22.9361C12.8498 23.0763 12.892 23.2154 12.8413 23.4158C12.8288 23.4638 12.794 23.497 12.735 23.5501C12.7147 23.5677 12.6944 23.5865 12.6752 23.6048L12.6557 23.6244C12.3342 23.9443 12.001 24.2744 11.678 24.6037C11.5401 24.7435 11.4108 24.8501 11.2799 24.931C11.2069 24.9759 11.1233 25.0001 11.0377 25.0001C10.9631 25.0001 10.8897 24.979 10.8272 24.9388C10.6506 24.8251 10.5819 24.6826 10.601 24.4826C10.6124 24.363 10.6702 24.263 10.794 24.1486C10.8276 24.1173 10.8624 24.0876 10.9057 24.0509C10.9292 24.0306 10.9549 24.0087 10.9842 23.9837L11.2112 23.7865L10.9139 23.7443C10.8022 23.7283 10.6948 23.7154 10.5901 23.7021C10.376 23.6751 10.1733 23.6501 9.97837 23.6084C9.14517 23.4287 8.41471 23.0736 7.74518 22.5232C7.2237 22.0955 6.80808 21.5443 6.39714 20.7377C6.13034 20.2146 5.99714 19.6334 5.96511 18.8521C5.95808 18.6974 6.00027 18.5674 6.0862 18.476Z" fill="#666666"/>
<path d="M23.9137 11.5242C23.8266 11.6164 23.6988 11.6668 23.5434 11.6695C23.277 11.6746 23.0875 11.4625 23.0805 11.1551C23.0645 10.5215 22.9551 10.0258 22.7344 9.59607C22.0063 8.1785 20.8707 7.38085 19.3598 7.22421L19.3477 7.22187C19.2867 7.20858 19.1844 7.18632 19.0852 7.25624L18.959 7.34647L19.132 7.53475C19.1801 7.58632 19.2278 7.63827 19.275 7.691C19.4442 7.88202 19.4453 8.1578 19.2774 8.33241C19.1098 8.50623 18.8469 8.51873 18.6512 8.36248C18.368 8.13514 18.1082 7.86835 17.8571 7.61054C17.6797 7.42811 17.4961 7.23983 17.3039 7.06405C17.15 6.92382 17.1078 6.78476 17.1586 6.58437C17.1711 6.53632 17.2059 6.50312 17.2649 6.44999C17.2852 6.43242 17.3055 6.41367 17.3246 6.39531L17.3442 6.37578C17.6656 6.05585 17.9989 5.72578 18.3219 5.39648C18.4598 5.25664 18.5891 5.15 18.7199 5.06914C18.793 5.02422 18.8766 5 18.9621 5C19.0367 5 19.1102 5.02109 19.1727 5.06133C19.3492 5.175 19.418 5.31758 19.3988 5.51758C19.3875 5.63711 19.3297 5.73711 19.2059 5.85156C19.1723 5.88281 19.1375 5.9125 19.0942 5.94921C19.0707 5.96953 19.0449 5.9914 19.0156 6.0164L18.7887 6.21367L19.086 6.25585C19.1977 6.27187 19.3051 6.28476 19.4098 6.29804C19.6238 6.32499 19.8266 6.34999 20.0215 6.39179C20.8547 6.57148 21.5852 6.92655 22.2547 7.47694C22.7762 7.90467 23.1918 8.45584 23.6027 9.26248C23.8695 9.78553 24.0027 10.3668 24.0348 11.148C24.0418 11.3027 23.9996 11.4328 23.9137 11.5242Z" fill="#666666"/>
</svg>
