<svg width="25" height="25" viewBox="0 0 25 25" fill="none" xmlns="http://www.w3.org/2000/svg">
<path fill-rule="evenodd" clip-rule="evenodd" d="M22.7536 19.658C22.7234 19.6278 22.6846 19.5933 22.6371 19.5717C22.2964 19.3992 22.154 19.1102 22.1584 18.6056C22.1627 16.2463 22.167 13.8094 22.1584 11.4114C22.154 10.9671 22.2964 10.6824 22.6328 10.4495C23.0943 10.1347 23.2841 9.65592 23.1676 9.10816C23.0425 8.54314 22.7018 8.18947 22.1756 8.08164C21.5847 7.95656 21.0973 8.13771 20.7695 8.60784C20.5798 8.87957 20.3382 9.00465 20.0061 9.00033H19.6179H18.8416C18.682 9.00465 18.544 8.9572 18.4189 8.858C16.8144 7.56839 15.1711 6.27014 13.5796 5.01503C13.4243 4.89427 13.3812 4.77781 13.4157 4.58804C13.5451 3.82893 13.1483 3.20785 12.428 3.03532C12.0226 2.93612 11.587 3.04826 11.2678 3.34155C10.9529 3.6219 10.802 4.03165 10.8537 4.42845C10.8882 4.68724 10.8235 4.8382 10.6036 5.01072L10.1258 5.3892C9.05683 6.23603 7.98028 7.08884 6.93313 7.92206C6.74771 8.07083 6.56121 8.21852 6.37471 8.36621L6.37457 8.36632C6.18804 8.51404 6.0015 8.66176 5.81604 8.81056C5.6392 8.94858 5.46668 9.00896 5.25534 9.00465C5.06556 9.00033 4.87147 9.00033 4.68601 9.00033H4.26333C3.94847 9.00033 3.70694 8.87957 3.53442 8.62509C3.2325 8.18084 2.78825 7.98676 2.22323 8.06008C1.75311 8.12046 1.40375 8.3965 1.18378 8.88388C1.17552 8.89765 1.17077 8.91318 1.16618 8.92822C1.16357 8.93673 1.16102 8.94509 1.1579 8.95289C1.15359 8.97014 1.14927 8.98739 1.14065 9.00465C1.13202 9.02621 1.1234 9.05209 1.11477 9.08228C1.02851 9.40576 1.08889 9.75512 1.27435 10.0398C1.47707 10.3503 1.65391 10.5487 1.82212 10.6436C1.97307 10.7299 2.05071 10.8981 2.05071 11.1396V18.8601C2.05071 19.1016 1.97307 19.2698 1.82212 19.3561C1.39943 19.6062 1.13202 19.947 1.02851 20.3653C0.947693 20.6971 1.05983 20.966 1.10431 21.0726L1.10614 21.077C1.11046 21.0899 1.11477 21.0986 1.11908 21.1029C1.30455 21.5859 1.70566 21.9181 2.18873 21.9871C2.24911 21.9957 2.31381 22 2.37419 22C2.79688 22 3.20231 21.793 3.47834 21.4264C3.7587 21.0511 4.07786 20.9045 4.53505 20.939C4.6817 20.9519 4.84128 20.9476 5.01812 20.9347C5.25534 20.9217 5.32435 20.7794 5.33729 20.6629C5.34591 20.5767 5.32004 20.4904 5.26828 20.43C5.21221 20.3696 5.13889 20.3308 5.04831 20.3265C5.02941 20.3265 5.01052 20.3255 4.99112 20.3244C4.97068 20.3233 4.94968 20.3222 4.92754 20.3222C4.54368 20.3006 4.15119 20.2791 3.76732 20.3955C3.50854 20.4732 3.29719 20.6371 3.09879 20.9088C3.01684 21.0252 2.93489 21.1331 2.82275 21.2107C2.52946 21.4091 2.13697 21.366 1.91269 21.1072C1.66253 20.8182 1.67116 20.43 1.93426 20.1626C1.9817 20.1109 2.02483 20.0764 2.06796 20.0462C2.5424 19.7615 2.76237 19.3259 2.76237 18.6789V16.82V15.457V15.4569C2.76237 14.1199 2.76237 12.7354 2.76668 11.3768C2.771 10.7083 2.5424 10.2511 2.0464 9.93627C1.79192 9.77669 1.68841 9.52222 1.75311 9.22461C1.8178 8.93132 2.00327 8.74586 2.28362 8.68979C2.59416 8.62509 2.85295 8.72429 3.02116 8.97877C3.30582 9.41439 3.73282 9.62573 4.3194 9.62573H19.8897C20.1441 9.62573 20.4116 9.60848 20.6747 9.50065C20.8989 9.40576 21.093 9.24187 21.2655 8.99171C21.4424 8.72861 21.7012 8.62509 22.0203 8.68979C22.305 8.75017 22.4862 8.93564 22.5508 9.22893C22.6112 9.52222 22.5034 9.781 22.2532 9.94059C21.7616 10.2511 21.533 10.7126 21.533 11.3855C21.5373 13.7792 21.5373 16.2032 21.533 18.6013C21.533 19.3086 21.7529 19.7615 22.2446 20.0677C22.5077 20.2273 22.6155 20.4818 22.5508 20.7751C22.4862 21.0813 22.2877 21.2711 21.9815 21.3272C21.6149 21.4005 21.3949 21.1978 21.2742 21.0123C20.9636 20.5335 20.5194 20.3093 19.8681 20.3093C15.4687 20.3136 10.9961 20.3136 6.67003 20.3136H6.60534L6.5683 20.3134H6.56828C6.49234 20.3129 6.41139 20.3123 6.33361 20.3308C6.14384 20.374 6.04464 20.4861 6.05326 20.65C6.05757 20.8139 6.1654 20.9174 6.35949 20.939C6.43281 20.9476 6.51045 20.9476 6.58377 20.9433H6.66572H19.9932C20.3167 20.939 20.5453 21.0597 20.7092 21.3185C20.9205 21.642 21.2095 21.8534 21.5631 21.9353C22.1411 22.0733 22.7622 21.7843 23.0425 21.2495C23.3229 20.7233 23.2021 20.0375 22.7536 19.658ZM12.1477 4.92877H12.139C11.8026 4.92446 11.518 4.63979 11.5223 4.30769C11.5309 3.97558 11.8156 3.69523 12.1477 3.69523H12.1563C12.3159 3.69523 12.4755 3.76855 12.5919 3.88932C12.7084 4.01008 12.7687 4.16535 12.7644 4.32063C12.7644 4.65705 12.4841 4.92877 12.1477 4.92877ZM17.3924 8.9227H6.82099C6.81668 8.9227 6.81237 8.9227 6.80805 8.91407C6.80805 8.90976 6.80805 8.90545 6.81237 8.89682C6.81503 8.89682 6.8177 8.89517 6.82138 8.89289C6.82366 8.89149 6.82632 8.88984 6.82962 8.88819L6.83022 8.88771C7.55031 8.31423 8.27039 7.74075 8.99479 7.16727C9.35495 6.88044 9.7151 6.59469 10.0753 6.30894C10.4354 6.0232 10.7955 5.73747 11.1557 5.45066C11.2376 5.38596 11.2678 5.37302 11.3627 5.43772C11.8501 5.76551 12.3719 5.77845 12.8766 5.47222C12.9542 5.42478 12.9887 5.42046 13.0577 5.47653C14.0282 6.24858 15.0159 7.03356 15.9734 7.79267C16.1816 7.95883 16.3906 8.12499 16.6001 8.29153C16.8637 8.50107 17.128 8.71122 17.3924 8.9227ZM4.3107 11.049C4.75495 11.0534 5.20351 11.0534 5.65207 11.049C5.80303 11.0447 5.92811 10.993 6.00143 10.9024C6.06613 10.8204 6.08769 10.7126 6.06613 10.5919C6.023 10.3935 5.87635 10.2943 5.63913 10.2943H3.95271C3.53865 10.2943 3.42651 10.4064 3.42651 10.8161V19.1318C3.42651 19.5329 3.54297 19.6494 3.94409 19.6494H20.3597C20.7608 19.6494 20.8773 19.5329 20.8773 19.1318V10.8204C20.8773 10.4107 20.7652 10.2986 20.3511 10.2986H7.1444C7.07108 10.2986 6.99344 10.2986 6.92012 10.3115C6.73466 10.346 6.62252 10.4797 6.62252 10.6695C6.62252 10.8765 6.73466 11.0102 6.93306 11.0361C7.02795 11.049 7.12715 11.049 7.22204 11.049H7.2248C11.3861 11.049 15.6896 11.049 19.9241 11.0447C20.088 11.0447 20.1225 11.062 20.1225 11.2302C20.1182 12.9252 20.1182 14.6505 20.1182 16.3153V18.0147V18.1139C20.1052 18.0966 20.0923 18.0794 20.0837 18.0578C20.0751 18.0449 20.0664 18.0319 20.0578 18.0147C19.7343 17.5704 19.4065 17.1176 19.0917 16.6776L19.083 16.669C19.0011 16.5569 18.9105 16.4835 18.8113 16.4577C18.7121 16.4275 18.6086 16.449 18.518 16.5137C18.4318 16.5741 18.38 16.6518 18.3671 16.7423C18.3455 16.8588 18.3886 16.9882 18.4792 17.1219C18.7737 17.5276 19.0731 17.9432 19.3756 18.3631L19.3764 18.3642L19.6653 18.7652C19.6783 18.7824 19.6912 18.7997 19.7041 18.8126C19.7257 18.8342 19.7429 18.8557 19.7559 18.8816H14.0799C14.3473 18.5106 14.6159 18.1385 14.8845 17.7664L14.8863 17.7638C15.1541 17.3928 15.4219 17.0217 15.6886 16.6518C15.8827 16.3822 16.0779 16.1115 16.2731 15.8409C16.4682 15.5702 16.6634 15.2996 16.8575 15.03C16.892 14.9826 16.9092 14.9783 16.9092 14.9783C16.9179 14.9783 16.9351 14.9912 16.9739 15.0516C17.168 15.3276 17.3794 15.6209 17.6037 15.9272C17.6899 16.0479 17.7977 16.1169 17.9099 16.1342C18.0005 16.1471 18.0953 16.1212 18.173 16.0609C18.3584 15.9185 18.3757 15.7115 18.2161 15.4915C18.152 15.401 18.087 15.3104 18.0223 15.2202L18.022 15.2198C17.9388 15.1039 17.8561 14.9887 17.7762 14.8748C17.7438 14.8316 17.7126 14.7885 17.6813 14.7454C17.65 14.7022 17.6187 14.6591 17.5864 14.616C17.3966 14.3529 17.1508 14.2105 16.9006 14.2105C16.6505 14.2105 16.4089 14.3572 16.2235 14.6203C16.1092 14.7799 15.9938 14.9384 15.8784 15.0969C15.7631 15.2554 15.6477 15.4139 15.5334 15.5735C15.2649 15.9455 14.9891 16.3248 14.7133 16.7041L14.4378 17.0831L14.3861 17.1607L14.3861 17.1607L14.3861 17.1607C14.3429 17.2254 14.2998 17.2901 14.2481 17.3418C13.765 16.7337 13.2819 16.1299 12.7989 15.526C12.6134 15.2974 12.3848 15.168 12.1476 15.168C11.9104 15.168 11.6775 15.2931 11.4963 15.526C11.423 15.6188 11.3486 15.7115 11.2742 15.8042L11.274 15.8044C11.1997 15.8971 11.1253 15.9898 11.0521 16.0824C10.9788 16.1751 10.9045 16.2677 10.8301 16.3604L10.8299 16.3606L10.8297 16.3609C10.7554 16.4535 10.6811 16.5462 10.6078 16.6388C10.4827 16.7941 10.3577 16.9494 10.2326 17.1089C10.1792 17.173 10.1288 17.237 10.0764 17.3035L10.0428 17.3462C10.004 17.2987 9.97379 17.2556 9.9436 17.2125C9.71069 16.8933 9.47779 16.5698 9.24919 16.2506C8.8567 15.7072 8.44695 15.1422 8.04584 14.5901C7.869 14.3486 7.63609 14.2149 7.38593 14.2149C7.14009 14.2149 6.90718 14.3442 6.73466 14.5815C6.48881 14.9179 6.24296 15.2586 6.01437 15.5778C5.60031 16.1471 5.18626 16.7208 4.76789 17.303C4.65653 17.454 4.54659 17.6063 4.43563 17.7601L4.43555 17.7603L4.43541 17.7604C4.35304 17.8746 4.27011 17.9895 4.18562 18.1053C4.18562 15.8323 4.18562 13.4816 4.18131 11.1655C4.18131 11.1137 4.18562 11.0792 4.19856 11.062C4.21581 11.0534 4.26325 11.049 4.3107 11.049ZM10.5647 17.9025L10.7489 17.6733C11.2503 17.0496 11.6777 16.5177 12.0743 16.0134C12.1174 15.9573 12.139 15.953 12.1476 15.953C12.1562 15.953 12.1735 15.9573 12.2166 16.0134C12.6565 16.5698 13.1784 17.2297 13.7262 17.9025C13.7823 17.9759 13.7866 18.0061 13.7348 18.0794C13.5537 18.3123 13.3811 18.5581 13.2172 18.7954L13.2129 18.7997C13.1612 18.8773 13.1008 18.9075 13.0102 18.9032C12.8481 18.8967 12.6836 18.8975 12.5222 18.8983C12.4688 18.8986 12.4158 18.8989 12.3632 18.8989H11.9276H11.9275C11.7162 18.8989 11.4963 18.8989 11.2807 18.9032C11.1858 18.9075 11.134 18.8773 11.0779 18.7954C10.8795 18.5107 10.7156 18.2821 10.5604 18.0794C10.5086 18.0104 10.5086 17.9716 10.5647 17.9025ZM7.38593 14.9955C7.39025 14.9955 7.41181 14.9998 7.46357 15.0688C7.80077 15.5373 8.1408 16.0086 8.47969 16.4783L8.48035 16.4792C8.86513 17.0125 9.24844 17.5437 9.62443 18.0664L10.2196 18.8902H4.55223C4.55654 18.8859 4.56086 18.8816 4.56517 18.873L4.58242 18.8514C4.95215 18.3388 5.32779 17.8195 5.70537 17.2976L5.70551 17.2974L5.70553 17.2974C6.23967 16.559 6.77769 15.8153 7.3083 15.0775C7.35574 15.0042 7.37731 14.9955 7.38593 14.9955ZM14.3128 12.2783C15.0547 12.2912 15.6542 12.8951 15.6499 13.6326C15.6412 14.3701 15.0374 14.9697 14.3042 14.9697C13.5666 14.9697 12.9628 14.3701 12.9585 13.6326C12.9585 13.2703 13.1008 12.9253 13.3596 12.6665C13.6184 12.412 13.9548 12.274 14.3128 12.2783ZM14.3042 13.0331C14.1532 13.0331 14.0023 13.0935 13.8901 13.2056C13.778 13.3178 13.7133 13.4687 13.709 13.624C13.709 13.7836 13.7694 13.9302 13.8772 14.0424C13.985 14.1545 14.136 14.2149 14.2912 14.2149H14.2999C14.6234 14.2149 14.8908 13.9561 14.8951 13.6326C14.8951 13.4817 14.8304 13.335 14.7182 13.2186C14.6061 13.1021 14.4551 13.0331 14.3042 13.0331Z" fill="#27282D"/>
</svg>
