<svg width="28" height="30" viewBox="0 0 28 30" fill="none" xmlns="http://www.w3.org/2000/svg">
<g filter="url(#filter0_d_384_454)">
<path d="M23.9959 5.7132C23.9955 5.50929 23.8619 5.37217 23.6603 5.37178C22.5208 5.3667 21.3813 5.36319 20.2414 5.37803C20.1347 5.3792 20 5.48975 19.9312 5.58703C19.8386 5.71789 19.9066 5.86165 20.0152 5.97142C20.2808 6.23979 20.5492 6.50543 20.8152 6.77302C20.8582 6.81638 20.8957 6.86482 20.9059 6.87693C20.7883 7.01835 20.6856 7.14257 20.5734 7.27656C20.1086 6.81013 19.6621 6.36089 19.214 5.91243C18.9378 5.63507 18.8007 5.63742 18.5186 5.91868C18.3421 6.09525 18.1573 6.26362 17.9928 6.45035C17.8839 6.57301 17.8014 6.56754 17.6721 6.48238C17.4764 6.35464 17.2721 6.23237 17.0569 6.14213C16.5346 5.92454 16.0041 5.72649 15.4509 5.51085C15.4509 5.17802 15.4521 4.80847 15.4505 4.43853C15.4494 4.11703 15.3341 4.00101 15.0126 4.00062C14.1723 3.99945 13.3317 4.00023 12.491 4.00062C12.141 4.00062 12.0324 4.10961 12.032 4.45963C12.0308 4.82839 12.0316 5.19716 12.0316 5.56437C11.198 5.76242 10.4409 6.08119 9.73306 6.51949C9.69009 6.54567 9.58305 6.52692 9.54243 6.48941C9.33812 6.30151 9.14631 6.10072 8.94943 5.90423C8.68692 5.64328 8.54003 5.64093 8.28377 5.89681C7.76929 6.4105 7.25559 6.92381 6.74268 7.43907C6.49423 7.68791 6.49384 7.8387 6.74541 8.08832C6.97667 8.31802 7.21301 8.54147 7.44896 8.7696C6.94933 9.53527 6.61924 10.3318 6.41102 11.183C6.02897 11.183 5.66606 11.1818 5.30355 11.183C4.96564 11.1842 4.85196 11.2955 4.85196 11.6283C4.85079 12.4694 4.85079 13.3097 4.85157 14.1503C4.85196 14.4879 4.96447 14.6019 5.2969 14.6027C5.66645 14.6043 6.03561 14.6031 6.40047 14.6031C6.49306 14.8984 6.56728 15.1805 6.67119 15.4504C6.72823 15.5985 6.71104 15.6864 6.59697 15.7989C5.61958 16.7661 5.16955 17.2282 4.19763 18.2005C3.93629 18.4627 3.93434 18.6092 4.1906 18.8662C4.47225 19.1482 4.75391 19.4307 5.03674 19.7123C5.29808 19.9725 5.44379 19.9737 5.702 19.7162C6.22156 19.1982 6.22 19.1912 6.73877 18.6728C6.7919 18.6197 6.84854 18.5701 6.90909 18.5131C7.38998 18.9939 7.85172 19.4584 8.31658 19.9205C8.52792 20.1307 8.69473 20.1307 8.90568 19.9245C9.10451 19.7303 9.30491 19.5373 9.49321 19.3334C9.59204 19.2256 9.65923 19.2209 9.79595 19.2912C10.3011 19.5494 10.8155 19.7912 11.3359 20.019C11.5535 20.1143 11.7937 20.1588 12.0324 20.2295C12.0324 20.6093 12.0312 20.9792 12.0328 21.3491C12.034 21.6683 12.1504 21.7843 12.473 21.7847C13.3207 21.7859 14.168 21.7859 15.0161 21.7843C15.3345 21.7843 15.4505 21.6659 15.4517 21.3441C15.4529 20.9741 15.4521 20.6046 15.4521 20.2229C16.2806 20.0209 17.033 19.7104 17.7354 19.2756C17.7835 19.2455 17.8999 19.2592 17.9432 19.2982C18.1538 19.4897 18.3503 19.6975 18.5522 19.8979C18.7937 20.137 18.9484 20.1389 19.187 19.9006C19.7066 19.3826 20.2258 18.8639 20.7434 18.3443C20.9895 18.097 20.9879 17.9458 20.7363 17.6939C20.5062 17.4638 20.2746 17.236 20.041 17.0048C20.5312 16.2516 20.8621 15.4621 21.0703 14.6027C21.4524 14.6027 21.8286 14.6039 22.2048 14.6023C22.5114 14.6008 22.6314 14.4812 22.6317 14.1746C22.6333 13.3198 22.6333 12.4647 22.6317 11.61C22.6314 11.3033 22.5114 11.1846 22.204 11.1834C21.8278 11.1811 21.4516 11.183 21.0856 11.183C20.9852 10.8713 20.9004 10.5779 20.7945 10.2923C20.7496 10.1708 20.7738 10.1017 20.861 10.0161C21.3582 9.52628 21.8497 9.03016 22.3442 8.53756C22.3817 8.50006 22.427 8.4692 22.4813 8.42467C22.7927 8.74031 23.0915 9.0454 23.3919 9.34854C23.5005 9.45831 23.6427 9.52941 23.7752 9.43995C23.874 9.37354 23.9888 9.23955 23.99 9.13447C24.0041 7.99339 24.0006 6.8531 23.9959 5.7132ZM7.31028 17.1243C6.65049 17.7911 5.55004 18.9146 5.41644 19.0568C5.22229 18.865 5.04885 18.6931 4.88087 18.5263C5.76802 17.6392 6.14148 17.2579 7.04816 16.352C7.16067 16.5403 7.28685 16.7341 7.38998 16.9395C7.4099 16.9786 7.35599 17.0782 7.31028 17.1243ZM20.9684 11.8658H21.936V13.9179H20.9453C20.5789 13.9179 20.4988 13.9769 20.423 14.3359C20.2371 15.2105 19.8871 16.0133 19.3863 16.752C19.1968 17.0313 19.2093 17.1368 19.4554 17.3814C19.6628 17.5864 19.8738 17.788 20.0629 17.9712C19.6472 18.3873 19.2476 18.7873 18.8241 19.2107C18.6425 19.0264 18.4311 18.8088 18.2159 18.5935C17.9858 18.3634 17.8749 18.3521 17.6026 18.5369C16.8639 19.0381 16.0623 19.39 15.1868 19.5744C14.8259 19.651 14.7665 19.7307 14.7665 20.0952C14.7661 20.4217 14.7665 20.7483 14.7665 21.0897H12.7145C12.7145 20.7323 12.7156 20.385 12.7145 20.0381C12.7133 19.751 12.6418 19.6549 12.3617 19.5944C11.4538 19.3975 10.614 19.0447 9.8483 18.5166C9.61431 18.3556 9.48813 18.3728 9.2846 18.5748C9.06818 18.7904 8.85411 19.01 8.6627 19.2041C8.25291 18.7955 7.8525 18.3955 7.42318 17.9681C7.59663 17.7997 7.8107 17.5946 8.02165 17.3857C8.27439 17.1345 8.28533 17.0329 8.08689 16.7387C7.58999 16.0063 7.24348 15.2094 7.05988 14.3421C6.98175 13.9749 6.90401 13.9191 6.51962 13.9187C6.21375 13.9183 5.90709 13.9171 5.60083 13.916C5.58754 13.916 5.57465 13.9089 5.54731 13.9015V11.8666C5.89225 11.8666 6.23172 11.867 6.57158 11.8666C6.888 11.8655 6.97824 11.7998 7.04387 11.4951C7.23802 10.5935 7.59155 9.76223 8.11501 9.00243C8.27674 8.76765 8.26111 8.6403 8.06032 8.43834C7.84117 8.21684 7.6185 7.99886 7.41107 7.79299C7.82437 7.37969 8.22049 6.9828 8.64082 6.56246C8.83341 6.75583 9.04631 6.97186 9.26077 7.18632C9.49555 7.41993 9.60337 7.43399 9.8733 7.25039C10.6179 6.74411 11.4273 6.39332 12.309 6.2062C12.652 6.13354 12.7145 6.04799 12.7145 5.69406C12.7148 5.36748 12.7145 5.04051 12.7145 4.69909H14.7665C14.7665 5.0409 14.7661 5.38077 14.7665 5.71984C14.7669 6.03939 14.831 6.12768 15.1353 6.19331C16.0361 6.38863 16.8682 6.74138 17.628 7.26484C17.8651 7.42774 17.9917 7.41485 18.1921 7.21328C18.412 6.99178 18.6249 6.76404 18.8257 6.55426C19.2492 6.97577 19.646 7.3711 20.0308 7.75393C19.6933 8.08793 19.3433 8.43443 18.989 8.78484L18.9886 8.78523L18.1335 9.64465C18.1358 9.64855 18.1386 9.65207 18.1413 9.65598C17.9803 9.81145 17.8198 9.96615 17.6944 10.0869L17.694 10.0865C17.3205 9.73918 16.9545 9.32471 16.5174 9.00555C13.5938 6.87146 9.38226 8.73991 8.99006 12.3331C8.70762 14.9172 10.4421 17.2001 13.0094 17.6263C15.6427 18.0626 18.2116 16.1098 18.4874 13.455C18.5198 13.1374 18.5038 12.8155 18.5136 12.496C18.5147 12.4424 18.5151 12.3725 18.5468 12.3385C18.6913 12.1788 18.8425 12.0256 19.0034 11.8608L19.073 11.7901L20.0937 10.7635L20.0996 10.7572C20.134 10.7189 20.1703 10.6783 20.2097 10.6357C20.291 10.9447 20.3598 11.1853 20.4172 11.4287C20.5074 11.8112 20.5715 11.8658 20.9684 11.8658ZM17.1545 10.6424C16.5053 11.2904 15.8584 11.9354 15.1814 12.6108C15.1427 12.6503 15.1032 12.6889 15.0638 12.7284C14.9501 12.6069 14.8228 12.4647 14.688 12.3292C14.0348 11.6733 13.3801 11.0193 12.7258 10.365C12.4387 10.0779 12.3078 10.079 12.0148 10.3712C11.2851 11.101 10.5554 11.8311 9.82486 12.5608C9.77681 12.6089 9.72447 12.6534 9.66314 12.7089C9.64477 11.442 10.5226 9.58761 12.5434 8.96688C14.5067 8.36412 16.3713 9.34151 17.149 10.6334C17.151 10.6369 17.1526 10.6396 17.1545 10.6424ZM17.1791 13.6988C17.2307 13.6472 17.2815 13.5952 17.3315 13.5429L17.3354 13.539C17.4854 13.3835 17.6334 13.2261 17.7831 13.0698C17.787 13.0714 17.7917 13.0737 17.7956 13.0757C17.8131 13.0843 17.8303 13.0917 17.8479 13.0995C17.8135 13.33 17.8006 13.5671 17.7417 13.7921C17.3088 15.4477 16.2693 16.5356 14.5958 16.8927C12.9031 17.254 11.5054 16.6735 10.4296 15.3156C10.3186 15.1762 10.3085 15.0871 10.4503 14.9496C11.0925 14.325 11.721 13.6866 12.375 13.0323C13.1547 13.8132 13.9137 14.5738 14.6724 15.3344C14.7173 15.3793 14.7626 15.425 14.8083 15.4695C15.0298 15.6848 15.1908 15.686 15.4122 15.4656C15.7459 15.1332 16.0791 14.8004 16.4119 14.4675L16.4912 14.3875C16.7213 14.1582 16.9502 13.9288 17.1791 13.6988ZM23.304 8.31646C23.1122 8.11488 22.9638 7.95394 22.8095 7.79846C22.5302 7.51642 22.3923 7.51642 22.1145 7.79456C20.009 9.89974 17.9034 12.0053 15.799 14.1113C15.5736 14.3367 15.3533 14.5668 15.1212 14.8039C15.0431 14.7297 14.9861 14.6781 14.9318 14.6242C14.1911 13.8835 13.4512 13.1433 12.7109 12.4026C12.4437 12.1358 12.3012 12.1377 12.0304 12.4085C11.4007 13.0382 10.771 13.6679 10.1413 14.2972C10.0866 14.3519 10.0296 14.4039 9.94362 14.4863C9.86588 14.2214 9.79048 13.9878 9.73306 13.7499C9.72056 13.6964 9.75416 13.6089 9.79595 13.5667C10.6394 12.7171 11.4867 11.8721 12.3332 11.0267C12.3422 11.0178 12.3582 11.0166 12.3863 11.0057C12.4371 11.0537 12.4941 11.1045 12.5484 11.1588C13.2891 11.8987 14.0294 12.6397 14.77 13.3796C15.0376 13.648 15.1806 13.648 15.4505 13.3773C17.4956 11.3326 19.5402 9.28721 21.5852 7.24219C21.845 6.98202 21.8465 6.83357 21.5875 6.57692C21.4266 6.41714 21.2586 6.26362 21.0547 6.06947H23.304V8.31646Z" fill="#27282D"/>
</g>
<defs>
<filter id="filter0_d_384_454" x="-2" y="0" width="33" height="33" filterUnits="userSpaceOnUse" color-interpolation-filters="sRGB">
<feFlood flood-opacity="0" result="BackgroundImageFix"/>
<feColorMatrix in="SourceAlpha" type="matrix" values="0 0 0 0 0 0 0 0 0 0 0 0 0 0 0 0 0 0 127 0" result="hardAlpha"/>
<feOffset dy="4"/>
<feGaussianBlur stdDeviation="2"/>
<feComposite in2="hardAlpha" operator="out"/>
<feColorMatrix type="matrix" values="0 0 0 0 0 0 0 0 0 0 0 0 0 0 0 0 0 0 0.25 0"/>
<feBlend mode="normal" in2="BackgroundImageFix" result="effect1_dropShadow_384_454"/>
<feBlend mode="normal" in="SourceGraphic" in2="effect1_dropShadow_384_454" result="shape"/>
</filter>
</defs>
</svg>
