<svg width="25" height="25" viewBox="0 0 25 25" fill="none" xmlns="http://www.w3.org/2000/svg">
<path d="M10.6008 5.84815C10.6008 5.54382 10.6008 5.54382 10.9089 5.54382C11.2318 5.54382 11.2318 5.54382 11.2318 5.87413C11.2318 6.17847 11.2318 6.17847 10.9237 6.17847C10.6008 6.17847 10.6008 6.17847 10.6008 5.84815Z" fill="#27282D"/>
<path d="M11.0389 17.3163C11.3246 17.0305 11.3246 17.0305 11.6141 17.3163C11.6661 17.3645 11.7292 17.4016 11.7886 17.4462C11.7366 17.5055 11.718 17.5315 11.6958 17.5538C11.5399 17.7134 11.3766 17.8655 11.2244 18.0288C11.1576 18.0994 11.1205 18.0919 11.0537 18.0288C10.6789 17.68 10.6752 17.68 11.0389 17.3163Z" fill="#27282D"/>
<path d="M10.9534 8.54259C11.1501 8.34589 11.3468 8.1529 11.5398 7.9562C11.6103 7.88197 11.6511 7.8597 11.7402 7.94506C12.1002 8.29393 12.1039 8.29022 11.7476 8.64651C11.5806 8.81352 11.4136 8.98053 11.2466 9.14754C11.2132 9.18095 11.1798 9.20693 11.1204 9.25889C11.061 9.18837 11.0128 9.11785 10.9534 9.05847C10.6936 8.79868 10.6936 8.80239 10.9534 8.54259Z" fill="#27282D"/>
<path d="M11.05 13.59C10.6789 13.2449 10.6789 13.2449 11.0314 12.8923C11.2022 12.7216 11.3766 12.5509 11.5473 12.3764C11.6178 12.3022 11.6624 12.2911 11.7329 12.3727C11.8183 12.4729 11.9185 12.5583 12.0112 12.6548C12.0335 12.677 12.0558 12.703 12.0781 12.7327C12.0558 12.7624 12.0372 12.7884 12.0112 12.8106C11.7477 13.0779 11.4805 13.3377 11.217 13.6086C11.1576 13.668 11.1131 13.6828 11.0611 13.6086C11.0611 13.5975 11.0574 13.5937 11.05 13.59Z" fill="#27282D"/>
<path d="M13.3176 9.24778C13.3251 9.37025 13.1358 9.47046 13.0282 9.57438C12.4418 10.1645 11.8554 10.7472 11.269 11.3336C11.2281 11.3744 11.1985 11.4301 11.1057 11.4486C11.05 11.3855 10.9906 11.3076 10.9201 11.2371C10.6974 11.0107 10.6937 11.0107 10.9164 10.788C11.5399 10.1645 12.1671 9.54098 12.7869 8.91376C12.8797 8.81726 12.9391 8.7987 13.0319 8.91005C13.1246 9.03623 13.3102 9.13273 13.3176 9.24778Z" fill="#27282D"/>
<path d="M15.2624 8.93602C15.5704 9.25519 15.5742 9.25148 15.255 9.56695C14.4533 10.3686 13.6554 11.1665 12.8537 11.9682C12.8129 12.009 12.7684 12.0499 12.7016 12.1129C12.6422 12.0387 12.5939 11.9682 12.5308 11.9088C12.2748 11.649 12.2748 11.6527 12.5345 11.3929C13.3548 10.5727 14.175 9.75623 14.9878 8.93231C15.1028 8.81354 15.1585 8.82839 15.2624 8.93602Z" fill="#27282D"/>
<path d="M12.3044 16.0507C13.4029 14.9521 14.5089 13.8536 15.6001 12.7476C15.7337 12.614 15.8079 12.6214 15.9155 12.755C15.9749 12.8329 16.0528 12.896 16.1234 12.9665C16.1456 12.9888 16.1679 13.0148 16.1939 13.0445C16.1679 13.0779 16.1419 13.1076 16.1159 13.1373C14.9097 14.3435 13.6998 15.5534 12.4974 16.7596C12.438 16.8227 12.4009 16.8375 12.3266 16.767C11.9407 16.4144 11.9407 16.4181 12.3044 16.0507Z" fill="#27282D"/>
<path d="M12.0001 18.6152C11.9889 18.489 12.1894 18.3851 12.3007 18.2738C13.3993 17.1715 14.5015 16.0767 15.5964 14.9707C15.7374 14.8296 15.8154 14.8334 15.9267 14.9818C15.9861 15.0597 16.064 15.1228 16.1345 15.1934C16.1568 15.2156 16.1754 15.2416 16.1976 15.2713C16.1642 15.3084 16.1382 15.3381 16.1123 15.3641C14.9098 16.5666 13.7073 17.769 12.5085 18.9752C12.4232 19.0606 12.3786 19.0458 12.3081 18.9678C12.2005 18.8416 12.0075 18.7377 12.0001 18.6152Z" fill="#27282D"/>
<path d="M18.1349 8.90259C15.9601 11.0774 13.7852 13.2523 11.6103 15.4309C11.5658 15.4791 11.525 15.5311 11.4804 15.5905C11.4136 15.5311 11.3728 15.494 11.332 15.4531C11.2318 15.3492 11.0611 15.2527 11.0499 15.1377C11.0388 15.0189 11.2244 14.9261 11.3246 14.8222C13.4883 12.6548 15.6594 10.4911 17.8194 8.3199C17.9531 8.18629 18.0161 8.20114 18.1349 8.32733C18.4133 8.62424 18.4207 8.61681 18.1349 8.90259Z" fill="#27282D"/>
<path d="M5.53857 7.44404C5.53857 7.12857 5.53857 7.12857 5.85404 7.12857C6.16951 7.12857 6.16951 7.12857 6.16951 7.44404C6.16951 7.7595 6.16951 7.7595 5.85404 7.7595C5.53857 7.7595 5.53857 7.7595 5.53857 7.44404Z" fill="#27282D"/>
<path d="M5.53857 11.2333C5.53857 10.9253 5.53857 10.9253 5.84291 10.9253C6.16951 10.9253 6.16951 10.9253 6.16951 11.2519C6.16951 11.5599 6.16951 11.5599 5.86517 11.5599C5.53857 11.5599 5.53857 11.5599 5.53857 11.2333Z" fill="#27282D"/>
<path d="M5.53857 9.33682C5.53857 9.02878 5.53857 9.02878 5.84291 9.02878C6.17322 9.02878 6.17322 9.02878 6.17322 9.35167C6.17322 9.65971 6.17322 9.65971 5.86889 9.65971C5.53857 9.65971 5.53857 9.65971 5.53857 9.33682Z" fill="#27282D"/>
<path d="M5.53857 5.56239C5.53857 5.22836 5.53857 5.22836 5.87631 5.22836C6.16951 5.22836 6.16951 5.22836 6.16951 5.52898C6.16951 5.86301 6.16951 5.86301 5.83177 5.86301C5.53857 5.85929 5.53857 5.85929 5.53857 5.56239Z" fill="#27282D"/>
<path d="M5.53857 13.1558C5.53857 12.8218 5.53857 12.8218 5.88002 12.8218C6.17322 12.8218 6.17322 12.8218 6.17322 13.1224C6.17322 13.4527 6.17322 13.4527 5.83177 13.4527C5.53857 13.4565 5.53857 13.4565 5.53857 13.1558Z" fill="#27282D"/>
<path d="M21.5271 5.54382H12.3267C11.8627 5.54382 11.8702 5.54382 11.8627 6.01516C11.859 6.16362 11.911 6.18217 12.0409 6.18217C12.4528 6.17475 12.8648 6.17846 13.3287 6.17846C13.0578 6.44568 12.824 6.67207 12.5939 6.90218C12.271 7.22135 12.2784 7.21764 12.5976 7.54795C12.7089 7.66301 12.7609 7.63703 12.8574 7.53682C13.2731 7.11001 13.6924 6.69434 14.1155 6.27496C14.1601 6.23042 14.1935 6.17104 14.2751 6.17104C14.6797 6.17475 15.0879 6.17104 15.5593 6.17104C15.4665 6.24898 15.4182 6.2898 15.3737 6.33434C14.8689 6.83537 14.3679 7.34012 13.8632 7.84486C13.544 8.16404 13.5514 8.16033 13.8669 8.49064C13.9782 8.60569 14.0265 8.58342 14.1267 8.48322C14.8541 7.74837 15.5889 7.01723 16.3201 6.28609C16.3683 6.23784 16.4054 6.17104 16.4908 6.17104C16.8953 6.17475 17.3036 6.17104 17.7081 6.17104C17.7193 6.18959 17.7341 6.20815 17.7452 6.22671C17.6933 6.26382 17.6302 6.2898 17.5857 6.33434C17.0809 6.83537 16.5762 7.34012 16.0751 7.84486C15.756 8.16404 15.7634 8.15662 16.0677 8.47951C16.1865 8.6094 16.2459 8.57971 16.3535 8.47208C17.0772 7.74094 17.8046 7.01352 18.5358 6.2898C18.584 6.24155 18.6211 6.17475 18.7065 6.17475C19.111 6.17846 19.5193 6.17475 19.9684 6.17475C19.6083 6.53475 19.2743 6.86135 18.9477 7.19166C18.8364 7.303 18.636 7.40692 18.6471 7.53311C18.6545 7.65558 18.8512 7.75579 18.9477 7.87826C19.0294 7.97847 19.0813 7.9562 19.163 7.87455C19.6455 7.38465 20.1428 6.91331 20.6104 6.41228C20.7923 6.21929 20.9778 6.14135 21.2302 6.16733C21.3267 6.17846 21.3712 6.18588 21.3638 6.29722C21.3527 6.4531 21.349 6.61269 21.3638 6.77228C21.3787 6.93187 21.3193 7.03579 21.2079 7.14713C19.7048 8.64281 18.2017 10.1459 16.7024 11.649C16.6059 11.7455 16.4463 11.842 16.4314 11.9496C16.4166 12.0758 16.6133 12.15 16.6949 12.2651C16.8026 12.421 16.8805 12.3727 16.9918 12.2577C18.3873 10.8548 19.7865 9.45931 21.1857 8.05641C21.2339 8.00816 21.2673 7.94507 21.3082 7.88569C21.3267 7.89682 21.3453 7.91167 21.3638 7.9228C21.3638 8.29023 21.3601 8.65394 21.3675 9.02136C21.3712 9.15126 21.3304 9.24033 21.2376 9.32941C19.7234 10.8362 18.2129 12.3505 16.7024 13.861C16.6059 13.9575 16.4463 14.0503 16.4314 14.1616C16.4166 14.2915 16.6133 14.362 16.6949 14.4771C16.8026 14.6329 16.8805 14.5847 16.9918 14.4696C18.3873 13.0667 19.7865 11.6713 21.1857 10.2721C21.2339 10.2238 21.271 10.1645 21.3156 10.1088C21.3304 10.1199 21.349 10.1311 21.3638 10.1422C21.3638 10.5096 21.3601 10.8733 21.3675 11.2408C21.3712 11.3707 21.3267 11.4597 21.2376 11.5488C19.6158 13.1632 18.0013 14.7814 16.3832 16.3996C16.0751 16.7076 16.0826 16.7002 16.3832 17.0194C16.5019 17.1455 16.5576 17.127 16.6689 17.0156C18.1721 15.5051 19.6789 14.002 21.1857 12.4952C21.2339 12.447 21.271 12.3839 21.3156 12.3282C21.3341 12.3393 21.349 12.3542 21.3675 12.3653C21.3675 12.7476 21.3638 13.1298 21.3675 13.5121C21.3675 13.5975 21.3453 13.6569 21.2822 13.7199C19.1815 15.8243 17.0846 17.9212 14.984 20.0218C14.9432 20.0627 14.9098 20.1072 14.8392 20.1072C14.4347 20.1035 14.0302 20.1072 13.6219 20.1072C13.6108 20.0886 13.5997 20.0701 13.5885 20.0515C13.6405 20.0144 13.6999 19.9847 13.7444 19.9402C14.3568 19.3315 14.9691 18.7192 15.5778 18.1105C15.8896 17.7987 15.8821 17.8062 15.5852 17.4907C15.4776 17.3756 15.4182 17.3608 15.2995 17.4833C14.4718 18.3258 13.6331 19.1571 12.798 19.9884C12.7498 20.0367 12.7126 20.1072 12.6273 20.1035C12.2227 20.0998 11.8145 20.1035 11.3765 20.1035C11.4137 20.059 11.4285 20.0404 11.4434 20.0256C11.5473 19.9142 11.7291 19.8066 11.7328 19.6952C11.7365 19.5616 11.5324 19.4726 11.4359 19.3538C11.3617 19.261 11.3097 19.2573 11.2207 19.3501C11.0091 19.5765 10.7827 19.7917 10.5675 20.0107C10.5118 20.0664 10.4561 20.1109 10.3671 20.1072C9.05323 20.1035 7.74312 20.1146 6.4293 20.0998C5.63878 20.0924 4.97445 19.4466 4.91135 18.6561C4.84455 17.8507 5.39383 17.1158 6.18064 16.9748C6.67796 16.8857 7.17899 16.9525 7.68003 16.9377C7.92869 16.9303 8.07343 17.0565 8.06972 17.2569C8.06601 17.4536 7.92498 17.5686 7.67261 17.5686C7.19755 17.5686 6.7225 17.5686 6.24744 17.5686C5.96538 17.5686 5.85775 17.68 5.85404 17.9657C5.85404 18.3406 5.85033 18.7192 5.85404 19.094C5.85775 19.3501 5.9728 19.4651 6.22889 19.4689C6.66312 19.4726 7.10106 19.4689 7.53529 19.4689C7.77281 19.4689 8.01034 19.4689 8.24044 19.4132C9.28705 19.1608 9.96623 18.2886 9.96623 17.1752C9.96623 13.2189 9.96623 9.2626 9.96623 5.30629C9.96623 5.23949 9.96623 5.17639 9.96252 5.10959C9.91798 4.08525 9.12375 3.19824 8.10684 3.04607C7.58353 2.96813 7.05281 3.01267 6.52579 3.01267C4.54022 3.01267 3.00371 4.54546 3 6.52733C3.00371 10.5133 3.00742 14.4956 3.00371 18.4779C3.00371 18.7043 3.01856 18.927 3.06309 19.146C3.40454 20.8532 4.80372 22 6.54435 22C11.5361 22 16.5279 22 21.5197 22C21.9131 22 21.9948 21.9146 21.9948 21.5287V6.02258C21.9985 5.62918 21.9131 5.54382 21.5271 5.54382ZM21.3675 19.9996C21.3675 20.0886 21.3378 20.1072 21.2562 20.1072C20.9296 20.1035 20.603 20.1072 20.2875 20.1072C20.6475 19.7509 21.0075 19.3946 21.3675 19.0383C21.3638 19.3427 21.3601 19.6693 21.3675 19.9996ZM21.3638 14.6107V15.8132C21.3638 15.8911 21.297 15.9208 21.2525 15.969C20.6253 16.6 19.998 17.2309 19.3634 17.8544C19.2558 17.9583 19.2595 18.0103 19.3634 18.1142C19.69 18.4297 19.6863 18.4371 20.0092 18.1105C20.4508 17.6688 20.8888 17.2272 21.3601 16.7521C21.3601 17.2049 21.3564 17.6095 21.3601 18.0177C21.3601 18.0882 21.3156 18.1216 21.2748 18.1625C20.655 18.7822 20.0352 19.402 19.4154 20.0218C19.3708 20.0664 19.33 20.1109 19.2521 20.1109C18.8512 20.1072 18.4541 20.1072 18.0125 20.1072C18.3354 19.7843 18.6248 19.4837 18.9292 19.1942C19.0368 19.094 19.0368 19.0383 18.9292 18.9344C18.5989 18.6189 18.6063 18.6115 18.2834 18.9381C17.9271 19.2907 17.5708 19.6433 17.2219 20.0033C17.1477 20.0812 17.0735 20.1109 16.9659 20.1109C16.591 20.1035 16.2162 20.1072 15.8673 20.1072C17.697 18.2775 19.5341 16.4404 21.3638 14.6107ZM3.63835 6.50506C3.64207 4.90546 4.90022 3.64731 6.49982 3.64731C7.01198 3.64731 7.53157 3.59164 8.04003 3.68071C8.78973 3.8069 9.31674 4.44525 9.33159 5.20608C9.3353 5.42134 9.33159 5.6366 9.33159 5.89269C8.81571 5.40279 8.24416 5.20608 7.58724 5.22464C7.36827 5.23206 7.15302 5.22835 6.93404 5.22464C6.83755 5.22093 6.80044 5.23949 6.79672 5.35083C6.7893 5.85928 6.78559 5.85928 7.28662 5.86299C7.51673 5.86299 7.75054 5.84815 7.97694 5.88155C8.78973 6.00774 9.32787 6.6498 9.33901 7.47373C9.33901 7.56651 9.33901 7.65558 9.33901 7.78548C9.09777 7.57022 8.86024 7.40321 8.58931 7.29187C8.15508 7.11001 7.7023 7.12857 7.2458 7.12857C6.80786 7.13228 6.81528 7.12857 6.80415 7.5628C6.80044 7.72239 6.83384 7.77435 7.00456 7.76692C7.32003 7.75208 7.6392 7.73723 7.95096 7.77806C8.76746 7.87826 9.33159 8.53889 9.33901 9.36652C9.33901 9.46302 9.33901 9.55951 9.33901 9.69312C9.0087 9.38137 8.66354 9.18095 8.259 9.09188C7.8025 8.98796 7.33858 9.04734 6.87837 9.0325C6.83013 9.0325 6.80415 9.04734 6.80786 9.0993C6.80786 9.11044 6.80786 9.12528 6.80786 9.14013C6.77074 9.66714 6.77074 9.66343 7.29034 9.66714C7.51302 9.66714 7.74312 9.6523 7.96209 9.68199C8.7823 9.80075 9.33159 10.4465 9.33901 11.2779C9.33901 11.3669 9.33901 11.4597 9.33901 11.5822C9.09035 11.3669 8.84911 11.1962 8.56704 11.0812C8.13653 10.9067 7.69116 10.9253 7.24209 10.9253C6.80415 10.9253 6.81528 10.9253 6.80044 11.3595C6.79672 11.5228 6.83755 11.5674 7.00085 11.5636C7.33116 11.5562 7.66147 11.5265 7.98807 11.5822C8.79344 11.7195 9.32787 12.3505 9.3353 13.167C9.3353 13.2597 9.3353 13.3525 9.3353 13.4416C9.27963 13.475 9.26107 13.423 9.23509 13.4008C8.80457 13.0148 8.29611 12.8292 7.72085 12.8255C7.45735 12.8255 7.19384 12.8292 6.93033 12.8218C6.82642 12.8181 6.80044 12.8515 6.80044 12.9517C6.7893 13.4564 6.78559 13.4527 7.28662 13.4564C7.54271 13.4602 7.79879 13.4379 8.05488 13.4861C8.77117 13.6272 9.30561 14.2433 9.32787 14.9707C9.3353 15.2008 9.32787 15.4272 9.32787 15.6907C9.00127 15.3938 8.65983 15.1859 8.25529 15.0969C8.15879 15.0746 8.0623 15.0486 7.9658 15.0449C7.36456 15.0301 6.76332 15.0004 6.16579 15.0523C5.12661 15.1451 4.29527 15.635 3.66433 16.4701C3.60495 16.4367 3.63464 16.3773 3.63464 16.3327C3.63835 13.0593 3.63464 9.78219 3.63835 6.50506ZM21.3675 20.9571C21.3527 21.3691 21.3638 21.3691 20.9444 21.3691H13.7444C11.3394 21.3691 8.93076 21.3691 6.52579 21.3691C5.13032 21.3691 3.99836 20.4598 3.69774 19.1051C3.31918 17.409 4.64042 15.7092 6.37734 15.6795C6.93776 15.6684 7.50188 15.6165 8.05488 15.713C8.8454 15.8466 9.39468 16.5851 9.32787 17.3905C9.26478 18.181 8.60416 18.8157 7.81364 18.8379C7.41281 18.8491 7.00827 18.8379 6.60744 18.8416C6.51837 18.8416 6.48497 18.8231 6.48126 18.7229C6.45899 18.207 6.45528 18.207 6.97487 18.207C7.23838 18.207 7.50188 18.2107 7.76539 18.207C8.28869 18.1959 8.70065 17.769 8.69694 17.2532C8.69323 16.7447 8.28498 16.3142 7.7691 16.3142C7.21611 16.3142 6.66312 16.2659 6.11012 16.3476C5.0561 16.5035 4.25815 17.4536 4.26557 18.5373C4.26929 19.6136 5.06723 20.5451 6.11383 20.7084C6.28456 20.7344 6.45528 20.7418 6.626 20.7418C11.4656 20.7418 16.3015 20.7418 21.1411 20.7381C21.3341 20.7307 21.375 20.7827 21.3675 20.9571Z" fill="#27282D"/>
<path d="M5.53857 7.44404C5.53857 7.12857 5.53857 7.12857 5.85404 7.12857C6.16951 7.12857 6.16951 7.12857 6.16951 7.44404C6.16951 7.7595 6.16951 7.7595 5.85404 7.7595C5.53857 7.7595 5.53857 7.7595 5.53857 7.44404Z" fill="#27282D"/>
<path d="M5.53857 11.2333C5.53857 10.9253 5.53857 10.9253 5.84291 10.9253C6.16951 10.9253 6.16951 10.9253 6.16951 11.2519C6.16951 11.5599 6.16951 11.5599 5.86517 11.5599C5.53857 11.5599 5.53857 11.5599 5.53857 11.2333Z" fill="#27282D"/>
<path d="M5.53857 9.33682C5.53857 9.02878 5.53857 9.02878 5.84291 9.02878C6.17322 9.02878 6.17322 9.02878 6.17322 9.35167C6.17322 9.65971 6.17322 9.65971 5.86889 9.65971C5.53857 9.65971 5.53857 9.65971 5.53857 9.33682Z" fill="#27282D"/>
<path d="M5.53857 5.56239C5.53857 5.22836 5.53857 5.22836 5.87631 5.22836C6.16951 5.22836 6.16951 5.22836 6.16951 5.52898C6.16951 5.86301 6.16951 5.86301 5.83177 5.86301C5.53857 5.85929 5.53857 5.85929 5.53857 5.56239Z" fill="#27282D"/>
<path d="M5.53857 13.1558C5.53857 12.8218 5.53857 12.8218 5.88002 12.8218C6.17322 12.8218 6.17322 12.8218 6.17322 13.1224C6.17322 13.4527 6.17322 13.4527 5.83177 13.4527C5.53857 13.4565 5.53857 13.4565 5.53857 13.1558Z" fill="#27282D"/>
<path d="M21.5271 5.54382H12.3266C11.8627 5.54382 11.8701 5.54382 11.8627 6.01516C11.859 6.16362 11.9109 6.18217 12.0408 6.18217C12.412 6.17475 12.7831 6.17846 13.1914 6.17846C13.2433 6.17846 13.2656 6.24155 13.2322 6.27496C13.0021 6.50135 12.7979 6.70176 12.5938 6.90218C12.2709 7.22135 12.2784 7.21764 12.5975 7.54795C12.7089 7.66301 12.7608 7.63703 12.8573 7.53682C13.273 7.11001 13.6924 6.69434 14.1155 6.27496C14.16 6.23042 14.1934 6.17104 14.2751 6.17104C14.6351 6.17475 14.9988 6.17475 15.4033 6.17104C15.4553 6.17104 15.4813 6.23784 15.4404 6.27124C15.4145 6.29351 15.3922 6.31207 15.3736 6.33434C14.8689 6.83537 14.3679 7.34012 13.8631 7.84486C13.5439 8.16404 13.5514 8.16033 13.8668 8.49064C13.9782 8.60569 14.0264 8.58342 14.1266 8.48322C14.854 7.74837 15.5889 7.01723 16.32 6.28609C16.3683 6.23784 16.4054 6.17104 16.4908 6.17104C16.8396 6.17104 17.1885 6.17104 17.5374 6.17104C17.567 6.24898 17.567 6.24898 17.5967 6.32692C17.593 6.33063 17.5893 6.33434 17.5893 6.33434C17.0846 6.83537 16.5798 7.34012 16.0788 7.84486C15.7596 8.16404 15.767 8.15662 16.0714 8.47951C16.1901 8.6094 16.2495 8.57971 16.3571 8.47208C17.0809 7.74094 17.8083 7.01352 18.5394 6.2898C18.5877 6.24155 18.6248 6.17475 18.7101 6.17475C19.0739 6.17846 19.4376 6.17846 19.8347 6.17475C19.8867 6.17475 19.9089 6.23784 19.8755 6.27124C19.5526 6.59413 19.252 6.89104 18.9551 7.19166C18.8438 7.303 18.6433 7.40692 18.6545 7.53311C18.6619 7.65558 18.8586 7.75579 18.9551 7.87826C19.0367 7.97847 19.0887 7.9562 19.1704 7.87455C19.6528 7.38465 20.1502 6.91331 20.6178 6.41228C20.7996 6.21929 20.9852 6.14135 21.2376 6.16733C21.3341 6.17846 21.3786 6.18588 21.3712 6.29722C21.3601 6.4531 21.3563 6.61269 21.3712 6.77228C21.386 6.93187 21.3267 7.03579 21.2153 7.14713C19.7122 8.64281 18.2091 10.1459 16.7097 11.649C16.6132 11.7455 16.4536 11.842 16.4388 11.9496C16.4239 12.0758 16.6207 12.15 16.7023 12.2651C16.8099 12.421 16.8879 12.3727 16.9992 12.2577C18.3947 10.8548 19.7939 9.45931 21.1931 8.05641C21.2005 8.04899 21.2042 8.04156 21.2116 8.03785C21.2895 8.06754 21.2933 8.06754 21.3712 8.10095C21.3712 8.40899 21.3675 8.71703 21.3749 9.02508C21.3786 9.15497 21.3378 9.24405 21.245 9.33312C19.7308 10.8399 18.2202 12.3542 16.7097 13.8647C16.6132 13.9612 16.4536 14.054 16.4388 14.1653C16.4239 14.2952 16.6207 14.3657 16.7023 14.4808C16.8099 14.6367 16.8879 14.5884 16.9992 14.4734C18.3947 13.0705 19.7939 11.675 21.1931 10.2758C21.2042 10.2647 21.2116 10.2572 21.219 10.2461C21.2933 10.2758 21.297 10.2758 21.3675 10.3055C21.3675 10.6173 21.3638 10.929 21.3712 11.2408C21.3749 11.3707 21.3304 11.4597 21.2413 11.5488C19.6194 13.1632 18.005 14.7814 16.3868 16.3996C16.0788 16.7076 16.0862 16.7002 16.3868 17.0194C16.5056 17.1455 16.5613 17.127 16.6726 17.0156C18.1757 15.5051 19.6825 14.002 21.1893 12.4952C21.2005 12.4841 21.2079 12.4766 21.2153 12.4655C21.2895 12.4952 21.2933 12.4952 21.3675 12.5249C21.3675 12.8552 21.3675 13.1855 21.3675 13.5121C21.3675 13.5975 21.3452 13.6569 21.2821 13.7199C19.1815 15.8243 17.0846 17.9212 14.9839 20.0218C14.9431 20.0627 14.9097 20.1072 14.8392 20.1072C14.4903 20.1035 14.1415 20.1035 13.7963 20.1072C13.7666 20.0293 13.7666 20.0293 13.7369 19.9513C13.7406 19.9476 13.7443 19.9439 13.7481 19.9402C14.3604 19.3315 14.9728 18.7192 15.5815 18.1105C15.8932 17.7987 15.8858 17.8062 15.5889 17.4907C15.4813 17.3756 15.4219 17.3608 15.3031 17.4833C14.4755 18.3258 13.6367 19.1571 12.8017 19.9884C12.7534 20.0367 12.7163 20.1072 12.6309 20.1035C12.2264 20.0998 11.8181 20.1035 11.3802 20.1035C11.4173 20.059 11.4322 20.0404 11.447 20.0256C11.5509 19.9142 11.7328 19.8066 11.7365 19.6952C11.7402 19.5616 11.5361 19.4726 11.4396 19.3538C11.3654 19.261 11.3134 19.2573 11.2243 19.3501C11.0128 19.5765 10.7864 19.7917 10.5711 20.0107C10.5155 20.0664 10.4598 20.1109 10.3707 20.1072C9.05689 20.1035 7.74678 20.1146 6.43296 20.0998C5.64244 20.0924 4.97811 19.4466 4.91501 18.6561C4.84821 17.8507 5.39749 17.1158 6.1843 16.9748C6.68162 16.8857 7.18266 16.9525 7.68369 16.9377C7.93235 16.9303 8.07709 17.0565 8.07338 17.2569C8.06967 17.4536 7.92864 17.5686 7.67627 17.5686C7.20121 17.5686 6.72616 17.5686 6.2511 17.5686C5.96904 17.5686 5.86141 17.68 5.8577 17.9657C5.8577 18.3406 5.85399 18.7192 5.8577 19.094C5.86141 19.3501 5.97646 19.4651 6.23255 19.4689C6.66678 19.4726 7.10472 19.4689 7.53895 19.4689C7.77647 19.4689 8.014 19.4689 8.24411 19.4132C9.29071 19.1608 9.96989 18.2886 9.96989 17.1752C9.96989 13.2189 9.96989 9.2626 9.96989 5.30629C9.96989 5.23949 9.96989 5.17639 9.96618 5.10959C9.92164 4.08525 9.12741 3.19824 8.1105 3.04607C7.58719 2.96813 7.05647 3.01267 6.52946 3.01267C4.54388 3.01267 3.00737 4.54546 3.00366 6.52733C3.00366 10.5133 3.00737 14.4956 3.00366 18.4779C3.00366 18.7043 3.01851 18.927 3.06304 19.146C3.40449 20.8532 4.80367 22 6.5443 22C11.5361 22 16.5279 22 21.5196 22C21.9131 22 21.9947 21.9146 21.9947 21.5287V6.02258C21.9984 5.62918 21.9131 5.54382 21.5271 5.54382ZM21.3675 19.9996C21.3675 20.0886 21.3378 20.1072 21.2561 20.1072C20.9778 20.1035 20.6994 20.1035 20.4248 20.1072C20.3728 20.1072 20.3506 20.0441 20.384 20.0107C20.6809 19.7175 20.9741 19.4243 21.2673 19.1348C21.3044 19.0977 21.3638 19.1237 21.3638 19.1757C21.3638 19.4392 21.3601 19.7175 21.3675 19.9996ZM21.2673 14.7072C21.3044 14.6701 21.3638 14.696 21.3638 14.748V15.8132C21.3638 15.8911 21.297 15.9208 21.2524 15.969C20.6252 16.6 19.998 17.2309 19.3633 17.8544C19.2557 17.9583 19.2594 18.0103 19.3633 18.1142C19.6899 18.4297 19.6862 18.4371 20.0091 18.1105C20.4174 17.6985 20.8256 17.2866 21.2636 16.8486C21.3007 16.8115 21.3601 16.8375 21.3601 16.8895C21.3601 17.2866 21.3601 17.6503 21.3601 18.014C21.3601 18.0845 21.3155 18.1179 21.2747 18.1587C20.6549 18.7785 20.0351 19.3983 19.4153 20.0181C19.3708 20.0627 19.3299 20.1072 19.252 20.1072C18.8957 20.1035 18.5357 20.1035 18.1497 20.1035C18.0978 20.1035 18.0755 20.0441 18.1089 20.007C18.3947 19.7212 18.6545 19.4503 18.9291 19.1905C19.0367 19.0903 19.0367 19.0346 18.9291 18.9307C18.5988 18.6152 18.6062 18.6078 18.2833 18.9344C17.9271 19.287 17.5708 19.6396 17.2219 19.9996C17.1477 20.0775 17.0734 20.1072 16.9658 20.1072C16.6392 20.1035 16.3163 20.1035 16.0046 20.1035C15.9526 20.1035 15.9303 20.0441 15.9637 20.007C17.7303 18.2441 19.5007 16.4738 21.2673 14.7072ZM3.63831 6.50506C3.64202 4.90546 4.90017 3.64731 6.49977 3.64731C7.01193 3.64731 7.53152 3.59164 8.03998 3.68071C8.78968 3.8069 9.31669 4.44525 9.33154 5.20608C9.33525 5.38423 9.33525 5.56237 9.33154 5.76279C9.33154 5.81104 9.27586 5.83702 9.23875 5.80732C8.74885 5.38052 8.20328 5.20608 7.58719 5.22464C7.36822 5.23206 7.15297 5.22835 6.934 5.22464C6.8375 5.22093 6.80039 5.23949 6.79667 5.35083C6.78925 5.85928 6.78554 5.85928 7.28657 5.86299C7.51668 5.86299 7.75049 5.84815 7.97689 5.88155C8.78968 6.00774 9.32782 6.6498 9.33896 7.47373C9.33896 7.53311 9.33896 7.59249 9.33896 7.65929C9.33896 7.70754 9.28329 7.73352 9.24617 7.70383C9.03463 7.52569 8.82679 7.38837 8.58926 7.28816C8.15503 7.1063 7.70225 7.12486 7.24575 7.12486C6.80781 7.12857 6.81523 7.12486 6.8041 7.55909C6.80039 7.71868 6.83379 7.77064 7.00451 7.76321C7.31998 7.74837 7.63915 7.73352 7.95091 7.77435C8.76741 7.87455 9.33154 8.53518 9.33896 9.36281C9.33896 9.4259 9.33896 9.489 9.33896 9.55951C9.33896 9.60776 9.28329 9.63374 9.24617 9.60405C8.94555 9.34054 8.62638 9.16982 8.25895 9.08446C7.80245 8.98054 7.33853 9.03992 6.87832 9.02508C6.83008 9.02508 6.8041 9.03992 6.80781 9.09188C6.80781 9.10301 6.80781 9.11786 6.80781 9.13271C6.7707 9.65972 6.7707 9.65601 7.29029 9.65972C7.51297 9.65972 7.74307 9.64487 7.96204 9.67456C8.78225 9.79333 9.33154 10.4391 9.33896 11.2705C9.33896 11.3298 9.33896 11.3855 9.33896 11.456C9.33896 11.5043 9.28329 11.5302 9.24617 11.5006C9.0272 11.3224 8.81194 11.1777 8.56699 11.0775C8.13648 10.903 7.69111 10.9216 7.24204 10.9216C6.8041 10.9216 6.81523 10.9216 6.80039 11.3558C6.79667 11.5191 6.8375 11.5636 7.0008 11.5599C7.33111 11.5525 7.66142 11.5228 7.98802 11.5785C8.79339 11.7158 9.32782 12.3467 9.33525 13.1632C9.33525 13.23 9.33525 13.2931 9.33525 13.3599C9.33525 13.4119 9.27586 13.4342 9.23875 13.4008C8.80823 13.0148 8.29978 12.8292 7.72452 12.8255C7.46101 12.8255 7.1975 12.8292 6.934 12.8218C6.83008 12.8181 6.8041 12.8515 6.8041 12.9517C6.79296 13.4564 6.78925 13.4527 7.29029 13.4564C7.54637 13.4602 7.80245 13.4379 8.05854 13.4861C8.77483 13.6272 9.30927 14.2433 9.33154 14.9707C9.33896 15.1637 9.33525 15.3529 9.33154 15.5682C9.33154 15.6165 9.27586 15.6424 9.23875 15.6127C8.94184 15.3567 8.62638 15.1822 8.25895 15.1006C8.16246 15.0783 8.06596 15.0523 7.96946 15.0486C7.36822 15.0338 6.76698 15.0041 6.16945 15.056C5.16739 15.1451 4.36202 15.6053 3.73851 16.381C3.70511 16.4255 3.63459 16.3958 3.63831 16.3402C3.63831 16.3365 3.63831 16.3365 3.63831 16.3327C3.63831 13.0593 3.63459 9.78219 3.63831 6.50506ZM21.3675 20.9571C21.3526 21.3691 21.3638 21.3691 20.9444 21.3691H13.7443C11.3394 21.3691 8.93071 21.3691 6.52575 21.3691C5.13027 21.3691 3.99831 20.4598 3.69769 19.1051C3.31913 17.409 4.64037 15.7092 6.37729 15.6795C6.93771 15.6684 7.50183 15.6165 8.05483 15.713C8.84535 15.8466 9.39463 16.5851 9.32782 17.3905C9.26473 18.181 8.60411 18.8157 7.81359 18.8379C7.41276 18.8491 7.00822 18.8379 6.6074 18.8416C6.51832 18.8416 6.48492 18.8231 6.48121 18.7229C6.45894 18.207 6.45523 18.207 6.97482 18.207C7.23833 18.207 7.50183 18.2107 7.76534 18.207C8.28864 18.1959 8.7006 17.769 8.69689 17.2532C8.69318 16.7447 8.28493 16.3142 7.76905 16.3142C7.21606 16.3142 6.66307 16.2659 6.11007 16.3476C5.05605 16.5035 4.2581 17.4536 4.26553 18.5373C4.26924 19.6136 5.06718 20.5451 6.11378 20.7084C6.28451 20.7344 6.45523 20.7418 6.62595 20.7418C11.4656 20.7418 16.3015 20.7418 21.1411 20.7381C21.3341 20.7307 21.3749 20.7827 21.3675 20.9571Z" fill="#27282D"/>
<path d="M18.1349 8.90259C15.9601 11.0774 13.7852 13.2523 11.6103 15.4309C11.5658 15.4791 11.525 15.5311 11.4804 15.5905C11.4136 15.5311 11.3728 15.494 11.332 15.4531C11.2318 15.3492 11.0611 15.2527 11.0499 15.1377C11.0388 15.0189 11.2244 14.9261 11.3246 14.8222C13.4883 12.6548 15.6594 10.4911 17.8194 8.3199C17.9531 8.18629 18.0161 8.20114 18.1349 8.32733C18.4133 8.62424 18.4207 8.61681 18.1349 8.90259Z" fill="#27282D"/>
<path d="M16.1938 13.0445C16.1679 13.0779 16.1419 13.1076 16.1159 13.1373C14.9097 14.3435 13.6998 15.5534 12.4973 16.7596C12.4379 16.8227 12.4008 16.8375 12.3266 16.767C11.9443 16.4144 11.9406 16.4181 12.3081 16.0507C13.4066 14.9521 14.5126 13.8536 15.6037 12.7476C15.7374 12.614 15.8116 12.6214 15.9192 12.755C15.9786 12.8329 16.0565 12.896 16.127 12.9665C16.1456 12.9925 16.1679 13.0148 16.1938 13.0445Z" fill="#27282D"/>
<path d="M16.1939 15.2676C16.1605 15.3047 16.1345 15.3344 16.1086 15.3604C14.9061 16.5629 13.7036 17.7653 12.5048 18.9715C12.4195 19.0569 12.3749 19.0421 12.3044 18.9641C12.2005 18.8454 12.0075 18.7414 12.0001 18.619C11.9889 18.4928 12.1894 18.3889 12.3007 18.2775C13.3993 17.1752 14.5015 16.0804 15.5964 14.9744C15.7374 14.8334 15.8154 14.8371 15.9267 14.9855C15.9861 15.0635 16.064 15.1266 16.1345 15.1971C16.1531 15.2119 16.1717 15.2379 16.1939 15.2676Z" fill="#27282D"/>
<path d="M15.255 9.56695C14.4533 10.3686 13.6554 11.1665 12.8537 11.9682C12.8129 12.009 12.7684 12.0498 12.7016 12.1129C12.6422 12.0387 12.5939 11.9682 12.5308 11.9088C12.2748 11.649 12.2748 11.6527 12.5345 11.3929C13.3548 10.5727 14.175 9.75623 14.9878 8.9323C15.0991 8.81725 15.1585 8.8321 15.2587 8.93601C15.5704 9.25519 15.5742 9.24777 15.255 9.56695Z" fill="#27282D"/>
<path d="M13.3176 9.24778C13.3251 9.37025 13.1358 9.47046 13.0282 9.57438C12.4418 10.1645 11.8554 10.7472 11.269 11.3336C11.2281 11.3744 11.1985 11.4301 11.1057 11.4486C11.05 11.3855 10.9906 11.3076 10.9201 11.2371C10.6974 11.0107 10.6937 11.0107 10.9164 10.788C11.5399 10.1645 12.1671 9.54098 12.7869 8.91376C12.8797 8.81726 12.9391 8.7987 13.0319 8.91005C13.1246 9.03623 13.3102 9.13273 13.3176 9.24778Z" fill="#27282D"/>
<path d="M11.7477 8.64651C11.5807 8.81352 11.4137 8.98053 11.2466 9.14754C11.2132 9.18095 11.1798 9.20693 11.1205 9.25889C11.0611 9.18837 11.0128 9.11785 10.9534 9.05847C10.6974 8.79868 10.6974 8.79868 10.9572 8.54259C11.1539 8.34589 11.3506 8.1529 11.5435 7.9562C11.6141 7.88197 11.6549 7.8597 11.744 7.94506C12.1003 8.29393 12.104 8.29022 11.7477 8.64651Z" fill="#27282D"/>
<path d="M12.0818 12.729C12.0595 12.7587 12.0409 12.7847 12.015 12.8069C11.7515 13.0742 11.4842 13.334 11.2207 13.6049C11.1613 13.6643 11.1168 13.6791 11.0648 13.6049C11.0611 13.6012 11.0574 13.5937 11.05 13.59C10.6789 13.2449 10.6789 13.2449 11.0314 12.8923C11.2022 12.7216 11.3766 12.5509 11.5473 12.3764C11.6178 12.3022 11.6624 12.2911 11.7329 12.3727C11.8183 12.4729 11.9185 12.5583 12.0112 12.6548C12.0335 12.6733 12.0558 12.6993 12.0818 12.729Z" fill="#27282D"/>
<path d="M11.7885 17.4462C11.7365 17.5055 11.718 17.5315 11.6957 17.5538C11.5398 17.7134 11.3765 17.8655 11.2243 18.0288C11.1575 18.0994 11.1204 18.0919 11.0536 18.0288C10.6751 17.68 10.6751 17.68 11.0388 17.3163C11.3246 17.0305 11.3246 17.0305 11.614 17.3163C11.666 17.3645 11.7291 17.4016 11.7885 17.4462Z" fill="#27282D"/>
<path d="M11.2355 5.87413C11.2355 6.17847 11.2355 6.17847 10.9275 6.17847C10.6046 6.17847 10.6046 6.17847 10.6046 5.84815C10.6046 5.54382 10.6046 5.54382 10.9127 5.54382C11.2355 5.54382 11.2355 5.54382 11.2355 5.87413Z" fill="#27282D"/>
<path d="M6.16951 7.44404C6.16951 7.7595 6.16951 7.7595 5.85404 7.7595C5.53857 7.7595 5.53857 7.7595 5.53857 7.44404C5.53857 7.12857 5.53857 7.12857 5.85404 7.12857C6.16951 7.12857 6.16951 7.12857 6.16951 7.44404Z" fill="#27282D"/>
<path d="M6.16951 11.2519C6.16951 11.5599 6.16951 11.5599 5.86517 11.5599C5.53857 11.5599 5.53857 11.5599 5.53857 11.2333C5.53857 10.9253 5.53857 10.9253 5.84291 10.9253C6.16951 10.9253 6.16951 10.9253 6.16951 11.2519Z" fill="#27282D"/>
<path d="M6.16956 9.34797C6.16956 9.65602 6.16955 9.65602 5.86522 9.65602C5.53491 9.65602 5.53491 9.65602 5.53491 9.33313C5.53491 9.02509 5.53491 9.02509 5.83924 9.02509C6.16956 9.02509 6.16956 9.02509 6.16956 9.34797Z" fill="#27282D"/>
<path d="M5.53857 5.56239C5.53857 5.22836 5.53857 5.22836 5.87631 5.22836C6.16951 5.22836 6.16951 5.22836 6.16951 5.52898C6.16951 5.86301 6.16951 5.86301 5.83177 5.86301C5.53857 5.85929 5.53857 5.85929 5.53857 5.56239Z" fill="#27282D"/>
<path d="M6.16956 13.1261C6.16956 13.4565 6.16955 13.4565 5.82811 13.4565C5.53491 13.4565 5.53491 13.4565 5.53491 13.1558C5.53491 12.8218 5.53491 12.8218 5.87636 12.8218C6.16956 12.8255 6.16956 12.8255 6.16956 13.1261Z" fill="#27282D"/>
<path d="M6.16951 5.52898C6.16951 5.86301 6.16951 5.86301 5.83177 5.86301C5.53857 5.86301 5.53857 5.86301 5.53857 5.56239C5.53857 5.22836 5.53857 5.22836 5.87631 5.22836C6.16951 5.22836 6.16951 5.22836 6.16951 5.52898Z" fill="#27282D"/>
<path d="M6.16951 7.44404C6.16951 7.7595 6.16951 7.7595 5.85404 7.7595C5.53857 7.7595 5.53857 7.7595 5.53857 7.44404C5.53857 7.12857 5.53857 7.12857 5.85404 7.12857C6.16951 7.12857 6.16951 7.12857 6.16951 7.44404Z" fill="#27282D"/>
<path d="M6.16956 9.34797C6.16956 9.65602 6.16955 9.65602 5.86522 9.65602C5.53491 9.65602 5.53491 9.65602 5.53491 9.33313C5.53491 9.02509 5.53491 9.02509 5.83924 9.02509C6.16956 9.02509 6.16956 9.02509 6.16956 9.34797Z" fill="#27282D"/>
<path d="M6.16951 11.2519C6.16951 11.5599 6.16951 11.5599 5.86517 11.5599C5.53857 11.5599 5.53857 11.5599 5.53857 11.2333C5.53857 10.9253 5.53857 10.9253 5.84291 10.9253C6.16951 10.9253 6.16951 10.9253 6.16951 11.2519Z" fill="#27282D"/>
<path d="M6.16956 13.1261C6.16956 13.4565 6.16955 13.4565 5.82811 13.4565C5.53491 13.4565 5.53491 13.4565 5.53491 13.1558C5.53491 12.8218 5.53491 12.8218 5.87636 12.8218C6.16956 12.8255 6.16956 12.8255 6.16956 13.1261Z" fill="#27282D"/>
</svg>
