<svg width="25" height="25" viewBox="0 0 25 25" fill="none" xmlns="http://www.w3.org/2000/svg">
<path d="M23.5849 13.165C23.5806 13.1523 23.5806 13.1312 23.5764 13.127C23.4497 12.9031 22.8244 11.7919 22.1611 10.6132C21.6076 9.62457 21.0204 8.58525 20.6655 7.95997C20.581 7.8121 20.4965 7.66423 20.4162 7.51636C20.3951 7.48256 20.3782 7.45299 20.3655 7.42764L20.3613 7.42341L20.3106 7.33892C20.2852 7.29244 20.2557 7.24597 20.2303 7.1995C19.9388 6.70096 19.398 6.54886 18.8868 6.82771C18.608 6.97558 18.3291 7.1319 18.0587 7.28399L17.8475 7.40229C17.3616 7.67268 17.1926 8.07404 17.349 8.60215C17.3659 8.6613 17.3785 8.73312 17.3405 8.7965C17.3067 8.85987 17.2391 8.88099 17.18 8.89789C16.9603 8.95282 16.7195 9.02041 16.4491 9.10491C16.242 9.16829 16.0392 9.15984 15.8196 9.07534C15.4816 8.94859 15.1351 8.82607 14.8014 8.70777C14.6535 8.65708 14.5098 8.60638 14.362 8.55568C13.9141 8.39936 13.5339 8.34021 13.1537 8.37823C12.803 8.41203 12.4481 8.44161 12.1017 8.47118C11.7595 8.50076 11.4003 8.53033 11.0539 8.56413C11.0117 8.56835 10.9694 8.57258 10.9229 8.5768C10.5554 8.6106 10.1751 8.6444 9.90896 8.85987C9.46535 9.22321 9.05131 9.07956 8.71755 8.96549C8.62037 8.93169 8.53588 8.90634 8.46405 8.88944C8.40491 8.87677 8.33308 8.85564 8.29506 8.78805C8.25704 8.72045 8.26971 8.64018 8.29083 8.58103C8.4387 8.09939 8.26971 7.67691 7.8261 7.42341C7.53458 7.25864 7.23884 7.09387 6.95155 6.93755L6.8079 6.85728C6.2122 6.53197 5.70099 6.67561 5.36722 7.27132C5.1771 7.60931 4.98698 7.9473 4.79264 8.28106C4.25608 9.22743 3.6984 10.2076 3.15761 11.1793C3.03932 11.3906 2.9168 11.606 2.79428 11.8088C2.51543 12.2862 2.22814 12.7806 2 13.2918V13.6804C2.1183 14.0227 2.36334 14.2719 2.77738 14.4663C3.01397 14.5761 3.25056 14.7071 3.47871 14.855C3.766 15.0409 4.08709 15.1 4.37438 15.0155C4.64477 14.9352 4.86446 14.7409 4.98276 14.4832C5.00388 14.4367 5.04191 14.3691 5.11373 14.3438C5.13485 14.3353 5.15175 14.3353 5.17288 14.3353C5.22358 14.3353 5.27428 14.3564 5.30807 14.3733C5.54889 14.5043 5.74324 14.6479 5.91223 14.8212C5.9925 14.9057 6.06433 15.0155 5.95026 15.1887C5.69676 15.5774 5.63761 16.0295 5.78549 16.4266C5.93758 16.8238 6.28402 17.1237 6.74031 17.242C6.85438 17.2716 6.96 17.3181 6.96422 17.5166C6.97267 18.1673 7.36136 18.6489 7.99932 18.8094C8.18521 18.8559 8.22324 18.9658 8.22746 19.1094C8.23169 19.7262 8.63727 20.2332 9.23721 20.3769C9.3893 20.4107 9.48225 20.4783 9.48647 20.6811C9.49915 21.2218 9.74841 21.6148 10.2216 21.8513C10.7032 22.0879 11.1722 22.0415 11.6158 21.7162C11.7764 21.5979 11.9369 21.4669 12.0932 21.3401C12.1397 21.3021 12.1862 21.2641 12.2326 21.2261C12.2791 21.188 12.3298 21.1373 12.3805 21.0866C12.503 20.9599 12.634 20.8247 12.7903 20.8247H12.7945C12.9593 20.8289 13.0987 20.9557 13.2339 21.0824C13.2846 21.1331 13.3353 21.1754 13.3818 21.2134C13.7367 21.4838 14.1761 21.5641 14.5859 21.4415C14.9957 21.319 15.3126 21.0022 15.4562 20.5839C15.5069 20.4318 15.5872 20.3388 15.7942 20.3811C16.1956 20.4656 16.6054 20.3726 16.9096 20.1276C17.2138 19.8826 17.3912 19.5065 17.3997 19.0967C17.3997 18.9024 17.4968 18.839 17.6363 18.8052C18.2658 18.6447 18.6502 18.1673 18.6629 17.5251C18.6671 17.4026 18.684 17.2927 18.8741 17.242C19.3346 17.1195 19.6895 16.8238 19.8374 16.4308C19.9895 16.0379 19.9304 15.5816 19.6726 15.1761C19.567 15.0113 19.6346 14.9014 19.7064 14.8296C19.8501 14.6775 20.0318 14.5423 20.2514 14.4114C20.319 14.3691 20.4035 14.3269 20.4923 14.3522C20.581 14.3776 20.6359 14.4536 20.6697 14.517C20.9739 15.0535 21.502 15.2056 22.0512 14.9099C22.1569 14.855 22.2625 14.7916 22.3639 14.7324C22.5413 14.631 22.723 14.5254 22.9131 14.4367C23.306 14.2466 23.5342 13.9973 23.6271 13.6424V13.3213C23.5975 13.258 23.5891 13.203 23.5849 13.165ZM4.4293 14.1663C4.37015 14.2719 4.29411 14.4114 4.09976 14.4029C4.09554 14.4029 4.09131 14.4029 4.08709 14.4029C4.00259 14.4029 3.93922 14.3649 3.88429 14.3353L3.78712 14.2804C3.49138 14.1156 3.18296 13.9466 2.883 13.7776C2.7816 13.7227 2.68443 13.6551 2.65486 13.5453C2.62528 13.4396 2.67175 13.3298 2.72668 13.2411C3.90119 11.1624 5.06303 9.11336 5.94181 7.55861C6.08545 7.30089 6.22065 7.26287 6.48259 7.40229C6.81213 7.58396 7.15434 7.76985 7.48811 7.95997C7.7416 8.10362 7.77962 8.24304 7.63175 8.50076C7.0952 9.45135 6.55864 10.3977 6.02208 11.3483C5.48974 12.2862 4.95741 13.2242 4.4293 14.1663ZM7.0783 16.621C7.06562 16.621 7.05295 16.621 7.04027 16.621C6.73186 16.6167 6.49949 16.4562 6.39387 16.1731C6.29247 15.8943 6.36429 15.6112 6.59244 15.4211C6.83748 15.2141 7.0952 15.0113 7.34024 14.8169C7.43319 14.7409 7.52613 14.6691 7.61908 14.593C7.66978 14.5508 7.72048 14.5127 7.77118 14.4705C7.90637 14.3607 8.04579 14.2466 8.18944 14.141C8.5063 13.9001 8.91612 13.9382 9.15693 14.2255C9.27523 14.3649 9.33015 14.5423 9.31325 14.724C9.29635 14.9099 9.20341 15.0831 9.04709 15.2099C8.61615 15.5605 8.17676 15.9112 7.75005 16.2492L7.46698 16.4731C7.34869 16.5703 7.21349 16.621 7.0783 16.621ZM8.33731 18.1968C8.32463 18.1968 8.31196 18.1968 8.30351 18.1968C8.01199 18.1926 7.7585 18.0236 7.66133 17.7659C7.55148 17.4786 7.63598 17.1744 7.88102 16.9758C8.17254 16.735 8.47673 16.4942 8.76825 16.2618C8.89077 16.1647 9.00906 16.0717 9.13158 15.9746C9.22031 15.9027 9.30903 15.8309 9.39775 15.7633C9.63857 15.569 9.88784 15.3704 10.1329 15.1803C10.4751 14.9099 10.8807 14.9352 11.1342 15.2437C11.2482 15.3831 11.3032 15.5563 11.2863 15.7337C11.2651 15.9281 11.1595 16.114 10.9863 16.2576C10.5004 16.6463 10.0061 17.0392 9.52872 17.4195C9.27945 17.618 9.03441 17.8166 8.78514 18.0109C8.6753 18.087 8.51898 18.1968 8.33731 18.1968ZM9.54985 19.7727C9.3555 19.7727 9.16538 19.6882 9.02596 19.5234C8.90767 19.3798 8.85274 19.2024 8.86964 19.0249C8.88654 18.839 8.98371 18.67 9.14003 18.5433C9.61322 18.1588 10.1033 17.7701 10.5723 17.3941L10.7032 17.2885C10.9398 17.1026 11.1975 17.0688 11.4553 17.1955C11.6919 17.3138 11.8271 17.5209 11.8355 17.7786V17.7828C11.8355 18.0236 11.7468 18.2095 11.5736 18.3489C11.4595 18.4419 11.3454 18.5348 11.2313 18.6235C10.8258 18.9489 10.4075 19.2869 9.99346 19.6122C9.85826 19.7178 9.70194 19.7727 9.54985 19.7727ZM12.2453 20.3642C11.9031 20.7106 11.506 21.0064 11.1257 21.2683C11.0497 21.319 10.9567 21.3486 10.8638 21.3486C10.8469 21.3486 10.83 21.3486 10.8131 21.3444C10.5258 21.3275 10.3188 21.1965 10.2005 20.9515C10.0737 20.6853 10.1244 20.3769 10.323 20.1952C10.7117 19.8403 11.0497 19.5741 11.3834 19.3545C11.6496 19.177 12.0087 19.2362 12.2326 19.4981C12.4523 19.7558 12.4608 20.1445 12.2453 20.3642ZM19.229 16.2196C19.115 16.4689 18.8741 16.621 18.5995 16.621C18.5615 16.621 18.5235 16.6167 18.4855 16.6125C18.3334 16.5914 18.2193 16.5111 18.1179 16.4308C17.8179 16.19 17.4588 15.9027 17.1039 15.6197C17.011 15.5436 16.7702 15.3915 16.5927 15.6112C16.5336 15.683 16.5082 15.7549 16.5167 15.8309C16.5251 15.9281 16.5927 16.0295 16.7068 16.1224C16.8378 16.228 16.9729 16.3337 17.1081 16.4435C17.3321 16.621 17.5644 16.8069 17.7883 16.9927C18.0376 17.1998 18.1052 17.5251 17.9658 17.8166C17.8348 18.087 17.5433 18.2391 17.2349 18.1926C17.0743 18.1673 16.9518 18.0785 16.8335 17.9856L16.5631 17.7701C16.297 17.5589 16.0223 17.335 15.752 17.1237C15.6083 17.0096 15.4055 16.9209 15.2407 17.1153C15.1816 17.1871 15.1563 17.2589 15.1647 17.3307C15.1732 17.4279 15.2407 17.5293 15.359 17.6223C15.5492 17.7743 15.7351 17.9222 15.9252 18.0743C16.1026 18.218 16.2801 18.3574 16.4575 18.501C16.6476 18.6531 16.7575 18.839 16.7786 19.0376C16.7955 19.2108 16.7448 19.3798 16.6265 19.5234C16.373 19.8403 15.9548 19.8572 15.5914 19.5657C15.4647 19.4643 15.3337 19.3587 15.2069 19.2573C14.9577 19.0587 14.7 18.8517 14.4422 18.6489C14.3197 18.5517 14.1972 18.5391 14.0662 18.6151C13.9479 18.6869 13.8972 18.7968 13.9184 18.9446C13.931 19.0249 13.9775 19.0925 14.0747 19.1728L14.1888 19.2615C14.3324 19.3756 14.4803 19.4939 14.6239 19.6164C14.9408 19.8868 14.9957 20.2881 14.7549 20.5923C14.6197 20.7613 14.4338 20.8501 14.2352 20.8501C14.0747 20.8501 13.9057 20.7951 13.7536 20.6768C13.7156 20.6473 13.6818 20.6177 13.6437 20.5881C13.593 20.5459 13.5423 20.5036 13.4874 20.4698C13.2635 20.3219 13.0269 20.1065 13.0058 19.6755C12.9847 19.2531 12.6763 18.9784 12.4228 18.8263C12.2326 18.7123 12.2411 18.594 12.3256 18.4461C12.672 17.8081 12.4777 17.0688 11.8609 16.6886C11.6412 16.5534 11.7172 16.4097 11.7721 16.3041C11.996 15.8858 11.9834 15.3915 11.7426 14.9902C11.5017 14.5888 11.0792 14.3522 10.6103 14.3522C10.0695 14.3522 10.0357 14.3353 9.72307 13.8917C9.51182 13.596 9.20341 13.4058 8.84852 13.3509C8.4894 13.296 8.13029 13.3889 7.83455 13.6129C7.47543 13.8832 7.12054 14.1748 6.80368 14.4325C6.72763 14.4958 6.58821 14.6099 6.42344 14.4114C6.2291 14.1748 5.9756 13.9804 5.67564 13.8241C5.62072 13.7945 5.54467 13.7565 5.51932 13.6762C5.49397 13.6002 5.53199 13.5241 5.55734 13.4777C6.35584 12.0792 7.12899 10.7061 7.77962 9.55275C7.85145 9.426 7.9444 9.38798 8.08804 9.43445C8.31196 9.50627 8.54433 9.56965 8.76825 9.63302C8.87387 9.6626 8.97949 9.69217 9.08933 9.72597L9.10201 9.73019C9.16961 9.75132 9.28368 9.78089 9.30903 9.93721C9.47802 10.9723 10.323 11.5976 11.5144 11.568C11.789 11.5596 12.0679 11.5131 12.334 11.4666C12.3805 11.4582 12.4228 11.4497 12.4692 11.4413C13.1579 11.323 13.817 11.4751 14.4296 11.8849C15.5872 12.6665 16.6688 13.5072 17.4799 14.1494L17.5982 14.2424C18.0756 14.6184 18.5657 15.0113 19.0474 15.4042C19.284 15.6112 19.36 15.9239 19.229 16.2196ZM20.1289 13.6762C20.1078 13.7523 20.036 13.7945 19.9768 13.8241C19.6684 13.9804 19.4191 14.179 19.2248 14.4071C19.1572 14.4916 19.0938 14.5212 19.0347 14.5212C18.9671 14.5212 18.9037 14.4832 18.8446 14.4367C17.725 13.5326 16.5124 12.5693 15.2323 11.6694C14.8183 11.3779 14.4127 11.1033 13.9479 10.9385C13.386 10.7357 12.7819 10.7146 11.9876 10.8667C11.5355 10.9554 11.1637 10.947 10.8173 10.8413C10.4033 10.7146 10.1244 10.4569 9.98078 10.0682C9.83714 9.67949 9.91741 9.50628 10.2976 9.36263C10.5216 9.27813 10.7666 9.22743 11.0961 9.19786C11.6074 9.14716 12.127 9.10069 12.6298 9.05844C12.841 9.04154 13.0523 9.02042 13.2635 9.00352C13.5761 8.97394 13.8634 9.05421 14.0789 9.13026C14.2437 9.18941 14.4042 9.24433 14.569 9.30348C14.9197 9.426 15.2872 9.55275 15.6421 9.68372C15.9505 9.80202 16.2505 9.81469 16.5547 9.72597C16.6603 9.69639 16.7702 9.66682 16.8758 9.63302C17.0997 9.56965 17.3278 9.50628 17.5518 9.43868C17.6996 9.3922 17.7968 9.43023 17.8728 9.56965C18.5319 10.7399 19.3093 12.1215 20.0825 13.4734C20.1205 13.5284 20.1543 13.6002 20.1289 13.6762ZM22.9807 13.5453C22.9554 13.6297 22.8962 13.6973 22.799 13.7523C22.6723 13.8199 22.5498 13.8917 22.423 13.9593C22.1907 14.0903 21.9541 14.2212 21.7175 14.348C21.6499 14.386 21.5865 14.4029 21.5274 14.4029C21.4091 14.4029 21.3077 14.3353 21.2358 14.2086C21.164 14.0776 21.088 13.9466 21.0161 13.8156L20.4416 12.8017C19.6346 11.3779 18.8277 9.94989 18.0207 8.52188C17.9404 8.38246 17.9024 8.28106 17.9278 8.17967C17.9573 8.07827 18.0418 8.0149 18.1813 7.93885C18.4685 7.7783 18.8065 7.59241 19.1488 7.40229C19.4149 7.25864 19.5501 7.29667 19.7022 7.56283C19.7952 7.7276 19.8881 7.89237 19.9811 8.05714C20.0825 8.23881 20.1838 8.42048 20.2895 8.59793C20.3021 8.61905 20.3148 8.63595 20.3275 8.65708L20.3359 8.66975C21.2063 10.2161 22.7441 12.9369 22.9216 13.2453C22.9892 13.3594 23.0061 13.4565 22.9807 13.5453Z" fill="#27282D"/>
<path d="M13.1409 4.7153C13.1409 4.94767 13.1409 5.19271 13.1409 5.4293C13.1409 5.54337 13.1113 5.64054 13.0564 5.70814C13.0015 5.77574 12.9254 5.81376 12.8282 5.81376C12.7437 5.81799 12.6677 5.78841 12.6128 5.73349C12.541 5.66589 12.5029 5.55605 12.5029 5.42508C12.5029 4.73642 12.5029 4.04777 12.5029 3.38446C12.5029 3.1521 12.6212 3.00422 12.8156 3H12.824C12.9085 3 12.9803 3.02535 13.031 3.08027C13.0986 3.14787 13.1409 3.25772 13.1409 3.38869C13.1409 3.62528 13.1409 3.86187 13.1409 4.09847C13.1409 4.19986 13.1409 4.30549 13.1409 4.40688C13.1409 4.5125 13.1409 4.6139 13.1409 4.7153Z" fill="#27282D"/>
<path d="M10.2894 6.40104C10.281 6.55736 10.2091 6.65453 10.0655 6.701C9.91762 6.74748 9.7951 6.701 9.70637 6.56581C9.59653 6.40104 9.49091 6.23204 9.38528 6.06727C9.34303 5.99967 9.30501 5.9363 9.26276 5.8687L9.08954 5.58986C8.929 5.34059 8.76845 5.07865 8.60791 4.82516C8.53608 4.71109 8.51074 4.60124 8.53186 4.50407C8.54876 4.42802 8.59523 4.36887 8.67128 4.3224C8.83605 4.221 9.01772 4.28015 9.14024 4.47872C9.36838 4.83783 9.60075 5.2054 9.82045 5.56029C9.95142 5.76731 10.0824 5.97855 10.2134 6.18557C10.2725 6.27006 10.2936 6.32921 10.2894 6.40104Z" fill="#27282D"/>
<path d="M17.0361 4.81666C16.6475 5.43771 16.2968 5.99962 15.963 6.52351C15.8616 6.67983 15.7264 6.7432 15.5786 6.70095C15.4349 6.6587 15.3504 6.53196 15.3504 6.37564V6.37141V6.36719C15.3462 6.30804 15.3842 6.24044 15.4307 6.16862C15.5321 6.0123 15.6293 5.85175 15.7307 5.69121C15.9799 5.29407 16.2376 4.88003 16.4954 4.47867C16.5672 4.36882 16.6559 4.297 16.7531 4.27588C16.8291 4.25898 16.9052 4.27588 16.977 4.32235C17.1375 4.4322 17.1629 4.61809 17.0361 4.81666Z" fill="#27282D"/>
</svg>
