<svg width="25" height="25" viewBox="0 0 25 25" fill="none" xmlns="http://www.w3.org/2000/svg">
<path fill-rule="evenodd" clip-rule="evenodd" d="M3.76315 9.93768V8.45394C3.76315 6.9628 3.76315 5.42356 3.75945 3.91762C3.75575 3.44401 3.94816 3.1443 4.35147 3.0037H4.35887L20.1916 3C20.5986 3.1443 20.7873 3.43661 20.7873 3.91762C20.7836 5.97858 20.7836 8.07283 20.7836 10.1005V12.154C20.7836 12.2687 20.7836 12.6277 20.4617 12.6314H20.458C20.3692 12.6314 20.2989 12.6055 20.2471 12.5537C20.1694 12.4759 20.1324 12.3501 20.1324 12.1577V3.89172V3.89169C20.1324 3.76221 20.1324 3.68822 20.1065 3.66232C20.0806 3.63642 20.0066 3.63642 19.8771 3.63642H4.65858C4.53277 3.63642 4.46617 3.64012 4.44027 3.66602C4.41437 3.69192 4.41437 3.76222 4.41437 3.88802V12.1096C4.41437 12.1688 4.41067 12.265 4.39587 12.3575C4.36627 12.524 4.25156 12.6166 4.07766 12.6129C3.91856 12.6129 3.80385 12.5129 3.77055 12.3464C3.76315 12.2872 3.76315 12.2317 3.76315 12.1762V9.93768ZM20.9279 20.0205C21.2831 20.0205 21.5347 20.2647 21.5495 20.631C21.5569 20.89 21.5569 21.1268 21.5421 21.3562C21.531 21.7521 21.2794 21.9963 20.8798 21.9963H18.9335H17.9604H12.2734H12.269C9.46571 21.9963 6.57005 21.9963 3.72244 22C3.44124 22 3.25253 21.9149 3.11933 21.7373C3.04163 21.6374 3.00463 21.5264 3.00463 21.3969C3.00463 21.3544 3.0037 21.3118 3.00278 21.2693C3.00185 21.2267 3.00093 21.1841 3.00093 21.1416C3.00093 21.1002 3.0007 21.0583 3.00047 21.0163C2.99977 20.8891 2.99906 20.7598 3.00463 20.6347C3.01573 20.2684 3.27843 20.0168 3.63734 20.0242C3.70024 20.0279 3.74094 20.0168 3.76315 19.9983C3.78905 19.9761 3.79275 19.928 3.79275 19.8577C3.78905 17.8337 3.78905 15.7728 3.78905 13.7821V13.7266C3.78905 13.7144 3.78864 13.7018 3.78824 13.6891C3.78741 13.6632 3.78657 13.6367 3.78905 13.6119C3.80015 13.4306 3.91485 13.3085 4.07765 13.3048H4.08505C4.23676 13.3048 4.36256 13.4306 4.38106 13.6008C4.38476 13.6489 4.38476 13.697 4.38476 13.7414V13.7895V15.2991C4.38476 16.7829 4.38476 18.3184 4.38106 19.8281C4.38106 19.9169 4.39216 19.9687 4.42176 19.9946C4.45136 20.0205 4.49946 20.0279 4.58457 20.0205C4.74367 20.0057 4.91388 20.0057 5.12478 20.0205C5.18398 20.0242 5.22098 20.0168 5.23948 19.9983C5.25798 19.9798 5.26168 19.9428 5.25428 19.8873V19.8096V19.7726V4.95737C5.25428 4.55036 5.31349 4.48746 5.7279 4.48746H18.8299C18.9113 4.48746 18.9927 4.48746 19.0742 4.50226C19.2 4.52076 19.2814 4.60586 19.2962 4.73536C19.3073 4.81675 19.3073 4.89814 19.3073 4.97953V4.97957C19.3073 9.8489 19.3073 14.881 19.3036 19.8318C19.3036 19.928 19.3147 19.9761 19.3443 20.002C19.3702 20.0242 19.4183 20.0316 19.4923 20.0242C19.6847 20.0057 19.8808 20.0131 20.051 20.0242C20.1065 20.0242 20.1398 20.0168 20.1546 20.002C20.1731 19.9835 20.1768 19.9502 20.1768 19.8984C20.1712 19.7176 20.1719 19.5326 20.1726 19.3513C20.1728 19.2914 20.1731 19.2319 20.1731 19.1731V18.8808V13.7636C20.1731 13.6711 20.1805 13.5971 20.1916 13.5379C20.2138 13.3936 20.3211 13.3048 20.4691 13.3048H20.4802C20.6282 13.3048 20.7318 13.3973 20.7614 13.549C20.7688 13.6082 20.7688 13.6637 20.7688 13.7192V13.7599C20.7688 15.758 20.7688 17.8226 20.7651 19.854C20.7651 19.9243 20.7688 19.9687 20.7947 19.9946C20.8132 20.0131 20.8539 20.0205 20.9205 20.0205H20.9279ZM18.6984 5.25909C18.6845 5.26113 18.6758 5.2624 18.6671 5.26818L17.8124 5.67519L17.0886 6.01751L17.0873 6.01817C16.4332 6.32755 15.7693 6.6416 15.1113 6.95172C15.0188 6.99242 15.0188 7.04792 15.0188 7.13303V7.14783C15.0188 10.8997 15.0188 14.7811 15.0151 18.5959C15.0151 18.7143 15.0484 18.7624 15.1594 18.8031C16.1043 19.1507 17.0615 19.5106 17.9917 19.8604L17.9923 19.8606L18.2601 19.9613C18.3341 19.9909 18.4118 19.9983 18.4895 20.0057H18.4895C18.4936 20.0067 18.4979 20.0074 18.5024 20.008L18.5154 20.0095C18.5238 20.0104 18.5325 20.0113 18.5413 20.0131C18.6079 20.0242 18.6523 20.0168 18.6782 19.9946C18.7041 19.9724 18.7152 19.9243 18.7152 19.8318C18.7115 15.0253 18.7115 10.1375 18.7115 5.41248V5.25708L18.6984 5.25909ZM17.6126 5.10907C17.6385 5.10167 17.6607 5.09057 17.6792 5.07947H6.88603C6.90556 5.08924 6.92199 5.09797 6.93751 5.10622L6.93752 5.10622L6.93755 5.10624C6.95142 5.11361 6.96457 5.12059 6.97853 5.12757C7.29083 5.27551 7.58756 5.4163 7.87208 5.5513L7.87228 5.5514L7.8728 5.55165L7.87524 5.5528L7.87597 5.55315C8.55058 5.87325 9.15656 6.16078 9.7388 6.43371C10.0089 6.55951 10.131 6.74822 10.131 7.04792C10.1273 10.933 10.1273 14.8847 10.1273 18.7032C10.1273 19.0658 10.0311 19.2027 9.6833 19.3322C9.58895 19.3674 9.49552 19.4026 9.40209 19.4377C9.30867 19.4729 9.21524 19.508 9.12089 19.5432L9.05523 19.5674L9.05511 19.5675C8.70581 19.6967 8.34766 19.8292 7.99606 19.965C7.98126 19.9724 7.96646 19.9761 7.95166 19.9798C7.94279 19.9831 7.93392 19.9861 7.92515 19.989L7.92512 19.9891C7.90463 19.996 7.88469 20.0027 7.86655 20.0131H16.6728C16.6665 20.011 16.6605 20.0089 16.6547 20.0068C16.6502 20.0052 16.6459 20.0036 16.6415 20.002L16.6414 20.002L16.6413 20.002C16.6312 19.9983 16.621 19.9946 16.6099 19.9909C16.3213 19.8799 16.0364 19.7726 15.7478 19.6653C15.4629 19.5543 15.1779 19.447 14.8893 19.3396C14.5082 19.1953 14.4268 19.0769 14.4268 18.6699V15.7691C14.4268 15.0645 14.4271 14.3541 14.4273 13.6399V13.6377V13.6354V13.6331V13.6308C14.428 11.4637 14.4287 9.26261 14.4231 7.08863C14.4231 6.75562 14.5489 6.55581 14.8449 6.41891C15.4048 6.1603 15.9746 5.88917 16.5318 5.62406L16.8911 5.45318C17.1205 5.34218 17.3462 5.23488 17.5719 5.12757L17.5828 5.1219C17.5927 5.1166 17.6016 5.11182 17.6126 5.10907ZM5.84342 19.9095C5.84424 19.9243 5.84507 19.9391 5.8426 19.9539C5.8389 19.9798 5.8426 19.9983 5.8537 20.0057C5.8611 20.0131 5.8759 20.0168 5.8981 20.0168H5.9832C6.08681 20.0168 6.18671 20.0168 6.28661 19.9798L6.30141 19.9724C6.62235 19.8522 6.94661 19.7301 7.27267 19.6074L7.27348 19.6071C7.9809 19.3408 8.69681 19.0713 9.40579 18.8105C9.5131 18.7698 9.5427 18.7254 9.5427 18.6144C9.539 14.8107 9.539 10.9515 9.5427 7.14783C9.5427 7.04052 9.5094 6.98872 9.40579 6.94062C9.16499 6.82614 8.92103 6.71061 8.67841 6.59571L8.67832 6.59567L8.67676 6.59493C8.46511 6.4947 8.25448 6.39495 8.04786 6.2968C7.88689 6.22095 7.72501 6.14417 7.56312 6.06738C7.40125 5.99061 7.23938 5.91384 7.07843 5.83799C6.89713 5.75289 6.71952 5.66779 6.53452 5.57899C6.45498 5.54118 6.37499 5.5029 6.29438 5.46434L6.29411 5.46421L6.29409 5.4642C6.14603 5.39336 5.99586 5.32152 5.8426 5.24968V19.8577V19.8873C5.8426 19.8947 5.84301 19.9021 5.84342 19.9095ZM20.8576 21.3969C20.8983 21.4006 20.9279 21.3932 20.9427 21.3784C20.9575 21.3636 20.9649 21.3303 20.9649 21.2822V20.9862V20.8382C20.9649 20.7198 20.9649 20.6532 20.939 20.6273C20.9131 20.6014 20.8502 20.6014 20.7318 20.6014H4.17016H4.02215C3.92595 20.6051 3.82605 20.6051 3.72614 20.6014C3.67064 20.5977 3.63734 20.6051 3.61514 20.6273C3.59294 20.6495 3.58554 20.6865 3.58924 20.7457C3.59481 20.8208 3.59409 20.9002 3.5934 20.9774C3.59317 21.0028 3.59294 21.028 3.59294 21.0528V21.1749C3.59294 21.2896 3.59294 21.3525 3.61514 21.3747C3.63734 21.3969 3.70024 21.3969 3.81125 21.3969H20.7244H20.7688C20.7786 21.3969 20.7884 21.3965 20.7983 21.3961L20.7984 21.3961C20.8181 21.3953 20.8379 21.3944 20.8576 21.3969ZM15.9365 18.3887C16.3176 18.533 16.7061 18.6884 17.0761 18.8401C17.2647 18.9178 17.4533 18.9917 17.6419 19.0657L17.6422 19.0658C17.7273 19.0991 17.8087 19.1176 17.879 19.1176C17.9493 19.1176 18.0122 19.0991 18.0603 19.0658C18.1639 18.9955 18.2157 18.8586 18.2157 18.6662V13.3899C18.2157 13.0532 18.0899 12.9311 17.7569 12.9311L16.0586 12.9533C15.7552 12.957 15.6368 13.0791 15.6368 13.3862V14.5258V14.5267C15.6368 15.6475 15.6368 16.8054 15.6331 17.9447C15.6331 18.1741 15.7219 18.3073 15.9365 18.3887ZM16.2214 13.6526C16.2214 13.5527 16.2399 13.5305 16.3324 13.5305C16.6839 13.5342 17.0724 13.5305 17.5127 13.5231C17.6015 13.5231 17.6274 13.5268 17.6274 13.623V18.385C17.6274 18.3904 17.6254 18.3958 17.6229 18.4027L17.62 18.4109C17.2463 18.2592 16.7616 18.0668 16.2806 17.8818C16.215 17.8563 16.2176 17.82 16.2212 17.7694L16.2214 17.7671C16.2214 17.7597 16.2223 17.7532 16.2232 17.7467C16.2241 17.7403 16.2251 17.7338 16.2251 17.7264V15.2362V14.8403C16.2251 14.4518 16.2251 14.0485 16.2214 13.6526ZM15.6368 12.117V11.0514V11.051C15.6368 10.004 15.6368 8.92002 15.6294 7.85453C15.6294 7.62143 15.7145 7.48082 15.9217 7.38092C16.325 7.18481 16.7357 6.98131 17.1316 6.7815L17.1318 6.78143C17.2834 6.70375 17.4351 6.62608 17.5867 6.5521C17.7792 6.4559 17.9346 6.44109 18.0456 6.5077C18.1603 6.578 18.2158 6.726 18.2158 6.94801V12.1355C18.2158 12.4871 18.1011 12.6055 17.7533 12.6055C17.2019 12.6055 16.6469 12.6018 16.1104 12.5981C15.7515 12.5944 15.6368 12.4797 15.6368 12.117ZM16.325 7.84713C16.2473 7.88413 16.2214 7.92483 16.2214 8.00254C16.2251 9.29387 16.2251 10.6037 16.2177 11.8987C16.2177 12.0023 16.251 12.006 16.3435 12.006C16.5137 12.0023 16.6839 12.0023 16.8541 12.0023C17.0687 12.0023 17.2796 12.006 17.4905 12.0134C17.5497 12.0134 17.5867 12.006 17.6052 11.9875C17.6237 11.969 17.6311 11.932 17.6311 11.8617C17.6274 11.2993 17.6274 10.7258 17.6274 10.1708V9.60838V9.04226C17.6274 8.90442 17.6272 8.76521 17.627 8.62509C17.6263 8.201 17.6256 7.76852 17.6311 7.34022C17.6311 7.25142 17.62 7.22922 17.6089 7.22182C17.5904 7.21072 17.5238 7.24402 17.4905 7.26252C17.0983 7.46602 16.6987 7.66583 16.325 7.84713ZM6.49391 19.0695C6.54571 19.1028 6.60491 19.1213 6.67521 19.1213C6.74181 19.1213 6.81951 19.1065 6.90092 19.0732C7.00531 19.0321 7.11038 18.9903 7.21497 18.9487C7.35504 18.893 7.49426 18.8376 7.62983 18.7846C7.7227 18.7477 7.81647 18.7102 7.91088 18.6724L7.91112 18.6723L7.91149 18.6721C8.14792 18.5775 8.38839 18.4812 8.62886 18.3887C8.83237 18.311 8.92117 18.1815 8.92117 17.9595C8.91747 17.1973 8.91747 16.4203 8.91747 15.6728V13.3862C8.91747 13.0902 8.79537 12.9681 8.50306 12.9607C7.92954 12.9496 7.35233 12.9422 6.78621 12.9385C6.62341 12.9385 6.51241 12.9681 6.4421 13.0384C6.3718 13.1087 6.3385 13.2197 6.3385 13.3862V18.681C6.3385 18.8623 6.3903 18.9992 6.49391 19.0695ZM7.03412 13.5268C7.47443 13.5342 7.85924 13.5379 8.21445 13.5342C8.31435 13.5342 8.33285 13.5527 8.33285 13.6489C8.32915 15.0141 8.32915 16.4014 8.32915 17.7444V17.7449V17.7745C8.33285 17.83 8.33285 17.8596 8.27365 17.8818C7.97394 17.9965 7.68534 18.1112 7.37453 18.237L7.37447 18.237C7.22649 18.2962 7.0785 18.3554 6.92682 18.4146V18.4143C6.92682 16.7679 6.92682 15.2065 6.92312 13.623C6.92312 13.5379 6.94532 13.5268 7.03412 13.5268ZM8.46597 12.5981C7.91096 12.6018 7.34114 12.6055 6.76763 12.6055C6.46052 12.6055 6.33842 12.4834 6.33472 12.1615V6.92212C6.33472 6.72231 6.39022 6.57801 6.50122 6.51141C6.60852 6.4448 6.76023 6.4522 6.93783 6.54101C7.05254 6.59836 7.16631 6.65571 7.28009 6.71306C7.39387 6.77041 7.50765 6.82776 7.62235 6.88512C7.7916 6.96881 7.96366 7.05438 8.13664 7.1404C8.30778 7.22551 8.47984 7.31108 8.65098 7.39573C8.83598 7.48453 8.91738 7.61773 8.91738 7.82864C8.91368 8.90893 8.91368 10.004 8.91368 11.0658V11.0662V12.1467C8.91368 12.4723 8.79158 12.5944 8.46597 12.5981ZM6.94501 7.21675C6.94396 7.21749 6.94307 7.21812 6.94153 7.21812C6.93413 7.22552 6.92303 7.24773 6.92673 7.32543C6.93043 7.89524 6.93043 8.47246 6.93043 9.03117V9.59729C6.93043 10.3484 6.93043 11.1254 6.92673 11.8876C6.92673 11.9394 6.93043 11.9727 6.94893 11.9913C6.96373 12.0061 6.99333 12.0098 7.03774 12.0098C7.38184 11.9987 7.75185 11.9987 8.23657 12.0024C8.32167 12.0024 8.33277 11.9764 8.33277 11.8876C8.32907 10.6 8.32907 9.29388 8.33277 8.00994C8.33277 7.92114 8.30687 7.88044 8.22547 7.83974C7.76295 7.61404 7.38554 7.42533 7.04144 7.24773C6.98963 7.22182 6.96373 7.21442 6.95263 7.21442C6.9483 7.21442 6.9465 7.21569 6.94501 7.21675Z" fill="#27282D"/>
</svg>
