<svg width="33" height="33" viewBox="0 0 33 33" fill="none" xmlns="http://www.w3.org/2000/svg">
<g clip-path="url(#clip0_281_3277)" filter="url(#filter0_d_281_3277)">
<path d="M15.8841 10.5859C15.8841 10.4677 15.8841 10.3657 15.8841 10.2636C15.8841 7.24069 15.8841 4.21776 15.8841 1.19531C15.8841 0.728027 16.0032 0.61084 16.4778 0.61084C20.4559 0.61084 24.4343 0.61084 28.4124 0.61084C28.8811 0.61084 28.9998 0.72998 28.9998 1.20215C28.9998 8.73385 28.9998 16.2651 28.9998 23.7968C28.9998 24.2689 28.8806 24.3886 28.4128 24.389C24.0164 24.389 19.6199 24.389 15.223 24.389C14.8035 24.389 14.7078 24.3119 14.6092 23.8998C14.5184 23.5204 14.4276 23.141 14.3358 22.7582C12.3563 22.7582 10.3944 22.7582 8.4149 22.7582C8.32115 23.1503 8.22984 23.5385 8.1356 23.9257C8.04332 24.3051 7.93785 24.3886 7.55211 24.389C7.22789 24.3895 6.90318 24.3905 6.57897 24.389C6.182 24.3871 6.0487 24.2504 6.04723 23.8451C6.04626 23.5121 6.05553 23.1786 6.04088 22.8461C6.03747 22.766 5.97448 22.6561 5.90612 22.6171C5.44714 22.3554 5.22546 21.9667 5.22643 21.4418C5.22839 20.5282 5.22351 19.6142 5.23083 18.7006C5.23229 18.5463 5.18981 18.4618 5.05017 18.3817C4.35779 17.9828 3.99207 17.3754 3.99988 16.5737C4.00769 15.7831 4.37732 15.185 5.06726 14.8027C5.22839 14.7133 5.2572 14.6215 5.22741 14.4614C5.17956 14.2016 5.14538 13.9389 5.10827 13.6772C4.90661 12.2509 5.7694 10.9086 7.16051 10.5107C10.0492 9.68501 12.9329 9.68306 15.8079 10.5854C15.8231 10.5898 15.8411 10.5859 15.8841 10.5859ZM22.8636 20.2714C24.6433 20.2714 26.4046 20.2714 28.1604 20.2714C28.1604 14.9394 28.1604 9.62544 28.1604 4.31395C26.3855 4.31395 24.6301 4.31395 22.8636 4.31395C22.8636 9.63521 22.8636 14.9428 22.8636 20.2714ZM22.0203 5.95847C20.2395 5.95847 18.4783 5.95847 16.7137 5.95847C16.7093 6.00974 16.7044 6.04294 16.7044 6.07663C16.7039 7.70748 16.7015 9.33834 16.7098 10.9692C16.7103 11.0712 16.7767 11.1923 16.8494 11.2709C17.4632 11.937 17.742 12.7128 17.6346 13.6171C17.5926 13.9721 17.5335 14.3246 17.4832 14.6733C17.4998 14.6918 17.5086 14.7094 17.5223 14.7158C19.1375 15.4516 19.1375 17.6664 17.6302 18.4316C17.5731 18.4604 17.5452 18.5458 17.4817 18.6361C19.0296 18.6361 20.5193 18.6361 22.0208 18.6361C22.0203 14.4072 22.0203 10.1923 22.0203 5.95847ZM16.6663 14.5292C16.7117 14.2421 16.7664 13.9501 16.8026 13.6557C16.951 12.4448 16.3812 11.5585 15.1956 11.2656C14.3626 11.06 13.514 10.8911 12.6624 10.7954C10.8529 10.5922 9.06919 10.7895 7.32945 11.3247C6.62731 11.5405 6.18395 12.0371 5.98376 12.7465C5.81139 13.3574 6.0194 13.9409 6.08141 14.54C6.6444 14.5834 7.11803 14.77 7.50181 15.1572C7.89146 15.5502 8.07115 16.0351 8.10582 16.5863C10.2914 16.5863 12.4632 16.5863 14.6336 16.5863C14.7449 15.3813 15.4974 14.6528 16.6663 14.5292ZM16.7034 18.6723C16.3929 18.5536 16.2757 18.412 16.2977 18.1986C16.3216 17.9692 16.4725 17.8559 16.7952 17.8251C17.5374 17.7538 18.0589 17.0693 17.908 16.3642C17.7752 15.7426 17.222 15.3227 16.6028 15.3735C15.9764 15.4242 15.4857 15.9438 15.4774 16.5893C15.4671 17.3661 15.4749 18.1435 15.4739 18.9203C15.4735 19.3368 15.3406 19.4687 14.9207 19.4687C12.556 19.4691 10.1908 19.4691 7.82603 19.4687C7.40855 19.4687 7.27769 19.3363 7.27721 18.9159C7.27574 18.1303 7.28941 17.3442 7.26988 16.559C7.25719 16.0444 6.99107 15.6679 6.51354 15.4682C6.04479 15.2719 5.6029 15.3525 5.22839 15.6913C4.85388 16.0302 4.73425 16.4594 4.87292 16.9487C5.0155 17.4516 5.44177 17.7802 6.0111 17.8246C6.24547 17.8432 6.41051 17.9428 6.44762 18.1772C6.48522 18.414 6.35631 18.5649 6.13415 18.6396C6.10485 18.6493 6.07653 18.6606 6.04723 18.6718C6.04723 19.5785 6.04674 20.4667 6.04723 21.3544C6.04772 21.806 6.17077 21.9281 6.62633 21.9281C8.61558 21.9286 10.6048 21.9281 12.5941 21.9281C13.7977 21.9281 15.0018 21.9291 16.2054 21.9271C16.5355 21.9267 16.7 21.7826 16.7015 21.4774C16.7068 20.5478 16.7034 19.6176 16.7034 18.6723ZM16.7039 23.5502C20.5467 23.5502 24.3572 23.5502 28.1677 23.5502C28.1677 22.7323 28.1677 21.933 28.1677 21.1239C24.6179 21.1239 21.0808 21.1239 17.5237 21.1239C17.5237 21.2479 17.5232 21.3568 17.5237 21.4662C17.5262 21.8651 17.4144 22.2626 17.0687 22.4413C16.6702 22.6474 16.6873 22.9418 16.7029 23.2802C16.7073 23.3641 16.7039 23.4486 16.7039 23.5502ZM28.1692 1.44921C24.3362 1.44921 20.5267 1.44921 16.7166 1.44921C16.7166 2.13036 16.7166 2.79296 16.7166 3.46629C20.5389 3.46629 24.3484 3.46629 28.1692 3.46629C28.1692 2.79003 28.1692 2.12743 28.1692 1.44921ZM8.10826 18.6313C10.2992 18.6313 12.4696 18.6313 14.6336 18.6313C14.6336 18.2177 14.6336 17.8222 14.6336 17.432C12.4486 17.432 10.2845 17.432 8.10826 17.432C8.10826 17.8349 8.10826 18.224 8.10826 18.6313ZM22.0198 4.31785C20.2395 4.31785 18.4793 4.31785 16.7239 4.31785C16.7239 4.59471 16.7239 4.85349 16.7239 5.1074C18.4988 5.1074 20.2532 5.1074 22.0198 5.1074C22.0198 4.84226 22.0198 4.58934 22.0198 4.31785ZM22.0203 19.4867C20.513 19.4867 19.0257 19.4867 17.5442 19.4867C17.5442 19.7636 17.5442 20.0224 17.5442 20.2758C19.0462 20.2758 20.5271 20.2758 22.0203 20.2758C22.0203 20.0106 22.0203 19.7577 22.0203 19.4867ZM7.36949 23.5629C7.4359 23.2894 7.4984 23.0302 7.56236 22.7665C7.31432 22.7665 7.09752 22.7665 6.88707 22.7665C6.88707 23.0433 6.88707 23.3021 6.88707 23.5629C7.05064 23.5629 7.19469 23.5629 7.36949 23.5629ZM15.1824 22.7572C15.2552 23.0443 15.3206 23.3041 15.3836 23.5551C15.5623 23.5551 15.7122 23.5551 15.8675 23.5551C15.8675 23.2826 15.8675 23.0243 15.8675 22.7572C15.6414 22.7572 15.431 22.7572 15.1824 22.7572Z" fill="#27282D"/>
<path d="M24.4904 12.1152C24.4904 12.3715 24.4962 12.6279 24.4889 12.8837C24.4811 13.1454 24.3131 13.3178 24.0812 13.3178C23.8492 13.3178 23.6774 13.1454 23.674 12.8837C23.6676 12.3544 23.6676 11.8246 23.674 11.2953C23.6774 11.0331 23.8483 10.8618 24.0812 10.8618C24.3136 10.8618 24.4821 11.0331 24.4889 11.2953C24.4962 11.5683 24.4904 11.8417 24.4904 12.1152Z" fill="#27282D"/>
</g>
<defs>
<filter id="filter0_d_281_3277" x="0" y="0" width="33" height="33" filterUnits="userSpaceOnUse" color-interpolation-filters="sRGB">
<feFlood flood-opacity="0" result="BackgroundImageFix"/>
<feColorMatrix in="SourceAlpha" type="matrix" values="0 0 0 0 0 0 0 0 0 0 0 0 0 0 0 0 0 0 127 0" result="hardAlpha"/>
<feOffset dy="4"/>
<feGaussianBlur stdDeviation="2"/>
<feComposite in2="hardAlpha" operator="out"/>
<feColorMatrix type="matrix" values="0 0 0 0 0 0 0 0 0 0 0 0 0 0 0 0 0 0 0.25 0"/>
<feBlend mode="normal" in2="BackgroundImageFix" result="effect1_dropShadow_281_3277"/>
<feBlend mode="normal" in="SourceGraphic" in2="effect1_dropShadow_281_3277" result="shape"/>
</filter>
<clipPath id="clip0_281_3277">
<rect width="25" height="25" fill="white" transform="translate(4)"/>
</clipPath>
</defs>
</svg>
