<svg width="25" height="25" viewBox="0 0 25 25" fill="none" xmlns="http://www.w3.org/2000/svg">
<path d="M19.4961 14.0947L19.4648 14.083C19.2383 14.001 19 13.9424 18.7578 13.9033C18.6875 13.8916 18.6328 13.8721 18.5898 13.8447C18.4531 13.7627 18.4375 13.6221 18.4375 13.5205C18.4414 11.5205 18.4453 9.34473 18.4414 6.67676C18.4414 5.1377 17.3398 4.0166 15.8242 4.00879C12.1094 3.99707 8.33984 3.99707 4.62109 4.00879C3.10547 4.0166 2 5.13379 2 6.67285C2 8.95801 2 11.2432 2 13.5283C2 15.0557 2 16.583 2 18.1103C2 18.3603 2.01953 18.5635 2.0625 18.7432C2.36719 20.0205 3.35156 20.7822 4.69531 20.7822C7.75781 20.7822 11.1289 20.7822 15.3008 20.7822C15.3633 20.7822 15.418 20.7861 15.4688 20.7978C15.5625 20.8135 15.6445 20.8525 15.7266 20.9111C16.4258 21.4346 17.1992 21.708 18.0156 21.7236H18.0195C18.0273 21.7236 18.0352 21.7236 18.043 21.7236C18.0508 21.7236 18.0586 21.7236 18.0664 21.7236C20.2344 21.7119 22 19.9385 22 17.7705C22 16.1377 21.0156 14.6924 19.4961 14.0947ZM2.71484 6.73145C2.71484 6.14551 2.90234 5.64551 3.26172 5.29004C3.61719 4.93457 4.11719 4.74707 4.70703 4.74707C8.36328 4.74707 12.0742 4.74707 15.7305 4.74707C16.3203 4.74707 16.8203 4.93457 17.1797 5.29395C17.5391 5.65332 17.7266 6.15332 17.7266 6.74707C17.7266 8.17676 17.7266 9.61035 17.7266 11.04V12.7119L17.6562 12.7588C17.6367 12.7705 17.6172 12.7822 17.6016 12.7939L17.4766 12.8721L17.3867 12.7549C17.375 12.7354 17.3594 12.7197 17.3477 12.7002C17.3242 12.665 17.3008 12.6299 17.2734 12.6064C16.4492 11.7783 15.6367 10.9697 14.6719 10.001C14.5391 9.86816 14.4258 9.80176 14.3281 9.80176C14.2773 9.80176 14.2266 9.81738 14.168 9.85254C14.1094 9.88769 14.0469 9.93848 13.9805 10.0049L13.4102 10.5752C12.2461 11.7432 11.0469 12.9463 9.86719 14.1377C9.80469 14.2002 9.72656 14.2666 9.62109 14.2666C9.51562 14.2666 9.4375 14.2002 9.375 14.1377C8.65234 13.3994 7.91016 12.6572 7.19141 11.9346L6.67188 11.4111C6.39844 11.1377 6.24609 11.1377 5.96094 11.415C5.15625 12.1924 4.33984 12.9814 3.54688 13.7432L2.71875 14.54V6.73145H2.71484ZM14.6211 20.0127C14.5586 20.0791 14.4844 20.0908 14.4297 20.0908C14.4062 20.0908 14.3906 20.0869 14.375 20.0869C14.3672 20.0869 14.3633 20.0869 14.3555 20.0869C11.7227 20.0869 8.24609 20.0908 4.72656 20.0869C3.75781 20.0869 3.04688 19.5752 2.78516 18.6885C2.73828 18.5244 2.71484 18.3408 2.71484 18.1143C2.71484 17.9307 2.71484 17.751 2.71484 17.5674C2.71484 17.0283 2.71484 16.4736 2.71094 15.9268C2.71094 15.7705 2.76172 15.6494 2.875 15.5361C4.0625 14.3486 5.10938 13.2979 6.07422 12.3213C6.14062 12.2549 6.21484 12.1963 6.31641 12.1963C6.41797 12.1963 6.49609 12.2588 6.55469 12.3213C7.24609 13.0166 7.94922 13.7236 8.63281 14.4072C8.84375 14.6182 9.05469 14.8291 9.26562 15.04C9.39453 15.1689 9.51172 15.2314 9.62109 15.2314C9.72656 15.2314 9.84375 15.1689 9.96875 15.0439L10.6641 14.3447C11.7852 13.2197 12.9414 12.0557 14.0781 10.9111C14.1406 10.8486 14.2188 10.7822 14.3242 10.7822C14.4297 10.7822 14.5078 10.8447 14.5742 10.915C15.1523 11.5049 15.7461 12.1025 16.3203 12.6807C16.5859 12.9502 16.8555 13.2197 17.1211 13.4854C17.1289 13.4932 17.1367 13.501 17.1445 13.5088C17.1914 13.5479 17.2578 13.6104 17.2891 13.7236L17.3281 13.8721L17.1562 13.9189C17.1406 13.9229 17.1289 13.9268 17.1133 13.9307C15.8203 14.2979 14.9141 15.0713 14.418 16.2393C13.9609 17.3096 13.9922 18.4189 14.5078 19.54C14.5508 19.6338 14.5977 19.7314 14.6484 19.8252L14.7031 19.9268L14.6211 20.0127ZM20.3555 20.0713C19.75 20.6689 18.9453 21.001 18.082 21.001H18.0664C17.2031 20.9971 16.3906 20.6533 15.7812 20.04C15.1758 19.4268 14.8438 18.6182 14.8516 17.7627C14.8555 16.8838 15.1953 16.0674 15.8086 15.4658C16.4102 14.8721 17.2148 14.5479 18.0742 14.5479H18.1016C18.9688 14.5557 19.7773 14.8955 20.3789 15.5049C20.9805 16.1143 21.3086 16.9268 21.3047 17.7939C21.3008 18.6572 20.9648 19.4697 20.3555 20.0713Z" fill="#27282D"/>
<path d="M10.7538 9.80566C10.7069 10.4385 10.164 10.9385 9.55069 10.9385C9.52334 10.9385 9.496 10.9385 9.46866 10.9346C8.73428 10.8838 8.23819 10.3213 8.28897 9.59863C8.33194 8.98535 8.89444 8.45801 9.48428 8.45801C9.50772 8.45801 9.53116 8.45801 9.55069 8.46191C9.91397 8.48535 10.2382 8.6416 10.4569 8.89551C10.6757 9.1416 10.7812 9.46582 10.7538 9.80566Z" fill="#27282D"/>
<path d="M19.547 18.5244C19.172 18.9111 18.7736 19.3096 18.3282 19.7432C18.1798 19.8877 17.9962 19.8877 17.8478 19.7471C17.4611 19.3838 17.0665 18.9893 16.6017 18.5049C16.5431 18.4463 16.5157 18.3564 16.5197 18.2588C16.5236 18.165 16.5626 18.0752 16.6173 18.0205C16.6837 17.9541 16.7775 17.9229 16.8712 17.9229C16.965 17.9229 17.0548 17.9541 17.1251 18.0166C17.1603 18.0479 17.1954 18.083 17.2267 18.1221L17.2345 18.1299L17.2775 18.1807L17.2853 18.1885C17.2892 18.1924 17.2931 18.2002 17.3009 18.2041C17.3282 18.2354 17.3556 18.2705 17.3829 18.3018L17.4025 18.3252L17.7111 18.6846V16.4619C17.7111 16.4229 17.7111 16.3877 17.7111 16.3486C17.7111 16.251 17.7111 16.1611 17.715 16.0674C17.7228 15.8643 17.8829 15.7041 18.0743 15.7041C18.2697 15.7041 18.4337 15.8721 18.4337 16.0674C18.4376 16.4658 18.4376 16.8682 18.4376 17.2627V17.6689C18.4376 17.7939 18.4376 17.9229 18.4376 18.0479C18.4376 18.0518 18.4376 18.0518 18.4376 18.0557C18.4376 18.0596 18.4376 18.0596 18.4376 18.0635C18.4376 18.083 18.4337 18.1104 18.4376 18.1416V18.6104L18.9298 18.1182L18.965 18.083C18.9845 18.0635 19.004 18.0439 19.0236 18.0244C19.1759 17.8838 19.379 17.8799 19.5197 18.0166C19.6681 18.1494 19.6759 18.3877 19.547 18.5244Z" fill="#27282D"/>
</svg>
