<svg width="25" height="26" viewBox="0 0 25 26" fill="none" xmlns="http://www.w3.org/2000/svg">
<path fill-rule="evenodd" clip-rule="evenodd" d="M22.1614 17.5051C22.1429 17.3383 22.126 17.1704 22.1096 17.002C22.0497 16.3882 21.987 15.7538 21.8087 15.1596C20.7339 11.5763 18.3274 9.28921 14.6552 8.36204C14.4933 8.32116 14.4813 8.295 14.4884 8.16636C14.5048 7.86602 14.4988 7.56514 14.4906 7.25718C14.4682 6.40741 13.9722 5.73588 13.1644 5.46062C13.1214 5.4459 13.0794 5.42955 13.0358 5.41211V3.56322L13.0357 2.31587L13.0353 1.06851C13.0353 0.866289 12.9851 0.714214 12.887 0.616101C12.8107 0.539791 12.7066 0.5 12.5856 0.5C12.4509 0.5 12.1364 0.556142 12.1353 1.0696C12.1351 1.23244 12.1349 1.29862 12.1348 1.30836V1.18398C12.1344 0.564529 12.1343 1.34541 12.1348 1.30836V5.41483C11.1013 5.78657 10.6778 6.39978 10.6773 7.51336C10.6773 7.57768 10.6762 7.64254 10.6745 7.70686L10.6743 7.71958C10.6716 7.8666 10.6689 8.0181 10.6811 8.16908C10.6914 8.295 10.6789 8.32279 10.5159 8.35986C8.38905 8.84225 6.54398 9.97273 5.17966 11.6303C3.81644 13.2879 3.06315 15.3123 3.00155 17.4855C2.99392 17.752 3.01136 17.9286 3.1231 18.0436C3.2343 18.1581 3.40709 18.1804 3.66818 18.1804L4.99815 18.1806H5.00854C5.89173 18.1807 6.77492 18.1808 7.65811 18.1804H9.39526C9.40452 19.0787 9.67488 19.802 10.22 20.3874C10.8277 21.041 11.5854 21.3784 12.4716 21.3904L12.4944 21.3906L12.518 21.3909C13.2664 21.3909 13.9363 21.1418 14.5102 20.6496C15.2341 20.0288 15.5933 19.2204 15.6064 18.181H17.3435C18.7394 18.181 20.1354 18.181 21.5313 18.1804C21.7739 18.1804 21.9586 18.1548 22.0709 18.0294C22.1881 17.8975 22.1827 17.6904 22.1614 17.5051ZM14.6966 18.199C14.6928 19.0978 14.3445 19.7426 13.6343 20.1683C12.8488 20.6393 12.0596 20.6224 11.2883 20.1187C10.626 19.6859 10.3028 19.0575 10.3033 18.1984L14.6966 18.199ZM11.6911 6.87127C11.8045 6.54259 12.1457 6.29185 12.5376 6.26787C12.9491 6.24225 13.3111 6.48045 13.4789 6.87127H11.6911ZM21.2397 17.2609H3.89874C4.15002 14.2134 5.51815 11.9012 7.96607 10.387C10.9405 8.54682 13.994 8.51085 17.0415 10.2785C19.9195 11.9486 21.2157 14.9656 21.2397 17.2609ZM11.593 8.15328V7.77827H13.5683V8.15328H11.593ZM10.0709 21.4665L10.0709 21.4664C10.0066 21.3715 9.94009 21.2735 9.83221 21.2615C9.67305 21.2441 9.44466 21.2795 9.32093 21.3989C8.97609 21.7308 8.6371 22.0787 8.30872 22.4157L8.30859 22.4158L8.29728 22.4274C8.13867 22.5904 7.9795 22.7539 7.8198 22.9158C7.53691 23.202 7.62957 23.438 7.75657 23.5857C7.83833 23.6805 7.94135 23.7329 8.05418 23.7372H8.06835C8.20026 23.7372 8.33544 23.6718 8.45917 23.547C8.99825 23.0047 9.48663 22.5065 9.95212 22.0235C10.0115 21.9619 10.0508 21.8883 10.0917 21.8104C10.1102 21.775 10.1304 21.7374 10.1538 21.6981L10.1952 21.6294L10.1434 21.5678C10.1234 21.5433 10.1037 21.5144 10.0841 21.4856L10.0709 21.4665ZM16.8815 22.4368L16.9253 22.4814L17.142 22.7028L17.3592 22.9246C17.4796 23.0467 17.5396 23.1715 17.5385 23.2952C17.5374 23.4048 17.4894 23.5072 17.3951 23.5994C17.3008 23.692 17.1962 23.7378 17.0883 23.7378C16.9645 23.7378 16.8375 23.6773 16.7192 23.5568C16.6441 23.4802 16.5689 23.4041 16.4938 23.328L16.3808 23.2134L16.3738 23.2064L16.3735 23.2062C15.9822 22.81 15.5782 22.4009 15.1936 21.9849C15.0846 21.8671 15.0644 21.6376 15.1009 21.4812C15.1255 21.376 15.223 21.3171 15.3179 21.2605C15.3511 21.2408 15.3855 21.2201 15.4127 21.1994L15.4738 21.1531L15.5392 21.1929C15.5768 21.2158 15.6122 21.2348 15.6455 21.2523C15.7185 21.291 15.7877 21.328 15.8444 21.3853C16.1918 21.7332 16.5417 22.0901 16.8811 22.4364L16.8815 22.4368ZM13.0344 23.9329V23.5961V22.8379C13.0344 22.67 12.9902 22.5408 12.9019 22.453C12.8229 22.3746 12.7111 22.3337 12.5803 22.3364C12.2958 22.3386 12.1328 22.5234 12.1334 22.8439C12.1345 23.5263 12.135 24.2572 12.1328 24.9773C12.1317 25.3964 12.4015 25.4831 12.5629 25.4978C12.5771 25.4989 12.5912 25.5 12.6048 25.5C12.7068 25.5 12.7978 25.4657 12.8708 25.4003C12.975 25.3065 13.0306 25.1588 13.0327 24.9735C13.0355 24.7287 13.0349 24.4796 13.0344 24.2393C13.0347 24.1709 13.0346 24.1028 13.0345 24.0348L13.0344 23.9329ZM9.06933 11.0318C9.10858 11.0438 9.14346 11.0656 9.17726 11.0994C9.33969 11.2618 9.34732 11.5343 9.1947 11.7197C9.16199 11.7589 9.12983 11.79 9.09604 11.8145C8.17214 12.4844 7.39759 13.2993 6.79365 14.2357C6.68845 14.3993 6.55164 14.4843 6.40502 14.4843C6.32598 14.4843 6.24367 14.4598 6.16137 14.4091C6.04472 14.3377 5.97332 14.245 5.94825 14.1349C5.92045 14.0133 5.95206 13.8809 6.042 13.7413C6.7277 12.6779 7.58346 11.7851 8.58531 11.089C8.71939 10.9964 8.9347 10.9904 9.06933 11.0318Z" fill="#27282D"/>
</svg>
