<svg width="25" height="25" viewBox="0 0 25 25" fill="none" xmlns="http://www.w3.org/2000/svg">
<path d="M20.7715 17.4352C20.6098 17.2664 20.3742 17.1785 20.0965 17.1785H20.093C16.7813 17.1891 13.4133 17.1855 10.1578 17.1855C9.13828 17.1855 8.11875 17.1855 7.09922 17.1855C6.82148 17.1855 6.81094 17.175 6.81094 16.9008C6.81094 15.9129 6.81094 14.925 6.81094 13.9371C6.81094 10.6605 6.81094 7.27148 6.81797 3.93867C6.81797 3.44648 6.62813 3.14766 6.2168 3.00352L6.20625 3H3.61172H3.60117C3.26719 3.06328 3.06328 3.26719 3 3.60469V20.3953L3.00352 20.4059C3.1582 20.8031 3.42891 21 3.83672 21C7.74258 20.9965 11.7117 20.9965 15.5508 20.9965C17.0906 20.9965 18.6305 20.9965 20.1668 20.9965C20.6766 20.9965 20.9895 20.6801 20.993 20.1738C20.993 19.9559 20.993 19.7344 20.9895 19.5164C20.9859 19.0488 20.9824 18.5672 21 18.0961C21.0105 17.8289 20.9297 17.6004 20.7715 17.4352ZM8.18203 17.8395C8.19961 17.857 8.20313 17.8992 8.19961 17.966C8.18555 18.1418 8.18906 18.3176 8.19258 18.4898C8.19258 18.532 8.19609 18.5742 8.19609 18.6164C8.19961 18.8203 8.31914 18.9609 8.49844 18.9645C8.58281 18.968 8.65664 18.9398 8.71641 18.8836C8.7832 18.8203 8.82188 18.7254 8.82539 18.6129C8.82891 18.3668 8.82891 18.1172 8.82539 17.8781C8.82539 17.8324 8.82891 17.8219 8.83242 17.8219C8.83242 17.8219 8.84297 17.8113 8.88516 17.8148C9.18047 17.8219 9.49336 17.8219 9.81328 17.8148C9.85195 17.8148 9.85899 17.8219 9.85899 17.8219C9.85899 17.8219 9.86602 17.8289 9.8625 17.8711C9.85547 18.0258 9.85547 18.1664 9.8625 18.2965C9.87305 18.4969 10.0066 18.6305 10.1895 18.6234C10.3617 18.6164 10.4813 18.4863 10.4883 18.293C10.4953 18.1523 10.4953 18.0152 10.4883 17.8887C10.4848 17.843 10.4918 17.8324 10.4953 17.8289C10.4953 17.8289 10.5059 17.8184 10.548 17.8219C10.875 17.8289 11.1773 17.8289 11.4762 17.8219C11.5148 17.8219 11.5254 17.8289 11.5254 17.8289C11.5289 17.8324 11.5324 17.8465 11.5324 17.8922C11.5289 18.1242 11.5289 18.3562 11.5324 18.5918C11.5324 18.8238 11.652 18.968 11.8418 18.975C11.9262 18.9785 11.9965 18.9504 12.0527 18.8977C12.123 18.8309 12.1617 18.7219 12.1617 18.5883V18.4758C12.1617 18.2824 12.1652 18.082 12.1582 17.8887C12.1582 17.8465 12.1652 17.8359 12.1652 17.8324C12.1688 17.8289 12.1793 17.8219 12.2215 17.8254C12.5133 17.8289 12.8156 17.8289 13.1496 17.8254C13.1953 17.8254 13.1988 17.8324 13.1988 17.8324C13.1988 17.8324 13.2059 17.8395 13.2023 17.8781C13.1953 18.0012 13.1953 18.1383 13.2023 18.3C13.2094 18.5004 13.3395 18.6375 13.5223 18.634C13.6945 18.6305 13.8176 18.5004 13.8281 18.307C13.8281 18.2895 13.8281 18.2719 13.8281 18.2543C13.8281 18.2367 13.8281 18.2191 13.8281 18.2051C13.8316 18.1523 13.8246 18.0996 13.8211 18.0469C13.8105 17.9625 13.8035 17.8746 13.8387 17.843C13.8844 17.8078 13.9863 17.8148 14.0777 17.8219C14.1234 17.8254 14.1691 17.8289 14.2113 17.8289C14.2816 17.8289 14.3555 17.8289 14.4258 17.8289C14.5523 17.8289 14.6789 17.8324 14.809 17.8254C14.8547 17.8219 14.8652 17.8324 14.8688 17.8324C14.8723 17.8359 14.8793 17.85 14.8793 17.8992C14.8723 18.1172 14.8758 18.3387 14.8758 18.5531V18.6164C14.8793 18.8309 15.0023 18.975 15.1852 18.975C15.3715 18.975 15.498 18.8309 15.5016 18.6164V18.525C15.5051 18.3246 15.5086 18.1207 15.498 17.9168C15.4945 17.8605 15.5051 17.843 15.5086 17.8359C15.5227 17.8219 15.5789 17.8219 15.6 17.8219C15.8707 17.8289 16.1555 17.8289 16.4402 17.8219C16.4578 17.8219 16.5176 17.8184 16.5316 17.8359C16.5387 17.843 16.5457 17.8605 16.5422 17.9133C16.5316 18.0434 16.5352 18.1734 16.5422 18.3035V18.3211C16.5492 18.4934 16.6512 18.6023 16.827 18.6234C16.9078 18.634 16.9852 18.6094 17.0484 18.5602C17.1117 18.5074 17.1539 18.4301 17.1609 18.3422C17.175 18.1945 17.1715 18.0434 17.168 17.8957V17.8641C17.168 17.8289 17.1715 17.8219 17.1715 17.8219C17.1715 17.8219 17.1785 17.8148 17.2102 17.8184C17.5898 17.8219 17.8816 17.8219 18.1559 17.8184C18.1945 17.8184 18.2016 17.8254 18.2016 17.8254C18.2016 17.8254 18.2086 17.8324 18.2086 17.8781C18.2051 18.1313 18.2016 18.3809 18.2086 18.6305C18.2121 18.7641 18.2789 18.8801 18.3809 18.9363C18.4758 18.9891 18.5848 18.982 18.6797 18.9258C18.7816 18.8625 18.8344 18.7641 18.8344 18.6305C18.8344 18.5461 18.8344 18.4582 18.8344 18.3738C18.8344 18.2191 18.8344 18.0574 18.8309 17.8957C18.8309 17.85 18.8379 17.8359 18.8414 17.8324C18.8449 17.8289 18.859 17.8219 18.9047 17.8219C19.3441 17.8289 19.7941 17.8254 20.1809 17.8219H20.1844C20.2477 17.8219 20.2934 17.8359 20.3215 17.8641C20.3496 17.8922 20.3637 17.9379 20.3637 18.0047C20.3637 18.3352 20.3637 18.6656 20.3637 18.9961C20.3637 19.3934 20.3637 19.7906 20.3637 20.1879C20.3637 20.3355 20.3215 20.3742 20.1738 20.3742C19.7906 20.3742 19.4074 20.3742 19.0242 20.3742H18.5672H4.06875L4.58555 19.8574C5.27461 19.1684 5.95313 18.4934 6.62813 17.8184C6.63164 17.8148 6.63867 17.8078 6.64219 17.8043C6.6668 17.7797 6.67383 17.7727 6.69844 17.7762C7.01836 17.843 7.34531 17.8324 7.6582 17.8219C7.78477 17.8184 7.91836 17.8148 8.04844 17.8148C8.12227 17.8113 8.16445 17.8184 8.18203 17.8395ZM3.6293 7.33125V7.01133C3.63281 6.97969 3.63281 6.94805 3.6293 6.92344C3.6293 5.91094 3.6293 4.89492 3.6293 3.88242C3.6293 3.65391 3.65039 3.63281 3.88242 3.63281C4.56797 3.63281 5.25703 3.63281 5.94258 3.63281C6.15703 3.63281 6.18164 3.65742 6.18164 3.87891C6.18164 3.98789 6.18164 4.09336 6.18164 4.20234C6.18164 4.43438 6.18164 4.67344 6.18516 4.9125C6.18516 4.96523 6.17813 4.98281 6.17461 4.98633C6.17109 4.98984 6.15703 4.99687 6.10781 4.99687C5.89688 4.98984 5.68242 4.98984 5.475 4.99336H5.39063C5.27813 4.99336 5.17969 5.03203 5.11641 5.09531C5.06016 5.15156 5.03203 5.22539 5.03555 5.30977C5.03906 5.49258 5.1832 5.61914 5.39766 5.61914C5.62969 5.62266 5.8793 5.62266 6.13242 5.61914C6.17109 5.61914 6.17813 5.62617 6.18164 5.62617C6.18164 5.62617 6.18867 5.6332 6.18867 5.67539C6.18516 6.00234 6.18516 6.30469 6.18867 6.60352C6.18867 6.6457 6.18164 6.65625 6.17813 6.65977C6.17461 6.66328 6.16406 6.67031 6.12188 6.6668C6.00234 6.65977 5.87227 6.65977 5.71406 6.6668C5.51016 6.67383 5.37656 6.80039 5.37656 6.9832C5.38008 7.16602 5.51367 7.28555 5.71758 7.29609C5.84063 7.29961 5.97422 7.29961 6.12188 7.29609C6.16758 7.29609 6.17461 7.29961 6.17461 7.29961C6.17461 7.29961 6.18164 7.30664 6.18164 7.3418C6.17461 7.65469 6.17461 7.97461 6.18164 8.2875C6.18164 8.32266 6.17461 8.32969 6.17461 8.32969C6.17109 8.3332 6.16055 8.33672 6.11836 8.33672C5.8793 8.3332 5.6332 8.3332 5.36602 8.33672C5.22539 8.33672 5.12344 8.4 5.06367 8.51602C5.01094 8.62148 5.01797 8.73047 5.08828 8.83242C5.14805 8.92031 5.24297 8.96602 5.37305 8.96602H5.37656C5.45742 8.96602 5.5418 8.96602 5.62266 8.96602C5.77734 8.96602 5.93555 8.96953 6.09375 8.9625C6.14648 8.95898 6.16406 8.96953 6.16758 8.97305C6.17813 8.98359 6.18164 9.01172 6.18164 9.05391C6.17109 9.39844 6.17109 9.66211 6.18164 9.91172C6.18516 9.97148 6.17461 9.98906 6.16758 9.99609C6.15703 10.0066 6.12891 10.0102 6.0832 10.0066C5.96367 9.99609 5.84766 9.99961 5.71055 10.0066C5.50664 10.0137 5.37305 10.1437 5.37656 10.3266C5.37656 10.5059 5.51719 10.6289 5.71758 10.6359H5.7457C5.8582 10.6395 5.97422 10.643 6.09023 10.6324C6.13594 10.6289 6.16055 10.6324 6.17109 10.643C6.17813 10.65 6.18516 10.6641 6.18516 10.7168C6.17813 10.977 6.17461 11.2512 6.18516 11.6098C6.18516 11.6555 6.17813 11.6695 6.17461 11.6695C6.17109 11.673 6.16055 11.6801 6.11133 11.6801C5.91797 11.673 5.72461 11.6766 5.53477 11.6766H5.4082C5.17617 11.6766 5.03203 11.7961 5.02852 11.9859C5.02852 12.0703 5.05664 12.1441 5.10938 12.2004C5.17617 12.2672 5.27813 12.3059 5.40117 12.3059H5.51719C5.71406 12.3059 5.91797 12.3094 6.11836 12.3023C6.16055 12.3023 6.17109 12.3094 6.17109 12.3094C6.17109 12.3094 6.17813 12.3199 6.17813 12.3656C6.17109 12.668 6.17109 12.9738 6.17813 13.2762C6.17813 13.3254 6.17109 13.3395 6.16758 13.343C6.16406 13.3465 6.15352 13.3535 6.11133 13.35C5.96367 13.3395 5.81602 13.3465 5.68594 13.35C5.50664 13.357 5.38008 13.4801 5.37305 13.6488C5.36602 13.8211 5.49258 13.9582 5.66484 13.9723C5.81602 13.9863 5.9707 13.9793 6.12539 13.9758C6.16758 13.9758 6.17461 13.9828 6.17461 13.9828C6.17461 13.9828 6.18164 13.9898 6.18164 14.0285C6.17461 14.3203 6.17461 14.6262 6.18164 14.9566C6.18164 15.0023 6.17461 15.0129 6.17109 15.0129C6.16758 15.0164 6.15703 15.0234 6.11836 15.0199C5.8793 15.0129 5.63672 15.0164 5.40117 15.0199C5.17969 15.0199 5.03906 15.1359 5.03203 15.3187C5.02852 15.4031 5.05664 15.477 5.10938 15.5367C5.17617 15.607 5.27813 15.6457 5.39766 15.6492H5.46797C5.66836 15.6527 5.87578 15.6562 6.0832 15.6457C6.13945 15.6422 6.16406 15.6492 6.17109 15.6598C6.18516 15.6738 6.18867 15.723 6.18516 15.7582C6.17813 16.0465 6.18164 16.3418 6.18164 16.6266C6.18164 16.732 6.18164 16.841 6.18164 16.9465C6.18164 16.9605 6.18164 16.9711 6.17813 16.9852C6.17461 17.0238 6.17109 17.066 6.18867 17.1047C6.26953 17.3016 6.16406 17.407 6.02695 17.5406L5.99531 17.5687C5.39062 18.1664 4.77891 18.7781 4.18828 19.3723C4.00195 19.5586 3.81563 19.7449 3.6293 19.9348V8.00625C3.6293 7.98516 3.6293 7.96406 3.6293 7.94297C3.6293 7.73203 3.6293 7.53164 3.6293 7.33125Z" fill="#27282D"/>
<path d="M10.0243 12.1195C10.0208 12.5133 10.186 12.798 10.5235 12.9914C11.3637 13.4695 12.2461 13.9793 13.3887 14.6438C13.5504 14.7387 13.7086 14.7844 13.8704 14.7844C14.025 14.7844 14.1797 14.7387 14.3309 14.6508C14.7 14.4363 15.0692 14.2254 15.4383 14.0109C16.0395 13.6629 16.6407 13.3184 17.2383 12.9703C17.5512 12.791 17.7059 12.5133 17.7059 12.1512C17.7024 11.7609 17.7024 11.3637 17.7059 10.9805C17.7059 10.8188 17.7059 10.6535 17.7059 10.4918C17.7059 10.3301 17.7059 10.1684 17.7059 10.0031C17.7024 9.6375 17.7024 9.25781 17.7094 8.88516C17.72 8.46328 17.5512 8.16797 17.1786 7.95703C16.159 7.38047 15.143 6.78985 14.3731 6.33633C14.025 6.13242 13.7016 6.13242 13.3536 6.33985C12.5274 6.825 11.6274 7.34532 10.52 7.97813C10.1825 8.17149 10.0208 8.44922 10.0208 8.83594C10.0278 10.0418 10.0278 11.1141 10.0243 12.1195ZM13.554 10.752C13.5504 11.6133 13.5504 12.4535 13.5504 13.3465V14.0109L13.3008 13.8668C12.8579 13.6102 12.4254 13.3605 11.9965 13.1109L11.8981 13.0547C11.543 12.8508 11.1809 12.6398 10.8188 12.4359C10.7028 12.3691 10.6536 12.2918 10.6536 12.1758C10.6536 11.4656 10.6536 10.759 10.6536 10.0488C10.6536 9.69727 10.6536 9.34571 10.6536 8.99414L11.5747 9.525C12.1934 9.88008 12.8333 10.2492 13.4625 10.6113C13.5293 10.65 13.554 10.6781 13.554 10.752ZM16.4684 8.62149C16.2821 8.73047 16.0958 8.83594 15.9094 8.94492C15.709 9.06094 15.6458 9.23672 15.7407 9.40196C15.8356 9.56719 16.0254 9.59883 16.2223 9.48633C16.4262 9.37032 16.6266 9.2543 16.8411 9.13125C16.9219 9.08555 16.9993 9.03985 17.0836 8.99063V9.69024C17.0836 9.90821 17.0836 10.1262 17.0836 10.3441C17.0836 10.9313 17.0836 11.5395 17.0836 12.1371C17.0836 12.2777 17.0415 12.3586 16.9325 12.4219C16.254 12.8121 15.5684 13.2094 14.904 13.5926L14.1797 14.0109V13.4695C14.1797 12.5379 14.1797 11.6555 14.1762 10.752C14.1762 10.6852 14.1938 10.6535 14.2536 10.6219C14.4997 10.4883 14.7422 10.3441 14.9813 10.207L15.027 10.1824C15.1395 10.1156 15.2133 10.0313 15.2344 9.93633C15.252 9.85899 15.2415 9.78164 15.1958 9.70782C15.1395 9.61289 15.0516 9.56367 14.9497 9.56367C14.8758 9.56367 14.7985 9.58828 14.7141 9.63399C14.4504 9.78516 14.1938 9.93282 13.9442 10.077C13.8879 10.1121 13.8598 10.1191 13.8106 10.091C12.9528 9.5918 12.0774 9.08555 11.2301 8.59688L10.97 8.44571C10.9805 8.43867 10.9911 8.43516 11.0016 8.42813C11.0122 8.4211 11.0227 8.41758 11.0333 8.41055C11.3778 8.21016 11.7223 8.00977 12.0704 7.81289C12.6012 7.50703 13.1497 7.19063 13.6875 6.87774C13.8176 6.80039 13.9125 6.79688 14.025 6.86367C14.679 7.24336 15.3469 7.63008 15.9903 7.99922C16.2469 8.14688 16.5071 8.29805 16.7637 8.44571C16.6653 8.50547 16.5668 8.56172 16.4684 8.62149Z" fill="#27282D"/>
<path d="M8.52654 6.3539C8.53357 6.55429 8.66365 6.6914 8.84294 6.6914C9.02576 6.6914 9.1488 6.55429 9.15232 6.35038V6.29413C9.15584 6.15702 9.15935 6.01288 9.1488 5.87577C9.14529 5.82304 9.1488 5.78788 9.16287 5.77734C9.1699 5.7703 9.19451 5.75976 9.25076 5.76327C9.38787 5.77382 9.53201 5.7703 9.6656 5.76679H9.72537C9.9363 5.75976 10.0594 5.64374 10.0594 5.45741C10.0594 5.27109 9.92927 5.14804 9.72537 5.14101C9.52498 5.13749 9.28591 5.13046 9.04333 5.14101C8.72341 5.15507 8.53005 5.35898 8.51951 5.68593C8.51599 5.76327 8.51951 5.84062 8.51951 5.91796C8.51951 5.95312 8.51951 5.98476 8.51951 6.01991C8.51951 6.05507 8.51951 6.09023 8.51951 6.12187C8.52302 6.19921 8.52302 6.27655 8.52654 6.3539Z" fill="#27282D"/>
<path d="M18.0012 5.7703C18.17 5.77733 18.3317 5.78085 18.4934 5.7703C18.5461 5.76678 18.5637 5.77733 18.5672 5.78085C18.5743 5.78788 18.5813 5.80897 18.5778 5.86171C18.5708 6.01639 18.5708 6.1746 18.5743 6.32577V6.35389C18.5778 6.55428 18.7079 6.69491 18.8872 6.69491C19.0665 6.69491 19.193 6.55428 19.2 6.35389C19.2036 6.27655 19.2036 6.19921 19.2 6.12186C19.2 6.08671 19.2 6.05507 19.2 6.01991C19.2 5.98475 19.2 5.94608 19.2 5.91093C19.2 5.83007 19.2 5.74921 19.2 5.66835C19.1895 5.36952 18.9961 5.16561 18.7079 5.14803C18.4618 5.13397 18.2157 5.13749 17.9872 5.14452C17.8008 5.15155 17.6672 5.28514 17.6672 5.46093C17.6778 5.63671 17.8114 5.76327 18.0012 5.7703Z" fill="#27282D"/>
<path d="M9.0469 15.825C9.12424 15.8285 9.19807 15.825 9.2719 15.825C9.30354 15.825 9.3387 15.825 9.37034 15.825C9.40901 15.825 9.44417 15.825 9.47932 15.825C9.51448 15.825 9.55315 15.825 9.59182 15.825C9.63752 15.825 9.68323 15.825 9.72542 15.825C9.92932 15.818 10.0594 15.6949 10.0594 15.5121C10.0594 15.3293 9.92581 15.2027 9.7219 15.1992C9.54963 15.1957 9.3844 15.1922 9.21213 15.1992C9.16643 15.2027 9.15588 15.1922 9.15237 15.1922C9.14885 15.1887 9.14182 15.1746 9.14534 15.1289C9.15237 14.9637 9.14885 14.7949 9.14534 14.6367C9.14182 14.4434 9.02229 14.3133 8.84651 14.3063C8.76213 14.3027 8.68479 14.3309 8.62502 14.3871C8.56174 14.4469 8.52307 14.5348 8.51956 14.6332C8.51252 14.9004 8.51252 15.1184 8.51956 15.3152C8.53713 15.6106 8.74807 15.8145 9.0469 15.825Z" fill="#27282D"/>
<path d="M18.5284 15.1992C18.328 15.1922 18.1488 15.1922 17.9835 15.1992C17.8077 15.2062 17.6777 15.3328 17.6741 15.5051C17.6706 15.6773 17.8042 15.818 17.987 15.825C18.0362 15.8285 18.082 15.8285 18.1312 15.8285C18.1663 15.8285 18.205 15.8285 18.2402 15.8285C18.2753 15.8285 18.314 15.8285 18.3491 15.8285C18.3808 15.8285 18.4159 15.8285 18.4476 15.8285C18.5214 15.8285 18.5952 15.8285 18.6726 15.8285C18.9855 15.8215 19.1964 15.6211 19.207 15.3152C19.214 15.1113 19.214 14.8898 19.207 14.6332C19.2034 14.4469 19.0734 14.3098 18.8976 14.3062C18.8941 14.3062 18.8941 14.3062 18.8905 14.3062C18.7112 14.3062 18.5847 14.4434 18.5812 14.6402C18.5777 14.8441 18.5777 14.9988 18.5812 15.15C18.5812 15.1922 18.5741 15.1992 18.5741 15.1992C18.5741 15.1922 18.5671 15.1992 18.5284 15.1992Z" fill="#27282D"/>
</svg>
