<svg width="30" height="30" viewBox="0 0 30 30" fill="none" xmlns="http://www.w3.org/2000/svg">
<path d="M15.0003 21.2501C16.7046 21.2501 18.0862 19.8684 18.0862 18.1641C18.0862 16.4598 16.7046 15.0782 15.0003 15.0782C13.2959 15.0782 11.9143 16.4598 11.9143 18.1641C11.9143 19.8684 13.2959 21.2501 15.0003 21.2501Z" fill="#666666"/>
<path d="M6.88307 20.5206L5.00024 22.8253L7.97682 22.8644L7.56276 21.9738L15.1331 18.4464L14.8714 17.88L7.29713 21.4113L6.88307 20.5206Z" fill="#666666"/>
<path d="M7.20728 20.3805L7.7229 19.6657V19.8688L7.22681 19.1774H7.54321L7.88697 19.6579L7.75415 19.6618L8.094 19.1774H8.39478L7.90259 19.8571V19.6579L8.42213 20.3805H8.10181L7.74634 19.8688H7.87525L7.52759 20.3805H7.20728Z" fill="#666666"/>
<path d="M23.1167 20.5273L24.9996 22.832L22.023 22.8711L22.4371 21.9804L14.8667 18.4492L15.1284 17.8867L22.7027 21.4179L23.1167 20.5273Z" fill="#666666"/>
<path d="M22.1003 20.3792V19.887L22.1628 20.055L21.6316 19.1722H21.9285L22.3347 19.848H22.1628L22.5691 19.1722H22.8425L22.3152 20.055L22.3777 19.887V20.3792H22.1003Z" fill="#666666"/>
<path d="M16.2935 9.80864L15.0005 7.12894L13.7075 9.80864H14.6919V18.1642H15.313V9.80864H16.2935Z" fill="#666666"/>
<path d="M12.9885 11.5906V11.4109L13.7346 10.5125L13.7698 10.614H13.0042V10.3875H14.0159V10.5672L13.2737 11.4656L13.2385 11.364H14.0432V11.5906H12.9885Z" fill="#666666"/>
</svg>
