<svg width="55" height="30" viewBox="0 0 55 30" fill="none" xmlns="http://www.w3.org/2000/svg">
<rect width="54.2308" height="30" rx="15" fill="url(#paint0_linear_445_8692)"/>
<path d="M42.4457 10.9351C42.2196 9.22407 41.5466 7.6842 40.5647 6.40787C40.3269 6.09917 40.5643 5.64751 40.9515 5.69384C45.4142 6.23208 49.0749 9.89902 49.3014 14.6999C49.5143 19.2316 46.3756 23.368 41.9525 24.3789C38.8835 25.0805 35.8972 24.2298 33.7147 22.4025C33.42 22.1553 33.5796 21.6699 33.9624 21.6356C34.064 21.6269 34.1667 21.6154 34.2692 21.6018C39.4725 20.9145 43.1332 16.1394 42.4457 10.9351Z" fill="white"/>
<path fill-rule="evenodd" clip-rule="evenodd" d="M40.9938 5.33991C40.2626 5.25239 39.8706 6.09101 40.2823 6.62542C41.2274 7.85395 41.8748 9.33532 42.0923 10.9818C42.754 15.9909 39.2306 20.5869 34.2225 21.2485C34.1247 21.2614 34.0274 21.2722 33.932 21.2804L33.9313 21.2805L33.9306 21.2805C33.2445 21.342 32.9382 22.2164 33.4856 22.6756L33.4859 22.6758C35.7495 24.571 38.8488 25.454 42.0319 24.7264C46.6234 23.6771 49.8785 19.387 49.6574 14.6831L49.6574 14.6831C49.4225 9.70249 45.6236 5.8983 40.9941 5.33995L40.9938 5.33991ZM48.9453 14.7166C48.7273 10.0956 45.2048 6.56595 40.9089 6.04776L48.9453 14.7166ZM40.9089 6.04776C40.8872 6.04519 40.8753 6.04962 40.8677 6.05387C40.8581 6.0592 40.8468 6.06947 40.838 6.086C40.8202 6.11926 40.8213 6.15685 40.8471 6.19032L40.8472 6.19051C41.8659 7.51459 42.5645 9.11289 42.799 10.8884C43.5123 16.2878 39.7143 21.2421 34.3159 21.9552C34.2091 21.9693 34.1013 21.9814 33.994 21.9906C33.9732 21.9925 33.9603 21.9994 33.9507 22.0075C33.9396 22.0169 33.9294 22.0313 33.9235 22.0495C33.9176 22.0676 33.9178 22.0839 33.9208 22.0956C33.9232 22.1052 33.9284 22.1165 33.9438 22.1294C36.0451 23.8886 38.9183 24.7068 41.873 24.0314C46.1278 23.059 49.1501 19.0761 48.9453 14.7167" fill="white"/>
<rect x="28.269" y="7.38452" width="2.88462" height="2.88462" rx="1.44231" fill="white"/>
<rect x="25.3848" y="12.072" width="1.5625" height="1.5625" rx="0.78125" fill="white"/>
<path d="M17.4628 4.80298L18.0395 6.53466L19.7894 6.57386C19.9861 6.57842 20.0675 6.84006 19.9104 6.96496L18.516 8.07444L19.0217 9.83073C19.0787 10.0281 18.8668 10.1899 18.7045 10.0719L17.2657 9.0262L15.8273 10.0719C15.6654 10.1899 15.453 10.0276 15.51 9.83073L16.0153 8.07444L14.6205 6.96496C14.4647 6.84052 14.5456 6.57797 14.7419 6.57386L16.4923 6.53466L17.0685 4.80298C17.1351 4.6088 17.3975 4.6088 17.4628 4.80298Z" fill="white"/>
<path d="M24.0138 21.2898L24.331 22.2422L25.2935 22.2638C25.4017 22.2663 25.4464 22.4102 25.36 22.4789L24.5931 23.0891L24.8712 24.0551C24.9026 24.1636 24.786 24.2526 24.6968 24.1877L23.9054 23.6126L23.1143 24.1877C23.0253 24.2526 22.9085 24.1634 22.9398 24.0551L23.2177 23.0891L22.4506 22.4789C22.3649 22.4105 22.4094 22.2661 22.5173 22.2638L23.4801 22.2422L23.797 21.2898C23.8336 21.183 23.9779 21.183 24.0138 21.2898Z" fill="white"/>
<circle cx="10.5681" cy="20.1137" r="1.02273" fill="white"/>
<defs>
<linearGradient id="paint0_linear_445_8692" x1="6.81818" y1="1.69375e-06" x2="51.1364" y2="31.3636" gradientUnits="userSpaceOnUse">
<stop stop-color="#474B5F"/>
<stop offset="1" stop-color="#27282D"/>
</linearGradient>
</defs>
</svg>
