<svg width="25" height="25" viewBox="0 0 25 25" fill="none" xmlns="http://www.w3.org/2000/svg">
<path d="M21.9497 10.0431C21.7934 9.53919 21.352 9.24621 20.7348 9.24231C20.1801 9.23449 19.6606 9.2384 19.1566 9.24621C19.0824 9.24621 18.9965 9.2384 18.9379 9.1798C18.8754 9.1173 18.8715 9.03527 18.8715 8.96496C18.8793 8.52354 18.8754 8.07431 18.8754 7.6368V7.30476C18.8754 6.45318 18.3676 5.94536 17.516 5.94536C15.5472 5.94536 13.512 5.94536 11.508 5.94536H11.5041C11.0315 5.94536 10.6486 5.75004 10.3674 5.36331C10.3322 5.31644 10.2971 5.26565 10.2619 5.21878C10.1721 5.09377 10.0822 4.96487 9.98456 4.84377C9.55095 4.30469 8.99625 4.02344 8.33999 4.00781C8.02357 4 7.70325 4 7.38293 4C7.00402 4 6.6251 4.00391 6.254 4.00781H6.16806C5.54305 4.01563 4.94538 4.4297 4.71491 5.01565C4.68365 5.08987 4.65631 5.1719 4.62897 5.24612C4.60943 5.30472 4.5899 5.36331 4.56646 5.418C4.43756 5.75395 4.16802 5.94145 3.80863 5.94536C3.59769 5.94536 3.30472 5.94926 3.1094 5.94926C2.45704 5.94926 2 6.50396 2 7.29695V19.6254C2 20.4105 2.67189 20.6918 3.30081 20.6918C7.8517 20.6918 12.4651 20.6918 17.0121 20.6918C17.8832 20.6918 18.6605 20.1449 18.9457 19.3324C19.7504 17.0511 20.559 14.7346 21.3442 12.4885L21.9067 10.8752C22.0161 10.5783 22.0278 10.3048 21.9497 10.0431ZM2.8633 7.33601C2.8633 6.91803 2.96877 6.81647 3.39456 6.81256C3.46488 6.81256 3.53519 6.81256 3.60551 6.81647C3.77348 6.82038 3.92973 6.82428 4.08598 6.79303C4.73444 6.67194 5.16804 6.31646 5.37117 5.73832C5.6368 4.97658 5.81259 4.85549 6.61339 4.87502C7.16809 4.88674 7.7306 4.88283 8.20717 4.87502C8.69937 4.86721 9.09391 5.07034 9.37907 5.4766C9.48064 5.62113 9.58611 5.76176 9.7033 5.91801C10.1525 6.51178 10.7463 6.81256 11.4729 6.81256C12.8909 6.81647 14.3323 6.81647 15.7269 6.81647C16.3167 6.81647 16.9105 6.81647 17.5004 6.81647C17.8949 6.81647 18.0082 6.93366 18.0082 7.3282C18.0082 7.48055 18.0082 7.63289 18.0082 7.78915C18.0082 8.16416 18.0043 8.55088 18.0121 8.9298C18.0121 9.01574 18.0082 9.10949 17.9418 9.1759C17.8754 9.24231 17.7816 9.25403 17.6918 9.25403C14.8753 9.25012 12.0159 9.25012 9.24626 9.25012H7.14074C6.10556 9.25012 5.37508 9.76966 5.03132 10.7541C4.6485 11.8517 4.25786 12.965 3.87504 14.0627L3.53128 15.0471C3.46097 15.2503 3.39066 15.4534 3.32034 15.6526L3.19143 16.0237L3.05081 16.4222C3.01565 16.5237 2.86721 16.4964 2.86721 16.3909V7.33601H2.8633ZM21.0903 10.6017C20.9067 11.1408 20.7153 11.6877 20.5278 12.215L20.4809 12.3478C20.1059 13.4182 19.7309 14.4885 19.3559 15.5589C18.9574 16.6956 18.559 17.8284 18.1644 18.9652C17.9652 19.5277 17.5472 19.8285 16.9496 19.8285H3.45706H3.418H3.37894C3.36331 19.8285 3.35159 19.8285 3.33597 19.8285C3.17971 19.8285 3.01955 19.8168 2.94143 19.7074C2.85939 19.5941 2.90627 19.4339 2.96096 19.2816C3.19925 18.598 3.43753 17.9183 3.67582 17.2347C4.41021 15.1409 5.1446 13.0471 5.87899 10.9533C6.0665 10.4103 6.50791 10.1017 7.08605 10.1017H20.7387C20.8754 10.1056 21.02 10.1212 21.0942 10.2306C21.1645 10.34 21.1332 10.4767 21.0903 10.6017Z" fill="#27282D"/>
</svg>
