<svg width="30" height="30" viewBox="0 0 30 30" fill="none" xmlns="http://www.w3.org/2000/svg">
<path d="M22.8105 12.8913C22.8105 12.2197 22.8105 11.5481 22.8105 10.8804C22.8105 10.0955 22.3966 9.52545 21.6743 9.3185C21.4283 9.24822 21.2135 9.24431 21.0144 9.29898C20.9519 9.3185 20.784 9.36536 20.6552 9.26384C20.5302 9.16232 20.538 8.99832 20.5419 8.91242C20.5497 8.65862 20.5497 8.32672 20.4404 8.00654C20.1436 7.12019 19.0777 6.57744 18.203 6.86639L18.1835 6.87029C18.1093 6.90543 17.9688 6.964 17.836 6.89372C17.7071 6.82343 17.6759 6.68287 17.6603 6.56963C17.5627 5.74966 16.9223 5.08196 16.1648 5.01168C15.2785 4.92968 14.7865 5.30062 14.6186 5.46462C14.2164 5.84727 14.0173 6.2924 14.0055 6.82734C14.0016 6.95619 14.0055 7.08505 14.0055 7.22171C14.0055 7.29199 14.0055 7.36228 14.0055 7.43646V7.70588L13.7478 7.62779C13.4628 7.54189 13.2246 7.50675 13.0021 7.52627C12.2055 7.58094 11.53 8.24082 11.4597 9.03346C11.448 9.1467 11.4441 9.25993 11.4441 9.3966V14.5234L11.0888 14.0744C10.9716 13.926 10.8623 13.7971 10.6124 13.6058C10.1907 13.2856 9.62844 13.188 9.11302 13.3442C8.61323 13.4926 8.23448 13.8518 8.06658 14.3282C7.89087 14.8397 8.06658 15.4996 8.55075 16.136C9.37463 17.2332 9.69482 18.2289 10.0033 19.1973C10.2727 20.0446 10.5538 20.9192 11.1786 21.8915C11.4831 22.3717 11.8228 22.8754 12.268 23.2893C13.2129 24.1718 14.3413 24.7145 15.6182 24.898C17.0043 25.1011 18.3163 24.9996 19.5189 24.6052C20.9402 24.1327 21.9125 23.1331 22.4083 21.6416C22.6856 20.8099 22.8183 19.9196 22.8144 18.9239C22.8105 16.9052 22.8105 14.8631 22.8105 12.8913ZM22.0257 19.0176C22.0257 19.7986 21.9281 20.5092 21.725 21.1964C21.3111 22.6138 20.4248 23.5236 19.0933 23.9063C18.4178 24.0976 17.7032 24.1913 16.9575 24.1913C16.6685 24.1913 16.3757 24.1757 16.0789 24.1483C14.7709 24.0234 13.6307 23.4963 12.6897 22.5787C11.5729 21.4932 11.0263 19.9196 10.5421 18.5335C10.2805 17.7838 10.0345 17.077 9.72996 16.5343C9.58548 16.2805 9.42539 16.0462 9.28483 15.8432C8.95293 15.3629 8.66399 14.9451 8.8436 14.5273C8.9295 14.3243 9.11302 14.1642 9.3473 14.0939C9.63625 14.008 9.96814 14.0587 10.2376 14.2345C10.7647 14.582 10.9131 15.1208 11.0458 15.5972C11.1395 15.933 11.2254 16.2493 11.4285 16.4952C11.6042 16.71 11.7877 16.7295 11.9127 16.71C12.0688 16.6866 12.186 16.585 12.2172 16.5031C12.2563 16.4015 12.2602 16.2766 12.2602 16.1438C12.2602 15.3824 12.2602 14.6171 12.2602 13.8518C12.2602 12.3485 12.2563 10.7945 12.2602 9.26774C12.2602 8.70547 12.6311 8.29939 13.1387 8.29939C13.6541 8.29939 14.0134 8.69766 14.0134 9.26774V13.8869C14.0134 13.9533 14.0134 14.0119 14.0173 14.0744C14.029 14.2345 14.1383 14.3711 14.2945 14.418C14.4233 14.4531 14.5444 14.4375 14.642 14.3633C14.7513 14.2813 14.8138 14.1407 14.8138 13.9767V6.98743C14.8138 6.90543 14.8138 6.81953 14.8216 6.72972C14.8607 6.30021 15.1691 5.93318 15.5908 5.81213C16.0047 5.69499 16.442 5.84727 16.7037 6.19869C16.8794 6.43687 16.9067 6.70239 16.9067 6.95619V13.8596C16.9067 13.9611 16.9106 14.0353 16.9223 14.1017C16.9457 14.211 17.0082 14.3008 17.098 14.3555C17.1917 14.4141 17.3011 14.4297 17.4104 14.3984C17.5549 14.3594 17.7032 14.2735 17.7032 13.9221L17.715 8.77966C17.715 8.65081 17.715 8.50243 17.7462 8.36186C17.8672 7.86597 18.3163 7.54579 18.8161 7.59655C19.3549 7.65122 19.7493 8.06511 19.761 8.58833C19.7649 8.96708 19.7649 9.34584 19.7649 9.71287C19.7649 9.96277 19.7649 10.2127 19.7688 10.4626C19.7727 11.6144 19.7766 12.8014 19.7844 13.9885C19.7844 14.2266 19.8742 14.375 20.0577 14.4297C20.1866 14.4687 20.3115 14.4531 20.4053 14.3828C20.5146 14.3008 20.581 14.1525 20.581 13.9806C20.5849 13.313 20.581 12.6335 20.581 11.9776C20.581 11.6418 20.581 11.3099 20.581 10.9741C20.581 10.9038 20.581 10.8374 20.5849 10.7671C20.5966 10.4743 20.7606 10.2439 21.0495 10.1268C21.2955 10.0213 21.5532 10.0682 21.7719 10.2595C21.9944 10.4587 22.0218 10.7164 22.0218 10.9155C22.0179 13.598 22.0179 16.3273 22.0257 19.0176Z" fill="#666666"/>
</svg>
