<svg width="18" height="17" viewBox="0 0 18 17" fill="none" xmlns="http://www.w3.org/2000/svg">
<path d="M0.0192738 9.60775C0.163624 7.84441 0.924044 6.41489 2.28377 5.32115C3.36125 4.45454 4.60756 4.05265 5.97502 4.04938C8.98834 4.04283 12.0017 4.04741 15.0143 4.04676C15.1187 4.04676 15.2231 4.04021 15.3269 4.03694C15.2727 3.97672 15.2212 3.9152 15.1651 3.8576C14.6489 3.332 14.1263 2.81164 13.6159 2.28015C13.208 1.8547 13.3259 1.19623 13.8428 0.985464C14.1875 0.844738 14.4814 0.942264 14.7392 1.20539C15.7258 2.21208 16.7163 3.21353 17.7035 4.21956C18.0972 4.62079 18.096 5.05934 17.7022 5.45992C16.7214 6.4594 15.7374 7.45758 14.7546 8.45576C14.7095 8.50158 14.6644 8.54936 14.6135 8.58928C14.1946 8.92114 13.576 8.73721 13.4136 8.2247C13.3111 7.90136 13.3943 7.61925 13.634 7.37707C14.1978 6.80762 14.7566 6.23293 15.3172 5.66021C15.2367 5.57708 15.1342 5.61635 15.0427 5.61635C12.0377 5.61373 9.03216 5.61439 6.02722 5.61439C5.72177 5.61439 5.4176 5.63599 5.11859 5.70013C3.41667 6.06406 2.25478 7.07926 1.74117 8.76077C1.23659 10.4141 1.61809 11.9117 2.789 13.1665C3.64351 14.0822 4.73193 14.5044 5.96794 14.509C8.28205 14.5181 10.5962 14.5116 12.9103 14.5116C13.007 14.5116 13.1036 14.5083 13.1996 14.5162C13.5566 14.5463 13.8434 14.8415 13.8711 15.2015C13.9111 15.731 13.5637 16.0773 12.9818 16.0773C10.6278 16.0786 8.27303 16.0812 5.91896 16.0746C5.46206 16.0733 5.0071 16.017 4.55987 15.911C1.77533 15.2545 -0.224962 12.5879 0.0192738 9.60775Z" fill="#666666"/>
</svg>
