<svg width="25" height="25" viewBox="0 0 25 25" fill="none" xmlns="http://www.w3.org/2000/svg">
<path d="M1.88595 10.1328C2.17896 9.83989 2.57631 9.67533 2.99063 9.67533C3.40495 9.67533 3.80231 9.83989 4.09532 10.1328L9.62032 15.6578L20.6672 4.60937C20.8123 4.4642 20.9845 4.34903 21.1741 4.27042C21.3637 4.19181 21.5669 4.15132 21.7721 4.15125C21.9773 4.15117 22.1806 4.19152 22.3702 4.27C22.5599 4.34847 22.7322 4.46352 22.8774 4.60859C23.0225 4.75366 23.1377 4.92591 23.2163 5.11549C23.2949 5.30507 23.3354 5.50828 23.3355 5.71351C23.3356 5.91874 23.2952 6.12198 23.2167 6.31162C23.1383 6.50125 23.0232 6.67358 22.8781 6.81875L9.62032 20.0766L1.88595 12.3422C1.59302 12.0492 1.42847 11.6518 1.42847 11.2375C1.42847 10.8232 1.59302 10.4258 1.88595 10.1328Z" fill="black"/>
</svg>
