<svg width="25" height="25" viewBox="0 0 25 25" fill="none" xmlns="http://www.w3.org/2000/svg">
<path d="M21.2995 13.1675C20.6421 13.1659 19.9846 13.1675 19.3272 13.1667C19.2663 13.1667 19.2049 13.1605 19.1264 13.1558C19.1585 13.0827 19.1796 13.0292 19.2049 12.978C19.6897 11.9995 20.1768 11.0225 20.6573 10.042C20.7151 9.92359 20.7831 9.87046 20.9171 9.85484C21.5604 9.78062 22.0276 9.21613 21.9976 8.56532C21.9683 7.92544 21.4343 7.40276 20.7866 7.39573C20.6589 7.39416 20.5882 7.35119 20.5175 7.25275C19.8917 6.38083 19.2608 5.51204 18.6315 4.64246C18.5256 4.49597 18.419 4.34987 18.3057 4.19361C18.4116 4.10493 18.5084 4.02993 18.5987 3.94789C18.9776 3.60256 19.0378 3.05761 18.7432 2.63806C18.6795 2.54782 18.6092 2.46188 18.5377 2.37789C18.1643 1.9388 17.6014 1.87552 17.1448 2.22397C16.9069 2.40562 16.6705 2.58923 16.4389 2.77908C16.3459 2.85526 16.2674 2.88026 16.1412 2.84276C15.7365 2.72244 15.3521 2.79197 15.0111 3.04042C14.7326 3.24356 14.4646 3.46115 14.1967 3.67874C14.0263 3.81703 14.008 3.98305 14.1439 4.15728C14.7451 4.92646 15.3479 5.69369 15.9537 6.45896C16.0998 6.64334 16.2561 6.65897 16.4455 6.51599C16.669 6.34763 16.8846 6.16871 17.108 6.00073C17.517 5.69329 17.7299 5.29523 17.7065 4.77606C17.7037 4.71395 17.7463 4.65027 17.7842 4.53933C18.5526 5.59915 19.2842 6.6078 20.0147 7.61488C19.2971 8.24421 19.378 9.20168 20.1135 9.71108C20.1143 9.71733 20.1178 9.72475 20.1155 9.72905C19.5651 10.8416 19.0147 11.9542 18.4608 13.0652C18.4389 13.1089 18.3795 13.162 18.3366 13.1624C17.8635 13.1695 17.3905 13.1667 16.9069 13.1667C16.9069 13.0702 16.9069 12.996 16.9069 12.9011C17.0143 12.9011 17.1104 12.903 17.2061 12.9007C17.7354 12.8894 18.1256 12.5015 18.137 11.9717C18.1416 11.7569 18.1436 11.542 18.1354 11.3276C18.1213 10.9483 17.9405 10.6619 17.5928 10.5174C17.4252 10.4478 17.2248 10.4607 17.0432 10.4209C16.9862 10.4084 16.9061 10.3517 16.8951 10.3025C16.8088 9.91734 16.5932 9.73022 16.2018 9.72905C15.5963 9.7271 14.9908 9.72827 14.3857 9.72866C13.8599 9.72905 13.6217 9.96422 13.6209 10.4892C13.6197 11.303 13.6209 12.1163 13.6201 12.93C13.6201 13.0046 13.6119 13.0796 13.6072 13.1546C12.0591 13.1546 10.5329 13.1546 9.00831 13.1546C9.00831 12.7749 9.00831 12.4085 9.00831 12.035C9.87668 12.035 10.7294 12.0362 11.5818 12.0346C12.2955 12.0335 12.7271 11.6053 12.7279 10.8932C12.7298 9.11613 12.7298 7.33947 12.7279 5.56243C12.7271 4.84716 12.2986 4.42409 11.5826 4.42409C8.9462 4.4237 6.30983 4.4237 3.67346 4.42409C2.94962 4.42409 2.52852 4.83739 2.52735 5.55735C2.52501 7.3344 2.5254 9.11105 2.52735 10.8881C2.52813 11.6178 2.94962 12.0339 3.68362 12.035C4.47113 12.0358 5.25903 12.0354 6.04654 12.0354C6.11451 12.0354 6.18248 12.0354 6.24655 12.0354C6.24655 12.4288 6.24655 12.7901 6.24655 13.1683C6.16412 13.1683 6.09381 13.1683 6.0235 13.1683C4.94926 13.1683 3.87503 13.1796 2.80118 13.1624C2.41446 13.1562 2.14883 13.2843 2 13.6418C2 13.9801 2 14.3187 2 14.657C2.13711 15.0133 2.3961 15.168 2.77657 15.1411C2.96915 15.1274 3.1633 15.1387 3.37424 15.1387C3.37424 15.2407 3.37424 15.318 3.37424 15.395C3.37424 17.4517 3.3758 19.5089 3.3719 21.5656C3.3715 21.759 3.41994 21.9105 3.60159 22C4.61723 22 5.63287 22 6.64851 22C6.80359 21.8867 6.84577 21.7344 6.84499 21.5445C6.83952 19.494 6.84187 17.4439 6.84187 15.3934C6.84187 15.3165 6.84187 15.2399 6.84187 15.1508C8.70518 15.1508 10.5509 15.1508 12.4271 15.1508C12.4271 15.2293 12.4271 15.304 12.4271 15.3786C12.4271 17.4353 12.4291 19.4921 12.4236 21.5492C12.4232 21.7398 12.463 21.8918 12.6248 21.9996C15.2158 21.9996 17.8069 21.9996 20.3979 21.9996C20.5835 21.9031 20.6284 21.7445 20.628 21.5453C20.6237 19.4952 20.6253 17.4447 20.6253 15.3946C20.6253 15.3176 20.6253 15.2407 20.6253 15.1383C20.8686 15.1383 21.0948 15.1414 21.321 15.1375C21.7522 15.1301 21.9964 14.8824 21.9991 14.4547C22.0003 14.2594 22.0003 14.064 21.9991 13.8687C21.9968 13.4136 21.7534 13.1687 21.2995 13.1675ZM16.7713 5.46946C16.6135 5.59446 16.4537 5.71634 16.2733 5.85619C15.7842 5.23507 15.2998 4.62019 14.8033 3.9893C15.0029 3.83343 15.1779 3.68811 15.3623 3.5549C15.6877 3.31973 16.0787 3.37443 16.335 3.68811C16.5283 3.92484 16.7182 4.16431 16.9033 4.40768C17.1866 4.77997 17.1346 5.18194 16.7713 5.46946ZM18.1475 3.51428C17.9209 3.69866 17.6893 3.87679 17.4377 4.07485C17.2264 3.80687 17.0225 3.54865 16.8104 3.27989C17.0658 3.07793 17.3002 2.88299 17.5448 2.70173C17.7159 2.57516 17.9057 2.60564 18.0502 2.76619C18.1108 2.83377 18.1666 2.90604 18.219 2.98026C18.3526 3.16855 18.328 3.367 18.1475 3.51428ZM20.7589 8.01607C21.0983 8.0149 21.378 8.29734 21.3745 8.63759C21.3706 8.96925 21.0921 9.24895 20.7655 9.24895C20.4225 9.24895 20.1421 8.97354 20.1389 8.63446C20.1362 8.29499 20.4143 8.01724 20.7589 8.01607ZM16.9061 11.0588C17.0326 11.0588 17.1545 11.0455 17.2721 11.0623C17.4159 11.083 17.5037 11.1823 17.5096 11.3284C17.5178 11.5483 17.5186 11.769 17.51 11.9885C17.5037 12.1526 17.403 12.2514 17.242 12.2706C17.135 12.2835 17.0252 12.2729 16.9061 12.2729C16.9061 11.8647 16.9061 11.4725 16.9061 11.0588ZM14.2596 10.3592C14.9252 10.3592 15.5803 10.3592 16.2604 10.3592C16.2604 11.2936 16.2604 12.2136 16.2604 13.1472C15.5932 13.1472 14.9338 13.1472 14.2596 13.1472C14.2596 12.2182 14.2596 11.2932 14.2596 10.3592ZM3.15041 9.12355C3.15041 7.95279 3.15002 6.78202 3.1508 5.61087C3.15119 5.171 3.27697 5.04756 3.72229 5.04756C6.33092 5.04756 8.93995 5.04756 11.5486 5.04756C11.963 5.04756 12.1044 5.18428 12.1044 5.59134C12.1052 6.77499 12.1048 7.95904 12.1044 9.14269C12.1044 9.20012 12.0994 9.25793 12.0959 9.32864C9.11807 9.32864 6.1485 9.32864 3.15041 9.32864C3.15041 9.25168 3.15041 9.18762 3.15041 9.12355ZM3.74026 11.4096C3.27267 11.4096 3.15158 11.2885 3.1508 10.8205C3.15041 10.542 3.1508 10.2638 3.1508 9.97828C6.14303 9.97828 9.11299 9.97828 12.0962 9.97828C12.0962 10.3381 12.1107 10.6885 12.0912 11.0369C12.0779 11.278 11.8978 11.4073 11.6255 11.4084C11.0333 11.4116 10.4411 11.4096 9.84933 11.4096C7.81298 11.4096 5.77662 11.4096 3.74026 11.4096ZM8.35166 12.0432C8.35166 12.4093 8.35166 12.7745 8.35166 13.1503C7.86727 13.1503 7.38875 13.1503 6.89695 13.1503C6.89695 12.7831 6.89695 12.4226 6.89695 12.0432C7.3868 12.0432 7.86141 12.0432 8.35166 12.0432ZM6.2067 21.3675C5.46997 21.3675 4.74926 21.3675 4.01331 21.3675C4.01331 19.3003 4.01331 17.2376 4.01331 15.1637C4.74613 15.1637 5.47075 15.1637 6.2067 15.1637C6.2067 17.231 6.2067 19.2893 6.2067 21.3675ZM19.9878 21.3672C17.6772 21.3672 15.3807 21.3672 13.0677 21.3672C13.0677 19.3026 13.0677 17.2388 13.0677 15.1637C15.3721 15.1637 17.6729 15.1637 19.9878 15.1637C19.9878 17.2279 19.9878 19.287 19.9878 21.3672ZM21.3643 14.5059C15.117 14.5059 8.88487 14.5059 2.63868 14.5059C2.63868 14.2719 2.63868 14.0422 2.63868 13.8019C8.88057 13.8019 15.117 13.8019 21.3643 13.8019C21.3643 14.034 21.3643 14.2586 21.3643 14.5059Z" fill="#282828"/>
<path d="M14.5855 18.8295C15.2301 18.8307 15.8742 18.8299 16.5187 18.8299C17.1828 18.8299 17.8465 18.8326 18.5106 18.8287C18.8985 18.8264 19.1672 18.5709 19.1735 18.1842C19.1828 17.6181 19.184 17.0517 19.1731 16.4856C19.1657 16.0817 18.9016 15.834 18.4992 15.8333C17.1844 15.8313 15.8695 15.8313 14.5547 15.8333C14.1328 15.834 13.8753 16.0942 13.8738 16.5165C13.8718 17.0501 13.8726 17.5837 13.8734 18.1174C13.8746 18.5779 14.125 18.8287 14.5855 18.8295ZM14.5105 16.4692C15.8461 16.4692 17.1816 16.4692 18.5407 16.4692C18.5407 17.047 18.5407 17.615 18.5407 18.1943C17.1938 18.1943 15.8582 18.1943 14.5105 18.1943C14.5105 17.6201 14.5105 17.0517 14.5105 16.4692Z" fill="#282828"/>
<path d="M7.6205 10.3899C7.44706 10.3919 7.31112 10.5298 7.31502 10.7001C7.31893 10.8692 7.46307 11.0087 7.63065 11.0052C7.79862 11.0017 7.93847 10.8575 7.93652 10.6899C7.93456 10.52 7.7955 10.388 7.6205 10.3899Z" fill="#282828"/>
<path d="M16.5332 17.0208C16.3621 17.0169 16.2211 17.1505 16.2164 17.3212C16.2117 17.4943 16.3426 17.631 16.5168 17.6353C16.691 17.6392 16.8321 17.508 16.8368 17.338C16.8407 17.1705 16.7016 17.0247 16.5332 17.0208Z" fill="#282828"/>
</svg>
