<svg width="25" height="25" viewBox="0 0 25 25" fill="none" xmlns="http://www.w3.org/2000/svg">
<path d="M14.468 7.34783C14.468 7.26632 14.4683 7.18482 14.4687 7.10364C14.469 7.0238 14.469 6.94329 14.469 6.86178C14.469 6.75399 14.4687 6.6452 14.4674 6.53807C14.467 6.53075 14.467 6.5231 14.4664 6.51578C14.454 6.32049 14.317 6.1801 14.133 6.1791H14.131C13.9477 6.1791 13.797 6.33048 13.794 6.51778C13.7903 6.78925 13.7883 7.06239 13.7883 7.33586C13.7883 7.60933 13.7903 7.88246 13.794 8.15427C13.7953 8.25108 13.8319 8.33858 13.8971 8.40079C13.962 8.463 14.0488 8.49527 14.1417 8.49261C14.1417 8.49261 14.142 8.49261 14.1423 8.49261C14.3233 8.48729 14.4534 8.35355 14.466 8.16458C14.4667 8.15693 14.4667 8.14928 14.467 8.14129C14.4683 8.0365 14.4687 7.93037 14.4687 7.82457C14.4687 7.74473 14.4687 7.66555 14.4683 7.58737C14.4683 7.50752 14.468 7.42768 14.468 7.34783ZM14.468 7.34783C14.468 7.26632 14.4683 7.18482 14.4687 7.10364C14.469 7.0238 14.469 6.94329 14.469 6.86178C14.469 6.75399 14.4687 6.6452 14.4674 6.53807C14.467 6.53075 14.467 6.5231 14.4664 6.51578C14.454 6.32049 14.317 6.1801 14.133 6.1791H14.131C13.9477 6.1791 13.797 6.33048 13.794 6.51778C13.7903 6.78925 13.7883 7.06239 13.7883 7.33586C13.7883 7.60933 13.7903 7.88246 13.794 8.15427C13.7953 8.25108 13.8319 8.33858 13.8971 8.40079C13.962 8.463 14.0488 8.49527 14.1417 8.49261C14.1417 8.49261 14.142 8.49261 14.1423 8.49261C14.3233 8.48729 14.4534 8.35355 14.466 8.16458C14.4667 8.15693 14.4667 8.14928 14.467 8.14129C14.4683 8.0365 14.4687 7.93037 14.4687 7.82457C14.4687 7.74473 14.4687 7.66555 14.4683 7.58737C14.4683 7.50752 14.468 7.42768 14.468 7.34783ZM14.468 7.34783C14.468 7.26632 14.4683 7.18482 14.4687 7.10364C14.469 7.0238 14.469 6.94329 14.469 6.86178C14.469 6.75399 14.4687 6.6452 14.4674 6.53807C14.467 6.53075 14.467 6.5231 14.4664 6.51578C14.454 6.32049 14.317 6.1801 14.133 6.1791H14.131C13.9477 6.1791 13.797 6.33048 13.794 6.51778C13.7903 6.78925 13.7883 7.06239 13.7883 7.33586C13.7883 7.60933 13.7903 7.88246 13.794 8.15427C13.7953 8.25108 13.8319 8.33858 13.8971 8.40079C13.962 8.463 14.0488 8.49527 14.1417 8.49261C14.1417 8.49261 14.142 8.49261 14.1423 8.49261C14.3233 8.48729 14.4534 8.35355 14.466 8.16458C14.4667 8.15693 14.4667 8.14928 14.467 8.14129C14.4683 8.0365 14.4687 7.93037 14.4687 7.82457C14.4687 7.74473 14.4687 7.66555 14.4683 7.58737C14.4683 7.50752 14.468 7.42768 14.468 7.34783ZM14.468 7.34783C14.468 7.26632 14.4683 7.18482 14.4687 7.10364C14.469 7.0238 14.469 6.94329 14.469 6.86178C14.469 6.75399 14.4687 6.6452 14.4674 6.53807C14.467 6.53075 14.467 6.5231 14.4664 6.51578C14.454 6.32049 14.317 6.1801 14.133 6.1791H14.131C13.9477 6.1791 13.797 6.33048 13.794 6.51778C13.7903 6.78925 13.7883 7.06239 13.7883 7.33586C13.7883 7.60933 13.7903 7.88246 13.794 8.15427C13.7953 8.25108 13.8319 8.33858 13.8971 8.40079C13.962 8.463 14.0488 8.49527 14.1417 8.49261C14.1417 8.49261 14.142 8.49261 14.1423 8.49261C14.3233 8.48729 14.4534 8.35355 14.466 8.16458C14.4667 8.15693 14.4667 8.14928 14.467 8.14129C14.4683 8.0365 14.4687 7.93037 14.4687 7.82457C14.4687 7.74473 14.4687 7.66555 14.4683 7.58737C14.4683 7.50752 14.468 7.42768 14.468 7.34783ZM14.468 7.34783C14.468 7.26632 14.4683 7.18482 14.4687 7.10364C14.469 7.0238 14.469 6.94329 14.469 6.86178C14.469 6.75399 14.4687 6.6452 14.4674 6.53807C14.467 6.53075 14.467 6.5231 14.4664 6.51578C14.454 6.32049 14.317 6.1801 14.133 6.1791H14.131C13.9477 6.1791 13.797 6.33048 13.794 6.51778C13.7903 6.78925 13.7883 7.06239 13.7883 7.33586C13.7883 7.60933 13.7903 7.88246 13.794 8.15427C13.7953 8.25108 13.8319 8.33858 13.8971 8.40079C13.962 8.463 14.0488 8.49527 14.1417 8.49261C14.1417 8.49261 14.142 8.49261 14.1423 8.49261C14.3233 8.48729 14.4534 8.35355 14.466 8.16458C14.4667 8.15693 14.4667 8.14928 14.467 8.14129C14.4683 8.0365 14.4687 7.93037 14.4687 7.82457C14.4687 7.74473 14.4687 7.66555 14.4683 7.58737C14.4683 7.50752 14.468 7.42768 14.468 7.34783ZM14.468 7.34783C14.468 7.26632 14.4683 7.18482 14.4687 7.10364C14.469 7.0238 14.469 6.94329 14.469 6.86178C14.469 6.75399 14.4687 6.6452 14.4674 6.53807C14.467 6.53075 14.467 6.5231 14.4664 6.51578C14.454 6.32049 14.317 6.1801 14.133 6.1791H14.131C13.9477 6.1791 13.797 6.33048 13.794 6.51778C13.7903 6.78925 13.7883 7.06239 13.7883 7.33586C13.7883 7.60933 13.7903 7.88246 13.794 8.15427C13.7953 8.25108 13.8319 8.33858 13.8971 8.40079C13.962 8.463 14.0488 8.49527 14.1417 8.49261C14.1417 8.49261 14.142 8.49261 14.1423 8.49261C14.3233 8.48729 14.4534 8.35355 14.466 8.16458C14.4667 8.15693 14.4667 8.14928 14.467 8.14129C14.4683 8.0365 14.4687 7.93037 14.4687 7.82457C14.4687 7.74473 14.4687 7.66555 14.4683 7.58737C14.4683 7.50752 14.468 7.42768 14.468 7.34783ZM14.468 7.34783C14.468 7.26632 14.4683 7.18482 14.4687 7.10364C14.469 7.0238 14.469 6.94329 14.469 6.86178C14.469 6.75399 14.4687 6.6452 14.4674 6.53807C14.467 6.53075 14.467 6.5231 14.4664 6.51578C14.454 6.32049 14.317 6.1801 14.133 6.1791H14.131C13.9477 6.1791 13.797 6.33048 13.794 6.51778C13.7903 6.78925 13.7883 7.06239 13.7883 7.33586C13.7883 7.60933 13.7903 7.88246 13.794 8.15427C13.7953 8.25108 13.8319 8.33858 13.8971 8.40079C13.962 8.463 14.0488 8.49527 14.1417 8.49261C14.1417 8.49261 14.142 8.49261 14.1423 8.49261C14.3233 8.48729 14.4534 8.35355 14.466 8.16458C14.4667 8.15693 14.4667 8.14928 14.467 8.14129C14.4683 8.0365 14.4687 7.93037 14.4687 7.82457C14.4687 7.74473 14.4687 7.66555 14.4683 7.58737C14.4683 7.50752 14.468 7.42768 14.468 7.34783ZM14.468 7.34783C14.468 7.26632 14.4683 7.18482 14.4687 7.10364C14.469 7.0238 14.469 6.94329 14.469 6.86178C14.469 6.75399 14.4687 6.6452 14.4674 6.53807C14.467 6.53075 14.467 6.5231 14.4664 6.51578C14.454 6.32049 14.317 6.1801 14.133 6.1791H14.131C13.9477 6.1791 13.797 6.33048 13.794 6.51778C13.7903 6.78925 13.7883 7.06239 13.7883 7.33586C13.7883 7.60933 13.7903 7.88246 13.794 8.15427C13.7953 8.25108 13.8319 8.33858 13.8971 8.40079C13.962 8.463 14.0488 8.49527 14.1417 8.49261C14.1417 8.49261 14.142 8.49261 14.1423 8.49261C14.3233 8.48729 14.4534 8.35355 14.466 8.16458C14.4667 8.15693 14.4667 8.14928 14.467 8.14129C14.4683 8.0365 14.4687 7.93037 14.4687 7.82457C14.4687 7.74473 14.4687 7.66555 14.4683 7.58737C14.4683 7.50752 14.468 7.42768 14.468 7.34783ZM20.7851 7.25302C20.2505 6.71872 19.7348 6.20272 19.2321 5.69903C18.7287 5.19501 18.2387 4.7023 17.7533 4.21492C17.6488 4.11012 17.5637 4.04425 17.4745 4H5.62718C5.58693 4.01464 5.548 4.01896 5.51374 4.01963L5.43422 4.02795C4.68368 4.10779 4.04159 4.81142 4.00333 5.59623C3.99968 5.66943 4.00001 5.74262 4.00001 5.82013V19.1436C4.00001 20.1793 4.44481 20.7565 5.44221 21.0146C5.46051 21.019 5.47614 21.0259 5.48978 21.0336H19.5195C19.5615 21.021 19.604 21.009 19.646 20.997C19.8293 20.9451 20.0019 20.8959 20.1546 20.8027C20.5898 20.5352 20.8556 20.1626 20.9674 19.6639L20.9677 19.6603C20.9704 19.611 20.9827 19.5724 21 19.5422V7.53148C20.9454 7.42069 20.8616 7.32887 20.7851 7.25302ZM8.0192 4.75986C8.09339 4.685 8.19486 4.67536 8.28203 4.67536H8.28236C9.21255 4.68001 10.1584 4.67935 11.0733 4.67901C11.6598 4.67868 12.2463 4.67868 12.8329 4.67868C13.7547 4.67935 14.7079 4.67968 15.6454 4.67602C15.7272 4.67536 15.8204 4.68401 15.8916 4.75553C15.9631 4.82673 15.9728 4.92021 15.9724 5.00172C15.9691 5.85007 15.9691 6.71173 15.9691 7.54545C15.9691 7.99225 15.9694 8.43938 15.9688 8.88651C15.9678 9.58349 15.5499 9.99935 14.8509 9.99935C13.8858 9.99968 12.9207 9.99968 11.9556 9.99968C10.9904 9.99968 10.0256 9.99968 9.06052 9.99935C8.35854 9.99935 7.93903 9.57684 7.93869 8.86954C7.93836 8.51623 7.93869 8.16292 7.93869 7.8096C7.93903 6.89505 7.93969 5.94955 7.93503 5.01969C7.93503 4.93818 7.94402 4.83505 8.0192 4.75986ZM16.9815 20.2747C16.899 20.3576 16.7849 20.3576 16.724 20.3576H16.7236C15.5925 20.3546 14.4421 20.3546 13.3296 20.3549H11.558C10.4824 20.3546 9.36992 20.3542 8.27537 20.3576H8.27105C8.18222 20.3576 8.09007 20.3469 8.01854 20.2754C7.94468 20.2015 7.93503 20.1024 7.93537 20.0242C7.93903 18.92 7.93903 17.7969 7.93903 16.711C7.93903 16.1587 7.93903 15.6061 7.93936 15.0539C7.94002 14.3695 8.36387 13.9444 9.04554 13.9444C11.3481 13.944 13.6509 13.944 15.9545 13.9444C16.6361 13.9444 17.06 14.3699 17.0603 15.0545C17.061 15.6068 17.0606 16.1591 17.0606 16.7113C17.0606 17.7975 17.0606 18.9204 17.0643 20.0249C17.0646 20.1024 17.0553 20.2009 16.9815 20.2747ZM20.323 16.3966V19.2511C20.323 19.9311 19.8981 20.3542 19.2148 20.3552C19.0987 20.3552 18.9836 20.3549 18.8681 20.3542C18.6163 20.3529 18.3565 20.3516 18.1016 20.3582C18.0095 20.3612 17.9033 20.3539 17.8238 20.2761C17.7427 20.1969 17.733 20.0871 17.7337 20.0006C17.74 18.398 17.739 16.8171 17.7373 15.0652C17.7363 14.2331 17.2766 13.5744 16.5377 13.3455C16.3627 13.2916 16.1717 13.2663 15.9545 13.2657C14.9744 13.266 13.9946 13.266 13.0148 13.266C11.6921 13.2657 10.3693 13.2657 9.04688 13.2663C7.99958 13.267 7.26567 13.9999 7.26334 15.0482C7.25935 16.8833 7.26034 18.5032 7.26633 20.0006C7.267 20.0871 7.25702 20.1972 7.17651 20.2757C7.10498 20.3459 7.01149 20.3592 6.92533 20.3592C6.91601 20.3592 6.90703 20.3592 6.89771 20.3589C6.63855 20.3513 6.3734 20.3526 6.1169 20.3542C6.0121 20.3546 5.9073 20.3552 5.80251 20.3552C5.09754 20.3549 4.67703 19.9357 4.67703 19.2344C4.67636 16.9954 4.67636 14.7564 4.67636 12.5171C4.67636 10.2838 4.67636 8.05014 4.67703 5.81714C4.67703 5.09421 5.09289 4.67935 5.81881 4.67935C5.92826 4.67935 6.03838 4.67968 6.14817 4.68035C6.39436 4.68168 6.64853 4.68301 6.89705 4.67602C6.9912 4.67336 7.09766 4.68101 7.17684 4.75886C7.25735 4.83837 7.26667 4.94783 7.266 5.03433C7.25901 6.3165 7.26068 7.62163 7.26267 8.88319C7.26367 9.65402 7.5937 10.1913 8.27138 10.5253C8.48031 10.6281 8.72417 10.6784 9.01693 10.6784L10.19 10.679C11.7307 10.68 13.3242 10.681 14.8915 10.6774C15.9195 10.6754 16.6408 9.94512 16.6448 8.90182C16.6475 8.19718 16.6475 7.48024 16.6471 6.78692C16.6471 6.22368 16.6471 5.64148 16.6484 5.06859C16.6481 5.06194 16.6455 5.04364 16.6435 5.031C16.6375 4.99041 16.6295 4.93951 16.6378 4.88661C16.6541 4.78315 16.7276 4.70929 16.8301 4.69365C16.8474 4.69099 16.8644 4.688 16.8813 4.68467C17.0058 4.66271 17.1944 4.62911 17.3561 4.77782C17.373 4.79412 17.3877 4.80876 17.4023 4.82373L17.4206 4.84236L17.9975 5.42058C18.7068 6.13153 19.4404 6.86677 20.1636 7.58737C20.2757 7.69915 20.326 7.81692 20.326 7.97029C20.3233 10.7788 20.323 13.635 20.323 16.3966ZM13.8971 8.40046C13.962 8.46267 14.0488 8.49494 14.1417 8.49228C14.1417 8.49228 14.142 8.49228 14.1423 8.49228C14.3233 8.48695 14.4534 8.35321 14.466 8.16425C14.4667 8.1566 14.4667 8.14894 14.467 8.14096C14.4683 8.03616 14.4687 7.93004 14.4687 7.82424C14.4687 7.7444 14.4687 7.66522 14.4683 7.58704C14.468 7.50719 14.4677 7.42768 14.4677 7.3475C14.4677 7.26599 14.468 7.18448 14.4683 7.10331C14.4687 7.02346 14.4687 6.94295 14.4687 6.86144C14.4687 6.75365 14.4683 6.64486 14.467 6.53774C14.4667 6.53042 14.4667 6.52277 14.466 6.51545C14.4537 6.32016 14.3166 6.17977 14.1327 6.17877H14.1307C13.9474 6.17877 13.7967 6.33014 13.7937 6.51745C13.79 6.78892 13.788 7.06205 13.788 7.33552C13.788 7.60899 13.79 7.88213 13.7937 8.15393C13.7953 8.25075 13.8319 8.33824 13.8971 8.40046ZM14.468 7.34783C14.468 7.26632 14.4683 7.18482 14.4687 7.10364C14.469 7.0238 14.469 6.94329 14.469 6.86178C14.469 6.75399 14.4687 6.6452 14.4674 6.53807C14.467 6.53075 14.467 6.5231 14.4664 6.51578C14.454 6.32049 14.317 6.1801 14.133 6.1791H14.131C13.9477 6.1791 13.797 6.33048 13.794 6.51778C13.7903 6.78925 13.7883 7.06239 13.7883 7.33586C13.7883 7.60933 13.7903 7.88246 13.794 8.15427C13.7953 8.25108 13.8319 8.33858 13.8971 8.40079C13.962 8.463 14.0488 8.49527 14.1417 8.49261C14.1417 8.49261 14.142 8.49261 14.1423 8.49261C14.3233 8.48729 14.4534 8.35355 14.466 8.16458C14.4667 8.15693 14.4667 8.14928 14.467 8.14129C14.4683 8.0365 14.4687 7.93037 14.4687 7.82457C14.4687 7.74473 14.4687 7.66555 14.4683 7.58737C14.4683 7.50752 14.468 7.42768 14.468 7.34783ZM14.468 7.34783C14.468 7.26632 14.4683 7.18482 14.4687 7.10364C14.469 7.0238 14.469 6.94329 14.469 6.86178C14.469 6.75399 14.4687 6.6452 14.4674 6.53807C14.467 6.53075 14.467 6.5231 14.4664 6.51578C14.454 6.32049 14.317 6.1801 14.133 6.1791H14.131C13.9477 6.1791 13.797 6.33048 13.794 6.51778C13.7903 6.78925 13.7883 7.06239 13.7883 7.33586C13.7883 7.60933 13.7903 7.88246 13.794 8.15427C13.7953 8.25108 13.8319 8.33858 13.8971 8.40079C13.962 8.463 14.0488 8.49527 14.1417 8.49261C14.1417 8.49261 14.142 8.49261 14.1423 8.49261C14.3233 8.48729 14.4534 8.35355 14.466 8.16458C14.4667 8.15693 14.4667 8.14928 14.467 8.14129C14.4683 8.0365 14.4687 7.93037 14.4687 7.82457C14.4687 7.74473 14.4687 7.66555 14.4683 7.58737C14.4683 7.50752 14.468 7.42768 14.468 7.34783ZM14.468 7.34783C14.468 7.26632 14.4683 7.18482 14.4687 7.10364C14.469 7.0238 14.469 6.94329 14.469 6.86178C14.469 6.75399 14.4687 6.6452 14.4674 6.53807C14.467 6.53075 14.467 6.5231 14.4664 6.51578C14.454 6.32049 14.317 6.1801 14.133 6.1791H14.131C13.9477 6.1791 13.797 6.33048 13.794 6.51778C13.7903 6.78925 13.7883 7.06239 13.7883 7.33586C13.7883 7.60933 13.7903 7.88246 13.794 8.15427C13.7953 8.25108 13.8319 8.33858 13.8971 8.40079C13.962 8.463 14.0488 8.49527 14.1417 8.49261C14.1417 8.49261 14.142 8.49261 14.1423 8.49261C14.3233 8.48729 14.4534 8.35355 14.466 8.16458C14.4667 8.15693 14.4667 8.14928 14.467 8.14129C14.4683 8.0365 14.4687 7.93037 14.4687 7.82457C14.4687 7.74473 14.4687 7.66555 14.4683 7.58737C14.4683 7.50752 14.468 7.42768 14.468 7.34783ZM14.468 7.34783C14.468 7.26632 14.4683 7.18482 14.4687 7.10364C14.469 7.0238 14.469 6.94329 14.469 6.86178C14.469 6.75399 14.4687 6.6452 14.4674 6.53807C14.467 6.53075 14.467 6.5231 14.4664 6.51578C14.454 6.32049 14.317 6.1801 14.133 6.1791H14.131C13.9477 6.1791 13.797 6.33048 13.794 6.51778C13.7903 6.78925 13.7883 7.06239 13.7883 7.33586C13.7883 7.60933 13.7903 7.88246 13.794 8.15427C13.7953 8.25108 13.8319 8.33858 13.8971 8.40079C13.962 8.463 14.0488 8.49527 14.1417 8.49261C14.1417 8.49261 14.142 8.49261 14.1423 8.49261C14.3233 8.48729 14.4534 8.35355 14.466 8.16458C14.4667 8.15693 14.4667 8.14928 14.467 8.14129C14.4683 8.0365 14.4687 7.93037 14.4687 7.82457C14.4687 7.74473 14.4687 7.66555 14.4683 7.58737C14.4683 7.50752 14.468 7.42768 14.468 7.34783ZM14.468 7.34783C14.468 7.26632 14.4683 7.18482 14.4687 7.10364C14.469 7.0238 14.469 6.94329 14.469 6.86178C14.469 6.75399 14.4687 6.6452 14.4674 6.53807C14.467 6.53075 14.467 6.5231 14.4664 6.51578C14.454 6.32049 14.317 6.1801 14.133 6.1791H14.131C13.9477 6.1791 13.797 6.33048 13.794 6.51778C13.7903 6.78925 13.7883 7.06239 13.7883 7.33586C13.7883 7.60933 13.7903 7.88246 13.794 8.15427C13.7953 8.25108 13.8319 8.33858 13.8971 8.40079C13.962 8.463 14.0488 8.49527 14.1417 8.49261C14.1417 8.49261 14.142 8.49261 14.1423 8.49261C14.3233 8.48729 14.4534 8.35355 14.466 8.16458C14.4667 8.15693 14.4667 8.14928 14.467 8.14129C14.4683 8.0365 14.4687 7.93037 14.4687 7.82457C14.4687 7.74473 14.4687 7.66555 14.4683 7.58737C14.4683 7.50752 14.468 7.42768 14.468 7.34783ZM14.468 7.34783C14.468 7.26632 14.4683 7.18482 14.4687 7.10364C14.469 7.0238 14.469 6.94329 14.469 6.86178C14.469 6.75399 14.4687 6.6452 14.4674 6.53807C14.467 6.53075 14.467 6.5231 14.4664 6.51578C14.454 6.32049 14.317 6.1801 14.133 6.1791H14.131C13.9477 6.1791 13.797 6.33048 13.794 6.51778C13.7903 6.78925 13.7883 7.06239 13.7883 7.33586C13.7883 7.60933 13.7903 7.88246 13.794 8.15427C13.7953 8.25108 13.8319 8.33858 13.8971 8.40079C13.962 8.463 14.0488 8.49527 14.1417 8.49261C14.1417 8.49261 14.142 8.49261 14.1423 8.49261C14.3233 8.48729 14.4534 8.35355 14.466 8.16458C14.4667 8.15693 14.4667 8.14928 14.467 8.14129C14.4683 8.0365 14.4687 7.93037 14.4687 7.82457C14.4687 7.74473 14.4687 7.66555 14.4683 7.58737C14.4683 7.50752 14.468 7.42768 14.468 7.34783Z" fill="#27282D"/>
</svg>
