<svg width="30" height="30" viewBox="0 0 30 30" fill="none" xmlns="http://www.w3.org/2000/svg">
<path d="M5.04605 5.22014V5.21975C5.06324 5.18577 5.08707 5.15569 5.11832 5.12796C5.19879 5.05647 5.30621 5.01741 5.42066 5.01741C5.48628 5.01741 5.55347 5.03108 5.61636 5.05686L6.22417 5.30842C6.86361 5.57366 7.43314 5.80881 7.96634 6.02717C13.1089 8.13105 18.9373 10.5158 24.5986 12.8255C25.0322 13.0025 25.0068 13.1912 24.9951 13.2814C24.9646 13.5298 24.9009 13.615 24.5654 13.6685C24.2884 13.7134 24.0099 13.7642 23.7408 13.8134L21.3295 14.2533C19.5373 14.579 17.6842 14.9154 15.8647 15.2415C15.5069 15.306 15.2924 15.5228 15.2284 15.8868C14.8893 17.772 14.5401 19.6891 14.203 21.543L14.0745 22.2485C14.0561 22.3493 14.0385 22.4497 14.0202 22.5501C14.0014 22.6551 13.9823 22.7602 13.9635 22.8657C13.8565 23.4618 13.7452 24.0782 13.6241 24.6887C13.5843 24.8868 13.4346 24.9938 13.2143 24.9817C13.0698 24.9735 12.9479 24.9391 12.8042 24.5864C11.3909 21.1251 9.9796 17.6739 8.65461 14.4361L7.26322 11.0349C7.13314 10.7154 7.00268 10.3963 6.87182 10.0775L6.60776 9.43221C6.11323 8.22011 5.58355 6.92325 5.0609 5.6549C4.97301 5.44202 4.99137 5.32678 5.04605 5.22014ZM13.0846 23.1411L13.4456 21.2005C13.4858 20.9887 13.5253 20.7759 13.5643 20.5626L13.8956 18.7419C14.1432 17.3825 14.3909 16.0228 14.6397 14.6638C14.6409 14.6591 14.6464 14.6536 14.6522 14.6525C15.7784 14.4462 16.9057 14.2412 18.0326 14.0357L21.2318 13.4533C21.2932 13.4423 21.3553 13.4294 21.4166 13.4169C21.4646 13.4068 21.5119 13.3966 21.5584 13.3876L23.1158 13.0935L6.13237 6.14513L13.0846 23.1411Z" fill="#666666"/>
</svg>
