<svg width="23" height="20" viewBox="0 0 23 20" fill="none" xmlns="http://www.w3.org/2000/svg">
<path d="M5.67273 0L0 10L5.67273 20H17.2182L22.9091 10L17.2364 0H5.67273ZM16.3818 18.5455H6.52727L1.67273 10L6.52727 1.45455H16.3818L21.2364 10L16.3818 18.5455Z" fill="#F75146"/>
<path d="M11.4545 4.72727C8.54545 4.72727 6.18182 7.09091 6.18182 10C6.18182 12.9091 8.54545 15.2727 11.4545 15.2727C14.3636 15.2727 16.7273 12.9091 16.7273 10C16.7273 7.09091 14.3636 4.72727 11.4545 4.72727ZM11.4545 13.8182C9.34545 13.8182 7.63636 12.1091 7.63636 10C7.63636 7.89091 9.34545 6.18182 11.4545 6.18182C13.5636 6.18182 15.2727 7.89091 15.2727 10C15.2727 12.1091 13.5636 13.8182 11.4545 13.8182Z" fill="#F75146"/>
</svg>
