<svg width="25" height="25" viewBox="0 0 25 25" fill="none" xmlns="http://www.w3.org/2000/svg">
<path d="M22.5278 14.2231C22.3223 14.0754 22.1165 13.9285 21.9 13.7734C22.1305 13.6019 22.3544 13.4374 22.5763 13.2698C22.8474 13.0647 22.8439 12.8451 22.5661 12.642C22.3505 12.4838 22.1321 12.3291 21.9149 12.1732C21.9332 12.147 21.9387 12.1337 21.9485 12.1263C22.1411 11.9825 22.3344 11.8403 22.5271 11.6966C22.8665 11.4434 22.865 11.2453 22.5216 10.9996C19.4755 8.81963 16.4294 6.63966 13.3833 4.45969C13.138 4.28428 13.0497 4.28233 12.8067 4.44876C9.61759 6.63771 6.42812 8.82666 3.23943 11.016C2.9265 11.2309 2.92103 11.4512 3.22068 11.6751C3.44102 11.8399 3.66253 12.0036 3.89264 12.1744C3.65237 12.3396 3.42656 12.492 3.20388 12.649C2.93627 12.8385 2.93158 13.0616 3.19294 13.262C3.41875 13.4358 3.64964 13.603 3.89225 13.7835C3.65472 13.9476 3.42422 14.1031 3.19724 14.2641C2.939 14.4477 2.93548 14.6669 3.18395 14.8657C3.21443 14.8903 3.24685 14.9122 3.27811 14.9353C6.42304 17.2723 9.56797 19.6089 12.7133 21.9455C12.8106 22.0178 12.9434 22.0182 13.0415 21.9467C13.4536 21.6451 13.8677 21.3454 14.2779 21.0407C17.031 18.9971 19.7837 16.9527 22.5364 14.9083C22.8638 14.6649 22.8607 14.4625 22.5278 14.2231ZM19.0797 9.315C20.0154 9.99243 20.9561 10.6632 21.9184 11.3524C19.6697 13.0225 17.433 14.6837 15.1699 16.3647C14.9562 15.1693 14.7475 14.0004 14.5366 12.8315C14.5182 12.7303 14.5436 12.6678 14.6292 12.6025C16.0489 11.5188 17.4651 10.4312 18.8824 9.3443C18.9418 9.29898 18.9856 9.24702 19.0797 9.315ZM14.4229 16.9261C13.9416 17.2688 13.4693 17.6239 12.9981 17.9802C12.9176 18.0411 12.8684 18.0481 12.784 17.9849C11.9163 17.3348 11.0447 16.6898 10.1602 16.0327C11.4182 15.0681 12.6692 14.109 13.9435 13.1319C14.0252 13.5835 14.1037 14.0136 14.1807 14.4442C14.3073 15.1536 14.428 15.8647 14.5631 16.573C14.5944 16.7359 14.5592 16.8289 14.4229 16.9261ZM15.9684 7.08776C16.7439 7.65463 17.5264 8.21174 18.3105 8.76728C18.4203 8.84502 18.4441 8.88174 18.3199 8.97668C15.4625 11.1625 12.6082 13.3522 9.75354 15.542C9.68088 15.5974 9.62892 15.6435 9.52422 15.5646C8.71591 14.9544 7.90057 14.3539 7.08719 13.7499C7.06726 13.7351 7.04773 13.7191 7.02077 13.698C8.0881 12.8791 9.14409 12.0689 10.2005 11.259C12.0093 9.8725 13.8193 8.48716 15.625 7.09636C15.752 6.99869 15.8332 6.98892 15.9684 7.08776ZM9.22223 7.68237C10.4634 6.83109 11.7057 5.98137 12.9438 5.12462C13.0551 5.04766 13.1223 5.05157 13.2282 5.12892C13.8943 5.61336 14.5655 6.09037 15.2515 6.58184C14.7975 6.92993 14.3569 7.26826 13.9162 7.60619C12.9629 8.33714 12.0093 9.06731 11.058 9.80061C10.9744 9.86507 10.9049 9.88617 10.7955 9.85531C9.69885 9.54628 8.59949 9.24507 7.5013 8.94113C7.48997 8.938 7.48138 8.92667 7.447 8.9005C8.04668 8.48912 8.63426 8.08594 9.22223 7.68237ZM3.87193 11.3543C4.43763 10.9656 4.99239 10.5847 5.54715 10.2034C5.9054 9.95766 6.26403 9.71232 6.62111 9.46502C6.68753 9.41892 6.7473 9.39236 6.83442 9.41658C7.97832 9.73654 9.12299 10.0522 10.2688 10.369C10.2501 10.4366 10.1977 10.4562 10.1579 10.4866C8.97923 11.3914 7.79861 12.2935 6.62307 13.2026C6.51446 13.2866 6.45156 13.2846 6.34451 13.2038C5.57215 12.6221 4.79432 12.0486 4.01844 11.4719C3.97234 11.4375 3.92858 11.4 3.87193 11.3543ZM3.87623 12.9705C4.06805 12.8365 4.2337 12.6365 4.42044 12.6143C4.60171 12.5924 4.76033 12.8194 4.9248 12.9412C7.47474 14.8321 10.0227 16.7261 12.5711 18.6189C12.8489 18.8252 12.9297 18.8244 13.2071 18.6185C15.8754 16.6362 18.5441 14.6551 21.2105 12.6701C21.3206 12.5881 21.3988 12.5689 21.5097 12.665C21.6312 12.7709 21.7703 12.8565 21.9176 12.962C21.6015 13.1967 21.2949 13.4245 20.9886 13.6523C18.341 15.6189 15.6934 17.5856 13.0462 19.553C12.9579 19.6183 12.8946 19.68 12.7668 19.5847C9.83598 17.4004 6.90084 15.2224 3.96648 13.0432C3.94108 13.0245 3.91686 13.0038 3.87623 12.9705ZM19.9314 16.0487C17.6381 17.752 15.3441 19.4542 13.054 21.161C12.9293 21.2544 12.8543 21.2599 12.7246 21.163C9.82543 19.0022 6.92232 16.846 4.01648 14.6942C3.87584 14.5903 3.89459 14.5504 4.0243 14.4637C4.43763 14.1887 4.43411 14.1848 4.82674 14.4766C7.40637 16.3933 9.98599 18.3095 12.566 20.2254C12.8551 20.4403 12.9223 20.4391 13.2165 20.2207C15.8746 18.2466 18.5332 16.2737 21.1882 14.2957C21.3175 14.1996 21.4078 14.1809 21.5324 14.2926C21.643 14.3914 21.773 14.468 21.918 14.5711C21.2421 15.0739 20.587 15.5619 19.9314 16.0487Z" fill="#27282D"/>
<path d="M12.8969 2.00039C13.0715 2.08907 13.1407 2.22815 13.1352 2.42623C13.1251 2.79659 13.1344 3.16695 13.1317 3.5377C13.1301 3.76819 13.0125 3.90727 12.8239 3.91274C12.6281 3.9186 12.5027 3.77679 12.5008 3.53535C12.4976 3.17788 12.5078 2.82003 12.4969 2.46295C12.491 2.26839 12.5332 2.10978 12.7024 2C12.7672 2.00039 12.8321 2.00039 12.8969 2.00039Z" fill="#27282D"/>
<path d="M11.5436 4.0451C11.5409 4.19199 11.4819 4.28615 11.367 4.34357C11.233 4.41077 11.1092 4.37834 11.008 4.28263C10.8236 4.10878 10.6474 3.92633 10.4681 3.74701C10.3165 3.59543 10.161 3.44698 10.0157 3.28914C9.87154 3.13248 9.8735 2.94769 10.0071 2.82111C10.1329 2.70196 10.3181 2.7004 10.4615 2.83987C10.7924 3.16139 11.1151 3.49151 11.4397 3.81968C11.5053 3.88609 11.5491 3.96501 11.5436 4.0451Z" fill="#27282D"/>
<path d="M15.9474 2.7376C16.0916 2.73917 16.1861 2.80402 16.2389 2.9177C16.2994 3.0478 16.274 3.17438 16.1748 3.27673C15.9482 3.50958 15.7177 3.7389 15.4884 3.96901C15.3829 4.07488 15.2813 4.18544 15.1692 4.2835C15.0231 4.41125 14.8559 4.40852 14.7297 4.28936C14.6039 4.17021 14.593 3.97682 14.7289 3.8354C15.0579 3.49356 15.3954 3.1607 15.7326 2.82707C15.7927 2.7669 15.8701 2.7294 15.9474 2.7376Z" fill="#27282D"/>
</svg>
