<svg width="18" height="17" viewBox="0 0 18 17" fill="none" xmlns="http://www.w3.org/2000/svg">
<path d="M17.9789 9.60775C17.8345 7.84441 17.0741 6.41489 15.7144 5.32115C14.6369 4.45454 13.3906 4.05265 12.0231 4.04938C9.00983 4.04283 5.99651 4.04741 2.98384 4.04676C2.87944 4.04676 2.77504 4.04021 2.67129 4.03694C2.72542 3.97672 2.77698 3.9152 2.83304 3.8576C3.34922 3.332 3.87185 2.81164 4.38223 2.28015C4.79015 1.8547 4.67222 1.19623 4.1554 0.985464C3.81063 0.844738 3.51677 0.942264 3.259 1.20539C2.27239 2.21208 1.28192 3.21353 0.294663 4.21956C-0.0990791 4.62079 -0.0977903 5.05934 0.295952 5.45992C1.27676 6.4594 2.26079 7.45758 3.24354 8.45576C3.28865 8.50157 3.33376 8.54936 3.38467 8.58928C3.80354 8.92114 4.42219 8.73721 4.58458 8.2247C4.68704 7.90136 4.60391 7.61925 4.36419 7.37707C3.80032 6.80762 3.24161 6.23293 2.68096 5.66021C2.76151 5.57708 2.86397 5.61635 2.95548 5.61635C5.96042 5.61373 8.96601 5.61439 11.9709 5.61439C12.2764 5.61439 12.5806 5.63599 12.8796 5.70013C14.5815 6.06406 15.7434 7.07925 16.257 8.76077C16.7616 10.4141 16.3801 11.9117 15.2092 13.1665C14.3547 14.0822 13.2662 14.5044 12.0302 14.509C9.71611 14.5181 7.40199 14.5116 5.08787 14.5116C4.99121 14.5116 4.89455 14.5083 4.79853 14.5162C4.44152 14.5463 4.15475 14.8415 4.12704 15.2015C4.08709 15.731 4.43443 16.0772 5.01634 16.0772C7.37042 16.0786 9.72514 16.0812 12.0792 16.0746C12.5361 16.0733 12.9911 16.017 13.4383 15.911C16.2228 15.2545 18.2231 12.5879 17.9789 9.60775Z" fill="#666666"/>
</svg>
