<svg width="30" height="30" viewBox="0 0 30 30" fill="none" xmlns="http://www.w3.org/2000/svg">
<path d="M12.845 11.1604C12.7958 11.1111 12.7375 11.0721 12.6733 11.0454C12.609 11.0188 12.5402 11.0051 12.4706 11.0051C12.4011 11.0051 12.3322 11.0188 12.268 11.0454C12.2038 11.0721 12.1454 11.1111 12.0963 11.1604L9.5 13.7514L6.90368 11.155C6.85452 11.1059 6.79617 11.0669 6.73194 11.0403C6.66772 11.0137 6.59888 11 6.52936 11C6.45985 11 6.39101 11.0137 6.32678 11.0403C6.26256 11.0669 6.2042 11.1059 6.15505 11.155C6.10589 11.2042 6.0669 11.2626 6.0403 11.3268C6.01369 11.391 6 11.4598 6 11.5294C6 11.5989 6.01369 11.6677 6.0403 11.7319C6.0669 11.7962 6.10589 11.8545 6.15505 11.9037L8.75137 14.5L6.15505 17.0963C6.10589 17.1455 6.0669 17.2038 6.0403 17.2681C6.01369 17.3323 6 17.4011 6 17.4706C6 17.5402 6.01369 17.609 6.0403 17.6732C6.0669 17.7374 6.10589 17.7958 6.15505 17.845C6.2042 17.8941 6.26256 17.9331 6.32678 17.9597C6.39101 17.9863 6.45985 18 6.52936 18C6.59888 18 6.66772 17.9863 6.73194 17.9597C6.79617 17.9331 6.85452 17.8941 6.90368 17.845L9.5 15.2486L12.0963 17.845C12.1455 17.8941 12.2038 17.9331 12.2681 17.9597C12.3323 17.9863 12.4011 18 12.4706 18C12.5402 18 12.609 17.9863 12.6732 17.9597C12.7374 17.9331 12.7958 17.8941 12.845 17.845C12.8941 17.7958 12.9331 17.7374 12.9597 17.6732C12.9863 17.609 13 17.5402 13 17.4706C13 17.4011 12.9863 17.3323 12.9597 17.2681C12.9331 17.2038 12.8941 17.1455 12.845 17.0963L10.2486 14.5L12.845 11.9037C13.0467 11.7019 13.0467 11.3621 12.845 11.1604Z" fill="#666666"/>
<path fill-rule="evenodd" clip-rule="evenodd" d="M5.04605 5.20234V5.20273C4.99137 5.30937 4.97301 5.42461 5.0609 5.63749C5.58355 6.90584 6.11323 8.2027 6.60776 9.4148L6.67123 9.56992L8.02494 10.7544L6.13237 6.12772L23.1158 13.0761L21.5584 13.3702C21.5119 13.3792 21.4646 13.3894 21.4166 13.3995L21.3956 13.4038C21.3411 13.4149 21.2862 13.4262 21.2318 13.4359L18.0326 14.0183C17.7505 14.0697 17.4684 14.1211 17.1862 14.1725C16.3413 14.3265 15.4964 14.4805 14.6522 14.6351C14.6464 14.6362 14.6409 14.6417 14.6397 14.6464C14.4038 15.9347 14.169 17.2236 13.9342 18.5123L13.8956 18.7245L13.5643 20.5452C13.5253 20.7584 13.4858 20.9713 13.4456 21.183L13.0846 23.1237L12.3534 21.336L10.8822 19.8648C11.5172 21.418 12.1605 22.9924 12.8042 24.569C12.9479 24.9217 13.0698 24.9561 13.2143 24.9643C13.4346 24.9764 13.5843 24.8693 13.6241 24.6713C13.7452 24.0608 13.8565 23.4444 13.9635 22.8483C13.9737 22.7912 13.984 22.7342 13.9942 22.6773C14.0029 22.6291 14.0116 22.5809 14.0202 22.5326C14.0298 22.4801 14.0392 22.4276 14.0486 22.375C14.0572 22.3271 14.0657 22.2791 14.0745 22.2311L14.203 21.5256C14.244 21.3001 14.2852 21.0735 14.3265 20.8463C14.6249 19.2057 14.9306 17.5252 15.2284 15.8694C15.2924 15.5054 15.5069 15.2886 15.8647 15.2241C17.6842 14.898 19.5373 14.5616 21.3295 14.2358L23.7408 13.796C24.0099 13.7468 24.2884 13.696 24.5654 13.6511C24.9009 13.5976 24.9646 13.5124 24.9951 13.264L24.9951 13.2635C25.0069 13.173 25.0314 12.9847 24.5986 12.8081C19.1299 10.5769 13.5051 8.27577 8.49338 6.22538L7.96634 6.00976C7.43314 5.7914 6.86361 5.55624 6.22417 5.29101L5.61636 5.03945C5.55347 5.01367 5.48628 5 5.42066 5C5.30621 5 5.19879 5.03906 5.11832 5.11055C5.08707 5.13828 5.06324 5.16836 5.04605 5.20234Z" fill="#666666"/>
</svg>
