<svg width="25" height="25" viewBox="0 0 25 25" fill="none" xmlns="http://www.w3.org/2000/svg">
<path d="M21.9918 2.5H3.0078C2.72226 2.55312 2.55273 2.72226 2.5 3.0078V8.0077C2.62734 8.40067 2.8332 8.55496 3.2578 8.5741C3.3492 8.5784 3.44022 8.57644 3.53123 8.57644H11.967C12.0447 8.57644 12.1229 8.57488 12.201 8.58074C12.2697 8.58582 12.3295 8.60965 12.3647 8.67097C12.4787 8.86863 12.5814 9.07175 12.6686 9.28268C12.7107 9.3858 12.6635 9.42682 12.5623 9.42994C12.4451 9.43346 12.3279 9.42877 12.2107 9.43385C11.7666 9.45338 11.4842 9.71627 11.4322 10.1573C11.4248 10.2217 11.424 10.287 11.424 10.3522C11.4237 11.7842 11.4237 13.2158 11.424 14.6478C11.424 14.7259 11.4248 14.8041 11.4365 14.8814C11.5002 15.2947 11.7725 15.5427 12.1893 15.5658C12.3064 15.572 12.4236 15.5724 12.5408 15.5677C12.6873 15.5619 12.758 15.6197 12.7521 15.772C12.7475 15.8954 12.7521 16.0193 12.7514 16.1427C12.7494 16.4138 12.7408 16.4232 12.4607 16.4232C11.1201 16.4239 9.77916 16.4236 8.43856 16.4236C8.32137 16.4236 8.20458 16.4216 8.08817 16.4439C7.68466 16.5228 7.44326 16.7958 7.4417 17.2052C7.43623 18.7286 7.43701 20.2512 7.4417 21.7746C7.44287 22.1809 7.62607 22.4051 8.0081 22.5H21.9918C22.2777 22.4473 22.4469 22.2781 22.4996 21.9922V3.0078C22.4469 2.72226 22.2777 2.55312 21.9918 2.5ZM11.6826 7.83466C8.91706 7.83466 6.1511 7.83271 3.38553 7.83818C3.21249 7.83857 3.15975 7.80224 3.16092 7.61904C3.16913 6.19407 3.16796 4.76871 3.1621 3.34373C3.16132 3.19921 3.19335 3.16132 3.34139 3.16171C5.0855 3.16757 6.8296 3.16796 8.57371 3.16171C8.72488 3.16132 8.75457 3.20272 8.7491 3.3453C8.73269 3.77458 8.72566 4.20622 8.81081 4.62886C8.9487 5.31244 9.40885 5.76439 9.95454 6.14485C10.3596 6.42688 10.7866 6.67726 11.153 7.01319C11.417 7.25538 11.6608 7.51396 11.8983 7.83427H11.6826V7.83466ZM12.7201 14.8396C12.1654 14.8611 12.1654 14.8646 12.1654 14.3091V12.4936C12.1654 11.7783 12.169 11.0623 12.1623 10.3467C12.1611 10.2061 12.1897 10.1479 12.3432 10.1604C12.524 10.1748 12.7076 10.1737 12.8889 10.1604C13.0146 10.1514 13.0553 10.2049 13.0822 10.3139C13.326 11.2963 13.3533 12.2791 13.1068 13.2666C12.9885 13.7392 12.8955 14.2181 12.8553 14.7048C12.8478 14.8005 12.824 14.8353 12.7201 14.8396ZM14.5615 21.834C12.4928 21.834 10.4237 21.8324 8.35496 21.8371C8.20887 21.8375 8.16044 21.8098 8.16122 21.6504C8.16825 20.2192 8.16747 18.788 8.162 17.3567C8.16161 17.2091 8.19169 17.1603 8.35028 17.161C9.80103 17.1677 11.2518 17.1665 12.7025 17.1626C12.8338 17.1622 12.8881 17.1821 12.9072 17.3333C13.1135 18.9716 13.7107 20.4539 14.7103 21.7707C14.7173 21.7801 14.7181 21.7942 14.7302 21.834H14.5615ZM21.625 21.8379C19.6919 21.8317 17.7587 21.8324 15.8251 21.8375C15.6872 21.8375 15.6013 21.7949 15.5138 21.6914C14.3154 20.27 13.649 18.6356 13.5072 16.7802C13.4178 15.6091 13.5111 14.4619 13.7752 13.3142C14.217 11.3963 13.8029 9.6147 12.7951 7.95341C12.2807 7.10577 11.5963 6.41985 10.7619 5.88275C10.5108 5.72103 10.262 5.55619 10.0303 5.36479C9.64869 5.04917 9.42682 4.65699 9.42252 4.1527C9.42018 3.86638 9.41822 3.57967 9.40885 3.29413C9.40573 3.19335 9.43307 3.15585 9.53893 3.16249C9.68775 3.17147 9.83814 3.16483 9.98774 3.16483C13.8674 3.16483 17.7474 3.166 21.627 3.16053C21.7965 3.16053 21.8391 3.19686 21.8387 3.3703C21.8324 6.41672 21.8344 9.46315 21.8344 12.5096C21.8344 15.5497 21.8324 18.5895 21.8391 21.6297C21.8395 21.8082 21.7902 21.8383 21.625 21.8379Z" fill="#27282D" stroke="#27282D" stroke-width="0.1"/>
<path d="M9.69049 9.49632C7.58232 9.49632 5.47377 9.50257 3.36483 9.49124C2.95624 9.4889 2.66133 9.61312 2.5 9.99944V14.9993C2.66172 15.3853 2.95702 15.5099 3.36522 15.5075C5.48002 15.4962 7.59521 15.5025 9.71041 15.5021C10.242 15.5021 10.5026 15.2435 10.5026 14.715C10.503 13.2443 10.503 11.7736 10.5026 10.3026C10.5026 9.74632 10.2506 9.49632 9.69049 9.49632ZM9.84009 14.6447C9.84087 14.795 9.80689 14.84 9.64908 14.8396C7.54756 14.8337 5.44604 14.8341 3.34451 14.8392C3.19921 14.8396 3.16171 14.8052 3.1621 14.6579C3.16835 13.2201 3.16913 11.7818 3.16132 10.344C3.16053 10.1768 3.2203 10.1592 3.36053 10.16C4.40817 10.1647 5.45541 10.1627 6.50305 10.1627C7.55107 10.1627 8.59832 10.1658 9.64596 10.1592C9.79673 10.158 9.84165 10.1928 9.84087 10.3502C9.83384 11.7822 9.83462 13.213 9.84009 14.6447Z" fill="#27282D" stroke="#27282D" stroke-width="0.1"/>
<path d="M6.4968 17.2632C6.49641 16.7508 6.24211 16.498 5.72884 16.4972C4.94878 16.4961 4.16833 16.5101 3.38826 16.4914C2.97773 16.482 2.66992 16.6 2.5 16.9918V21.9913C2.55273 22.2772 2.72226 22.4463 3.0078 22.4991H5.97649C6.36477 22.3581 6.50578 22.0788 6.50227 21.6706C6.48977 20.2015 6.49797 18.7324 6.4968 17.2632ZM5.66986 21.8378C4.88863 21.8296 4.10739 21.8311 3.32616 21.8366C3.20389 21.8374 3.16171 21.8128 3.1621 21.6792C3.16757 20.2276 3.16717 18.7757 3.16249 17.3242C3.1621 17.1941 3.19803 17.1613 3.32459 17.1621C4.10583 17.1675 4.88745 17.1691 5.6683 17.1613C5.81829 17.1597 5.83314 17.2191 5.83236 17.3433C5.82767 18.066 5.83001 18.7882 5.8304 19.5112C5.8304 20.2273 5.82767 20.9436 5.83314 21.6593C5.83431 21.7858 5.81751 21.8389 5.66986 21.8378Z" fill="#27282D" stroke="#27282D" stroke-width="0.1"/>
<path d="M16.2904 21.1086C16.1361 21.2223 15.9454 21.1906 15.8115 21.0184C15.2439 20.2887 14.8072 19.4868 14.5357 18.6036C14.0318 16.9626 14.0002 15.3029 14.3892 13.6345C14.5181 13.0818 14.6052 12.5248 14.6134 11.9568C14.6146 11.8791 14.6127 11.8006 14.6447 11.7268C14.7123 11.5693 14.8334 11.4979 15.0017 11.5213C15.1626 11.544 15.2599 11.6424 15.2763 11.8045C15.2865 11.9076 15.2783 12.0123 15.2783 12.1166C15.2673 12.8373 15.0693 13.5279 14.9486 14.2318C14.5576 16.5173 14.8861 18.6575 16.2986 20.5621C16.3138 20.5828 16.3314 20.6024 16.3458 20.6239C16.4661 20.7988 16.4435 20.9961 16.2904 21.1086Z" fill="#27282D" stroke="#27282D" stroke-width="0.1"/>
<path d="M14.6776 9.7589C14.4795 9.82258 14.3084 9.71555 14.228 9.46868C13.8174 8.21284 13.1678 7.10427 12.2147 6.18085C11.7874 5.7664 11.2999 5.43321 10.8038 5.11017C10.6183 4.98947 10.4425 4.85627 10.2945 4.68908C10.164 4.54143 10.0933 4.37151 10.0968 4.17464C10.1003 3.98128 10.2441 3.83441 10.4437 3.83246C10.5812 3.8473 10.7116 3.91332 10.7398 4.07386C10.764 4.21019 10.8394 4.29573 10.9366 4.37268C11.064 4.47307 11.189 4.57932 11.3265 4.66369C13.0971 5.74805 14.2206 7.32848 14.8674 9.27493C14.9451 9.50735 14.8655 9.69758 14.6776 9.7589Z" fill="#27282D" stroke="#27282D" stroke-width="0.1"/>
</svg>
