<svg width="21" height="30" viewBox="0 0 21 30" fill="none" xmlns="http://www.w3.org/2000/svg">
<path d="M20.7729 15.9749C20.761 14.8604 20.0734 13.9475 19.0419 13.6511C18.3305 13.4377 17.6547 13.5562 17.0145 13.9475C16.9789 13.8763 16.9552 13.817 16.9315 13.7578C16.3269 12.4773 14.833 11.9675 13.5881 12.6433C13.4103 12.7381 13.3747 12.7026 13.2917 12.5484C12.7937 11.4814 11.7148 10.9479 10.5885 11.185C10.3632 11.2324 10.138 11.3391 9.90086 11.4103V11.0901C9.90086 9.51329 9.91272 7.93643 9.90086 6.35957C9.88901 4.75899 8.54927 3.64452 7.01983 3.92907C5.85793 4.14248 5.06358 5.13839 5.06358 6.41885C5.06358 8.5648 5.06358 10.7226 5.06358 12.8686C5.06358 13.817 5.06358 14.7774 5.06358 15.7259C5.06358 15.9156 5.01615 15.963 4.82646 15.963C4.54191 15.9511 4.25736 15.9749 3.98467 15.9986C2.14698 16.1646 0.522694 17.7058 0.285572 19.5435C0.143299 20.6343 0.273716 21.7132 0.522694 22.7684C1.32891 26.0762 3.36816 28.1866 6.67601 29.064C6.96055 29.1351 7.26881 29.1233 7.5415 29.2537H7.88533C7.9209 29.2181 7.95646 29.2181 8.00389 29.2537H15.9356C15.9475 29.2063 15.983 29.2063 16.0305 29.2063C18.7337 28.8506 20.7373 26.6572 20.7848 23.9066C20.8085 21.2627 20.7848 18.6188 20.7729 15.9749ZM19.5636 23.7525C19.5517 25.8866 18.1646 27.5583 16.0779 27.9732C15.7815 28.0325 15.4732 28.0444 15.1768 28.0444C12.9834 28.0444 10.7782 28.0444 8.58484 28.0444C5.22956 28.0444 2.46709 25.8391 1.73201 22.5787C1.53046 21.6776 1.40004 20.7529 1.49489 19.8281C1.62531 18.4291 2.83463 17.279 4.23365 17.1842C4.50634 17.1723 4.85017 17.0775 5.02801 17.2079C5.20585 17.3383 5.07543 17.694 5.08729 17.9548C5.09914 18.6662 5.08729 19.3657 5.08729 20.0771C5.08729 20.3379 5.15843 20.5632 5.4074 20.6936C5.73937 20.8833 6.16619 20.7173 6.2729 20.3379C6.30847 20.2193 6.30847 20.1008 6.30847 19.9704C6.30847 17.694 6.30847 15.4176 6.30847 13.1531C6.30847 10.8886 6.30847 8.62408 6.30847 6.35957C6.30847 5.6482 6.71157 5.17396 7.36366 5.07911C7.99203 4.98426 8.6204 5.47036 8.7034 6.09873C8.71525 6.18173 8.71525 6.26472 8.71525 6.34771C8.71525 8.68336 8.7034 11.0309 8.7034 13.3665C8.7034 15.1924 8.7034 17.0301 8.71525 18.8559C8.71525 19.1523 8.82196 19.4013 9.1065 19.508C9.34363 19.6028 9.56889 19.5554 9.75859 19.3657C9.91272 19.1997 9.93643 18.9982 9.93643 18.7848C9.93643 17.2672 9.93643 15.7496 9.93643 14.232C9.93643 13.983 9.93643 13.7459 9.94829 13.4969C9.96014 12.833 10.4818 12.3113 11.1339 12.3113C11.786 12.3113 12.3314 12.8211 12.3432 13.4851C12.3551 15.1924 12.3551 16.8996 12.3551 18.6069C12.3551 18.7136 12.3551 18.8203 12.3551 18.9152C12.3788 19.3064 12.6159 19.5554 12.9716 19.5554C13.3273 19.5554 13.5644 19.3064 13.5763 18.9033C13.5881 18.5713 13.5763 18.2394 13.5763 17.9074C13.5763 16.8285 13.5763 15.7614 13.5881 14.6825C13.6 14.0305 14.1098 13.5325 14.7619 13.5206C15.4139 13.5088 15.9593 13.9949 15.9712 14.647C15.983 16.046 15.983 17.445 15.983 18.8322C15.983 19.2471 16.1846 19.508 16.5284 19.5435C16.9315 19.5791 17.2042 19.3183 17.2042 18.8559C17.2161 18.1445 17.2042 17.445 17.2042 16.7336C17.2042 16.4491 17.2042 16.1646 17.2161 15.88C17.2279 15.2279 17.7496 14.7181 18.3898 14.7181C19.0301 14.7063 19.5873 15.2042 19.5991 15.8563C19.6229 17.0775 19.611 18.3105 19.611 19.5317C19.5636 20.9663 19.5636 22.3653 19.5636 23.7525Z" fill="black"/>
<path d="M8.11048 0.253693C8.3476 0.360397 8.60844 0.360397 8.86927 0.407822C13.1256 1.39188 14.9633 6.53742 12.272 9.97569C12.0823 10.2128 11.8807 10.3432 11.5843 10.2839C11.3472 10.2365 11.2049 10.0942 11.1338 9.86898C11.0508 9.60815 11.1812 9.41845 11.3235 9.2169C12.4972 7.59261 12.6514 5.86162 11.774 4.07135C10.8374 2.20995 8.70329 1.15476 6.72332 1.52229C4.5418 1.91355 2.91751 3.59711 2.68039 5.74306C2.53812 7.02352 2.85823 8.19727 3.64073 9.2169C3.78301 9.4066 3.90157 9.58444 3.84229 9.8097C3.79486 10.0468 3.64073 10.2128 3.40361 10.2721C3.14278 10.3314 2.92937 10.2484 2.75153 10.035C2.18244 9.3236 1.79118 8.52924 1.58963 7.64004C0.818985 4.13063 3.13092 0.810929 6.72332 0.312973C6.75889 0.312973 6.79446 0.301117 6.80631 0.253693C7.23313 0.253693 7.67181 0.253693 8.11048 0.253693Z" fill="black"/>
<path d="M7.88501 29.2537C7.92058 29.1826 7.95615 29.1944 8.00357 29.2537C7.95615 29.2537 7.92058 29.2537 7.88501 29.2537Z" fill="black"/>
</svg>
