<svg width="160" height="40" viewBox="0 0 160 40" fill="none" xmlns="http://www.w3.org/2000/svg">
<rect width="160" height="40" rx="5" fill="#FFC1BD"/>
<path d="M29.4961 22.0947L29.4648 22.083C29.2383 22.001 29 21.9424 28.7578 21.9033C28.6875 21.8916 28.6328 21.8721 28.5898 21.8447C28.4531 21.7627 28.4375 21.6221 28.4375 21.5205C28.4414 19.5205 28.4453 17.3447 28.4414 14.6768C28.4414 13.1377 27.3398 12.0166 25.8242 12.0088C22.1094 11.9971 18.3398 11.9971 14.6211 12.0088C13.1055 12.0166 12 13.1338 12 14.6729C12 16.958 12 19.2432 12 21.5283C12 23.0557 12 24.583 12 26.1103C12 26.3603 12.0195 26.5635 12.0625 26.7432C12.3672 28.0205 13.3516 28.7822 14.6953 28.7822C17.7578 28.7822 21.1289 28.7822 25.3008 28.7822C25.3633 28.7822 25.418 28.7861 25.4687 28.7978C25.5625 28.8135 25.6445 28.8525 25.7266 28.9111C26.4258 29.4346 27.1992 29.708 28.0156 29.7236H28.0195C28.0273 29.7236 28.0352 29.7236 28.043 29.7236C28.0508 29.7236 28.0586 29.7236 28.0664 29.7236C30.2344 29.7119 32 27.9385 32 25.7705C32 24.1377 31.0156 22.6924 29.4961 22.0947ZM12.7148 14.7314C12.7148 14.1455 12.9023 13.6455 13.2617 13.29C13.6172 12.9346 14.1172 12.7471 14.707 12.7471C18.3633 12.7471 22.0742 12.7471 25.7305 12.7471C26.3203 12.7471 26.8203 12.9346 27.1797 13.2939C27.5391 13.6533 27.7266 14.1533 27.7266 14.7471C27.7266 16.1768 27.7266 17.6104 27.7266 19.04V20.7119L27.6562 20.7588C27.6367 20.7705 27.6172 20.7822 27.6016 20.7939L27.4766 20.8721L27.3867 20.7549C27.375 20.7354 27.3594 20.7197 27.3477 20.7002C27.3242 20.665 27.3008 20.6299 27.2734 20.6064C26.4492 19.7783 25.6367 18.9697 24.6719 18.001C24.5391 17.8682 24.4258 17.8018 24.3281 17.8018C24.2773 17.8018 24.2266 17.8174 24.168 17.8525C24.1094 17.8877 24.0469 17.9385 23.9805 18.0049L23.4102 18.5752C22.2461 19.7432 21.0469 20.9463 19.8672 22.1377C19.8047 22.2002 19.7266 22.2666 19.6211 22.2666C19.5156 22.2666 19.4375 22.2002 19.375 22.1377C18.6523 21.3994 17.9102 20.6572 17.1914 19.9346L16.6719 19.4111C16.3984 19.1377 16.2461 19.1377 15.9609 19.415C15.1563 20.1924 14.3398 20.9814 13.5469 21.7432L12.7187 22.54V14.7314H12.7148ZM24.6211 28.0127C24.5586 28.0791 24.4844 28.0908 24.4297 28.0908C24.4063 28.0908 24.3906 28.0869 24.375 28.0869C24.3672 28.0869 24.3633 28.0869 24.3555 28.0869C21.7227 28.0869 18.2461 28.0908 14.7266 28.0869C13.7578 28.0869 13.0469 27.5752 12.7852 26.6885C12.7383 26.5244 12.7148 26.3408 12.7148 26.1143C12.7148 25.9307 12.7148 25.751 12.7148 25.5674C12.7148 25.0283 12.7148 24.4736 12.7109 23.9268C12.7109 23.7705 12.7617 23.6494 12.875 23.5361C14.0625 22.3486 15.1094 21.2979 16.0742 20.3213C16.1406 20.2549 16.2148 20.1963 16.3164 20.1963C16.418 20.1963 16.4961 20.2588 16.5547 20.3213C17.2461 21.0166 17.9492 21.7236 18.6328 22.4072C18.8438 22.6182 19.0547 22.8291 19.2656 23.04C19.3945 23.1689 19.5117 23.2314 19.6211 23.2314C19.7266 23.2314 19.8437 23.1689 19.9688 23.0439L20.6641 22.3447C21.7852 21.2197 22.9414 20.0557 24.0781 18.9111C24.1406 18.8486 24.2187 18.7822 24.3242 18.7822C24.4297 18.7822 24.5078 18.8447 24.5742 18.915C25.1523 19.5049 25.7461 20.1025 26.3203 20.6807C26.5859 20.9502 26.8555 21.2197 27.1211 21.4854C27.1289 21.4932 27.1367 21.501 27.1445 21.5088C27.1914 21.5479 27.2578 21.6104 27.2891 21.7236L27.3281 21.8721L27.1562 21.9189C27.1406 21.9229 27.1289 21.9268 27.1133 21.9307C25.8203 22.2979 24.9141 23.0713 24.418 24.2393C23.9609 25.3096 23.9922 26.4189 24.5078 27.54C24.5508 27.6338 24.5977 27.7314 24.6484 27.8252L24.7031 27.9268L24.6211 28.0127ZM30.3555 28.0713C29.75 28.6689 28.9453 29.001 28.082 29.001H28.0664C27.2031 28.9971 26.3906 28.6533 25.7812 28.04C25.1758 27.4268 24.8437 26.6182 24.8516 25.7627C24.8555 24.8838 25.1953 24.0674 25.8086 23.4658C26.4102 22.8721 27.2148 22.5479 28.0742 22.5479H28.1016C28.9688 22.5557 29.7773 22.8955 30.3789 23.5049C30.9805 24.1143 31.3086 24.9268 31.3047 25.7939C31.3008 26.6572 30.9648 27.4697 30.3555 28.0713Z" fill="#27282D"/>
<path d="M20.7541 17.8057C20.7072 18.4385 20.1642 18.9385 19.5509 18.9385C19.5236 18.9385 19.4962 18.9385 19.4689 18.9346C18.7345 18.8838 18.2384 18.3213 18.2892 17.5986C18.3322 16.9854 18.8947 16.458 19.4845 16.458C19.508 16.458 19.5314 16.458 19.5509 16.4619C19.9142 16.4854 20.2384 16.6416 20.4572 16.8955C20.6759 17.1416 20.7814 17.4658 20.7541 17.8057Z" fill="#27282D"/>
<path d="M29.5468 26.5244C29.1718 26.9111 28.7733 27.3096 28.328 27.7432C28.1796 27.8877 27.996 27.8877 27.8475 27.7471C27.4608 27.3838 27.0663 26.9893 26.6014 26.5049C26.5428 26.4463 26.5155 26.3564 26.5194 26.2588C26.5233 26.165 26.5624 26.0752 26.6171 26.0205C26.6835 25.9541 26.7772 25.9229 26.871 25.9229C26.9647 25.9229 27.0546 25.9541 27.1249 26.0166C27.16 26.0479 27.1952 26.083 27.2264 26.1221L27.2343 26.1299L27.2772 26.1807L27.285 26.1885C27.2889 26.1924 27.2928 26.2002 27.3007 26.2041C27.328 26.2354 27.3553 26.2705 27.3827 26.3018L27.4022 26.3252L27.7108 26.6846V24.4619C27.7108 24.4229 27.7108 24.3877 27.7108 24.3486C27.7108 24.251 27.7108 24.1611 27.7147 24.0674C27.7225 23.8643 27.8827 23.7041 28.0741 23.7041C28.2694 23.7041 28.4335 23.8721 28.4335 24.0674C28.4374 24.4658 28.4374 24.8682 28.4374 25.2627V25.6689C28.4374 25.7939 28.4374 25.9229 28.4374 26.0479C28.4374 26.0518 28.4374 26.0518 28.4374 26.0557C28.4374 26.0596 28.4374 26.0596 28.4374 26.0635C28.4374 26.083 28.4335 26.1104 28.4374 26.1416V26.6104L28.9296 26.1182L28.9647 26.083C28.9843 26.0635 29.0038 26.0439 29.0233 26.0244C29.1757 25.8838 29.3788 25.8799 29.5194 26.0166C29.6678 26.1494 29.6757 26.3877 29.5468 26.5244Z" fill="#27282D"/>
<path d="M53.82 15.77V25.5H52.224V21.244H47.646V25.5H46.05V15.77H47.646V19.942H52.224V15.77H53.82ZM58.6911 15.77C59.7271 15.77 60.6324 15.9707 61.4071 16.372C62.1911 16.764 62.7931 17.3333 63.2131 18.08C63.6424 18.8173 63.8571 19.6807 63.8571 20.67C63.8571 21.6593 63.6424 22.518 63.2131 23.246C62.7931 23.974 62.1911 24.534 61.4071 24.926C60.6324 25.3087 59.7271 25.5 58.6911 25.5H55.5131V15.77H58.6911ZM58.6911 24.198C59.8298 24.198 60.7024 23.89 61.3091 23.274C61.9158 22.658 62.2191 21.79 62.2191 20.67C62.2191 19.5407 61.9158 18.6587 61.3091 18.024C60.7024 17.3893 59.8298 17.072 58.6911 17.072H57.1091V24.198H58.6911ZM73.3136 25.5L71.0736 21.608H69.8556V25.5H68.2596V15.77H71.6196C72.3663 15.77 72.9963 15.9007 73.5096 16.162C74.0323 16.4233 74.4196 16.7733 74.6716 17.212C74.9329 17.6507 75.0636 18.1407 75.0636 18.682C75.0636 19.3167 74.8769 19.8953 74.5036 20.418C74.1396 20.9313 73.5749 21.2813 72.8096 21.468L75.2176 25.5H73.3136ZM69.8556 20.334H71.6196C72.2169 20.334 72.6649 20.1847 72.9636 19.886C73.2716 19.5873 73.4256 19.186 73.4256 18.682C73.4256 18.178 73.2763 17.786 72.9776 17.506C72.6789 17.2167 72.2263 17.072 71.6196 17.072H69.8556V20.334ZM83.7673 21.454C83.7673 21.7433 83.7486 22.0047 83.7113 22.238H77.8173C77.864 22.854 78.0926 23.3487 78.5033 23.722C78.914 24.0953 79.418 24.282 80.0153 24.282C80.874 24.282 81.4806 23.9227 81.8353 23.204H83.5573C83.324 23.9133 82.8993 24.4967 82.2833 24.954C81.6766 25.402 80.9206 25.626 80.0153 25.626C79.278 25.626 78.6153 25.4627 78.0273 25.136C77.4486 24.8 76.9913 24.3333 76.6553 23.736C76.3286 23.1293 76.1653 22.4293 76.1653 21.636C76.1653 20.8427 76.324 20.1473 76.6413 19.55C76.968 18.9433 77.4206 18.4767 77.9993 18.15C78.5873 17.8233 79.2593 17.66 80.0153 17.66C80.7433 17.66 81.392 17.8187 81.9613 18.136C82.5306 18.4533 82.974 18.9013 83.2913 19.48C83.6086 20.0493 83.7673 20.7073 83.7673 21.454ZM82.1013 20.95C82.092 20.362 81.882 19.8907 81.4713 19.536C81.0606 19.1813 80.552 19.004 79.9453 19.004C79.3946 19.004 78.9233 19.1813 78.5313 19.536C78.1393 19.8813 77.906 20.3527 77.8313 20.95H82.1013ZM88.8219 17.66C89.4286 17.66 89.9699 17.786 90.4459 18.038C90.9313 18.29 91.3093 18.6633 91.5799 19.158C91.8506 19.6527 91.9859 20.25 91.9859 20.95V25.5H90.4039V21.188C90.4039 20.4973 90.2313 19.97 89.8859 19.606C89.5406 19.2327 89.0693 19.046 88.4719 19.046C87.8746 19.046 87.3986 19.2327 87.0439 19.606C86.6986 19.97 86.5259 20.4973 86.5259 21.188V25.5H84.9299V17.786H86.5259V18.668C86.7873 18.3507 87.1186 18.1033 87.5199 17.926C87.9306 17.7487 88.3646 17.66 88.8219 17.66ZM93.0817 21.608C93.0817 20.8333 93.2404 20.1473 93.5577 19.55C93.8844 18.9527 94.3231 18.4907 94.8737 18.164C95.4337 17.828 96.0544 17.66 96.7357 17.66C97.2397 17.66 97.7344 17.772 98.2197 17.996C98.7144 18.2107 99.1064 18.5 99.3957 18.864V15.14H101.006V25.5H99.3957V24.338C99.1344 24.7113 98.7704 25.0193 98.3037 25.262C97.8464 25.5047 97.3191 25.626 96.7217 25.626C96.0497 25.626 95.4337 25.458 94.8737 25.122C94.3231 24.7767 93.8844 24.3007 93.5577 23.694C93.2404 23.078 93.0817 22.3827 93.0817 21.608ZM99.3957 21.636C99.3957 21.104 99.2837 20.642 99.0597 20.25C98.8451 19.858 98.5604 19.5593 98.2057 19.354C97.8511 19.1487 97.4684 19.046 97.0577 19.046C96.6471 19.046 96.2644 19.1487 95.9097 19.354C95.5551 19.55 95.2657 19.844 95.0417 20.236C94.8271 20.6187 94.7197 21.076 94.7197 21.608C94.7197 22.14 94.8271 22.6067 95.0417 23.008C95.2657 23.4093 95.5551 23.7173 95.9097 23.932C96.2737 24.1373 96.6564 24.24 97.0577 24.24C97.4684 24.24 97.8511 24.1373 98.2057 23.932C98.5604 23.7267 98.8451 23.428 99.0597 23.036C99.2837 22.6347 99.3957 22.168 99.3957 21.636ZM109.764 21.454C109.764 21.7433 109.745 22.0047 109.708 22.238H103.814C103.861 22.854 104.089 23.3487 104.5 23.722C104.911 24.0953 105.415 24.282 106.012 24.282C106.871 24.282 107.477 23.9227 107.832 23.204H109.554C109.321 23.9133 108.896 24.4967 108.28 24.954C107.673 25.402 106.917 25.626 106.012 25.626C105.275 25.626 104.612 25.4627 104.024 25.136C103.445 24.8 102.988 24.3333 102.652 23.736C102.325 23.1293 102.162 22.4293 102.162 21.636C102.162 20.8427 102.321 20.1473 102.638 19.55C102.965 18.9433 103.417 18.4767 103.996 18.15C104.584 17.8233 105.256 17.66 106.012 17.66C106.74 17.66 107.389 17.8187 107.958 18.136C108.527 18.4533 108.971 18.9013 109.288 19.48C109.605 20.0493 109.764 20.7073 109.764 21.454ZM108.098 20.95C108.089 20.362 107.879 19.8907 107.468 19.536C107.057 19.1813 106.549 19.004 105.942 19.004C105.391 19.004 104.92 19.1813 104.528 19.536C104.136 19.8813 103.903 20.3527 103.828 20.95H108.098ZM112.523 18.906C112.756 18.514 113.064 18.2107 113.447 17.996C113.839 17.772 114.301 17.66 114.833 17.66V19.312H114.427C113.801 19.312 113.325 19.4707 112.999 19.788C112.681 20.1053 112.523 20.656 112.523 21.44V25.5H110.927V17.786H112.523V18.906Z" fill="#27282D"/>
</svg>
