<svg width="180" height="87" viewBox="0 0 180 87" fill="none" xmlns="http://www.w3.org/2000/svg">
<path d="M12.646 19.712H15.936V21H11.05V11.27H12.646V19.712ZM17.6747 12.264C17.3854 12.264 17.1427 12.166 16.9467 11.97C16.7507 11.774 16.6527 11.5313 16.6527 11.242C16.6527 10.9527 16.7507 10.71 16.9467 10.514C17.1427 10.318 17.3854 10.22 17.6747 10.22C17.9547 10.22 18.1927 10.318 18.3887 10.514C18.5847 10.71 18.6827 10.9527 18.6827 11.242C18.6827 11.5313 18.5847 11.774 18.3887 11.97C18.1927 12.166 17.9547 12.264 17.6747 12.264ZM18.4587 13.286V21H16.8627V13.286H18.4587ZM23.2541 13.16C23.8514 13.16 24.3788 13.2813 24.8361 13.524C25.3028 13.7573 25.6668 14.0513 25.9281 14.406V13.286H27.5381V21.126C27.5381 21.8353 27.3888 22.4653 27.0901 23.016C26.7914 23.576 26.3574 24.0147 25.7881 24.332C25.2281 24.6493 24.5561 24.808 23.7721 24.808C22.7268 24.808 21.8588 24.5607 21.1681 24.066C20.4774 23.5807 20.0854 22.918 19.9921 22.078H21.5741C21.6954 22.4793 21.9521 22.8013 22.3441 23.044C22.7454 23.296 23.2214 23.422 23.7721 23.422C24.4161 23.422 24.9341 23.226 25.3261 22.834C25.7274 22.442 25.9281 21.8727 25.9281 21.126V19.838C25.6574 20.202 25.2888 20.51 24.8221 20.762C24.3648 21.0047 23.8421 21.126 23.2541 21.126C22.5821 21.126 21.9661 20.958 21.4061 20.622C20.8554 20.2767 20.4168 19.8007 20.0901 19.194C19.7728 18.578 19.6141 17.8827 19.6141 17.108C19.6141 16.3333 19.7728 15.6473 20.0901 15.05C20.4168 14.4527 20.8554 13.9907 21.4061 13.664C21.9661 13.328 22.5821 13.16 23.2541 13.16ZM25.9281 17.136C25.9281 16.604 25.8161 16.142 25.5921 15.75C25.3774 15.358 25.0928 15.0593 24.7381 14.854C24.3834 14.6487 24.0008 14.546 23.5901 14.546C23.1794 14.546 22.7968 14.6487 22.4421 14.854C22.0874 15.05 21.7981 15.344 21.5741 15.736C21.3594 16.1187 21.2521 16.576 21.2521 17.108C21.2521 17.64 21.3594 18.1067 21.5741 18.508C21.7981 18.9093 22.0874 19.2173 22.4421 19.432C22.8061 19.6373 23.1888 19.74 23.5901 19.74C24.0008 19.74 24.3834 19.6373 24.7381 19.432C25.0928 19.2267 25.3774 18.928 25.5921 18.536C25.8161 18.1347 25.9281 17.668 25.9281 17.136ZM33.2164 13.16C33.8044 13.16 34.3271 13.286 34.7844 13.538C35.2511 13.79 35.6151 14.1633 35.8764 14.658C36.1471 15.1527 36.2824 15.75 36.2824 16.45V21H34.7004V16.688C34.7004 15.9973 34.5277 15.47 34.1824 15.106C33.8371 14.7327 33.3657 14.546 32.7684 14.546C32.1711 14.546 31.6951 14.7327 31.3404 15.106C30.9951 15.47 30.8224 15.9973 30.8224 16.688V21H29.2264V10.64H30.8224V14.182C31.0931 13.8553 31.4337 13.6033 31.8444 13.426C32.2644 13.2487 32.7217 13.16 33.2164 13.16ZM39.7722 14.588V18.858C39.7722 19.1473 39.8375 19.3573 39.9682 19.488C40.1082 19.6093 40.3415 19.67 40.6682 19.67H41.6482V21H40.3882C39.6695 21 39.1189 20.832 38.7362 20.496C38.3535 20.16 38.1622 19.614 38.1622 18.858V14.588H37.2522V13.286H38.1622V11.368H39.7722V13.286H41.6482V14.588H39.7722ZM45.4079 17.136C45.4079 16.3427 45.5666 15.6473 45.8839 15.05C46.2106 14.4433 46.6586 13.9767 47.2279 13.65C47.7972 13.3233 48.4506 13.16 49.1879 13.16C50.1212 13.16 50.8912 13.384 51.4979 13.832C52.1139 14.2707 52.5292 14.9007 52.7439 15.722H51.0219C50.8819 15.3393 50.6579 15.0407 50.3499 14.826C50.0419 14.6113 49.6546 14.504 49.1879 14.504C48.5346 14.504 48.0119 14.7373 47.6199 15.204C47.2372 15.6613 47.0459 16.3053 47.0459 17.136C47.0459 17.9667 47.2372 18.6153 47.6199 19.082C48.0119 19.5487 48.5346 19.782 49.1879 19.782C50.1119 19.782 50.7232 19.376 51.0219 18.564H52.7439C52.5199 19.348 52.0999 19.9733 51.4839 20.44C50.8679 20.8973 50.1026 21.126 49.1879 21.126C48.4506 21.126 47.7972 20.9627 47.2279 20.636C46.6586 20.3 46.2106 19.8333 45.8839 19.236C45.5666 18.6293 45.4079 17.9293 45.4079 17.136ZM57.2724 21.126C56.5444 21.126 55.8864 20.9627 55.2984 20.636C54.7104 20.3 54.2484 19.8333 53.9124 19.236C53.5764 18.6293 53.4084 17.9293 53.4084 17.136C53.4084 16.352 53.5811 15.6567 53.9264 15.05C54.2718 14.4433 54.7431 13.9767 55.3404 13.65C55.9378 13.3233 56.6051 13.16 57.3424 13.16C58.0798 13.16 58.7471 13.3233 59.3444 13.65C59.9418 13.9767 60.4131 14.4433 60.7584 15.05C61.1038 15.6567 61.2764 16.352 61.2764 17.136C61.2764 17.92 61.0991 18.6153 60.7444 19.222C60.3898 19.8287 59.9044 20.3 59.2884 20.636C58.6818 20.9627 58.0098 21.126 57.2724 21.126ZM57.2724 19.74C57.6831 19.74 58.0658 19.642 58.4204 19.446C58.7844 19.25 59.0784 18.956 59.3024 18.564C59.5264 18.172 59.6384 17.696 59.6384 17.136C59.6384 16.576 59.5311 16.1047 59.3164 15.722C59.1018 15.33 58.8171 15.036 58.4624 14.84C58.1078 14.644 57.7251 14.546 57.3144 14.546C56.9038 14.546 56.5211 14.644 56.1664 14.84C55.8211 15.036 55.5458 15.33 55.3404 15.722C55.1351 16.1047 55.0324 16.576 55.0324 17.136C55.0324 17.9667 55.2424 18.6107 55.6624 19.068C56.0918 19.516 56.6284 19.74 57.2724 19.74ZM66.3382 13.16C66.9448 13.16 67.4862 13.286 67.9622 13.538C68.4475 13.79 68.8255 14.1633 69.0962 14.658C69.3668 15.1527 69.5022 15.75 69.5022 16.45V21H67.9202V16.688C67.9202 15.9973 67.7475 15.47 67.4022 15.106C67.0568 14.7327 66.5855 14.546 65.9882 14.546C65.3908 14.546 64.9148 14.7327 64.5602 15.106C64.2148 15.47 64.0422 15.9973 64.0422 16.688V21H62.4462V13.286H64.0422V14.168C64.3035 13.8507 64.6348 13.6033 65.0362 13.426C65.4468 13.2487 65.8808 13.16 66.3382 13.16ZM72.992 14.588V18.858C72.992 19.1473 73.0573 19.3573 73.188 19.488C73.328 19.6093 73.5613 19.67 73.888 19.67H74.868V21H73.608C72.8893 21 72.3386 20.832 71.956 20.496C71.5733 20.16 71.382 19.614 71.382 18.858V14.588H70.472V13.286H71.382V11.368H72.992V13.286H74.868V14.588H72.992ZM77.5269 14.406C77.7603 14.014 78.0683 13.7107 78.4509 13.496C78.8429 13.272 79.3049 13.16 79.8369 13.16V14.812H79.4309C78.8056 14.812 78.3296 14.9707 78.0029 15.288C77.6856 15.6053 77.5269 16.156 77.5269 16.94V21H75.9309V13.286H77.5269V14.406ZM84.242 21.126C83.514 21.126 82.856 20.9627 82.268 20.636C81.68 20.3 81.218 19.8333 80.882 19.236C80.546 18.6293 80.378 17.9293 80.378 17.136C80.378 16.352 80.5507 15.6567 80.896 15.05C81.2413 14.4433 81.7127 13.9767 82.31 13.65C82.9073 13.3233 83.5747 13.16 84.312 13.16C85.0493 13.16 85.7167 13.3233 86.314 13.65C86.9113 13.9767 87.3827 14.4433 87.728 15.05C88.0733 15.6567 88.246 16.352 88.246 17.136C88.246 17.92 88.0687 18.6153 87.714 19.222C87.3593 19.8287 86.874 20.3 86.258 20.636C85.6513 20.9627 84.9793 21.126 84.242 21.126ZM84.242 19.74C84.6527 19.74 85.0353 19.642 85.39 19.446C85.754 19.25 86.048 18.956 86.272 18.564C86.496 18.172 86.608 17.696 86.608 17.136C86.608 16.576 86.5007 16.1047 86.286 15.722C86.0713 15.33 85.7867 15.036 85.432 14.84C85.0773 14.644 84.6947 14.546 84.284 14.546C83.8733 14.546 83.4907 14.644 83.136 14.84C82.7907 15.036 82.5153 15.33 82.31 15.722C82.1047 16.1047 82.002 16.576 82.002 17.136C82.002 17.9667 82.212 18.6107 82.632 19.068C83.0613 19.516 83.598 19.74 84.242 19.74ZM91.0117 10.64V21H89.4157V10.64H91.0117ZM95.4991 21.126C94.8925 21.126 94.3465 21.0187 93.8611 20.804C93.3851 20.58 93.0071 20.2813 92.7271 19.908C92.4471 19.5253 92.2978 19.1007 92.2791 18.634H93.9311C93.9591 18.9607 94.1131 19.236 94.3931 19.46C94.6825 19.6747 95.0418 19.782 95.4711 19.782C95.9191 19.782 96.2645 19.698 96.5071 19.53C96.7591 19.3527 96.8851 19.1287 96.8851 18.858C96.8851 18.5687 96.7451 18.354 96.4651 18.214C96.1945 18.074 95.7605 17.92 95.1631 17.752C94.5845 17.5933 94.1131 17.4393 93.7491 17.29C93.3851 17.1407 93.0678 16.912 92.7971 16.604C92.5358 16.296 92.4051 15.89 92.4051 15.386C92.4051 14.9753 92.5265 14.602 92.7691 14.266C93.0118 13.9207 93.3571 13.65 93.8051 13.454C94.2625 13.258 94.7851 13.16 95.3731 13.16C96.2505 13.16 96.9551 13.384 97.4871 13.832C98.0285 14.2707 98.3178 14.8727 98.3551 15.638H96.7591C96.7311 15.2927 96.5911 15.0173 96.3391 14.812C96.0871 14.6067 95.7465 14.504 95.3171 14.504C94.8971 14.504 94.5751 14.5833 94.3511 14.742C94.1271 14.9007 94.0151 15.1107 94.0151 15.372C94.0151 15.5773 94.0898 15.75 94.2391 15.89C94.3885 16.03 94.5705 16.142 94.7851 16.226C94.9998 16.3007 95.3171 16.3987 95.7371 16.52C96.2971 16.6693 96.7545 16.8233 97.1091 16.982C97.4731 17.1313 97.7858 17.3553 98.0471 17.654C98.3085 17.9527 98.4438 18.3493 98.4531 18.844C98.4531 19.2827 98.3318 19.6747 98.0891 20.02C97.8465 20.3653 97.5011 20.636 97.0531 20.832C96.6145 21.028 96.0965 21.126 95.4991 21.126Z" fill="#27282D"/>
<rect x="10" y="39.5" width="33.3333" height="15" rx="7.5" fill="#FF5A50"/>
<circle cx="35.4999" cy="47" r="5.5" fill="white"/>
<path d="M54.8493 45.084C54.8493 45.78 54.6093 46.36 54.1293 46.824C53.6573 47.28 52.9333 47.508 51.9573 47.508H50.3493V51H49.2573V42.636H51.9573C52.9013 42.636 53.6173 42.864 54.1053 43.32C54.6013 43.776 54.8493 44.364 54.8493 45.084ZM51.9573 46.608C52.5653 46.608 53.0133 46.476 53.3013 46.212C53.5893 45.948 53.7333 45.572 53.7333 45.084C53.7333 44.052 53.1413 43.536 51.9573 43.536H50.3493V46.608H51.9573ZM56.3625 43.356C56.1545 43.356 55.9785 43.284 55.8345 43.14C55.6905 42.996 55.6185 42.82 55.6185 42.612C55.6185 42.404 55.6905 42.228 55.8345 42.084C55.9785 41.94 56.1545 41.868 56.3625 41.868C56.5625 41.868 56.7305 41.94 56.8665 42.084C57.0105 42.228 57.0825 42.404 57.0825 42.612C57.0825 42.82 57.0105 42.996 56.8665 43.14C56.7305 43.284 56.5625 43.356 56.3625 43.356ZM56.8905 44.424V51H55.7985V44.424H56.8905ZM59.6757 45.324V49.2C59.6757 49.52 59.7437 49.748 59.8797 49.884C60.0157 50.012 60.2517 50.076 60.5877 50.076H61.3917V51H60.4077C59.7997 51 59.3437 50.86 59.0397 50.58C58.7357 50.3 58.5837 49.84 58.5837 49.2V45.324H57.7317V44.424H58.5837V42.768H59.6757V44.424H61.3917V45.324H59.6757ZM61.8988 47.7C61.8988 47.02 62.0348 46.428 62.3068 45.924C62.5788 45.412 62.9548 45.016 63.4348 44.736C63.9228 44.456 64.4788 44.316 65.1028 44.316C65.9108 44.316 66.5748 44.512 67.0948 44.904C67.6228 45.296 67.9708 45.84 68.1388 46.536H66.9628C66.8508 46.136 66.6308 45.82 66.3028 45.588C65.9828 45.356 65.5828 45.24 65.1028 45.24C64.4788 45.24 63.9748 45.456 63.5908 45.888C63.2068 46.312 63.0148 46.916 63.0148 47.7C63.0148 48.492 63.2068 49.104 63.5908 49.536C63.9748 49.968 64.4788 50.184 65.1028 50.184C65.5828 50.184 65.9828 50.072 66.3028 49.848C66.6228 49.624 66.8428 49.304 66.9628 48.888H68.1388C67.9628 49.56 67.6108 50.1 67.0828 50.508C66.5548 50.908 65.8948 51.108 65.1028 51.108C64.4788 51.108 63.9228 50.968 63.4348 50.688C62.9548 50.408 62.5788 50.012 62.3068 49.5C62.0348 48.988 61.8988 48.388 61.8988 47.7ZM72.4518 44.304C72.9478 44.304 73.3958 44.412 73.7958 44.628C74.1958 44.836 74.5078 45.152 74.7318 45.576C74.9638 46 75.0798 46.516 75.0798 47.124V51H73.9998V47.28C73.9998 46.624 73.8358 46.124 73.5078 45.78C73.1798 45.428 72.7318 45.252 72.1638 45.252C71.5878 45.252 71.1278 45.432 70.7838 45.792C70.4478 46.152 70.2798 46.676 70.2798 47.364V51H69.1878V42.12H70.2798V45.36C70.4958 45.024 70.7918 44.764 71.1678 44.58C71.5518 44.396 71.9798 44.304 72.4518 44.304ZM81.8508 42.636C82.7628 42.636 83.5508 42.808 84.2148 43.152C84.8868 43.488 85.3988 43.972 85.7508 44.604C86.1108 45.236 86.2908 45.98 86.2908 46.836C86.2908 47.692 86.1108 48.436 85.7508 49.068C85.3988 49.692 84.8868 50.172 84.2148 50.508C83.5508 50.836 82.7628 51 81.8508 51H79.2468V42.636H81.8508ZM81.8508 50.1C82.9308 50.1 83.7548 49.816 84.3228 49.248C84.8908 48.672 85.1748 47.868 85.1748 46.836C85.1748 45.796 84.8868 44.984 84.3108 44.4C83.7428 43.816 82.9228 43.524 81.8508 43.524H80.3388V50.1H81.8508ZM86.9152 47.688C86.9152 47.016 87.0512 46.428 87.3232 45.924C87.5952 45.412 87.9672 45.016 88.4392 44.736C88.9192 44.456 89.4512 44.316 90.0352 44.316C90.6112 44.316 91.1112 44.44 91.5352 44.688C91.9592 44.936 92.2752 45.248 92.4832 45.624V44.424H93.5872V51H92.4832V49.776C92.2672 50.16 91.9432 50.48 91.5112 50.736C91.0872 50.984 90.5912 51.108 90.0232 51.108C89.4392 51.108 88.9112 50.964 88.4392 50.676C87.9672 50.388 87.5952 49.984 87.3232 49.464C87.0512 48.944 86.9152 48.352 86.9152 47.688ZM92.4832 47.7C92.4832 47.204 92.3832 46.772 92.1832 46.404C91.9832 46.036 91.7112 45.756 91.3672 45.564C91.0312 45.364 90.6592 45.264 90.2512 45.264C89.8432 45.264 89.4712 45.36 89.1352 45.552C88.7992 45.744 88.5312 46.024 88.3312 46.392C88.1312 46.76 88.0312 47.192 88.0312 47.688C88.0312 48.192 88.1312 48.632 88.3312 49.008C88.5312 49.376 88.7992 49.66 89.1352 49.86C89.4712 50.052 89.8432 50.148 90.2512 50.148C90.6592 50.148 91.0312 50.052 91.3672 49.86C91.7112 49.66 91.9832 49.376 92.1832 49.008C92.3832 48.632 92.4832 48.196 92.4832 47.7ZM96.1166 45.492C96.3086 45.116 96.5806 44.824 96.9326 44.616C97.2926 44.408 97.7286 44.304 98.2406 44.304V45.432H97.9526C96.7286 45.432 96.1166 46.096 96.1166 47.424V51H95.0246V44.424H96.1166V45.492ZM102.765 51L100.185 48.096V51H99.0931V42.12H100.185V47.34L102.717 44.424H104.241L101.145 47.7L104.253 51H102.765Z" fill="#666666"/>
<rect x="10" y="70.5" width="130" height="5" rx="2.5" fill="#D9D9D9"/>
<rect x="150" y="63" width="20" height="20" rx="2.5" fill="url(#paint0_angular_867_14583)"/>
<circle cx="16" cy="73" r="6" fill="#F79D96"/>
<defs>
<radialGradient id="paint0_angular_867_14583" cx="0" cy="0" r="1" gradientUnits="userSpaceOnUse" gradientTransform="translate(160 73) rotate(90) scale(10)">
<stop stop-color="#FFF40D"/>
<stop offset="0.171875" stop-color="#FF4A25"/>
<stop offset="0.375" stop-color="#FF16CC"/>
<stop offset="0.583333" stop-color="#2D33FF"/>
<stop offset="0.796875" stop-color="#16FCFF"/>
<stop offset="1" stop-color="#46FF17"/>
</radialGradient>
</defs>
</svg>
