<?xml version="1.0" encoding="utf-8"?>
<!-- Generator: Adobe Illustrator 27.3.1, SVG Export Plug-In . SVG Version: 6.00 Build 0)  -->
<svg version="1.1" id="Layer_1" xmlns="http://www.w3.org/2000/svg" xmlns:xlink="http://www.w3.org/1999/xlink" x="0px" y="0px"
	 viewBox="0 0 380.81 175.13" style="enable-background:new 0 0 380.81 175.13;" xml:space="preserve">
<style type="text/css">
	.st0{enable-background:new    ;}
	.st1{fill:#8DC63F;}
</style>
<g>
	<g class="st0">
		<path d="M307.29,109.34h-6.15L289.17,89.7v19.64h-6.15V79.49h6.15l11.99,19.68V79.49h6.13V109.34z"/>
		<path d="M322.48,109.75c-3.25,0-5.9-1-7.94-2.99s-3.06-4.65-3.06-7.97V98.2c0-2.23,0.43-4.22,1.29-5.98
			c0.86-1.76,2.08-3.11,3.66-4.06c1.58-0.95,3.38-1.42,5.4-1.42c3.03,0,5.42,0.96,7.17,2.87c1.74,1.91,2.61,4.63,2.61,8.14v2.42
			h-14.12c0.19,1.45,0.77,2.61,1.73,3.48c0.96,0.88,2.18,1.31,3.66,1.31c2.28,0,4.07-0.83,5.35-2.48l2.91,3.26
			c-0.89,1.26-2.09,2.24-3.61,2.94C326.01,109.39,324.33,109.75,322.48,109.75z M321.81,91.52c-1.18,0-2.13,0.4-2.86,1.19
			c-0.73,0.8-1.2,1.94-1.4,3.42h8.24v-0.47c-0.03-1.32-0.38-2.34-1.07-3.06S323.06,91.52,321.81,91.52z"/>
		<path d="M346.41,98.41h-4.9v10.93h-6.15V79.49h11.09c3.53,0,6.25,0.79,8.16,2.36s2.87,3.79,2.87,6.66c0,2.04-0.44,3.73-1.32,5.09
			c-0.88,1.36-2.22,2.44-4.01,3.25l6.46,12.2v0.29H352L346.41,98.41z M341.51,93.43h4.96c1.54,0,2.74-0.39,3.59-1.18
			c0.85-0.79,1.27-1.87,1.27-3.25c0-1.41-0.4-2.51-1.2-3.32c-0.8-0.81-2.03-1.21-3.68-1.21h-4.94V93.43z"/>
		<path d="M380.11,97.14H368.3v12.2h-6.15V79.49h19.43v4.98H368.3v7.71h11.81V97.14z"/>
	</g>
	<g>
		<path id="Eye_Mark_00000050633769912003669100000013887219166391172484_" class="st1" d="M98.75,52.26V36.44
			c1.53-0.11,3.09-0.19,4.67-0.24c43.27-1.36,71.65,37.18,71.65,37.18s-30.66,42.58-63.53,42.58c-4.73,0-8.97-0.76-12.79-2.04V65.94
			c16.84,2.03,20.23,9.47,30.36,26.35l22.52-18.99c0,0-16.44-21.56-44.15-21.56C104.46,51.75,101.58,51.96,98.75,52.26 M98.75,0
			v23.63c1.55-0.12,3.11-0.22,4.67-0.28c60.17-2.03,99.37,49.34,99.37,49.34s-45.03,54.75-91.93,54.75c-4.3,0-8.32-0.4-12.11-1.07
			v14.61c3.24,0.41,6.58,0.65,10.08,0.65c43.65,0,75.22-22.29,105.79-48.67c5.07,4.06,25.81,13.93,30.08,18.25
			c-29.07,24.33-96.8,43.94-135.2,43.94c-3.7,0-7.26-0.22-10.75-0.56v20.53h165.91V0H98.75L98.75,0z M98.75,113.91v12.47
			c-40.37-7.2-51.58-49.16-51.58-49.16s19.38-21.48,51.58-24.96v13.68c-0.02,0-0.04,0-0.06,0c-16.9-2.03-30.1,13.76-30.1,13.76
			S75.99,106.26,98.75,113.91 M27.04,75.4c0,0,23.93-35.31,71.71-38.96V23.63C45.83,27.88,0,72.7,0,72.7s25.95,75.04,98.75,81.9
			v-13.61C45.33,134.27,27.04,75.4,27.04,75.4z"/>
	</g>
</g>
</svg>
