<?xml version="1.0" encoding="utf-8"?>
<!-- Generator: Adobe Illustrator 27.3.1, SVG Export Plug-In . SVG Version: 6.00 Build 0)  -->
<svg version="1.1" id="Layer_1" xmlns="http://www.w3.org/2000/svg" xmlns:xlink="http://www.w3.org/1999/xlink" x="0px" y="0px"
	 viewBox="0 0 316.26 159.08" style="enable-background:new 0 0 316.26 159.08;" xml:space="preserve">
<g>
	<path d="M0,1.88C0.02,0.65,0.78-0.06,1.88,0c0.33,0.02,0.66,0.11,0.98,0.21c9.16,2.62,18.32,5.24,27.48,7.88
		c15.51,4.47,31.02,8.97,46.53,13.45c7.56,2.18,15.13,4.3,22.69,6.48c5.16,1.48,10.3,3.02,15.46,4.5
		c11.59,3.34,23.19,6.67,34.79,10.01c1.92,0.55,3.84,1.1,5.76,1.64c2.74,0.77,2.45,2.36,0.89,3.82c-4.33,4.09-8.57,8.28-12.86,12.4
		c-5.56,5.34-11.14,10.65-16.7,15.99c-8.56,8.22-17.12,16.45-25.67,24.69c-7.77,7.49-15.52,14.99-23.29,22.47
		c-8.76,8.44-17.53,16.87-26.29,25.3c-3.06,2.95-6.12,5.89-9.2,8.82c-0.48,0.45-1,0.89-1.58,1.2c-0.92,0.49-1.84,0.13-2.27-0.82
		c-0.15-0.34-0.25-0.71-0.33-1.07c-3.44-13.94-6.87-27.88-10.31-41.82c-2.67-10.83-5.33-21.66-8.01-32.48
		C14.98,62.68,10.02,42.69,5.07,22.7C3.46,16.2,1.87,9.69,0.27,3.18C0.16,2.7,0.07,2.21,0,1.88z M33.05,120.3
		c0.01,1.55,7.67,32.58,8.28,33.57c7.66-7.37,15.31-14.72,22.95-22.07c0.6-0.58,1.17-1.18,1.75-1.77c0.02-0.02,0.02-0.08,0.02-0.11
		c0-0.04-0.03-0.08-0.07-0.19C55.05,126.6,44.08,123.46,33.05,120.3z M24.37,78.73C35.5,82,46.34,85.12,57.42,88.27
		c-2.79-11.26-5.5-22.25-8.28-33.45C40.85,62.82,32.7,70.7,24.37,78.73z M21.85,76.05c2.22-1.71,24.14-22.89,24.59-23.71
		c-2.21-0.89-31.72-9.26-32.73-9.26C16.41,54.02,19.1,64.95,21.85,76.05z M98.94,98.44c8.34-8.03,16.51-15.88,24.79-23.85
		c-0.72-0.24-1.25-0.44-1.8-0.6c-10.31-2.94-20.62-5.88-30.94-8.82c-0.03-0.01-0.07,0.03-0.1,0.06c-0.03,0.03-0.05,0.06-0.08,0.09
		C93.51,76.29,96.2,87.26,98.94,98.44z M87.36,65.86C79,73.93,70.85,81.79,62.57,89.78c11.07,3.19,21.92,6.31,33.02,9.51
		C92.82,88.06,90.13,77.1,87.36,65.86z M12.34,37.54c8.37-8.06,16.49-15.89,24.68-23.77C34.6,12.79,5.23,4.44,4.15,4.44
		C6.86,15.39,9.56,26.32,12.34,37.54z M152.53,46.91c-11.05-3.18-21.89-6.3-32.78-9.44c0.06,1.58,7.65,32,8.23,33.02
		C136.12,62.67,144.24,54.87,152.53,46.91z M81.15,26.36c2.88,11.04,5.3,21.92,8.16,32.86c8.19-7.88,16.21-15.6,24.41-23.48
		C102.8,32.59,92.11,29.51,81.15,26.36z M66.74,126.33c-0.95-4.92-7.73-31.77-8.25-32.61c-8.02,7.73-16.03,15.45-24.2,23.32
		C45.22,120.15,55.85,123.3,66.74,126.33z M84.88,63.38c-2.13-0.93-31.18-9.16-32.32-9.13c2.67,10.79,5.34,21.54,8.06,32.51
		C68.76,78.91,76.77,71.19,84.88,63.38z M39.59,16.18c-8.2,7.9-16.19,15.6-24.38,23.5c10.9,3.12,21.54,6.17,32.47,9.3
		C45.04,37.92,42.29,27.19,39.59,16.18z M116.17,38.13c-8.11,8.11-16.35,15.59-24.26,23.61c10.82,3.1,21.41,6.25,32.34,9.26
		C121.53,59.95,118.89,49.19,116.17,38.13z M23.34,82.07c0.74,2.96,1.42,5.64,2.08,8.33c0.67,2.71,1.31,5.42,1.98,8.12
		c0.67,2.75,1.34,5.49,2.04,8.24c0.67,2.66,1.21,5.36,2.09,8.09C39.66,107,47.65,99.29,55.8,91.43
		C44.96,88.31,34.31,85.24,23.34,82.07z M51.08,48.14c8.15-7.86,16.14-15.57,24.3-23.44c-10.88-3.13-21.55-6.21-32.43-9.34
		C45.69,26.37,48.36,37.14,51.08,48.14z M70.32,126c8.13-7.83,16.1-15.51,24.27-23.39c-10.91-3.15-21.55-6.21-32.4-9.35
		C64.92,104.28,67.59,115.04,70.32,126z M77.83,27.22c-8.19,7.89-16.16,15.56-24.32,23.41c10.85,3.11,21.48,6.16,32.34,9.27
		C83.17,48.97,80.54,38.25,77.83,27.22z"/>
	<g>
		<path d="M172.06,104.3c0.59-0.53,0.97-0.86,1.33-1.19c2.62-2.38,5.72-3.4,9.21-2.94c3.34,0.44,5.6,2.35,6.83,5.49
			c0.54,1.38,0.71,2.82,0.72,4.28c0.02,4.66-0.02,9.33,0.03,13.99c0.02,1.98-1.71,2.68-3.03,2.34c-0.89-0.23-1.47-0.78-1.61-1.7
			c-0.09-0.53-0.09-1.08-0.1-1.62c-0.01-4.25,0.02-8.49-0.03-12.74c-0.01-0.9-0.15-1.84-0.47-2.67c-0.97-2.55-3.33-3.69-6.19-3.11
			c-2.76,0.57-4.75,2.32-6.47,4.41c-0.25,0.3-0.26,0.86-0.26,1.3c-0.02,4.16-0.01,8.33-0.01,12.49c0,0.54,0.01,1.09-0.05,1.62
			c-0.15,1.39-1.14,2.15-2.62,2.07c-1.26-0.07-2.06-0.95-2.06-2.33c0-10.62,0.01-21.23,0.01-31.85c0-0.25,0-0.5,0.03-0.75
			c0.15-1.26,0.98-2.01,2.26-2.03c1.26-0.02,2.17,0.71,2.35,1.94c0.07,0.49,0.07,1,0.07,1.49c0,3.46-0.01,6.91-0.01,10.37
			C172.01,103.45,172.04,103.72,172.06,104.3z"/>
		<path d="M247.52,114.96c0.24,2.04,0.91,3.58,2.09,4.87c1.4,1.53,3.23,2.15,5.25,2.3c2.7,0.2,5.32-0.02,7.77-1.33
			c0.38-0.2,0.88-0.2,1.33-0.22c0.78-0.03,1.37,0.35,1.69,1.06c0.33,0.72,0.1,1.8-0.47,2.31c-0.28,0.25-0.6,0.45-0.93,0.62
			c-4.69,2.48-9.57,2.75-14.5,0.96c-3.11-1.13-5.21-3.46-6.18-6.62c-1.32-4.32-1.29-8.66,0.75-12.77c1.93-3.88,5.25-5.77,9.54-6.01
			c1.89-0.11,3.74,0.05,5.52,0.77c3.26,1.31,5.38,3.66,6.54,6.96c0.54,1.52,0.66,3.09,0.73,4.67c0.07,1.63-0.66,2.41-2.3,2.43
			c-2.46,0.04-4.92,0.01-7.37,0.01c-2.62,0-5.25,0-7.87-0.01C248.62,114.96,248.13,114.96,247.52,114.96z M247.62,111.08
			c4.81,0,9.53,0,14.25,0c0.14-3.72-3.34-7.12-7.17-7.08C250.88,104.04,247.51,107.33,247.62,111.08z"/>
		<path d="M219.07,114.96c0.31,3.74,2.85,6.92,7.25,7.18c2.7,0.16,5.32-0.02,7.78-1.32c0.38-0.2,0.88-0.23,1.33-0.23
			c0.87-0.01,1.53,0.46,1.77,1.14c0.27,0.79,0.05,1.77-0.57,2.29c-0.29,0.24-0.61,0.43-0.94,0.6c-4.66,2.44-9.49,2.7-14.39,0.93
			c-3.11-1.13-5.22-3.44-6.2-6.6c-1.34-4.32-1.31-8.66,0.72-12.78c1.92-3.89,5.23-5.79,9.51-6.04c1.89-0.11,3.74,0.04,5.52,0.76
			c3.26,1.3,5.4,3.64,6.56,6.94c0.49,1.4,0.64,2.83,0.73,4.29c0.14,2.08-0.55,2.85-2.63,2.85c-4.87,0.01-9.75,0-14.62,0
			C220.31,114.96,219.74,114.96,219.07,114.96z M233.47,111.09c-0.19-2.88-1.54-4.94-3.92-6.22c-2.57-1.39-5.2-1.14-7.54,0.55
			c-1.85,1.33-2.89,3.22-2.94,5.67C223.89,111.09,228.58,111.09,233.47,111.09z"/>
		<path d="M306.68,100.13c2.5-0.11,4.8,0.4,7.07,1.14c0.8,0.26,1.4,0.68,1.5,1.62c0.17,1.66-0.83,2.65-2.48,2.34
			c-1.1-0.21-2.18-0.54-3.28-0.74c-2.13-0.4-4.23-0.4-6.21,0.62c-0.47,0.24-0.95,0.55-1.29,0.95c-1.18,1.35-0.86,3.08,0.77,3.83
			c1.16,0.53,2.42,0.86,3.65,1.23c1.51,0.46,3.04,0.85,4.56,1.29c0.48,0.14,0.95,0.32,1.39,0.54c2.42,1.22,3.84,3.06,3.9,5.89
			c0.06,2.76-1.01,4.82-3.34,6.27c-1.84,1.14-3.91,1.45-5.98,1.51c-3.16,0.09-6.2-0.63-9.04-2.05c-0.99-0.49-1.39-1.16-1.31-2.06
			c0.13-1.34,1.22-2.15,2.56-1.83c0.52,0.12,1.02,0.36,1.52,0.56c2.37,0.94,4.84,1.17,7.35,0.92c0.65-0.06,1.29-0.31,1.9-0.56
			c0.37-0.15,0.73-0.42,1.01-0.71c1.31-1.36,1.02-3.11-0.7-3.85c-1.14-0.49-2.35-0.82-3.55-1.18c-1.67-0.51-3.35-0.97-5.03-1.47
			c-0.43-0.13-0.86-0.33-1.26-0.54c-2.68-1.43-3.88-3.66-3.6-6.68c0.29-3.1,2-5.13,4.81-6.27
			C303.27,100.23,305.01,100.03,306.68,100.13z"/>
		<path d="M149.81,104.61c-0.73,0-1.26,0-1.79,0c-0.54,0-1.09,0.04-1.62-0.01c-1.06-0.09-1.41-0.89-0.8-1.76
			c0.12-0.17,0.27-0.31,0.42-0.46c2.11-2.07,4.22-4.14,6.34-6.2c0.2-0.2,0.44-0.4,0.7-0.5c0.76-0.28,1.33,0.1,1.37,0.91
			c0.04,0.87,0.01,1.75,0.01,2.62c0,0.41,0,0.81,0,1.4c0.94,0,1.76,0,2.58,0c1.04,0,2.08-0.03,3.12-0.01
			c1.19,0.03,1.81,0.62,1.88,1.72c0.08,1.25-0.5,2.07-1.64,2.26c-0.37,0.06-0.75,0.04-1.12,0.04c-1.54,0-3.07,0-4.66,0
			c-0.06,0.25-0.14,0.44-0.14,0.63c0.01,4.79,0.09,9.58,0,14.37c-0.05,2.35,1.74,2.96,3.33,2.93c0.49-0.01,0.98-0.17,1.47-0.26
			c0.41-0.07,0.82-0.16,1.23-0.18c1.09-0.04,1.77,0.44,1.97,1.33c0.21,0.92-0.21,1.89-1.15,2.23c-1.09,0.4-2.22,0.73-3.36,0.89
			c-1.54,0.22-3.08-0.03-4.55-0.56c-2.31-0.84-3.61-2.82-3.61-5.45c0-4.75,0.01-9.5,0.01-14.24
			C149.81,105.82,149.81,105.33,149.81,104.61z"/>
		<path d="M290.17,117.44c0,4.7,0.01,9.41-0.01,14.11c0,0.66-0.05,1.34-0.19,1.98c-0.5,2.45-2.18,3.99-4.67,4.37
			c-1.54,0.23-3.07,0.17-4.58-0.21c-1.22-0.31-1.7-1-1.56-2.17c0.14-1.12,0.86-1.7,2.09-1.66c0.46,0.02,0.91,0.14,1.37,0.12
			c2.14-0.08,2.9-0.89,2.89-2.62c-0.01-1.17,0.02-2.33,0.02-3.5c0.01-8.12,0.01-16.24,0.01-24.35c0-0.29-0.01-0.58,0.01-0.87
			c0.08-1.42,1.03-2.3,2.43-2.27c1.39,0.04,2.17,0.84,2.18,2.33C290.17,107.62,290.16,112.53,290.17,117.44
			C290.16,117.44,290.17,117.44,290.17,117.44z"/>
		<path d="M202.79,104.06c0.31-0.33,0.61-0.67,0.92-0.99c1.9-1.9,4.1-3.11,6.88-2.96c1.27,0.06,1.99,0.73,2.13,1.99
			c0.14,1.28-0.4,2.06-1.69,2.35c-0.48,0.11-0.99,0.13-1.48,0.16c-2.92,0.2-5.09,1.67-6.74,3.98c-0.26,0.36-0.28,0.94-0.28,1.42
			c-0.02,4.25-0.01,8.49-0.01,12.74c0,0.54,0.01,1.09-0.06,1.62c-0.17,1.3-1.17,2.03-2.6,1.95c-1.22-0.06-2.06-0.92-2.06-2.2
			c-0.01-7.08,0-14.16,0.02-21.24c0.01-1.68,0.89-2.58,2.39-2.55c1.26,0.03,2.12,0.79,2.26,2.04c0.06,0.52,0.06,1.06,0.08,1.58
			C202.63,104,202.71,104.03,202.79,104.06z"/>
		<path d="M274.83,126.25c-1.87-0.01-3.06-1.19-3.03-3.01c0.03-1.82,1.36-3.09,3.2-3.06c1.74,0.03,3.02,1.35,3.02,3.1
			C278.03,125.16,276.85,126.26,274.83,126.25z"/>
		<path d="M285.22,92.89c-0.22-1.68,1.21-2.9,2.85-2.79c1.64,0.11,2.61,1.09,2.6,2.83c-0.01,1.64-1.05,2.57-2.84,2.55
			C286.1,95.46,285.2,94.56,285.22,92.89z"/>
	</g>
</g>
</svg>
