<svg width="64" height="65" viewBox="0 0 64 65" fill="none" xmlns="http://www.w3.org/2000/svg">
<g clip-path="url(#clip0_2045_2370)">
<path d="M32.0007 48.6524C40.8377 48.6524 48.0013 41.4884 48.0013 32.6514C48.0013 23.8144 40.8377 16.6504 32.0007 16.6504C23.1636 16.6504 16 23.8144 16 32.6514C16 41.4884 23.1636 48.6524 32.0007 48.6524Z" fill="white"/>
<path d="M18.1434 40.6557L4.2885 16.6582C1.47922 21.5225 0 27.0406 0 32.6582C0 38.2758 1.47855 43.7939 4.2875 48.6582C7.09644 53.5225 11.1367 57.5621 16.0017 60.3697C20.8667 63.1773 26.3855 64.6548 32.0027 64.6532L45.8576 40.6557V40.652C44.4543 43.0857 42.4349 45.1068 40.0025 46.5121C37.5702 47.9174 34.8107 48.6574 32.0017 48.6578C29.1926 48.6582 26.4329 47.919 24.0002 46.5145C21.5675 45.1098 19.5475 43.0894 18.1434 40.6564V40.6557Z" fill="#229342"/>
<path d="M45.8564 40.6548L32.0018 64.6523C37.619 64.6533 43.1375 63.1748 48.0021 60.3665C52.8668 57.5582 56.9064 53.5183 59.7146 48.6533C62.5228 43.7884 64.0007 38.2699 63.9998 32.6526C63.9988 27.0354 62.5189 21.5173 59.7089 16.6533H31.9995L31.9961 16.6557C34.8052 16.6543 37.5651 17.3927 39.9983 18.7964C42.4316 20.2004 44.4521 22.2198 45.8571 24.6525C47.262 27.0851 48.0016 29.8447 48.0015 32.6539C48.0015 35.463 47.2617 38.2226 45.8567 40.6552L45.8564 40.6548Z" fill="#FBC116"/>
<path d="M32.0008 45.3227C38.9968 45.3227 44.6681 39.6514 44.6681 32.6551C44.6681 25.6588 38.9968 19.9878 32.0008 19.9878C25.0048 19.9878 19.3335 25.6591 19.3335 32.6551C19.3335 39.6511 25.0048 45.3227 32.0008 45.3227Z" fill="#1A73E8"/>
<path d="M32.0009 16.6543H59.7104C56.9024 11.7893 52.8632 7.74909 47.9985 4.94015C43.134 2.13139 37.6157 0.652894 31.9985 0.65332C26.3813 0.653656 20.8632 2.13289 15.9992 4.94251C11.135 7.75196 7.09628 11.7925 4.28906 16.658L18.144 40.6555L18.1477 40.6575C16.7419 38.2254 16.0014 35.466 16.0005 32.6568C15.9996 29.8477 16.7384 27.0879 18.1426 24.6548C19.5466 22.2218 21.567 20.2014 23.9997 18.7971C26.4324 17.3928 29.1923 16.6533 32.0016 16.654L32.0009 16.6543Z" fill="#E33B2E"/>
</g>
<defs>
<clipPath id="clip0_2045_2370">
<rect width="64" height="64" fill="white" transform="translate(0 0.65332)"/>
</clipPath>
</defs>
</svg>
