<svg width="64" height="65" viewBox="0 0 64 65" fill="none" xmlns="http://www.w3.org/2000/svg">
<path d="M57.764 48.2855C56.9108 48.7317 56.0308 49.1249 55.1292 49.4629C52.2592 50.5367 49.219 51.0838 46.1547 51.0778C34.3255 51.0778 24.0211 42.9408 24.0211 32.4989C24.0363 31.0984 24.4249 29.7274 25.1469 28.5272C25.8689 27.3271 26.8982 26.3414 28.1284 25.6719C17.429 26.1218 14.6792 37.2712 14.6792 43.8032C14.6792 62.2721 31.7006 64.1445 35.3679 64.1445C37.3453 64.1445 40.3276 63.5695 42.1175 63.0045L42.445 62.8946C49.3326 60.5134 55.2044 55.8583 59.0939 49.6954C59.2131 49.5077 59.2662 49.2856 59.2451 49.0644C59.2239 48.8431 59.1296 48.6351 58.9771 48.4734C58.8245 48.3117 58.6225 48.2054 58.4028 48.1714C58.1831 48.1374 57.9583 48.1775 57.764 48.2855Z" fill="url(#paint0_linear_2045_2385)"/>
<path opacity="0.35" d="M57.764 48.2855C56.9108 48.7317 56.0308 49.1249 55.1292 49.4629C52.2592 50.5367 49.219 51.0838 46.1547 51.0778C34.3255 51.0778 24.0211 42.9408 24.0211 32.4989C24.0363 31.0984 24.4249 29.7274 25.1469 28.5272C25.8689 27.3271 26.8982 26.3414 28.1284 25.6719C17.429 26.1218 14.6792 37.2712 14.6792 43.8032C14.6792 62.2721 31.7006 64.1445 35.3679 64.1445C37.3453 64.1445 40.3276 63.5695 42.1175 63.0045L42.445 62.8946C49.3326 60.5134 55.2044 55.8583 59.0939 49.6954C59.2131 49.5077 59.2662 49.2856 59.2451 49.0644C59.2239 48.8431 59.1296 48.6351 58.9771 48.4734C58.8245 48.3117 58.6225 48.2054 58.4028 48.1714C58.1831 48.1374 57.9583 48.1775 57.764 48.2855Z" fill="url(#paint1_radial_2045_2385)"/>
<path d="M26.431 61.0045C24.2013 59.6206 22.269 57.8072 20.7464 55.6698C19.011 53.2922 17.8167 50.5636 17.2475 47.6756C16.6782 44.7875 16.7478 41.8099 17.4512 38.9516C18.1545 36.0932 19.4748 33.4234 21.3193 31.1293C23.1637 28.8352 25.4878 26.9725 28.1284 25.6717C28.9084 25.3042 30.2408 24.6393 32.0132 24.6718C33.2619 24.6808 34.4915 24.979 35.6057 25.5428C36.7199 26.1066 37.6884 26.9208 38.4353 27.9215C39.4448 29.2694 40.0014 30.9024 40.0252 32.5863C40.0252 32.5338 46.1398 12.6875 20.0264 12.6875C9.05211 12.6875 0.0276721 23.1019 0.0276721 32.2388C-0.0156153 37.0721 1.01854 41.8543 3.05498 46.2379C6.38309 53.3389 12.2031 58.9704 19.4097 62.0632C26.6163 65.1559 34.7078 65.4944 42.1475 63.0144C39.5426 63.8357 36.7905 64.0822 34.081 63.737C31.3716 63.3917 28.7692 62.4628 26.4535 61.0145L26.431 61.0045Z" fill="url(#paint2_linear_2045_2385)"/>
<path opacity="0.41" d="M26.431 61.0045C24.2013 59.6206 22.269 57.8072 20.7464 55.6698C19.011 53.2922 17.8167 50.5636 17.2475 47.6756C16.6782 44.7875 16.7478 41.8099 17.4512 38.9516C18.1545 36.0932 19.4748 33.4234 21.3193 31.1293C23.1637 28.8352 25.4878 26.9725 28.1284 25.6717C28.9084 25.3042 30.2408 24.6393 32.0132 24.6718C33.2619 24.6808 34.4915 24.979 35.6057 25.5428C36.7199 26.1066 37.6884 26.9208 38.4353 27.9215C39.4448 29.2694 40.0014 30.9024 40.0252 32.5863C40.0252 32.5338 46.1398 12.6875 20.0264 12.6875C9.05211 12.6875 0.0276721 23.1019 0.0276721 32.2388C-0.0156153 37.0721 1.01854 41.8543 3.05498 46.2379C6.38309 53.3389 12.2031 58.9704 19.4097 62.0632C26.6163 65.1559 34.7078 65.4944 42.1475 63.0144C39.5426 63.8357 36.7905 64.0822 34.081 63.737C31.3716 63.3917 28.7692 62.4628 26.4535 61.0145L26.431 61.0045Z" fill="url(#paint3_radial_2045_2385)"/>
<path d="M38.0801 37.866C37.8776 38.1285 37.2552 38.491 37.2552 39.2809C37.2552 39.9334 37.6801 40.5608 38.4351 41.0883C42.0299 43.5881 48.8069 43.2582 48.8244 43.2582C51.4881 43.2518 54.1013 42.5309 56.3915 41.1708C58.7018 39.8218 60.6193 37.8921 61.9537 35.5733C63.2881 33.2544 63.993 30.627 63.9985 27.9516C64.0635 22.3495 61.9986 18.6247 61.1637 16.9748C55.8665 6.61295 44.4322 0.65332 31.998 0.65332C23.589 0.652489 15.5176 3.96186 9.52961 9.86567C3.54159 15.7695 0.118252 23.7932 0 32.2014C0.119993 23.0669 9.19942 15.6899 19.9988 15.6899C20.8737 15.6899 25.8634 15.7749 30.4981 18.2072C34.5828 20.3521 36.7227 22.9419 38.2101 25.5093C39.755 28.1766 40.03 31.5464 40.03 32.8888C40.03 34.2312 39.345 36.2211 38.0801 37.866Z" fill="url(#paint4_radial_2045_2385)"/>
<path d="M38.0801 37.866C37.8776 38.1285 37.2552 38.491 37.2552 39.2809C37.2552 39.9334 37.6801 40.5608 38.4351 41.0883C42.0299 43.5881 48.8069 43.2582 48.8244 43.2582C51.4881 43.2518 54.1013 42.5309 56.3915 41.1708C58.7018 39.8218 60.6193 37.8921 61.9537 35.5733C63.2881 33.2544 63.993 30.627 63.9985 27.9516C64.0635 22.3495 61.9986 18.6247 61.1637 16.9748C55.8665 6.61295 44.4322 0.65332 31.998 0.65332C23.589 0.652489 15.5176 3.96186 9.52961 9.86567C3.54159 15.7695 0.118252 23.7932 0 32.2014C0.119993 23.0669 9.19942 15.6899 19.9988 15.6899C20.8737 15.6899 25.8634 15.7749 30.4981 18.2072C34.5828 20.3521 36.7227 22.9419 38.2101 25.5093C39.755 28.1766 40.03 31.5464 40.03 32.8888C40.03 34.2312 39.345 36.2211 38.0801 37.866Z" fill="url(#paint5_radial_2045_2385)"/>
<defs>
<linearGradient id="paint0_linear_2045_2385" x1="14.6792" y1="44.9132" x2="59.2614" y2="44.9132" gradientUnits="userSpaceOnUse">
<stop stop-color="#0C59A4"/>
<stop offset="1" stop-color="#114A8B"/>
</linearGradient>
<radialGradient id="paint1_radial_2045_2385" cx="0" cy="0" r="1" gradientUnits="userSpaceOnUse" gradientTransform="translate(39.3027 45.2645) scale(23.8435 22.6513)">
<stop offset="0.72" stop-opacity="0"/>
<stop offset="0.95" stop-opacity="0.53"/>
<stop offset="1"/>
</radialGradient>
<linearGradient id="paint2_linear_2045_2385" x1="38.1828" y1="25.5742" x2="10.337" y2="55.9048" gradientUnits="userSpaceOnUse">
<stop stop-color="#1B9DE2"/>
<stop offset="0.16" stop-color="#1595DF"/>
<stop offset="0.67" stop-color="#0680D7"/>
<stop offset="1" stop-color="#0078D4"/>
</linearGradient>
<radialGradient id="paint3_radial_2045_2385" cx="0" cy="0" r="1" gradientUnits="userSpaceOnUse" gradientTransform="translate(17.6477 50.4022) rotate(-81.3844) scale(35.8543 28.9667)">
<stop offset="0.76" stop-opacity="0"/>
<stop offset="0.95" stop-opacity="0.5"/>
<stop offset="1"/>
</radialGradient>
<radialGradient id="paint4_radial_2045_2385" cx="0" cy="0" r="1" gradientUnits="userSpaceOnUse" gradientTransform="translate(6.46522 12.4968) rotate(92.2906) scale(50.6448 107.863)">
<stop stop-color="#35C1F1"/>
<stop offset="0.11" stop-color="#34C1ED"/>
<stop offset="0.23" stop-color="#2FC2DF"/>
<stop offset="0.31" stop-color="#2BC3D2"/>
<stop offset="0.67" stop-color="#36C752"/>
</radialGradient>
<radialGradient id="paint5_radial_2045_2385" cx="0" cy="0" r="1" gradientUnits="userSpaceOnUse" gradientTransform="translate(60.0143 20.0036) rotate(73.7398) scale(24.3335 19.788)">
<stop stop-color="#66EB6E"/>
<stop offset="1" stop-color="#66EB6E" stop-opacity="0"/>
</radialGradient>
</defs>
</svg>
