<svg width="66" height="65" viewBox="0 0 66 65" fill="none" xmlns="http://www.w3.org/2000/svg">
<path d="M65 32.6533C65 36.8556 64.1723 41.0168 62.5641 44.8992C60.956 48.7816 58.5989 52.3093 55.6274 55.2808C52.6559 58.2522 49.1283 60.6093 45.2459 62.2175C41.3634 63.8257 37.2023 64.6533 33 64.6533C24.5131 64.6533 16.3737 61.2819 10.3726 55.2808C4.37141 49.2796 0.999999 41.1403 1 32.6533C0.999999 24.1664 4.37141 16.0271 10.3726 10.0259C16.3737 4.02475 24.5131 0.653322 33 0.65332C37.2023 0.65332 41.3634 1.48103 45.2459 3.08918C49.1283 4.69733 52.6559 7.05444 55.6274 10.0259C58.5989 12.9974 60.956 16.525 62.5641 20.4075C64.1723 24.2899 65 28.451 65 32.6533Z" fill="url(#paint0_linear_2045_2377)" stroke="#CDCDCD" stroke-width="0.351543" stroke-linecap="round" stroke-linejoin="round"/>
<path d="M62.4924 32.6532C62.4924 40.4751 59.3851 47.9766 53.8542 53.5075C48.3233 59.0384 40.8217 62.1457 32.9998 62.1457C25.1779 62.1457 17.6764 59.0384 12.1455 53.5075C6.61456 47.9766 3.50732 40.4751 3.50732 32.6532C3.50732 24.8313 6.61456 17.3297 12.1455 11.7988C17.6764 6.26788 25.1779 3.16064 32.9998 3.16064C40.8217 3.16064 48.3233 6.26788 53.8542 11.7988C59.3851 17.3297 62.4924 24.8313 62.4924 32.6532Z" fill="url(#paint1_radial_2045_2377)"/>
<path d="M32.9997 4.69873C32.7615 4.69873 32.5698 4.89049 32.5698 5.12872V10.0885C32.5698 10.3267 32.7615 10.5185 32.9997 10.5185C33.238 10.5185 33.4297 10.3267 33.4297 10.0885V5.12872C33.4297 4.89049 33.238 4.69873 32.9997 4.69873ZM30.1868 4.87652C30.1583 4.87346 30.1289 4.87346 30.0993 4.87688C29.8624 4.9016 29.6915 5.11224 29.7163 5.34918L29.933 7.42412C29.9578 7.66106 30.1684 7.8319 30.4053 7.80716C30.6423 7.78244 30.8131 7.5718 30.7884 7.33486L30.5718 5.25993C30.5501 5.0526 30.3861 4.89588 30.1868 4.87652ZM35.8324 4.87856C35.633 4.89777 35.469 5.05448 35.4471 5.26177L35.2289 7.33655C35.204 7.57346 35.3748 7.7843 35.6118 7.80922C35.8487 7.83414 36.0593 7.66346 36.0842 7.42654L36.3025 5.3516C36.3274 5.11468 36.1565 4.90402 35.9196 4.87911C35.89 4.87605 35.8609 4.87603 35.8324 4.87856ZM27.2971 5.29556C27.2685 5.29578 27.2394 5.29862 27.2103 5.30475C26.9772 5.35409 26.8293 5.58148 26.8787 5.81453L27.9058 10.6667C27.9552 10.8997 28.1825 11.0476 28.4156 10.9983C28.6487 10.949 28.7966 10.7217 28.7472 10.4887L27.7201 5.63638C27.6769 5.43245 27.4974 5.29399 27.2971 5.29556ZM38.7219 5.29964C38.5215 5.2976 38.3421 5.43647 38.2987 5.64036L37.268 10.4919C37.2185 10.7249 37.3663 10.9524 37.5993 11.0019C37.8323 11.0514 38.0598 10.9036 38.1093 10.6706L39.14 5.81906C39.1895 5.58604 39.0417 5.35859 38.8087 5.30909C38.7796 5.30296 38.7505 5.29964 38.7219 5.29964ZM24.5394 6.07312C24.4837 6.06802 24.4263 6.07415 24.3696 6.09294C24.1431 6.16659 24.0199 6.40809 24.0935 6.63465L24.7382 8.61885C24.8118 8.84542 25.0535 8.9686 25.2801 8.89499C25.5066 8.82134 25.6296 8.57966 25.556 8.3531L24.9113 6.3689C24.8562 6.19898 24.7064 6.08732 24.5394 6.07312ZM41.464 6.07415C41.297 6.08835 41.1473 6.20004 41.0921 6.36995L40.447 8.35397C40.3733 8.58052 40.4964 8.82222 40.723 8.89586C40.9495 8.96951 41.1912 8.84642 41.2648 8.61991L41.9099 6.63571C41.9836 6.40915 41.8605 6.16746 41.634 6.09382C41.5774 6.07543 41.5196 6.06945 41.464 6.07415ZM21.8123 7.07107C21.7565 7.07209 21.6999 7.08435 21.6455 7.10856C21.4279 7.2053 21.3305 7.45838 21.4273 7.67606L23.4417 12.2083C23.5385 12.4259 23.7915 12.5233 24.0092 12.4265C24.2268 12.3298 24.3244 12.0767 24.2276 11.859L22.213 7.3268C22.1405 7.16353 21.9799 7.06782 21.8123 7.07107ZM44.2218 7.08629C44.0543 7.08323 43.8936 7.17833 43.8208 7.34146L41.8002 11.8709C41.7032 12.0884 41.8002 12.3417 42.0177 12.4387C42.2353 12.5358 42.4885 12.4388 42.5856 12.2212L44.6062 7.69184C44.7032 7.47428 44.6062 7.22102 44.3887 7.12396C44.3343 7.09975 44.2777 7.08752 44.2218 7.08629ZM19.2811 8.41039C19.1985 8.40426 19.1135 8.42265 19.0361 8.4674C18.8298 8.58651 18.7596 8.84845 18.8787 9.05475L19.9219 10.8615C20.041 11.0679 20.3029 11.138 20.5092 11.0189C20.7155 10.8998 20.7857 10.6379 20.6666 10.4316L19.6234 8.62477C19.549 8.49582 19.4187 8.42002 19.2811 8.41039ZM46.7184 8.41039C46.5808 8.41959 46.4507 8.49579 46.3762 8.62474L45.3329 10.4315C45.2138 10.6378 45.2842 10.8998 45.4905 11.0189C45.6968 11.138 45.9587 11.0678 46.0778 10.8615L47.121 9.05472C47.2401 8.84842 47.1699 8.58648 46.9636 8.46736C46.8862 8.42272 46.801 8.40467 46.7184 8.41039ZM16.8231 9.94345C16.7403 9.94652 16.6575 9.97308 16.5852 10.0255C16.3923 10.1654 16.3497 10.4332 16.4896 10.626L19.4019 14.6406C19.5418 14.8335 19.8098 14.8761 20.0026 14.7362C20.1955 14.5964 20.2381 14.3285 20.0982 14.1357L17.1857 10.1211C17.0983 10.0006 16.9609 9.93874 16.8231 9.94345ZM49.2072 9.96531C49.0694 9.96021 48.932 10.022 48.8444 10.1424L45.9266 14.1531C45.7864 14.3457 45.8287 14.6136 46.0214 14.7538C46.214 14.8939 46.482 14.8518 46.6221 14.6592L49.5398 10.6485C49.6799 10.4558 49.6375 10.1879 49.445 10.0478C49.3727 9.99525 49.2899 9.96828 49.2072 9.96531ZM14.626 11.786C14.5163 11.7799 14.4042 11.8166 14.3157 11.8963C14.1387 12.0556 14.1244 12.3264 14.2839 12.5035L15.6798 14.0542C15.8391 14.2312 16.1099 14.2455 16.287 14.086C16.464 13.9267 16.4783 13.6557 16.3189 13.4786L14.9231 11.9281C14.8434 11.8396 14.7358 11.7918 14.626 11.786ZM51.3766 11.7891C51.2669 11.7952 51.1592 11.8427 51.0795 11.9312L49.6836 13.4816C49.5242 13.6586 49.5383 13.9296 49.7154 14.089C49.8924 14.2484 50.1632 14.2341 50.3226 14.0571L51.7187 12.5068C51.8781 12.3297 51.8638 12.0588 51.6868 11.8994C51.5983 11.8197 51.4864 11.7833 51.3766 11.7891ZM12.5203 13.8087C12.4105 13.8149 12.303 13.8624 12.2233 13.9509C12.0639 14.1279 12.0782 14.3987 12.2552 14.5581L15.9413 17.8764C16.1184 18.0358 16.3892 18.0215 16.5485 17.8445C16.7079 17.6675 16.6939 17.3967 16.5168 17.2373L12.8305 13.919C12.7419 13.8393 12.63 13.803 12.5203 13.8087ZM53.4926 13.8232C53.3828 13.8171 53.2707 13.8537 53.1821 13.9333L49.4938 17.249C49.3166 17.4083 49.302 17.6791 49.4613 17.8562C49.6205 18.0334 49.8915 18.0478 50.0687 17.8885L53.7572 14.5728C53.9344 14.4135 53.9488 14.1427 53.7895 13.9656C53.7098 13.877 53.6024 13.8291 53.4926 13.8232ZM10.7691 16.0604C10.6313 16.0553 10.4938 16.1174 10.4063 16.2378C10.2663 16.4305 10.3088 16.6983 10.5015 16.8383L12.1894 18.0646C12.3821 18.2047 12.6499 18.1624 12.7899 17.9696C12.9299 17.7769 12.8876 17.5089 12.6949 17.3689L11.0071 16.1426C10.9348 16.0901 10.8518 16.0633 10.7691 16.0604ZM55.242 16.076C55.1593 16.0791 55.0764 16.1055 55.0041 16.158L53.3156 17.3832C53.1227 17.5231 53.0801 17.7911 53.2199 17.984C53.3598 18.1768 53.6277 18.2192 53.8205 18.0794L55.5092 16.8542C55.7021 16.7143 55.7445 16.4465 55.6047 16.2537C55.5172 16.1331 55.3799 16.0713 55.242 16.076ZM9.13271 18.4622C8.99512 18.4714 8.86496 18.5476 8.79051 18.6765C8.67139 18.8828 8.74158 19.1448 8.94788 19.2639L13.2431 21.7438C13.4494 21.8629 13.7113 21.7927 13.8304 21.5864C13.9496 21.3801 13.8794 21.1181 13.6731 20.999L9.37786 18.5191C9.30053 18.4745 9.21526 18.4565 9.13271 18.4622ZM56.8668 18.4622C56.7842 18.4561 56.699 18.4744 56.6216 18.5192L52.3264 20.9991C52.1201 21.1182 52.0499 21.3801 52.169 21.5864C52.2882 21.7927 52.5501 21.8629 52.7564 21.7438L57.0518 19.2639C57.2581 19.1448 57.3283 18.8829 57.2092 18.6766C57.1347 18.5476 57.0044 18.4718 56.8668 18.4622ZM7.89546 21.0222C7.7279 21.0181 7.56721 21.1141 7.49442 21.2772C7.39738 21.4948 7.49436 21.748 7.71193 21.8451L9.61743 22.695C9.835 22.7921 10.0883 22.6951 10.1853 22.4775C10.2824 22.26 10.1852 22.0067 9.96763 21.9097L8.0623 21.0597C8.00795 21.0354 7.95131 21.0234 7.89546 21.0222ZM58.1124 21.0399C58.0565 21.0409 57.9998 21.0532 57.9453 21.0774L56.0395 21.9259C55.8218 22.0228 55.7245 22.2759 55.8214 22.4935C55.9184 22.7112 56.1717 22.8085 56.3893 22.7116L58.2952 21.8629C58.5128 21.7661 58.6099 21.5129 58.513 21.2953C58.4404 21.132 58.2799 21.0366 58.1124 21.0399ZM6.79276 23.6979C6.62575 23.7119 6.47602 23.8235 6.42067 23.9934C6.34692 24.2199 6.4697 24.4617 6.69625 24.5355L11.412 26.072C11.6385 26.1458 11.8803 26.0229 11.9541 25.7965C12.0278 25.57 11.905 25.3282 11.6785 25.2544L6.96275 23.7178C6.90616 23.6993 6.84842 23.6933 6.79276 23.6979ZM59.213 23.7163C59.1574 23.7112 59.0999 23.7174 59.0432 23.7362L54.3264 25.2694C54.0998 25.3431 53.9768 25.5847 54.0504 25.8113C54.1241 26.0378 54.3658 26.1609 54.5923 26.0873L59.309 24.554C59.5355 24.4803 59.6588 24.2387 59.5851 24.0121C59.5299 23.8422 59.38 23.7305 59.213 23.7163ZM6.10575 26.5067C5.90543 26.5047 5.72578 26.6437 5.68244 26.8476C5.6329 27.0806 5.78072 27.308 6.0137 27.3576L8.05451 27.7913C8.28752 27.8408 8.51494 27.693 8.56447 27.46C8.61401 27.227 8.4662 26.9996 8.23321 26.95L6.19259 26.5163C6.16348 26.5102 6.13435 26.5067 6.10575 26.5067ZM59.8947 26.5108C59.8661 26.511 59.8372 26.5149 59.8081 26.52L57.7672 26.9535C57.5342 27.003 57.3865 27.2303 57.436 27.4633C57.4855 27.6963 57.7129 27.8442 57.946 27.7947L59.9866 27.3612C60.2196 27.3117 60.3675 27.0843 60.318 26.8512C60.2747 26.6473 60.095 26.5091 59.8947 26.5108ZM5.58575 29.3319C5.38635 29.3511 5.22222 29.5075 5.20032 29.7148C5.17529 29.9517 5.3457 30.1626 5.5826 30.1876L10.5149 30.7091C10.7518 30.7341 10.9627 30.5636 10.9878 30.3266C11.0128 30.0897 10.8422 29.8788 10.6053 29.8538L5.67298 29.3323C5.64336 29.3293 5.61425 29.3292 5.58575 29.3319ZM60.4184 29.369C60.3899 29.366 60.3606 29.366 60.3309 29.3694L55.3981 29.8842C55.1611 29.9089 54.9903 30.1195 55.015 30.3565C55.0398 30.5934 55.2504 30.7643 55.4873 30.7395L60.4202 30.2247C60.6571 30.2 60.8279 29.9894 60.8032 29.7524C60.7816 29.5451 60.6178 29.3884 60.4184 29.369ZM5.50224 32.224C5.26402 32.224 5.07227 32.4157 5.07227 32.654C5.07227 32.8922 5.26402 33.0839 5.50224 33.0839H7.58852C7.82673 33.0839 8.01869 32.8922 8.01869 32.654C8.01869 32.4157 7.82673 32.224 7.58852 32.224H5.50224ZM58.411 32.224C58.1728 32.224 57.981 32.4157 57.981 32.654C57.981 32.8922 58.1728 33.0839 58.411 33.0839H60.4972C60.7355 33.0839 60.9272 32.8922 60.9272 32.654C60.9272 32.4157 60.7355 32.224 60.4972 32.224H58.411ZM10.5995 34.568C10.571 34.5649 10.5419 34.5649 10.5123 34.5684L5.57924 35.0832C5.3423 35.1079 5.17151 35.3185 5.19621 35.5555C5.22093 35.7924 5.43157 35.9632 5.6685 35.9385L10.6015 35.4237C10.8385 35.399 11.0093 35.1883 10.9846 34.9514C10.9629 34.7441 10.7989 34.5874 10.5995 34.568ZM55.3974 34.5984C55.198 34.6176 55.0338 34.774 55.0119 34.9813C54.9869 35.2182 55.1573 35.4291 55.3942 35.4542L60.3265 35.9756C60.5634 36.0007 60.7743 35.83 60.7994 35.5932C60.8244 35.3563 60.6538 35.1453 60.4169 35.1203L55.4848 34.5988C55.4552 34.5958 55.4259 34.5957 55.3974 34.5984ZM8.14061 37.5033C8.11201 37.5036 8.08289 37.5064 8.05378 37.5125L6.01297 37.946C5.77995 37.9955 5.63223 38.223 5.68172 38.456C5.73126 38.689 5.95867 38.8367 6.19169 38.7872L8.2325 38.3539C8.46551 38.3044 8.61324 38.077 8.56374 37.8439C8.52043 37.64 8.34093 37.5016 8.14061 37.5033ZM57.8583 37.5074C57.658 37.5054 57.4785 37.6442 57.4352 37.8481C57.3857 38.0811 57.5333 38.3086 57.7663 38.3581L59.8071 38.7918C60.0401 38.8413 60.2675 38.6937 60.317 38.4607C60.3666 38.2277 60.2188 38.0001 59.9858 37.9506L57.9452 37.5169C57.916 37.5107 57.8869 37.5074 57.8583 37.5074ZM11.5771 39.201C11.5215 39.1959 11.464 39.202 11.4073 39.2208L6.69051 40.754C6.46395 40.8277 6.34091 41.0694 6.41455 41.2959C6.48821 41.5225 6.72988 41.6455 6.95644 41.5719L11.6731 40.0386C11.8997 39.965 12.0229 39.7233 11.9492 39.4967C11.894 39.3268 11.7441 39.2151 11.5771 39.201ZM54.4177 39.2162C54.2507 39.2302 54.101 39.3418 54.0456 39.5116C53.9719 39.7382 54.0947 39.9799 54.3212 40.0537L59.0369 41.5903C59.2634 41.6641 59.5052 41.5412 59.579 41.3147C59.6529 41.0882 59.53 40.8465 59.3034 40.7726L54.5877 39.2361C54.5311 39.2176 54.4734 39.2115 54.4177 39.2162ZM9.77722 42.5592C9.72135 42.5602 9.66479 42.5723 9.61039 42.5965L7.70432 43.4451C7.48669 43.542 7.38956 43.7952 7.48645 44.0128C7.58339 44.2305 7.83651 44.3276 8.05413 44.2307L9.96021 43.3822C10.1778 43.2854 10.275 43.0322 10.1781 42.8145C10.1054 42.6513 9.94479 42.5559 9.77722 42.5592ZM56.2154 42.5756C56.0478 42.5715 55.8871 42.6674 55.8144 42.8305C55.7173 43.0481 55.8143 43.3014 56.0319 43.3984L57.9372 44.2483C58.1547 44.3454 58.408 44.2484 58.5051 44.0309C58.6021 43.8133 58.5051 43.56 58.2876 43.463L56.3822 42.613C56.3279 42.5887 56.2713 42.5767 56.2154 42.5756ZM13.4882 43.5073C13.4057 43.5012 13.3205 43.5196 13.2431 43.5643L8.94788 46.0442C8.74158 46.1633 8.67139 46.4253 8.79051 46.6316C8.90962 46.8379 9.17156 46.9081 9.37786 46.7889L13.6731 44.3093C13.8794 44.1901 13.9495 43.928 13.8304 43.7217C13.756 43.5928 13.6258 43.517 13.4882 43.5073ZM52.5114 43.5073C52.3738 43.5165 52.2435 43.5927 52.169 43.7217C52.0499 43.928 52.1201 44.1901 52.3264 44.3092L56.6216 46.7889C56.8279 46.908 57.0901 46.8378 57.2092 46.6315C57.3283 46.4252 57.2581 46.1633 57.0518 46.0442L52.7564 43.5643C52.6791 43.5197 52.594 43.5016 52.5114 43.5073ZM12.4169 47.1465C12.3341 47.1496 12.2513 47.1763 12.179 47.2288L10.4904 48.4539C10.2976 48.5938 10.2549 48.8617 10.3948 49.0545C10.5347 49.2473 10.8025 49.2899 10.9953 49.15L12.6841 47.9248C12.8769 47.7849 12.9196 47.5171 12.7797 47.3243C12.6922 47.2038 12.5547 47.1418 12.4169 47.1465ZM53.5724 47.161C53.4345 47.1559 53.2971 47.218 53.2096 47.3384C53.0696 47.5312 53.112 47.7991 53.3048 47.9392L54.9926 49.1655C55.1854 49.3055 55.4531 49.263 55.5932 49.0703C55.7332 48.8775 55.6908 48.6097 55.4982 48.4697L53.8103 47.2434C53.7381 47.1909 53.6551 47.164 53.5724 47.161ZM16.2413 47.3095C16.1315 47.3034 16.0196 47.3399 15.931 47.4195L12.2425 50.7353C12.0653 50.8945 12.0509 51.1653 12.2102 51.3425C12.3694 51.5196 12.6402 51.534 12.8174 51.3748L16.5059 48.059C16.6831 47.8998 16.6975 47.629 16.5382 47.4518C16.4586 47.3633 16.351 47.3153 16.2413 47.3095ZM49.748 47.3213C49.6382 47.3275 49.5306 47.375 49.4509 47.4635C49.2915 47.6405 49.3058 47.9113 49.4828 48.0707L53.1689 51.389C53.346 51.5484 53.6169 51.5342 53.7763 51.3572C53.9357 51.1801 53.9214 50.9093 53.7444 50.7499L50.0581 47.4316C49.9695 47.3519 49.8578 47.3156 49.748 47.3213ZM19.7406 50.4714C19.6027 50.4662 19.4651 50.5279 19.3776 50.6484L16.4599 54.6591C16.3198 54.8517 16.3619 55.1197 16.5545 55.2598C16.7471 55.4 17.0151 55.3578 17.1552 55.1651L20.0729 51.1544C20.213 50.9618 20.1708 50.6938 19.9783 50.5537C19.9061 50.5012 19.8233 50.4742 19.7406 50.4714ZM46.235 50.4893C46.1523 50.4924 46.0694 50.5189 45.9971 50.5714C45.8043 50.7113 45.7616 50.9791 45.9015 51.1719L48.8137 55.1865C48.9536 55.3793 49.2214 55.422 49.4143 55.2821C49.6071 55.1422 49.6497 54.8744 49.5099 54.6816L46.5976 50.667C46.5102 50.5465 46.3728 50.4846 46.235 50.4893ZM15.9741 51.1088C15.8643 51.1149 15.7566 51.1624 15.6769 51.2509L14.281 52.8013C14.1216 52.9783 14.1357 53.2493 14.3128 53.4087C14.4898 53.5681 14.7606 53.5538 14.92 53.3767L16.3161 51.8264C16.4755 51.6493 16.4612 51.3784 16.2842 51.219C16.1957 51.1393 16.0838 51.103 15.9741 51.1088ZM50.0228 51.1108C49.9131 51.1047 49.8013 51.1414 49.7127 51.2211C49.5357 51.3804 49.5214 51.6512 49.6808 51.8283L51.0765 53.379C51.2359 53.556 51.5067 53.5703 51.6837 53.4108C51.8608 53.2515 51.875 52.9805 51.7156 52.8034L50.3199 51.2529C50.2402 51.1644 50.1326 51.1166 50.0228 51.1108ZM23.8149 52.8308C23.6474 52.8267 23.4869 52.9226 23.4141 53.0858L21.3933 57.6152C21.2963 57.8327 21.3933 58.086 21.6108 58.183C21.8284 58.2801 22.0816 58.1831 22.1787 57.9655L24.1994 53.4361C24.2965 53.2186 24.1995 52.9653 23.9819 52.8683C23.9276 52.8439 23.8708 52.8319 23.8149 52.8308ZM42.1573 52.8432C42.1014 52.8443 42.0447 52.8563 41.9903 52.8805C41.7727 52.9773 41.6753 53.2303 41.772 53.448L43.7865 57.9802C43.8832 58.1978 44.1365 58.2952 44.3542 58.1985C44.5717 58.1017 44.6692 57.8486 44.5724 57.631L42.5579 53.0988C42.4854 52.9356 42.3249 52.84 42.1573 52.8432ZM20.2641 54.2312C20.1265 54.2404 19.9963 54.3166 19.9219 54.4455L18.8787 56.2523C18.7596 56.4586 18.8298 56.7205 19.0361 56.8397C19.2424 56.9588 19.5043 56.8886 19.6234 56.6823L20.6666 54.8755C20.7857 54.6692 20.7155 54.4073 20.5092 54.2881C20.4319 54.2435 20.3466 54.2254 20.2641 54.2312ZM45.7354 54.2312C45.6529 54.225 45.5678 54.2435 45.4905 54.2882C45.2842 54.4073 45.214 54.6692 45.3331 54.8755L46.3762 56.6823C46.4953 56.8886 46.7573 56.9588 46.9636 56.8397C47.1699 56.7206 47.2401 56.4586 47.121 56.2523L46.0778 54.4455C46.0033 54.3166 45.873 54.2408 45.7354 54.2312ZM28.3135 54.2959C28.1132 54.2939 27.9337 54.4328 27.8904 54.6367L26.8597 59.4882C26.8102 59.7212 26.958 59.9487 27.191 59.9982C27.424 60.0477 27.6514 59.8999 27.7009 59.6669L28.7316 54.8154C28.7812 54.5824 28.6334 54.3549 28.4004 54.3054C28.3713 54.2993 28.3421 54.2959 28.3135 54.2959ZM37.6707 54.299C37.6421 54.2992 37.6132 54.3021 37.5841 54.3082C37.3511 54.3575 37.2031 54.5847 37.2525 54.8178L38.2797 59.6701C38.329 59.9032 38.5564 60.0511 38.7894 60.0017C39.0225 59.9524 39.1704 59.725 39.1211 59.492L38.0937 54.64C38.0505 54.4361 37.8711 54.2974 37.6707 54.299ZM32.9997 54.7884C32.7615 54.7884 32.5698 54.9801 32.5698 55.2184V60.1781C32.5698 60.4163 32.7615 60.6081 32.9997 60.6081C33.238 60.6081 33.4297 60.4163 33.4297 60.1781V55.2184C33.4297 54.9801 33.238 54.7884 32.9997 54.7884ZM25.1067 56.391C24.9397 56.4052 24.7899 56.5169 24.7346 56.6868L24.0898 58.671C24.0161 58.8976 24.1392 59.1393 24.3657 59.2129C24.5923 59.2866 24.834 59.1633 24.9076 58.9368L25.5525 56.9528C25.6261 56.7262 25.503 56.4845 25.2765 56.4109C25.2199 56.3925 25.1624 56.3863 25.1067 56.391ZM40.8894 56.392C40.8337 56.3869 40.7763 56.3931 40.7196 56.4118C40.4931 56.4854 40.3699 56.7271 40.4435 56.9537L41.0882 58.9379C41.1618 59.1644 41.4035 59.2874 41.6301 59.2138C41.8566 59.1402 41.9798 58.8987 41.9062 58.6721L41.2613 56.6879C41.2061 56.518 41.0564 56.4062 40.8894 56.392ZM30.3007 57.4972C30.1013 57.5164 29.937 57.6729 29.9152 57.8802L29.6972 59.9551C29.6723 60.1921 29.8429 60.4027 30.0799 60.4276C30.3168 60.4526 30.5276 60.2819 30.5525 60.045L30.7706 57.9702C30.7955 57.7333 30.6248 57.5225 30.3879 57.4975C30.3583 57.4945 30.3292 57.4945 30.3007 57.4972ZM35.6815 57.4992C35.653 57.4961 35.6237 57.4961 35.5941 57.4996C35.3572 57.5243 35.1863 57.7349 35.2111 57.9719L35.4278 60.047C35.4525 60.2839 35.6632 60.4546 35.9001 60.4298C36.137 60.4051 36.3079 60.1945 36.2831 59.9576L36.0666 57.8826C36.0449 57.6753 35.8809 57.5186 35.6815 57.4992Z" fill="#F4F2F3"/>
<g opacity="0.409" filter="url(#filter0_f_2045_2377)">
<path d="M53.1527 15.4536L29.6273 29.1219L14.7529 52.5384L36.513 36.421L53.1527 15.4536Z" fill="black"/>
</g>
<path d="M36.3716 36.1842L29.6284 29.1226L53.5489 13.0312L36.3716 36.1842Z" fill="#FF5150"/>
<path d="M36.3717 36.1842L29.6285 29.1226L12.4512 52.2755L36.3717 36.1842Z" fill="#F1F1F1"/>
<path opacity="0.243" d="M12.4512 52.2756L36.3717 36.1842L53.549 13.0312L12.4512 52.2756Z" fill="black"/>
<defs>
<filter id="filter0_f_2045_2377" x="12.2081" y="12.9088" width="43.4896" height="42.1746" filterUnits="userSpaceOnUse" color-interpolation-filters="sRGB">
<feFlood flood-opacity="0" result="BackgroundImageFix"/>
<feBlend mode="normal" in="SourceGraphic" in2="BackgroundImageFix" result="shape"/>
<feGaussianBlur stdDeviation="1.27242" result="effect1_foregroundBlur_2045_2377"/>
</filter>
<linearGradient id="paint0_linear_2045_2377" x1="32.9988" y1="64.6527" x2="32.9988" y2="0.653152" gradientUnits="userSpaceOnUse">
<stop stop-color="#BDBDBD"/>
<stop offset="1" stop-color="white"/>
</linearGradient>
<radialGradient id="paint1_radial_2045_2377" cx="0" cy="0" r="1" gradientUnits="userSpaceOnUse" gradientTransform="translate(33.1328 28.3528) scale(31.9999 31.9999)">
<stop stop-color="#06C2E7"/>
<stop offset="0.25" stop-color="#0DB8EC"/>
<stop offset="0.5" stop-color="#12AEF1"/>
<stop offset="0.75" stop-color="#1F86F9"/>
<stop offset="1" stop-color="#107DDD"/>
</radialGradient>
</defs>
</svg>
