<svg width="512" height="511" viewBox="0 0 512 511" fill="none" xmlns="http://www.w3.org/2000/svg">
<g filter="url(#filter0_i_8_3)">
<ellipse cx="256" cy="255.008" rx="256" ry="255.008" fill="#FB1807"/>
<g filter="url(#filter1_f_8_3)">
<path d="M34.8939 303.194C10.4223 222.214 52.0249 41.8887 242.907 35.7144C465.603 28.5109 494.97 236.937 477.839 290.924" stroke="#FFE9E9" stroke-width="8"/>
</g>
<path d="M380.538 240.05C384.071 244 386.103 248.038 389.372 249.53C399.796 254.27 410.485 258.659 421.44 261.995C425.062 263.136 429.832 260.678 434.072 259.8C436.634 259.273 439.196 258.659 441.67 258.045C444.232 257.43 446.882 256.64 449.444 256.113C450.857 255.762 452.889 255.06 453.773 255.762C454.656 256.377 455.274 258.922 454.744 259.888C452.977 263.136 450.946 266.471 448.295 269.017C446.529 270.684 443.525 271.738 440.963 271.826C431.157 272.352 423.913 277.531 416.581 283.5C374.442 317.733 332.127 351.703 289.9 385.673C283.451 390.939 276.649 395.855 270.376 401.209C268.698 402.702 267.991 405.423 267.019 407.705C266.136 409.812 265.429 412.006 264.634 414.2C262.779 413.147 260.836 412.094 258.98 410.953C258.097 410.426 257.39 409.636 256.33 408.846C255.535 409.461 254.917 410.075 254.122 410.426C252.355 411.304 250.5 412.006 248.644 412.796C247.938 410.953 247.319 408.934 246.348 407.178C244.934 404.545 243.786 401.297 241.577 399.454C229.121 389.272 216.223 379.528 203.679 369.434C166.134 339.151 128.501 308.955 91.2206 278.321C85.3901 273.581 79.1179 273.142 72.4923 272.177C64.3649 271.036 58.7111 266.91 57.651 260.59C57.386 258.922 58.1811 257.079 58.5344 255.236C60.1246 255.675 61.803 255.938 63.3048 256.552C64.0999 256.816 64.7183 257.869 65.5134 258.045C73.8174 259.537 82.2982 262.521 90.4256 261.819C102.617 260.766 114.101 255.675 124.26 248.565C126.91 246.721 128.677 243.386 131.239 240.314C123.553 238.909 122.14 236.364 125.85 230.746C127.705 227.849 130.974 224.952 134.154 223.899C147.582 219.598 159.243 212.927 170.021 203.798C182.035 193.792 198.113 194.318 211.188 202.657C215.693 205.554 220.994 207.485 226.206 208.977C228.768 209.679 232.036 208.801 234.863 208.011C238.22 207.046 241.135 205.466 242.991 210.381C243.521 211.786 246.878 212.049 249.616 213.103V135.42C247.054 135.068 244.846 134.805 241.931 134.454C246.524 122.341 250.941 110.579 255.358 98.8164C255.8 98.8164 256.33 98.8164 256.772 98.8164C261.189 110.579 265.606 122.341 270.288 134.542C267.108 134.893 264.546 135.156 261.807 135.42V212.137C265.606 212.313 269.405 213.805 270.906 208.45C271.083 207.748 274.352 207.046 275.412 207.573C282.479 211.435 288.84 209.153 295.2 205.993C297.409 204.851 299.441 203.447 301.649 202.218C316.49 193.528 330.183 193.879 343.699 204.676C353.77 212.751 364.106 219.598 376.827 223.109C380.626 224.162 384.336 227.849 386.545 231.272C390.079 236.978 388.753 238.909 380.538 240.05ZM413.931 273.669C411.81 273.054 410.485 272.44 409.249 272.352C389.46 269.895 372.057 261.995 357.039 249.179C355.626 247.95 354.212 245.756 354.3 244.088C354.919 235.661 353.064 231.185 345.378 228.112C333.982 223.46 322.321 219.423 310.13 225.83C308.805 226.532 306.95 226.181 305.536 226.796C303.063 227.761 300.501 228.727 298.292 230.219C295.554 231.975 293.345 234.871 290.341 236.188C284.334 238.821 282.567 237.505 281.861 231.009C281.507 227.586 279.829 225.742 276.384 225.918C271.613 226.181 266.931 226.884 261.719 227.41C261.719 229.605 261.719 231.624 261.719 233.73C261.719 275.776 261.719 317.909 261.807 359.954C261.807 370.575 260.217 381.46 268.433 390.588C316.402 351.966 364.901 313.081 413.931 273.669ZM99.348 273.142C148.289 312.467 196.788 351.44 245.906 390.939C247.496 384.444 249.97 379.265 249.97 374.086C250.411 326.511 250.411 279.023 250.588 231.448C250.588 229.956 250.146 228.376 249.97 226.796C245.641 226.532 241.754 226.269 237.867 226.006C233.273 225.655 230.181 226.796 230.535 232.326C230.8 236.451 228.061 238.119 224.704 236.802C221.082 235.398 217.99 232.501 214.545 230.482C211.983 228.99 209.244 227.674 206.506 226.532C205.092 225.918 203.237 226.181 201.824 225.479C189.279 219.423 177.53 223.46 166.046 228.464C159.155 231.448 157.211 236.276 157.918 243.825C158.006 245.317 157.211 247.336 156.151 248.301C147.671 256.026 138.483 262.697 127.352 265.945C118.43 268.666 109.242 270.685 99.348 273.142Z" fill="white" stroke="url(#paint0_linear_8_3)" stroke-width="0.75" stroke-linecap="round" stroke-linejoin="round"/>
<g filter="url(#filter2_i_8_3)">
<path d="M380.538 240.05C384.071 244 386.103 248.038 389.372 249.53C399.796 254.27 410.485 258.659 421.44 261.995C425.062 263.136 429.832 260.678 434.072 259.8C436.634 259.273 439.196 258.659 441.67 258.045C444.232 257.43 446.882 256.64 449.444 256.113C450.857 255.762 452.889 255.06 453.773 255.762C454.656 256.377 455.274 258.922 454.744 259.888C452.977 263.136 450.946 266.471 448.295 269.017C446.529 270.684 443.525 271.738 440.963 271.826C431.157 272.352 423.913 277.531 416.581 283.5C374.442 317.733 332.127 351.703 289.9 385.673C283.451 390.939 276.649 395.855 270.376 401.209C268.698 402.702 267.991 405.423 267.019 407.705C266.136 409.812 265.429 412.006 264.634 414.201C262.779 413.147 260.836 412.094 258.98 410.953C258.097 410.426 257.39 409.636 256.33 408.846C255.535 409.461 254.917 410.075 254.122 410.426C252.355 411.304 250.5 412.006 248.644 412.796C247.938 410.953 247.319 408.934 246.348 407.178C244.934 404.545 243.786 401.297 241.577 399.454C229.121 389.272 216.223 379.528 203.679 369.434C166.134 339.151 128.501 308.955 91.2206 278.321C85.3901 273.581 79.1179 273.142 72.4923 272.177C64.3649 271.036 58.7111 266.91 57.651 260.59C57.386 258.922 58.1811 257.079 58.5344 255.236C60.1246 255.675 61.803 255.938 63.3048 256.552C64.0999 256.816 64.7183 257.869 65.5134 258.045C73.8174 259.537 82.2982 262.521 90.4256 261.819C102.617 260.766 114.101 255.675 124.26 248.565C126.91 246.721 128.677 243.386 131.239 240.314C123.553 238.909 122.14 236.364 125.85 230.746C127.705 227.849 130.974 224.952 134.154 223.899C147.582 219.598 159.243 212.927 170.021 203.798C182.035 193.792 198.113 194.318 211.188 202.657C215.693 205.554 220.994 207.485 226.206 208.977C228.768 209.679 232.036 208.801 234.863 208.011C238.22 207.046 241.135 205.466 242.991 210.381C243.521 211.786 246.878 212.049 249.616 213.103V135.42C247.054 135.068 244.846 134.805 241.931 134.454C246.524 122.341 250.941 110.579 255.358 98.8164C255.8 98.8164 256.33 98.8164 256.772 98.8164C261.189 110.579 265.606 122.341 270.288 134.542C267.108 134.893 264.546 135.156 261.807 135.42V212.137C265.606 212.313 269.405 213.805 270.906 208.45C271.083 207.748 274.352 207.046 275.412 207.573C282.479 211.435 288.84 209.153 295.2 205.993C297.409 204.851 299.441 203.447 301.649 202.218C316.49 193.528 330.183 193.879 343.699 204.676C353.77 212.751 364.106 219.598 376.827 223.109C380.626 224.162 384.336 227.849 386.545 231.272C390.079 236.978 388.753 238.909 380.538 240.05ZM413.931 273.669C411.81 273.054 410.485 272.44 409.249 272.352C389.46 269.895 372.057 261.995 357.039 249.179C355.626 247.95 354.212 245.756 354.3 244.088C354.919 235.661 353.064 231.185 345.378 228.112C333.982 223.46 322.321 219.423 310.13 225.83C308.805 226.532 306.95 226.181 305.536 226.796C303.063 227.761 300.501 228.727 298.292 230.219C295.554 231.975 293.345 234.871 290.341 236.188C284.334 238.821 282.567 237.505 281.861 231.009C281.507 227.586 279.829 225.742 276.384 225.918C271.613 226.181 266.931 226.884 261.719 227.41C261.719 229.605 261.719 231.624 261.719 233.73C261.719 275.776 261.719 317.909 261.807 359.954C261.807 370.575 260.217 381.46 268.433 390.588C316.402 351.966 364.901 313.081 413.931 273.669ZM99.348 273.142C148.289 312.467 196.788 351.44 245.906 390.939C247.496 384.444 249.97 379.265 249.97 374.086C250.411 326.511 250.411 279.023 250.588 231.448C250.588 229.956 250.146 228.376 249.97 226.796C245.641 226.532 241.754 226.269 237.867 226.006C233.273 225.655 230.181 226.796 230.535 232.326C230.8 236.451 228.061 238.119 224.704 236.802C221.082 235.398 217.99 232.501 214.545 230.482C211.983 228.99 209.244 227.674 206.506 226.532C205.092 225.918 203.237 226.181 201.824 225.479C189.279 219.423 177.53 223.46 166.046 228.464C159.155 231.448 157.211 236.276 157.918 243.825C158.007 245.317 157.211 247.336 156.151 248.301C147.671 256.026 138.483 262.697 127.352 265.945C118.43 268.666 109.242 270.685 99.348 273.142Z" fill="white"/>
</g>
</g>
<defs>
<filter id="filter0_i_8_3" x="-4" y="-20" width="516" height="530.017" filterUnits="userSpaceOnUse" color-interpolation-filters="sRGB">
<feFlood flood-opacity="0" result="BackgroundImageFix"/>
<feBlend mode="normal" in="SourceGraphic" in2="BackgroundImageFix" result="shape"/>
<feColorMatrix in="SourceAlpha" type="matrix" values="0 0 0 0 0 0 0 0 0 0 0 0 0 0 0 0 0 0 127 0" result="hardAlpha"/>
<feOffset dx="-4" dy="-33"/>
<feGaussianBlur stdDeviation="10"/>
<feComposite in2="hardAlpha" operator="arithmetic" k2="-1" k3="1"/>
<feColorMatrix type="matrix" values="0 0 0 0 0.670833 0 0 0 0 0.0467384 0 0 0 0 0 0 0 0 1 0"/>
<feBlend mode="normal" in2="shape" result="effect1_innerShadow_8_3"/>
</filter>
<filter id="filter1_f_8_3" x="4.54919" y="11.5321" width="501.365" height="312.819" filterUnits="userSpaceOnUse" color-interpolation-filters="sRGB">
<feFlood flood-opacity="0" result="BackgroundImageFix"/>
<feBlend mode="normal" in="SourceGraphic" in2="BackgroundImageFix" result="shape"/>
<feGaussianBlur stdDeviation="10" result="effect1_foregroundBlur_8_3"/>
</filter>
<filter id="filter2_i_8_3" x="57.5979" y="98.8164" width="397.343" height="316.384" filterUnits="userSpaceOnUse" color-interpolation-filters="sRGB">
<feFlood flood-opacity="0" result="BackgroundImageFix"/>
<feBlend mode="normal" in="SourceGraphic" in2="BackgroundImageFix" result="shape"/>
<feColorMatrix in="SourceAlpha" type="matrix" values="0 0 0 0 0 0 0 0 0 0 0 0 0 0 0 0 0 0 127 0" result="hardAlpha"/>
<feOffset dy="2"/>
<feGaussianBlur stdDeviation="0.5"/>
<feComposite in2="hardAlpha" operator="arithmetic" k2="-1" k3="1"/>
<feColorMatrix type="matrix" values="0 0 0 0 0 0 0 0 0 0 0 0 0 0 0 0 0 0 0.25 0"/>
<feBlend mode="normal" in2="shape" result="effect1_innerShadow_8_3"/>
</filter>
<linearGradient id="paint0_linear_8_3" x1="256.269" y1="98.8164" x2="256.269" y2="414.201" gradientUnits="userSpaceOnUse">
<stop offset="0.635417" stop-color="white"/>
<stop offset="1" stop-color="white" stop-opacity="0"/>
</linearGradient>
</defs>
</svg>
