<svg width="512" height="511" viewBox="0 0 512 511" fill="none" xmlns="http://www.w3.org/2000/svg">
<g filter="url(#filter0_ii_8_42)">
<ellipse cx="256" cy="255.008" rx="256" ry="255.008" fill="#FB1807"/>
<g filter="url(#filter1_i_8_42)">
<path d="M379.696 240.019C383.202 243.944 385.219 247.957 388.462 249.44C398.807 254.15 409.415 258.512 420.286 261.827C423.88 262.961 428.614 260.518 432.822 259.646C435.364 259.123 437.907 258.512 440.361 257.901C442.904 257.291 445.534 256.506 448.076 255.982C449.479 255.633 451.495 254.935 452.372 255.633C453.249 256.244 453.862 258.774 453.336 259.733C451.583 262.961 449.566 266.276 446.936 268.805C445.183 270.463 442.202 271.51 439.66 271.597C429.929 272.12 422.74 277.267 415.464 283.199C373.647 317.22 331.654 350.979 289.749 384.738C283.349 389.972 276.599 394.857 270.375 400.178C268.709 401.661 268.008 404.365 267.043 406.633C266.167 408.727 265.465 410.907 264.676 413.088C262.835 412.041 260.907 410.995 259.066 409.861C258.189 409.337 257.488 408.552 256.436 407.767C255.647 408.378 255.033 408.988 254.244 409.337C252.491 410.21 250.65 410.907 248.809 411.693C248.107 409.861 247.494 407.854 246.529 406.11C245.126 403.493 243.987 400.265 241.795 398.433C229.434 388.314 216.635 378.631 204.186 368.6C166.927 338.504 129.581 308.496 92.5855 278.052C86.7994 273.341 80.5751 272.905 74 271.946C65.9346 270.812 60.3239 266.712 59.2719 260.431C59.0089 258.774 59.7979 256.942 60.1486 255.11C61.7266 255.546 63.3923 255.808 64.8826 256.418C65.6716 256.68 66.2853 257.727 67.0743 257.901C75.315 259.384 83.7311 262.35 91.7965 261.652C103.895 260.605 115.291 255.546 125.373 248.48C128.003 246.648 129.756 243.333 132.299 240.28C124.672 238.885 123.269 236.355 126.951 230.772C128.792 227.893 132.036 225.015 135.192 223.968C148.517 219.693 160.089 213.064 170.785 203.991C182.707 194.047 198.663 194.57 211.638 202.857C216.109 205.736 221.369 207.655 226.541 209.138C229.083 209.836 232.327 208.964 235.132 208.179C238.464 207.219 241.357 205.649 243.198 210.534C243.724 211.93 247.055 212.191 249.773 213.238V136.037C247.23 135.688 245.039 135.427 242.146 135.078C246.704 123.04 251.088 111.35 255.471 99.6612C255.91 99.6612 256.436 99.6612 256.874 99.6612C261.257 111.35 265.641 123.04 270.287 135.165C267.131 135.514 264.589 135.775 261.871 136.037V212.279C265.641 212.453 269.41 213.936 270.901 208.615C271.076 207.917 274.32 207.219 275.372 207.742C282.385 211.581 288.697 209.313 295.009 206.172C297.201 205.038 299.217 203.643 301.409 202.421C316.137 193.785 329.725 194.134 343.138 204.864C353.133 212.889 363.39 219.693 376.014 223.183C379.783 224.229 383.465 227.893 385.657 231.295C389.164 236.965 387.849 238.885 379.696 240.019ZM412.834 273.429C410.73 272.818 409.415 272.207 408.188 272.12C388.55 269.678 371.28 261.827 356.376 249.091C354.974 247.87 353.571 245.689 353.659 244.031C354.272 235.657 352.431 231.208 344.804 228.155C333.495 223.532 321.923 219.519 309.825 225.887C308.51 226.585 306.669 226.236 305.266 226.846C302.812 227.806 300.269 228.766 298.077 230.249C295.36 231.993 293.168 234.872 290.187 236.18C284.226 238.797 282.473 237.489 281.771 231.034C281.421 227.632 279.755 225.8 276.336 225.974C271.602 226.236 266.956 226.934 261.783 227.457C261.783 229.638 261.783 231.644 261.783 233.738C261.783 275.522 261.783 317.394 261.871 359.178C261.871 369.734 260.293 380.55 268.446 389.623C316.049 351.24 364.179 312.596 412.834 273.429ZM100.651 272.905C149.219 311.986 197.348 350.717 246.091 389.972C247.669 383.516 250.124 378.37 250.124 373.223C250.562 325.943 250.562 278.75 250.737 231.47C250.737 229.987 250.299 228.417 250.124 226.846C245.828 226.585 241.97 226.323 238.113 226.061C233.554 225.712 230.486 226.846 230.837 232.342C231.1 236.442 228.382 238.099 225.051 236.791C221.456 235.395 218.388 232.517 214.969 230.51C212.427 229.027 209.709 227.719 206.991 226.585C205.589 225.974 203.748 226.236 202.345 225.538C189.896 219.519 178.236 223.532 166.84 228.504C160.002 231.47 158.073 236.268 158.774 243.77C158.862 245.253 158.073 247.259 157.021 248.218C148.605 255.895 139.487 262.525 128.441 265.752C119.587 268.456 110.47 270.463 100.651 272.905Z" fill="white"/>
</g>
</g>
<defs>
<filter id="filter0_ii_8_42" x="-6" y="-13" width="527" height="538.017" filterUnits="userSpaceOnUse" color-interpolation-filters="sRGB">
<feFlood flood-opacity="0" result="BackgroundImageFix"/>
<feBlend mode="normal" in="SourceGraphic" in2="BackgroundImageFix" result="shape"/>
<feColorMatrix in="SourceAlpha" type="matrix" values="0 0 0 0 0 0 0 0 0 0 0 0 0 0 0 0 0 0 127 0" result="hardAlpha"/>
<feOffset dx="9" dy="15"/>
<feGaussianBlur stdDeviation="7.5"/>
<feComposite in2="hardAlpha" operator="arithmetic" k2="-1" k3="1"/>
<feColorMatrix type="matrix" values="0 0 0 0 1 0 0 0 0 0.434049 0 0 0 0 0.391667 0 0 0 1 0"/>
<feBlend mode="normal" in2="shape" result="effect1_innerShadow_8_42"/>
<feColorMatrix in="SourceAlpha" type="matrix" values="0 0 0 0 0 0 0 0 0 0 0 0 0 0 0 0 0 0 127 0" result="hardAlpha"/>
<feOffset dx="-6" dy="-14"/>
<feGaussianBlur stdDeviation="6.5"/>
<feComposite in2="hardAlpha" operator="arithmetic" k2="-1" k3="1"/>
<feColorMatrix type="matrix" values="0 0 0 0 0.652995 0 0 0 0 0.0447768 0 0 0 0 0 0 0 0 1 0"/>
<feBlend mode="normal" in2="effect1_innerShadow_8_42" result="effect2_innerShadow_8_42"/>
</filter>
<filter id="filter1_i_8_42" x="57.2192" y="99.6612" width="396.312" height="315.427" filterUnits="userSpaceOnUse" color-interpolation-filters="sRGB">
<feFlood flood-opacity="0" result="BackgroundImageFix"/>
<feBlend mode="normal" in="SourceGraphic" in2="BackgroundImageFix" result="shape"/>
<feColorMatrix in="SourceAlpha" type="matrix" values="0 0 0 0 0 0 0 0 0 0 0 0 0 0 0 0 0 0 127 0" result="hardAlpha"/>
<feOffset dx="-2" dy="2"/>
<feGaussianBlur stdDeviation="1"/>
<feComposite in2="hardAlpha" operator="arithmetic" k2="-1" k3="1"/>
<feColorMatrix type="matrix" values="0 0 0 0 0 0 0 0 0 0 0 0 0 0 0 0 0 0 0.25 0"/>
<feBlend mode="normal" in2="shape" result="effect1_innerShadow_8_42"/>
</filter>
</defs>
</svg>
