<svg width="512" height="512" viewBox="0 0 512 512" fill="none" xmlns="http://www.w3.org/2000/svg">
<g filter="url(#filter0_ii_8_43)">
<rect width="512" height="512" rx="70" fill="#FB1807"/>
</g>
<g filter="url(#filter1_f_8_43)">
<path d="M455.214 486.369C466.59 484.147 472.204 475.004 474.2 470.806C474.292 470.612 474.432 470.02 473.711 470.729C470.33 474.05 466.87 479.178 455.291 485.88C454.725 486.293 454.986 486.414 455.214 486.369Z" fill="url(#paint0_linear_8_43)"/>
</g>
<path d="M97.6273 13.0169C76.2216 13.0169 62.1923 21.6949 57.8533 26.0339C70.581 18.513 89.6725 16.6328 97.6273 16.6328H404.249C421.605 16.6328 433.657 19.5254 437.514 20.9717C429.993 14.0294 412.204 12.7759 404.249 13.0169H97.6273Z" fill="url(#paint1_linear_8_43)"/>
<g opacity="0.7" filter="url(#filter2_f_8_43)">
<path d="M499.706 415.096C499.706 445.758 488.136 455.593 476.565 467.164C493.921 449.808 496.091 426.908 495.367 415.096V101.243C495.367 51.4893 453.424 36.1582 432.452 34.7119C487.413 34.7119 500.188 79.0659 499.706 101.243V415.096Z" fill="url(#paint2_linear_8_43)"/>
</g>
<g filter="url(#filter3_f_8_43)">
<path d="M440.259 26.6352C419.166 20.0391 377.09 21.4438 358.689 22.9707C391.647 24.8029 407.301 28.4674 428.724 31.2158C445.861 33.4145 443.554 29.0782 440.259 26.6352Z" fill="url(#paint3_linear_8_43)"/>
</g>
<g filter="url(#filter4_f_8_43)">
<path d="M484.52 47.0054C478.735 31.096 464.271 25.0695 457.763 23.1411C457.461 23.0519 456.576 22.9838 457.763 23.8644C463.32 27.9885 471.503 31.8192 483.797 47.0054C484.52 47.7286 484.636 47.325 484.52 47.0054Z" fill="url(#paint4_linear_8_43)"/>
</g>
<g filter="url(#filter5_f_8_43)">
<path d="M30.5502 453.29C37.8977 476.741 58.4777 486.429 67.7901 489.652C68.2215 489.801 69.5008 489.958 67.8373 488.603C60.0483 482.258 48.4326 476.166 31.5986 453.337C30.5972 452.241 30.4026 452.819 30.5502 453.29Z" fill="url(#paint5_linear_8_43)"/>
</g>
<g filter="url(#filter6_f_8_43)">
<path d="M389.258 239.137C393.027 243.358 395.194 247.672 398.68 249.267C409.798 254.331 421.198 259.021 432.881 262.585C436.744 263.804 441.832 261.178 446.354 260.24C449.086 259.678 451.819 259.021 454.457 258.365C457.189 257.708 460.016 256.864 462.748 256.301C464.255 255.926 466.422 255.176 467.365 255.926C468.307 256.582 468.966 259.302 468.401 260.334C466.517 263.804 464.35 267.369 461.523 270.089C459.639 271.871 456.435 272.996 453.703 273.09C443.245 273.653 435.519 279.186 427.699 285.564C382.757 322.143 337.627 358.44 292.591 394.738C285.713 400.365 278.458 405.618 271.769 411.339C269.979 412.934 269.225 415.841 268.189 418.28C267.246 420.531 266.493 422.876 265.645 425.22C263.666 424.095 261.593 422.969 259.615 421.75C258.673 421.187 257.919 420.343 256.788 419.499C255.94 420.156 255.281 420.812 254.433 421.187C252.548 422.125 250.57 422.876 248.591 423.72C247.838 421.75 247.178 419.593 246.142 417.717C244.634 414.903 243.409 411.433 241.054 409.463C227.769 398.583 214.013 388.173 200.635 377.386C160.592 345.028 120.455 312.764 80.6955 280.03C74.4772 274.966 67.7877 274.497 60.7214 273.465C52.0534 272.246 46.0234 267.838 44.8928 261.084C44.6102 259.302 45.4581 257.333 45.835 255.363C47.5309 255.832 49.321 256.114 50.9227 256.77C51.7707 257.051 52.4302 258.177 53.2782 258.365C62.1346 259.959 71.1795 263.148 79.8476 262.398C92.8496 261.272 105.098 255.832 115.933 248.235C118.759 246.265 120.644 242.701 123.376 239.419C115.179 237.918 113.672 235.198 117.629 229.195C119.607 226.1 123.093 223.005 126.485 221.879C140.806 217.284 153.243 210.155 164.738 200.401C177.551 189.709 194.699 190.272 208.643 199.182C213.448 202.277 219.101 204.34 224.66 205.935C227.392 206.685 230.878 205.747 233.893 204.903C237.474 203.871 240.583 202.183 242.561 207.436C243.127 208.936 246.707 209.218 249.628 210.343V127.337C246.895 126.962 244.54 126.681 241.431 126.306C246.33 113.362 251.041 100.794 255.752 88.226C256.223 88.226 256.788 88.226 257.259 88.226C261.97 100.794 266.681 113.362 271.675 126.399C268.283 126.774 265.55 127.056 262.63 127.337V209.311C266.681 209.499 270.732 211.093 272.334 205.372C272.523 204.622 276.009 203.871 277.139 204.434C284.677 208.561 291.46 206.122 298.244 202.746C300.599 201.527 302.766 200.026 305.122 198.713C320.95 189.427 335.554 189.803 349.969 201.339C360.71 209.968 371.734 217.284 385.301 221.035C389.352 222.161 393.31 226.1 395.665 229.758C399.434 235.854 398.02 237.918 389.258 239.137ZM424.872 275.059C422.611 274.403 421.198 273.746 419.879 273.653C398.774 271.026 380.213 262.585 364.196 248.892C362.689 247.578 361.181 245.234 361.276 243.452C361.935 234.448 359.957 229.664 351.76 226.381C339.606 221.411 327.169 217.096 314.167 223.943C312.754 224.693 310.775 224.318 309.267 224.975C306.629 226.006 303.897 227.038 301.542 228.632C298.621 230.508 296.265 233.603 293.062 235.01C286.655 237.824 284.771 236.417 284.017 229.477C283.64 225.819 281.85 223.849 278.176 224.037C273.088 224.318 268.094 225.068 262.536 225.631C262.536 227.976 262.536 230.133 262.536 232.384C262.536 277.31 262.536 322.331 262.63 367.257C262.63 378.606 260.934 390.236 269.696 399.99C320.856 358.722 372.582 317.172 424.872 275.059ZM89.3635 274.497C141.56 316.516 193.286 358.159 245.671 400.365C247.366 393.425 250.005 387.891 250.005 382.357C250.476 331.522 250.476 280.781 250.664 229.946C250.664 228.351 250.193 226.663 250.005 224.975C245.388 224.693 241.242 224.412 237.097 224.13C232.197 223.755 228.9 224.975 229.277 230.884C229.559 235.292 226.639 237.074 223.058 235.667C219.195 234.166 215.898 231.071 212.223 228.914C209.491 227.319 206.57 225.913 203.65 224.693C202.142 224.037 200.163 224.318 198.656 223.568C185.277 217.096 172.746 221.411 160.498 226.757C153.149 229.946 151.076 235.104 151.83 243.17C151.924 244.765 151.076 246.922 149.945 247.954C140.901 256.207 131.102 263.336 119.231 266.806C109.715 269.713 99.9159 271.871 89.3635 274.497Z" fill="url(#paint6_linear_8_43)"/>
</g>
<defs>
<filter id="filter0_ii_8_43" x="-10" y="0" width="532" height="512" filterUnits="userSpaceOnUse" color-interpolation-filters="sRGB">
<feFlood flood-opacity="0" result="BackgroundImageFix"/>
<feBlend mode="normal" in="SourceGraphic" in2="BackgroundImageFix" result="shape"/>
<feColorMatrix in="SourceAlpha" type="matrix" values="0 0 0 0 0 0 0 0 0 0 0 0 0 0 0 0 0 0 127 0" result="hardAlpha"/>
<feOffset dx="10"/>
<feGaussianBlur stdDeviation="15"/>
<feComposite in2="hardAlpha" operator="arithmetic" k2="-1" k3="1"/>
<feColorMatrix type="matrix" values="0 0 0 0 0.6875 0 0 0 0 0.0478996 0 0 0 0 0 0 0 0 1 0"/>
<feBlend mode="normal" in2="shape" result="effect1_innerShadow_8_43"/>
<feColorMatrix in="SourceAlpha" type="matrix" values="0 0 0 0 0 0 0 0 0 0 0 0 0 0 0 0 0 0 127 0" result="hardAlpha"/>
<feOffset dx="-10"/>
<feGaussianBlur stdDeviation="15"/>
<feComposite in2="hardAlpha" operator="arithmetic" k2="-1" k3="1"/>
<feColorMatrix type="matrix" values="0 0 0 0 0.686275 0 0 0 0 0.0470588 0 0 0 0 0 0 0 0 1 0"/>
<feBlend mode="normal" in2="effect1_innerShadow_8_43" result="effect2_innerShadow_8_43"/>
</filter>
<filter id="filter1_f_8_43" x="452.951" y="468.39" width="23.3254" height="19.9884" filterUnits="userSpaceOnUse" color-interpolation-filters="sRGB">
<feFlood flood-opacity="0" result="BackgroundImageFix"/>
<feBlend mode="normal" in="SourceGraphic" in2="BackgroundImageFix" result="shape"/>
<feGaussianBlur stdDeviation="1" result="effect1_foregroundBlur_8_43"/>
</filter>
<filter id="filter2_f_8_43" x="430.452" y="32.7119" width="71.2673" height="436.452" filterUnits="userSpaceOnUse" color-interpolation-filters="sRGB">
<feFlood flood-opacity="0" result="BackgroundImageFix"/>
<feBlend mode="normal" in="SourceGraphic" in2="BackgroundImageFix" result="shape"/>
<feGaussianBlur stdDeviation="1" result="effect1_foregroundBlur_8_43"/>
</filter>
<filter id="filter3_f_8_43" x="357.689" y="20.6949" width="85.887" height="12.1243" filterUnits="userSpaceOnUse" color-interpolation-filters="sRGB">
<feFlood flood-opacity="0" result="BackgroundImageFix"/>
<feBlend mode="normal" in="SourceGraphic" in2="BackgroundImageFix" result="shape"/>
<feGaussianBlur stdDeviation="0.5" result="effect1_foregroundBlur_8_43"/>
</filter>
<filter id="filter4_f_8_43" x="456.162" y="22.0914" width="29.3972" height="26.3188" filterUnits="userSpaceOnUse" color-interpolation-filters="sRGB">
<feFlood flood-opacity="0" result="BackgroundImageFix"/>
<feBlend mode="normal" in="SourceGraphic" in2="BackgroundImageFix" result="shape"/>
<feGaussianBlur stdDeviation="0.5" result="effect1_foregroundBlur_8_43"/>
</filter>
<filter id="filter5_f_8_43" x="28.5063" y="450.71" width="42.1609" height="41.0376" filterUnits="userSpaceOnUse" color-interpolation-filters="sRGB">
<feFlood flood-opacity="0" result="BackgroundImageFix"/>
<feBlend mode="normal" in="SourceGraphic" in2="BackgroundImageFix" result="shape"/>
<feGaussianBlur stdDeviation="1" result="effect1_foregroundBlur_8_43"/>
</filter>
<filter id="filter6_f_8_43" x="43.8362" y="87.226" width="425.774" height="338.994" filterUnits="userSpaceOnUse" color-interpolation-filters="sRGB">
<feFlood flood-opacity="0" result="BackgroundImageFix"/>
<feBlend mode="normal" in="SourceGraphic" in2="BackgroundImageFix" result="shape"/>
<feGaussianBlur stdDeviation="0.5" result="effect1_foregroundBlur_8_43"/>
</filter>
<linearGradient id="paint0_linear_8_43" x1="471.223" y1="483.371" x2="461.999" y2="471.897" gradientUnits="userSpaceOnUse">
<stop offset="0.423393" stop-color="white"/>
<stop offset="0.704926" stop-color="white" stop-opacity="0"/>
</linearGradient>
<linearGradient id="paint1_linear_8_43" x1="57.8533" y1="12.9897" x2="438.237" y2="12.9897" gradientUnits="userSpaceOnUse">
<stop stop-color="white" stop-opacity="0"/>
<stop offset="0.128555" stop-color="white"/>
<stop offset="0.9375" stop-color="white"/>
<stop offset="1" stop-color="white" stop-opacity="0"/>
</linearGradient>
<linearGradient id="paint2_linear_8_43" x1="466.086" y1="467.164" x2="466.086" y2="22.4181" gradientUnits="userSpaceOnUse">
<stop stop-color="white" stop-opacity="0"/>
<stop offset="0.197917" stop-color="white"/>
<stop offset="0.857785" stop-color="white"/>
<stop offset="1" stop-color="white" stop-opacity="0"/>
</linearGradient>
<linearGradient id="paint3_linear_8_43" x1="432.019" y1="-0.292106" x2="364.197" y2="43.2775" gradientUnits="userSpaceOnUse">
<stop stop-color="white"/>
<stop offset="0.999492" stop-color="white" stop-opacity="0"/>
</linearGradient>
<linearGradient id="paint4_linear_8_43" x1="476.565" y1="24.5876" x2="462.102" y2="40.4972" gradientUnits="userSpaceOnUse">
<stop offset="0.423393" stop-color="white"/>
<stop offset="0.704926" stop-color="white" stop-opacity="0"/>
</linearGradient>
<linearGradient id="paint5_linear_8_43" x1="40.6175" y1="486.322" x2="62.635" y2="464.197" gradientUnits="userSpaceOnUse">
<stop offset="0.423393" stop-color="white"/>
<stop offset="0.704926" stop-color="white" stop-opacity="0"/>
</linearGradient>
<linearGradient id="paint6_linear_8_43" x1="285.65" y1="250.938" x2="404.249" y2="425.22" gradientUnits="userSpaceOnUse">
<stop offset="0.0928313" stop-color="white"/>
<stop offset="1" stop-color="white" stop-opacity="0"/>
</linearGradient>
</defs>
</svg>
