<svg width="38" height="37" viewBox="0 0 38 37" fill="none" xmlns="http://www.w3.org/2000/svg">
<path d="M17.7422 9.8699C17.5422 9.7199 17.4722 9.5099 17.6222 9.2999C18.0522 8.6899 18.4922 8.0799 18.9322 7.4799C19.0122 7.3599 19.1422 7.3299 19.2622 7.3299C19.6022 7.3399 19.8322 7.6799 19.6522 7.9499C19.2222 8.5899 18.7622 9.2099 18.2922 9.8299C18.1622 9.9999 17.9322 10.0099 17.7422 9.8699Z" fill="#FF5A50"/>
<path d="M19.7926 17.9899C19.9226 18.1799 19.8626 18.3999 19.6726 18.5399C19.4826 18.6799 19.2626 18.6899 19.1126 18.4999C18.6426 17.8799 18.1926 17.2499 17.7326 16.6199C17.6926 16.5699 17.6926 16.4799 17.6826 16.4499C17.6926 16.2399 17.7826 16.1099 17.9326 16.0399C18.1126 15.9599 18.3026 15.9699 18.4326 16.1399C18.9026 16.7499 19.3626 17.3599 19.7926 17.9899Z" fill="#FF5A50"/>
<path d="M22.2123 4.4099C21.7723 5.0299 21.3223 5.6499 20.8723 6.2599C20.8023 6.3599 20.6823 6.4099 20.5823 6.3999C20.2123 6.3999 19.9823 6.0499 20.1823 5.7599C20.6023 5.1299 21.0623 4.5199 21.5223 3.9099C21.6723 3.7099 21.9023 3.6999 22.1023 3.8599C22.2923 3.9999 22.3523 4.2099 22.2123 4.4099Z" fill="#FF5A50"/>
<path d="M36.2124 15.2299C33.3024 10.8399 30.3824 6.4599 27.4624 2.0799C26.3824 0.459897 24.6524 -0.160097 22.7924 0.389903C18.5424 1.6499 14.2924 2.9199 10.0424 4.1799C7.77239 4.8499 6.0724 6.2299 4.9924 8.3399C3.4624 11.3099 1.9524 14.2999 0.462404 17.2899C-0.217596 18.6599 -0.147605 20.0199 0.672395 21.3099C3.4024 25.5799 6.1424 29.8499 8.8924 34.1099C9.9624 35.7599 11.5124 36.5799 13.3224 36.6599C14.0624 36.6499 14.6324 36.5499 15.1924 36.3799C19.5324 35.0299 23.8724 33.6899 28.2024 32.3499C29.3924 31.9799 30.2624 31.2599 30.8524 30.1699C32.7024 26.7599 34.5724 23.3599 36.4224 19.9499C37.2724 18.3499 37.2224 16.7599 36.2124 15.2299ZM2.76239 18.2899C2.21239 18.5699 1.62239 18.7499 1.10239 18.9399C0.842388 18.9399 0.692387 18.8499 0.632387 18.6499C0.552387 18.4399 0.6124 18.2399 0.8024 18.1499C1.3424 17.8999 1.8924 17.6799 2.4624 17.5299C2.6624 17.4799 2.84239 17.5899 2.91239 17.7999C2.97239 18.0099 2.93239 18.1999 2.76239 18.2899ZM6.81241 16.7299C6.08241 17.0399 5.34241 17.3299 4.59241 17.5999C4.39241 17.6699 4.21239 17.5399 4.13239 17.3399C4.05239 17.1499 4.07238 16.9399 4.25238 16.8499C4.99238 16.4699 5.7924 16.2299 6.4924 15.9399C6.7724 15.9399 6.9224 16.0299 6.9924 16.2199C7.0524 16.4299 7.01241 16.6499 6.81241 16.7299ZM10.7724 15.2199C10.1224 15.4699 9.46241 15.7199 8.81241 15.9799C8.54241 16.0799 8.3224 16.0299 8.2124 15.7599C8.0924 15.4799 8.22239 15.2799 8.48239 15.1799C9.15239 14.9099 9.83239 14.6499 10.5124 14.3999C10.8124 14.2899 11.0924 14.4899 11.0924 14.7899C11.0824 14.9999 10.9724 15.1399 10.7724 15.2199ZM24.7624 25.6499C24.5724 25.7399 24.3824 25.7099 24.2724 25.5499C23.8124 24.9399 23.3524 24.3199 22.9224 23.6999C22.7924 23.5099 22.8424 23.2899 23.0324 23.1499C23.2224 23.0099 23.4524 23.0099 23.5924 23.1899C24.0624 23.7999 24.5124 24.4399 24.9724 25.0699C25.0024 25.1099 25.0024 25.1899 25.0124 25.2199C25.0124 25.4299 24.9424 25.5699 24.7624 25.6499ZM27.5424 29.0099C27.4524 29.1599 27.3224 29.2299 27.1524 29.2299C26.9924 29.2299 26.8824 29.1399 26.7924 29.0199C26.3724 28.4499 25.9624 27.8899 25.5524 27.3199C25.3824 27.0899 25.3924 26.8599 25.6324 26.6799C25.8724 26.5099 26.0924 26.5799 26.2624 26.7999C26.6824 27.3599 27.0924 27.9299 27.5024 28.4999C27.6124 28.6599 27.6524 28.8299 27.5424 29.0099ZM28.9624 31.4399C28.7824 31.5199 28.6224 31.4799 28.5024 31.3399C28.3424 31.1599 28.2024 30.9599 28.0724 30.7599C27.9824 30.6099 27.9924 30.4299 28.1124 30.2899C28.2324 30.1499 28.3824 30.0899 28.5624 30.1499C28.7824 30.2199 29.2224 30.8199 29.2224 31.0499C29.2324 31.2399 29.1324 31.3699 28.9624 31.4399ZM35.7524 17.3299C32.9224 18.0999 30.0924 18.8899 27.2724 19.6699C25.6524 20.1199 24.0224 20.5599 22.4024 21.0199C22.1724 21.0899 22.0324 21.0599 21.8924 20.8499C21.6524 20.4799 21.3824 20.1399 21.1224 19.7899C20.9524 19.5599 20.7424 19.4399 20.4724 19.6099C20.2424 19.7599 20.2224 20.0199 20.4224 20.3099C20.6224 20.5999 20.8324 20.8799 21.0524 21.1599C21.1724 21.3199 21.1424 21.3799 20.9624 21.4199C20.5424 21.5299 20.1224 21.6799 19.7024 21.7599C19.3924 21.8199 19.2324 21.9899 19.0924 22.2599C16.9124 26.5099 14.7224 30.7499 12.5324 34.9899C12.2924 35.4599 12.0924 35.5899 11.8124 35.4599C11.5224 35.3199 11.5124 35.0599 11.7624 34.5799C13.9124 30.4199 16.0424 26.2599 18.2024 22.1099C18.4024 21.7199 18.3724 21.4399 18.1324 21.0799C16.6324 18.8899 15.1524 16.6799 13.6524 14.4799C13.5024 14.2599 13.4524 14.1399 13.7724 14.0499C14.2324 13.9099 14.6824 13.7299 15.1324 13.5499C15.3424 13.4699 15.4724 13.4699 15.6024 13.6899C15.8624 14.0899 16.1624 14.4599 16.4324 14.8399C16.6024 15.0799 16.8124 15.1799 17.0824 15.0199C17.3224 14.8799 17.3324 14.6099 17.1324 14.3299C16.8524 13.9299 16.5724 13.5399 16.2724 13.1599C16.1324 12.9799 16.1024 12.8499 16.2624 12.6699C16.5224 12.3499 16.7524 11.9999 16.9924 11.6699C17.1724 11.4299 17.2324 11.1799 16.9724 10.9599C16.7524 10.7699 16.5124 10.8399 16.2724 11.1599C16.1024 11.3899 15.9024 11.6199 15.7624 11.8699C15.4624 12.4099 15.0124 12.7199 14.4224 12.8899C13.9924 13.0199 13.5824 13.1999 13.1624 13.3599C13.0124 13.4199 12.9124 13.4299 12.8024 13.2699C11.2024 10.8999 9.6024 8.51991 7.9924 6.1499C8.8724 5.4599 9.8924 5.1399 10.9324 4.8299C14.9424 3.6499 18.9424 2.4499 22.9524 1.2599C23.1124 1.2099 23.2624 1.1299 23.4924 1.1599C23.2624 1.4799 23.0424 1.7799 22.8324 2.0799C22.6324 2.3599 22.6424 2.6399 22.8724 2.7799C23.1624 2.9499 23.3724 2.8299 23.5524 2.5799C23.8424 2.1599 24.1624 1.7599 24.4424 1.3399C24.5724 1.1499 24.6824 1.1299 24.8924 1.1899C25.7024 1.4299 26.2924 1.9199 26.7624 2.6199C28.4524 5.1699 30.1524 7.7099 31.8424 10.2599C33.0224 12.0399 34.2124 13.8099 35.3924 15.5899C35.6624 15.9999 35.8724 16.4299 36.0124 16.8999C36.1024 17.1799 36.0124 17.2599 35.7524 17.3299Z" fill="#FF5A50"/>
<path d="M17.7422 9.8699C17.5422 9.7199 17.4722 9.5099 17.6222 9.2999C18.0522 8.6899 18.4922 8.0799 18.9322 7.4799C19.0122 7.3599 19.1422 7.3299 19.2622 7.3299C19.6022 7.3399 19.8322 7.6799 19.6522 7.9499C19.2222 8.5899 18.7622 9.2099 18.2922 9.8299C18.1622 9.9999 17.9322 10.0099 17.7422 9.8699Z" fill="#FF5A50"/>
<path d="M19.7926 17.9899C19.9226 18.1799 19.8626 18.3999 19.6726 18.5399C19.4826 18.6799 19.2626 18.6899 19.1126 18.4999C18.6426 17.8799 18.1926 17.2499 17.7326 16.6199C17.6926 16.5699 17.6926 16.4799 17.6826 16.4499C17.6926 16.2399 17.7826 16.1099 17.9326 16.0399C18.1126 15.9599 18.3026 15.9699 18.4326 16.1399C18.9026 16.7499 19.3626 17.3599 19.7926 17.9899Z" fill="#FF5A50"/>
<path d="M22.2123 4.4099C21.7723 5.0299 21.3223 5.6499 20.8723 6.2599C20.8023 6.3599 20.6823 6.4099 20.5823 6.3999C20.2123 6.3999 19.9823 6.0499 20.1823 5.7599C20.6023 5.1299 21.0623 4.5199 21.5223 3.9099C21.6723 3.7099 21.9023 3.6999 22.1023 3.8599C22.2923 3.9999 22.3523 4.2099 22.2123 4.4099Z" fill="#FF5A50"/>
<path d="M19.6522 7.9399C19.2222 8.5799 18.7622 9.1999 18.2922 9.8199C18.1522 9.9999 17.9322 10.0099 17.7422 9.8699C17.5422 9.7199 17.4722 9.5099 17.6222 9.2999C18.0522 8.6899 18.4922 8.0799 18.9322 7.4799C19.0122 7.3599 19.1422 7.3299 19.2622 7.3299C19.6122 7.3299 19.8322 7.6699 19.6522 7.9399Z" fill="#FF5A50"/>
<path d="M22.2123 4.4099C21.7723 5.0299 21.3223 5.6499 20.8723 6.2599C20.8023 6.3599 20.6823 6.4099 20.5823 6.3999C20.2123 6.3999 19.9823 6.0499 20.1823 5.7599C20.6023 5.1299 21.0623 4.5199 21.5223 3.9099C21.6723 3.7099 21.9023 3.6999 22.1023 3.8599C22.2923 3.9999 22.3523 4.2099 22.2123 4.4099Z" fill="#FF5A50"/>
<path d="M19.6726 18.5399C19.4826 18.6799 19.2626 18.6899 19.1126 18.4999C18.6426 17.8799 18.1926 17.2499 17.7326 16.6199C17.6926 16.5699 17.6926 16.4799 17.6826 16.4499C17.6926 16.2399 17.7826 16.1099 17.9326 16.0399C18.1126 15.9599 18.3026 15.9699 18.4326 16.1399C18.8926 16.7499 19.3526 17.3599 19.7826 17.9899C19.9226 18.1799 19.8626 18.3899 19.6726 18.5399Z" fill="#FF5A50"/>
</svg>
