<svg width="82" height="82" viewBox="0 0 82 82" fill="none" xmlns="http://www.w3.org/2000/svg">
<mask id="mask0_44_331" style="mask-type:luminance" maskUnits="userSpaceOnUse" x="0" y="0" width="82" height="82">
<path d="M9.17004 0.349854H73.3401C78.1001 0.349854 81.95 4.20984 81.95 8.95984V73.1299C81.95 77.8899 78.0901 81.7399 73.3401 81.7399H9.17004C4.41004 81.7399 0.560059 77.8799 0.560059 73.1299V8.95984C0.560059 4.19984 4.42004 0.349854 9.17004 0.349854Z" fill="white"/>
</mask>
<g mask="url(#mask0_44_331)">
<path d="M0.560059 0.349854H81.9601V81.7499H0.560059V0.349854Z" fill="url(#paint0_linear_44_331)"/>
<path d="M62.4598 43.9899L62.8498 41.2399C66.4498 43.3999 66.4998 44.2899 66.4998 44.3099C66.4898 44.3199 65.8798 44.8299 62.4598 43.9899ZM60.4798 43.4399C54.2498 41.5599 45.5798 37.5799 42.0698 35.9199C42.0698 35.9099 42.0698 35.8899 42.0698 35.8799C42.0698 34.5299 40.9698 33.4299 39.6198 33.4299C38.2698 33.4299 37.1798 34.5299 37.1798 35.8799C37.1798 37.2299 38.2798 38.3299 39.6198 38.3299C40.2098 38.3299 40.7498 38.1099 41.1698 37.7599C45.2998 39.7099 53.8998 43.6399 60.1798 45.4899L57.6998 62.9999C57.6898 63.0499 57.6898 63.0999 57.6898 63.1399C57.6898 64.6799 50.8698 67.5099 39.7198 67.5099C28.4498 67.5099 21.5598 64.6799 21.5598 63.1399C21.5598 63.0899 21.5598 63.0499 21.5498 62.9999L16.3698 25.1399C20.8598 28.2299 30.4998 29.8599 39.7298 29.8599C48.9398 29.8599 58.5798 28.2298 63.0698 25.1498L60.4798 43.4399ZM15.8198 21.1799C15.8898 19.8399 23.5898 14.5898 39.7298 14.5898C55.8698 14.5898 63.5698 19.8399 63.6398 21.1799V21.6399C62.7498 24.6399 52.7798 27.8199 39.7298 27.8199C26.6498 27.8199 16.6798 24.6299 15.8198 21.6299V21.1799ZM65.6798 21.2098C65.6798 17.6798 55.5698 12.5599 39.7398 12.5599C23.8998 12.5599 13.7998 17.6798 13.7998 21.2098L13.8998 21.9799L19.5398 63.2098C19.6798 67.8198 31.9698 69.5399 39.7398 69.5399C49.3798 69.5399 59.6198 67.3198 59.7498 63.2098L62.1898 46.0199C63.5498 46.3399 64.6598 46.5099 65.5598 46.5099C66.7598 46.5099 67.5798 46.2199 68.0698 45.6299C68.4798 45.1499 68.6298 44.5599 68.5098 43.9399C68.2498 42.5299 66.5698 41.0099 63.1698 39.0699L65.5898 22.0199L65.6798 21.2098Z" fill="white"/>
</g>
<defs>
<linearGradient id="paint0_linear_44_331" x1="-4028.5" y1="4110.81" x2="4111.02" y2="-4028.71" gradientUnits="userSpaceOnUse">
<stop stop-color="#1B660F"/>
<stop offset="1" stop-color="#6CAE3E"/>
</linearGradient>
</defs>
</svg>
