<svg width="91" height="55" viewBox="0 0 91 55" fill="none" xmlns="http://www.w3.org/2000/svg">
<path d="M25.6136 19.74C25.6136 20.86 25.7337 21.76 25.9437 22.43C26.1837 23.09 26.4837 23.82 26.9137 24.61C27.0637 24.85 27.1237 25.09 27.1237 25.31C27.1237 25.61 26.9437 25.91 26.5537 26.22L24.6537 27.49C24.3837 27.67 24.1136 27.76 23.8636 27.76C23.5636 27.76 23.2637 27.61 22.9537 27.34C22.5337 26.89 22.1636 26.4 21.8636 25.92C21.5636 25.41 21.2637 24.83 20.9237 24.14C18.5637 26.92 15.6037 28.31 12.0437 28.31C9.5037 28.31 7.48366 27.58 6.00366 26.13C4.52366 24.68 3.76367 22.75 3.76367 20.33C3.76367 17.76 4.67367 15.68 6.51367 14.1C8.35367 12.53 10.8037 11.74 13.9137 11.74C14.9437 11.74 16.0036 11.83 17.1136 11.98C18.2336 12.13 19.3837 12.37 20.5938 12.64V10.43C20.5938 8.13002 20.1137 6.53003 19.1737 5.59003C18.2037 4.65003 16.5737 4.20001 14.2437 4.20001C13.1837 4.20001 12.0936 4.32003 10.9836 4.59003C9.86364 4.86003 8.77363 5.19003 7.72363 5.62003C7.24363 5.83003 6.8737 5.95001 6.6637 6.01001C6.4537 6.07001 6.30372 6.10001 6.18372 6.10001C5.76372 6.10001 5.55371 5.8 5.55371 5.16V3.68002C5.55371 3.20002 5.61367 2.83003 5.76367 2.62003C5.91367 2.41003 6.18365 2.20002 6.61365 1.99002C7.67365 1.45002 8.94371 0.990005 10.4237 0.630005C11.9037 0.240005 13.4737 0.0600281 15.1337 0.0600281C18.7337 0.0600281 21.3637 0.88001 23.0537 2.51001C24.7137 4.14001 25.5637 6.62 25.5637 9.94V19.73H25.6136V19.74ZM13.3438 24.34C14.3438 24.34 15.3637 24.16 16.4537 23.8C17.5437 23.44 18.5037 22.77 19.3237 21.87C19.8037 21.3 20.1736 20.66 20.3536 19.94C20.5336 19.22 20.6537 18.34 20.6537 17.31V16.04C19.7737 15.83 18.8437 15.65 17.8737 15.53C16.9037 15.41 15.9737 15.35 15.0337 15.35C13.0137 15.35 11.5237 15.74 10.5337 16.56C9.53369 17.38 9.05371 18.52 9.05371 20.04C9.05371 21.46 9.41371 22.52 10.1737 23.24C10.8937 23.97 11.9537 24.34 13.3438 24.34ZM37.6036 27.6C37.0636 27.6 36.6937 27.51 36.4537 27.3C36.2137 27.12 36.0037 26.7 35.8237 26.12L28.7236 2.76001C28.5436 2.16001 28.4537 1.76002 28.4537 1.55002C28.4537 1.07002 28.6937 0.790009 29.1837 0.790009H32.1437C32.7137 0.790009 33.1137 0.880027 33.3237 1.09003C33.5637 1.27003 33.7437 1.69002 33.9237 2.27002L39.0037 22.28L43.7137 2.27002C43.8637 1.67002 44.0437 1.27003 44.2837 1.09003C44.5237 0.910027 44.9437 0.790009 45.4937 0.790009H47.9137C48.4837 0.790009 48.8837 0.880027 49.1237 1.09003C49.3637 1.27003 49.5737 1.69002 49.6937 2.27002L54.4637 22.52L59.6937 2.27002C59.8737 1.67002 60.0837 1.27003 60.2937 1.09003C60.5337 0.910027 60.9236 0.790009 61.4736 0.790009H64.2837C64.7637 0.790009 65.0437 1.03002 65.0437 1.55002C65.0437 1.70002 65.0136 1.85003 64.9836 2.03003C64.9536 2.21003 64.8937 2.45001 64.7737 2.79001L57.4937 26.15C57.3137 26.75 57.1036 27.15 56.8636 27.33C56.6236 27.51 56.2337 27.63 55.7137 27.63H53.1136C52.5436 27.63 52.1437 27.54 51.9037 27.33C51.6637 27.12 51.4537 26.73 51.3337 26.12L46.6537 6.63L42.0037 26.09C41.8537 26.69 41.6737 27.09 41.4337 27.3C41.1937 27.51 40.7736 27.6 40.2236 27.6H37.6036ZM76.4437 28.41C74.8737 28.41 73.3037 28.23 71.7937 27.87C70.2837 27.51 69.1037 27.11 68.3137 26.66C67.8337 26.39 67.4937 26.09 67.3737 25.81C67.2537 25.54 67.1937 25.24 67.1937 24.96V23.42C67.1937 22.79 67.4337 22.48 67.8937 22.48C68.0737 22.48 68.2537 22.51 68.4337 22.57C68.6137 22.63 68.8837 22.75 69.1937 22.87C70.2237 23.32 71.3437 23.69 72.5137 23.93C73.7237 24.17 74.9036 24.29 76.1136 24.29C78.0136 24.29 79.4937 23.96 80.5237 23.29C81.5537 22.62 82.0938 21.66 82.0938 20.42C82.0938 19.57 81.8237 18.88 81.2737 18.3C80.7337 17.73 79.7036 17.21 78.2236 16.73L73.8438 15.37C71.6338 14.67 70.0037 13.65 69.0137 12.29C68.0137 10.96 67.5037 9.48 67.5037 7.91C67.5037 6.64 67.7737 5.52003 68.3237 4.56003C68.8737 3.60003 69.5937 2.75002 70.5037 2.08002C71.4137 1.38002 72.4337 0.87001 73.6437 0.51001C74.8537 0.15001 76.1237 0 77.4537 0C78.1137 0 78.8136 0.0300256 79.4736 0.120026C80.1636 0.210026 80.8037 0.330012 81.4337 0.450012C82.0337 0.600012 82.6137 0.750023 83.1537 0.930023C83.6937 1.11002 84.1237 1.29 84.4237 1.47C84.8437 1.71 85.1537 1.95001 85.3337 2.23001C85.5137 2.47001 85.6036 2.80001 85.6036 3.23001V4.65002C85.6036 5.28002 85.3637 5.62003 84.9137 5.62003C84.6737 5.62003 84.2837 5.50001 83.7637 5.26001C82.0437 4.47001 80.1037 4.08002 77.9637 4.08002C76.2437 4.08002 74.8837 4.35002 73.9437 4.93002C73.0037 5.51002 72.5237 6.38003 72.5237 7.62003C72.5237 8.47003 72.8237 9.19002 73.4337 9.77002C74.0437 10.35 75.1537 10.92 76.7537 11.43L81.0437 12.79C83.2237 13.49 84.7936 14.45 85.7236 15.69C86.6636 16.93 87.1136 18.35 87.1136 19.92C87.1136 21.22 86.8437 22.4 86.3237 23.43C85.7837 24.46 85.0536 25.36 84.1136 26.09C83.1736 26.85 82.0637 27.39 80.7637 27.78C79.4037 28.2 77.9837 28.41 76.4437 28.41Z" fill="#252F3E"/>
<path fill-rule="evenodd" clip-rule="evenodd" d="M82.1537 43.1C72.2137 50.44 57.7638 54.34 45.3438 54.34C27.9338 54.34 12.2537 47.9 0.403738 37.21C-0.536262 36.36 0.313767 35.22 1.43377 35.88C14.2438 43.31 30.0537 47.82 46.4037 47.82C57.4337 47.82 69.5538 45.52 80.7038 40.81C82.3638 40.05 83.7837 41.89 82.1537 43.1Z" fill="#FF9900"/>
<path fill-rule="evenodd" clip-rule="evenodd" d="M86.2937 38.39C85.0237 36.76 77.8937 37.6 74.6637 38C73.6937 38.12 73.5437 37.27 74.4237 36.64C80.1037 32.65 89.4437 33.8 90.5337 35.13C91.6237 36.49 90.2337 45.83 84.9137 50.3C84.0937 51 83.3137 50.63 83.6737 49.73C84.8737 46.73 87.5637 39.99 86.2937 38.39Z" fill="#FF9900"/>
</svg>
