<svg width="82" height="82" viewBox="0 0 82 82" fill="none" xmlns="http://www.w3.org/2000/svg">
<mask id="mask0_44_339" style="mask-type:luminance" maskUnits="userSpaceOnUse" x="0" y="0" width="82" height="82">
<path d="M8.26987 0.0698853H73.3899C77.8899 0.0698853 81.5299 3.7099 81.5299 8.2099V73.3299C81.5299 77.8299 77.8899 81.4699 73.3899 81.4699H8.26987C3.76987 81.4699 0.129883 77.8299 0.129883 73.3299V8.2099C0.129883 3.7199 3.76987 0.0698853 8.26987 0.0698853Z" fill="white"/>
</mask>
<g mask="url(#mask0_44_339)">
<path d="M0.129883 0.0698853H81.5299V81.4699H0.129883V0.0698853Z" fill="url(#paint0_linear_44_339)"/>
<path d="M56.2101 53.1099C56.2101 51.4299 54.8401 50.0599 53.1601 50.0599C51.4801 50.0599 50.1101 51.4299 50.1101 53.1099C50.1101 54.7899 51.4801 56.1599 53.1601 56.1599C54.8401 56.1599 56.2101 54.7899 56.2101 53.1099ZM58.2501 53.1099C58.2501 55.9099 55.9701 58.1999 53.1601 58.1999C50.3601 58.1999 48.0701 55.9199 48.0701 53.1099C48.0701 50.2999 50.3501 48.0199 53.1601 48.0199C55.9601 48.0199 58.2501 50.2999 58.2501 53.1099ZM31.0501 38.4199C31.0501 36.7399 29.6801 35.3699 28.0001 35.3699C26.3201 35.3699 24.9501 36.7399 24.9501 38.4199C24.9501 40.0999 26.3201 41.4699 28.0001 41.4699C29.6801 41.4699 31.0501 40.1099 31.0501 38.4199ZM33.0901 38.4199C33.0901 41.2299 30.8101 43.5099 28.0001 43.5099C25.2001 43.5099 22.9101 41.2299 22.9101 38.4199C22.9101 35.6199 25.1901 33.3299 28.0001 33.3299C30.8001 33.3399 33.0901 35.6199 33.0901 38.4199ZM40.5501 22.4599C40.5501 24.1399 41.9201 25.5099 43.6001 25.5099C45.2801 25.5099 46.6501 24.1399 46.6501 22.4599C46.6501 20.7799 45.2801 19.4099 43.6001 19.4099C41.9201 19.4099 40.5501 20.7799 40.5501 22.4599ZM38.5201 22.4599C38.5201 19.6599 40.8001 17.3699 43.6101 17.3699C46.4101 17.3699 48.7001 19.6499 48.7001 22.4599C48.7001 25.2699 46.4201 27.5499 43.6101 27.5499C40.8001 27.5499 38.5201 25.2699 38.5201 22.4599ZM67.2801 40.7699C67.2801 31.3399 62.2201 22.6099 54.0701 17.8899C52.6101 18.1899 51.1901 18.5899 49.4301 19.2299L48.7401 17.3199C49.5801 17.0199 50.4201 16.7399 51.2801 16.4899C47.9801 15.0699 44.4301 14.3299 40.8301 14.3299C39.1101 14.3299 37.4201 14.5099 35.7701 14.8299C36.9701 15.5299 38.0301 16.2299 39.0601 17.0099L37.8301 18.6299C36.3801 17.5299 34.8701 16.5999 32.8901 15.5599C22.9001 18.6999 15.7001 27.5099 14.5601 37.8599C16.6501 37.4399 18.6701 37.1999 20.9001 37.1499L20.9501 39.1799C18.6101 39.2399 16.6001 39.4899 14.4001 39.9699C14.3901 40.2399 14.3701 40.5099 14.3701 40.7799C14.3701 49.5899 18.7301 57.7099 25.8901 62.5999C24.6201 58.7999 23.9801 55.2199 23.9801 51.7099C23.9801 49.7099 24.3201 48.0699 24.6901 46.3299C24.7701 45.9299 24.8601 45.5199 24.9401 45.0999L26.9401 45.4899C26.8501 45.9199 26.7701 46.3399 26.6801 46.7499C26.3201 48.4499 26.0201 49.9199 26.0201 51.7099C26.0201 55.6899 26.8901 59.7999 28.6701 64.2599C32.4501 66.2199 36.5401 67.2299 40.8201 67.2299C43.6201 67.2299 46.3601 66.7799 48.9701 65.9199C49.9901 63.8999 50.7501 61.9899 51.3901 59.7999L53.3401 60.3699C52.9001 61.8999 52.3501 63.4099 51.7101 64.8699C53.3501 64.1299 54.9101 63.2199 56.3601 62.1499C56.0101 61.2899 55.6301 60.4299 55.2201 59.5999L57.0401 58.6899C57.3901 59.3999 57.7201 60.1199 58.0301 60.8499C63.9301 55.7999 67.2801 48.5599 67.2801 40.7699ZM69.3101 40.7699C69.3101 49.6499 65.2701 57.8599 58.2401 63.3099C56.5001 64.6599 54.6101 65.7899 52.6101 66.6899C51.7601 67.0699 50.9001 67.4299 50.0101 67.7299C47.0801 68.7499 43.9801 69.2599 40.8201 69.2599C36.1401 69.2599 31.4901 68.0899 27.3801 65.8899C18.1001 60.9299 12.3301 51.2999 12.3301 40.7699C12.3301 40.0699 12.3501 39.5399 12.3901 39.0499C13.0801 27.1599 21.2401 16.8699 32.6801 13.4699C35.2901 12.6799 38.0301 12.2799 40.8201 12.2799C45.7101 12.2799 50.5301 13.5399 54.7401 15.9199C63.7301 20.9599 69.3101 30.4799 69.3101 40.7699ZM38.0901 25.9799L36.7501 24.4499C34.4701 26.4399 32.6901 28.5499 30.6201 31.7499L32.3301 32.8599C34.3001 29.8299 35.9701 27.8399 38.0901 25.9799ZM35.0001 39.1699L34.3401 41.0899C39.0101 42.6899 43.0901 45.2499 47.1701 49.1499L48.5701 47.6799C44.2701 43.5799 39.9601 40.8699 35.0001 39.1699ZM48.6101 27.2099C52.4301 33.0299 54.5801 39.4199 55.0001 46.2099L52.9701 46.3399C52.5701 39.9099 50.5301 33.8599 46.9101 28.3299L48.6101 27.2099Z" fill="white"/>
</g>
<defs>
<linearGradient id="paint0_linear_44_339" x1="-4028.93" y1="4110.53" x2="4110.59" y2="-4028.99" gradientUnits="userSpaceOnUse">
<stop stop-color="#4D27A8"/>
<stop offset="1" stop-color="#A166FF"/>
</linearGradient>
</defs>
</svg>
