<svg width="73" height="90" viewBox="0 0 73 90" fill="none" xmlns="http://www.w3.org/2000/svg">
<g clip-path="url(#clip0_303_2)">
<path d="M36 28.5C36 25.9804 37.0009 23.5641 38.7825 21.7825C40.5641 20.0009 42.9804 19 45.5 19C48.0196 19 50.4359 20.0009 52.2175 21.7825C53.9991 23.5641 55 25.9804 55 28.5C55 31.0196 53.9991 33.4359 52.2175 35.2175C50.4359 36.9991 48.0196 38 45.5 38C42.9804 38 40.5641 36.9991 38.7825 35.2175C37.0009 33.4359 36 31.0196 36 28.5Z" fill="#1ABCFE"/>
<path d="M17 47.5C17 44.9804 18.0009 42.5641 19.7825 40.7825C21.5641 39.0009 23.9804 38 26.5 38H36V47.5C36 50.0196 34.9991 52.4359 33.2175 54.2175C31.4359 55.9991 29.0196 57 26.5 57C23.9804 57 21.5641 55.9991 19.7825 54.2175C18.0009 52.4359 17 50.0196 17 47.5V47.5Z" fill="#0ACF83"/>
<path d="M36 0V19H45.5C48.0196 19 50.4359 17.9991 52.2175 16.2175C53.9991 14.4359 55 12.0196 55 9.5C55 6.98044 53.9991 4.56408 52.2175 2.78249C50.4359 1.00089 48.0196 0 45.5 0L36 0Z" fill="#FF7262"/>
<path d="M17 9.5C17 12.0196 18.0009 14.4359 19.7825 16.2175C21.5641 17.9991 23.9804 19 26.5 19H36V0H26.5C23.9804 0 21.5641 1.00089 19.7825 2.78249C18.0009 4.56408 17 6.98044 17 9.5V9.5Z" fill="#F24E1E"/>
<path d="M17 28.5C17 31.0196 18.0009 33.4359 19.7825 35.2175C21.5641 36.9991 23.9804 38 26.5 38H36V19H26.5C23.9804 19 21.5641 20.0009 19.7825 21.7825C18.0009 23.5641 17 25.9804 17 28.5V28.5Z" fill="#A259FF"/>
</g>
<g clip-path="url(#clip1_303_2)">
<path d="M0.52002 64V84.16L3.12002 84.17V74.57H9.37002V72.03H3.11002V66.53H11.26V64H0.52002ZM15.92 68.1C16.3709 68.1 16.8033 67.9209 17.1221 67.6021C17.4409 67.2833 17.62 66.8509 17.62 66.4C17.62 65.9491 17.4409 65.5167 17.1221 65.1979C16.8033 64.8791 16.3709 64.7 15.92 64.7C15.4692 64.7 15.0367 64.8791 14.7179 65.1979C14.3991 65.5167 14.22 65.9491 14.22 66.4C14.22 66.8509 14.3991 67.2833 14.7179 67.6021C15.0367 67.9209 15.4692 68.1 15.92 68.1ZM14.61 70.63V84.17H17.21V70.63H14.61Z" fill="black"/>
<path fill-rule="evenodd" clip-rule="evenodd" d="M26.82 70.24C23.38 70.24 20.98 73.15 20.98 76.61C20.98 80.07 23.38 82.98 26.82 82.98C28.4 82.98 29.7 82.38 30.65 81.38V83.18C30.6566 83.7178 30.5565 84.2516 30.3556 84.7506C30.1546 85.2495 29.8568 85.7036 29.4792 86.0867C29.1017 86.4699 28.652 86.7743 28.1561 86.9826C27.6601 87.1908 27.1279 87.2987 26.59 87.3C25.76 87.3 24.94 86.98 24.29 86.52L22.99 88.77C23.9952 89.4198 25.1572 89.7862 26.3533 89.8306C27.5494 89.875 28.7353 89.5957 29.786 89.0223C30.8366 88.4489 31.713 87.6025 32.3227 86.5724C32.9323 85.5424 33.2527 84.3669 33.25 83.17V70.64H30.65V71.85C29.7 70.85 28.4 70.25 26.82 70.25V70.24ZM23.57 76.61C23.57 74.46 25.21 72.77 27.11 72.77C29.01 72.77 30.64 74.47 30.64 76.61C30.64 78.76 29 80.44 27.11 80.44C25.21 80.44 23.57 78.76 23.57 76.61Z" fill="black"/>
<path d="M42.59 72.77C41.8464 72.7831 41.1378 73.0884 40.6176 73.6199C40.0973 74.1514 39.8072 74.8663 39.81 75.61V84.17H37.21V70.63H39.81V71.87C40.199 71.3544 40.7042 70.9381 41.2847 70.6548C41.8651 70.3716 42.5042 70.2294 43.15 70.24C44.97 70.24 46.37 71.14 47.17 72.52C47.6163 71.8282 48.2271 71.2578 48.9479 70.8599C49.6686 70.462 50.4767 70.249 51.3 70.24C54.25 70.24 56.1 72.62 56.1 75.57V84.17H53.52V75.6C53.5227 74.8563 53.2326 74.1414 52.7123 73.6099C52.1921 73.0784 51.4836 72.7731 50.74 72.76C49.9964 72.7731 49.2878 73.0784 48.7676 73.6099C48.2473 74.1414 47.9572 74.8563 47.96 75.6V84.16H45.36V75.6C45.3628 74.858 45.074 74.1446 44.5559 73.6134C44.0378 73.0822 43.3318 72.7757 42.59 72.76V72.77Z" fill="black"/>
<path fill-rule="evenodd" clip-rule="evenodd" d="M69.93 72.17C69.3396 71.5544 68.6298 71.0657 67.844 70.7338C67.0582 70.402 66.213 70.2339 65.36 70.24C61.5 70.24 58.76 73.5 58.76 77.4C58.76 81.3 61.5 84.56 65.36 84.56C66.2127 84.5643 67.0574 84.3955 67.843 84.0637C68.6285 83.732 69.3385 83.2442 69.93 82.63V84.17H72.52V70.63H69.92V72.17H69.93ZM61.35 77.4C61.35 74.82 63.33 72.77 65.64 72.77C67.94 72.77 69.93 74.82 69.93 77.4C69.93 79.98 67.95 82.02 65.64 82.02C63.34 82.02 61.35 79.98 61.35 77.4Z" fill="black"/>
</g>
<defs>
<clipPath id="clip0_303_2">
<rect width="38" height="57" fill="white" transform="translate(17)"/>
</clipPath>
<clipPath id="clip1_303_2">
<rect width="73" height="26" fill="white" transform="translate(0 64)"/>
</clipPath>
</defs>
</svg>
