<svg id="Layer_1" data-name="Layer 1" xmlns="http://www.w3.org/2000/svg" viewBox="0 0 428.72 159.06"><defs><style>.cls-1,.cls-2{fill:#757575;}.cls-2{fill-rule:evenodd;}.cls-3{fill:#f9ab00;}.cls-4{fill:#e37400;}</style></defs><path class="cls-1" d="M161.38,96.77l9.4,24.68H152.56l8.82-24.68Zm-3.53-8.27-20.57,54.05h7.64l5.29-14.68h22.91l5.29,14.68H186L165.48,88.5h-7.63Zm111,54.1H276V88.54h-7.09v54.05Zm-72.23-31.77a15,15,0,0,1,11.75-6.46c9.4,0,14.1,6.46,14.1,15.86v22.91h-7.09V121.41c0-7.64-4.11-10.58-9.4-10.58-5.88,0-10,5.87-10,11.16v20.57h-7.08V105H196l.59,5.88Zm31.73,20.61c0-8.27,7.63-12.93,16.45-12.93,5.29,0,8.82,1.18,10,2.35v-1.18c0-5.88-4.7-8.82-9.4-8.82-4.12,0-7.64,1.76-8.82,5.29l-6.46-2.94c1.18-3.53,5.87-8.82,15.27-8.82,8.82,0,16.46,5.29,16.46,15.87v22.33h-6.47V137.3h-.59a14.17,14.17,0,0,1-12.34,6.46c-7.63,0-14.1-4.7-14.1-12.34m26.44-4.7s-2.94-2.35-8.82-2.35c-7.08,0-10,4.12-10,7.09,0,4.11,4.11,5.88,7.63,5.88,5.29,0,11.17-4.7,11.17-10.58"/><path class="cls-2" d="M285.94,159.06l8.27-19.39-14.68-34.08h7.08l11.17,25.85,11.16-25.85H316l-22.91,53.47h-7.18Zm103.42-41.14c-1.76-4.7-5.88-7.64-10-7.64-5.87,0-11.16,5.29-11.16,12.93s5.29,12.93,11.16,12.93a11.37,11.37,0,0,0,10-7.09l5.88,3.53c-2.94,6.46-8.82,10.58-15.87,10.58-10,0-18.21-8.82-18.21-20,0-11.75,8.27-20,18.21-20,7.09,0,12.93,4.11,15.87,10.58l-5.88,4.11Z"/><path class="cls-1" d="M414.62,143.77c9.4,0,14.1-5.28,14.1-11.75,0-14.1-20.56-8.82-20.56-17,0-2.93,2.35-4.7,6.46-4.7s8.27,1.77,10,4.7l4.11-4.11c-2.35-2.94-8.81-7.09-14.68-7.09-8.82,0-13.51,5.29-13.51,11.76,0,13.51,21.15,8.81,21.15,15.86,0,3.53-2.35,5.88-7.09,5.88s-7.08-2.94-9.4-5.88L400,135.55c3.53,3.53,8.82,8.27,14.68,8.27Zm-67-1.17h7.09V105h-7.09Z"/><path class="cls-2" d="M350.58,86.82a4.7,4.7,0,0,1,0,9.4,4.7,4.7,0,1,1,0-9.4Zm-10,49.94,1.18,5.29h-7.09c-6.46,0-9.4-4.7-9.4-11.75V112H318.2v-7.08h7.08V93.83h7.09V105h8.27v7.08h-8.27v19.39c0,5.29,4.11,5.29,8.27,5.29Z"/><path class="cls-1" d="M173,28.78V37.6h20.56c-.59,4.7-2.35,8.27-4.7,10.58A21.1,21.1,0,0,1,173,54.64c-12.34,0-22.33-10-22.33-22.91,0-12.34,10-22.91,22.33-22.91a22.7,22.7,0,0,1,15.27,5.88l5.88-5.88C188.87,4.12,182.41,0,173,0c-17,0-31.73,14.1-31.73,31.1S156,62.2,173,62.2c9.4,0,16.45-2.94,21.74-8.82,5.88-5.88,7.64-13.51,7.64-20,0-1.76,0-4.11-.6-5.28H173ZM225.3,21.7c-11.17,0-20,8.26-20,20s8.82,20,20,20a19.8,19.8,0,0,0,20-19.62v-.36C245.28,29.92,236.46,21.7,225.3,21.7Zm0,32.28c-5.88,0-11.17-5.29-11.17-12.34s5.29-12.3,11.17-12.3,11.17,4.72,11.17,12.32S231.18,54,225.3,54Zm96.33-28.17a15.26,15.26,0,0,0-11.17-4.71c-10,0-18.8,8.82-18.8,20s8.82,20,18.8,20c4.71,0,8.82-2.35,10.58-4.7h.59V59.3c0,7.64-4.11,11.75-10.57,11.75-5.29,0-8.82-4.11-10-7.09l-7.64,2.94c2.35,5.29,8.27,11.75,17.63,11.75,10.58,0,19.39-5.88,19.39-21.15V21.07h-8.27v4.7Zm-10,28.2c-5.88,0-10.58-5.29-10.58-12.34s4.7-12.34,10.58-12.34,10.58,5.29,10.58,12.34S317.52,54,311.64,54Zm-42.9-32.28c-11.16,0-20,8.26-20,20s8.82,20,20,20a19.79,19.79,0,0,0,20-19.62v-.35C289.31,30,279.9,21.73,268.74,21.73Zm0,32.28c-5.87,0-11.16-5.29-11.16-12.34s5.29-12.34,11.16-12.34,11.17,4.7,11.17,12.34S274.62,54,268.74,54ZM337,.58h8.82v61.1H337Zm32.91,53.47c-4.7,0-7.64-2.35-10-5.88l27-11.16-1.18-2.35c-1.77-4.71-7.09-12.93-17-12.93-10.58,0-18.8,8.26-18.8,20a19.79,19.79,0,0,0,19.62,20h.36c9.4,0,14.68-5.87,17-8.81l-7.08-4.7c-2.35,3.52-5.29,5.87-10,5.87Zm-.59-24.69c3.52,0,6.46,1.77,7.63,4.7L358.72,41.7C358.72,32.88,364.59,29.36,369.3,29.36Z"/><path class="cls-3" d="M86,19.78V123c0,11.55,8,18,16.42,18,7.82,0,16.42-5.48,16.42-18V20.56c0-10.58-7.82-17.2-16.42-17.2A16.69,16.69,0,0,0,86,19.78Z"/><path class="cls-4" d="M43,72.17V123c0,11.55,8,18,16.42,18,7.82,0,16.42-5.48,16.42-18V73c0-10.59-7.81-17.2-16.42-17.2A16.69,16.69,0,0,0,43,72.17Z"/><circle class="cls-4" cx="16.42" cy="124.56" r="16.42"/></svg>