<?xml version="1.0" encoding="utf-8"?>
<!-- Generator: Adobe Illustrator 24.3.0, SVG Export Plug-In . SVG Version: 6.00 Build 0)  -->
<svg version="1.1" id="Layer_1" xmlns="http://www.w3.org/2000/svg" xmlns:xlink="http://www.w3.org/1999/xlink" x="0px" y="0px"
	 viewBox="0 0 512 512" style="enable-background:new 0 0 512 512;" xml:space="preserve">
<style type="text/css">
	.st0{fill:#2C2A2B;}
	.st1{fill:#DEE8E7;}
</style>
<g>
	<path class="st0" d="M452.81,97.41l-38.21-38.24c-6.27-6.24-14.76-9.75-23.6-9.75H121c-8.87,0-17.36,3.51-23.6,9.75L59.17,97.41
		c-6.24,6.24-9.75,14.73-9.75,23.6v270c0,8.84,3.51,17.33,9.75,23.6l38.24,38.21c6.24,6.27,14.73,9.78,23.6,9.78h270
		c8.84,0,17.33-3.51,23.6-9.78l38.21-38.21c6.27-6.27,9.78-14.76,9.78-23.6V121C462.59,112.13,459.08,103.64,452.81,97.41z
		 M445.41,375.84c0,10.63-4.22,20.85-11.74,28.34l-29.48,29.48c-7.5,7.52-17.71,11.74-28.34,11.74h-239.7
		c-10.63,0-20.82-4.22-28.34-11.74l-29.48-29.48c-7.5-7.5-11.74-17.71-11.74-28.34v-239.7c0-10.63,4.25-20.82,11.74-28.34
		l29.48-29.48c7.52-7.5,17.71-11.74,28.34-11.74h239.7c10.63,0,20.85,4.25,28.34,11.74l29.48,29.48
		c7.52,7.52,11.74,17.71,11.74,28.34V375.84z"/>
	<g>
		<g>
			<path class="st1" d="M433.67,107.8l-29.48-29.48c-7.5-7.5-17.71-11.74-28.34-11.74h-239.7c-10.63,0-20.82,4.25-28.34,11.74
				L78.32,107.8c-7.5,7.52-11.74,17.71-11.74,28.34v239.7c0,10.63,4.25,20.85,11.74,28.34l29.48,29.48
				c7.52,7.52,17.71,11.74,28.34,11.74h239.7c10.63,0,20.85-4.22,28.34-11.74l29.48-29.48c7.52-7.5,11.74-17.71,11.74-28.34v-239.7
				C445.41,125.51,441.19,115.32,433.67,107.8z M433.96,368.61c0,9.98-3.95,19.56-11.04,26.61l-27.7,27.7
				c-7.06,7.09-16.63,11.04-26.61,11.04H143.4c-9.98,0-19.56-3.95-26.64-11.04l-27.7-27.7c-7.06-7.06-11.01-16.63-11.01-26.61V143.4
				c0-9.98,3.95-19.56,11.01-26.64l27.7-27.7c7.09-7.06,16.66-11.01,26.64-11.01h225.21c9.98,0,19.56,3.95,26.61,11.01l27.7,27.7
				c7.09,7.09,11.04,16.66,11.04,26.64V368.61z"/>
		</g>
	</g>
	<g>
		<g>
			<path class="st0" d="M422.92,116.76l-27.7-27.7c-7.06-7.06-16.63-11.01-26.61-11.01H143.4c-9.98,0-19.56,3.95-26.64,11.01
				l-27.7,27.7c-7.06,7.09-11.01,16.66-11.01,26.64v225.21c0,9.98,3.95,19.56,11.01,26.61l27.7,27.7
				c7.09,7.09,16.66,11.04,26.64,11.04h225.21c9.98,0,19.56-3.95,26.61-11.04l27.7-27.7c7.09-7.06,11.04-16.63,11.04-26.61V143.4
				C433.96,133.42,430.01,123.84,422.92,116.76z M416.86,357.78c0,9.02-3.6,17.68-9.98,24.07l-25.03,25.03
				c-6.38,6.38-15.05,9.98-24.07,9.98H154.23c-9.05,0-17.68-3.6-24.1-9.98l-25.03-25.03c-6.38-6.38-9.95-15.05-9.95-24.07V154.23
				c0-9.05,3.57-17.68,9.95-24.07l25.03-25.06c6.41-6.38,15.05-9.95,24.1-9.95h203.54c9.02,0,17.68,3.57,24.07,9.95l25.03,25.06
				c6.38,6.38,9.98,15.02,9.98,24.07V357.78z"/>
		</g>
	</g>
	<g>
		<g>
			<path class="st1" d="M416.86,154.23v203.54c0,9.02-3.6,17.68-9.98,24.07l-25.03,25.03c-6.38,6.38-15.05,9.98-24.07,9.98H154.23
				c-9.05,0-17.68-3.6-24.1-9.98l-25.03-25.03c-6.38-6.38-9.95-15.05-9.95-24.07V154.23c0-9.05,3.57-17.68,9.95-24.07l25.03-25.06
				c6.41-6.38,15.05-9.95,24.1-9.95h203.54c9.02,0,17.68,3.57,24.07,9.95l25.03,25.06C413.26,136.55,416.86,145.19,416.86,154.23z"
				/>
		</g>
	</g>
	<rect x="143.44" class="st0" width="18.54" height="37.69"/>
	<rect x="195.08" class="st0" width="18.54" height="37.69"/>
	<rect x="246.73" class="st0" width="18.54" height="37.69"/>
	<rect x="298.38" class="st0" width="18.54" height="37.69"/>
	<rect x="350.02" class="st0" width="18.54" height="37.69"/>
	<rect x="143.44" y="474.31" class="st0" width="18.54" height="37.69"/>
	<rect x="195.08" y="474.31" class="st0" width="18.54" height="37.69"/>
	<rect x="246.73" y="474.31" class="st0" width="18.54" height="37.69"/>
	<rect x="298.38" y="474.31" class="st0" width="18.54" height="37.69"/>
	<rect x="350.02" y="474.31" class="st0" width="18.54" height="37.69"/>
	
		<rect x="483.88" y="133.86" transform="matrix(-1.836970e-16 1 -1 -1.836970e-16 645.8597 -340.4469)" class="st0" width="18.54" height="37.69"/>
	
		<rect x="483.88" y="185.51" transform="matrix(-1.836970e-16 1 -1 -1.836970e-16 697.5065 -288.8002)" class="st0" width="18.54" height="37.69"/>
	
		<rect x="483.88" y="237.15" transform="matrix(-1.836970e-16 1 -1 -1.836970e-16 749.1532 -237.1535)" class="st0" width="18.54" height="37.69"/>
	
		<rect x="483.88" y="288.8" transform="matrix(-1.836970e-16 1 -1 -1.836970e-16 800.7999 -185.5067)" class="st0" width="18.54" height="37.69"/>
	
		<rect x="483.88" y="340.45" transform="matrix(-1.836970e-16 1 -1 -1.836970e-16 852.4468 -133.8599)" class="st0" width="18.54" height="37.69"/>
	
		<rect x="9.58" y="133.86" transform="matrix(-1.836970e-16 1 -1 -1.836970e-16 171.5531 133.8597)" class="st0" width="18.54" height="37.69"/>
	
		<rect x="9.58" y="185.51" transform="matrix(-1.836970e-16 1 -1 -1.836970e-16 223.1998 185.5065)" class="st0" width="18.54" height="37.69"/>
	
		<rect x="9.58" y="237.15" transform="matrix(-1.836970e-16 1 -1 -1.836970e-16 274.8465 237.1532)" class="st0" width="18.54" height="37.69"/>
	
		<rect x="9.58" y="288.8" transform="matrix(-1.836970e-16 1 -1 -1.836970e-16 326.4933 288.7999)" class="st0" width="18.54" height="37.69"/>
	
		<rect x="9.58" y="340.45" transform="matrix(-1.836970e-16 1 -1 -1.836970e-16 378.1401 340.4468)" class="st0" width="18.54" height="37.69"/>
	<g>
		<path class="st0" d="M206.1,229.83h16.02v23.13c-6.64,4.53-15.78,6.95-23.83,6.95c-17.66,0-30.55-11.8-30.55-28.6
			s12.89-28.6,30.94-28.6c10.78,0,19.46,3.75,25,10.55l-11.8,10.39c-3.44-3.99-7.42-6.02-12.27-6.02c-8.13,0-13.28,5.24-13.28,13.67
			c0,8.2,5.16,13.67,13.05,13.67c2.27,0,4.45-0.39,6.72-1.33V229.83z"/>
		<path class="st0" d="M281.27,224.59c0,12.66-9.69,20.63-24.93,20.63h-7.89v13.44h-18.44v-54.7h26.33
			C271.58,203.96,281.27,211.93,281.27,224.59z M262.67,224.59c0-3.98-2.42-6.41-7.5-6.41h-6.72V231h6.72
			C260.25,231,262.67,228.58,262.67,224.59z"/>
		<path class="st0" d="M286.03,234.05v-30.08h18.44v29.54c0,8.36,3.2,11.49,8.36,11.49s8.36-3.12,8.36-11.49v-29.54h18.13v30.08
			c0,16.41-9.85,25.86-26.65,25.86C295.88,259.91,286.03,250.46,286.03,234.05z"/>
		<path class="st0" d="M166.66,301.64l2.74-5.42c2.68,1.77,6.78,3.02,10.6,3.02c4.5,0,6.38-1.25,6.38-3.36
			c0-5.81-18.81-0.34-18.81-12.48c0-5.76,5.19-9.52,13.4-9.52c4.05,0,8.67,0.97,11.4,2.62l-2.74,5.42
			c-2.91-1.71-5.81-2.28-8.72-2.28c-4.33,0-6.38,1.43-6.38,3.42c0,6.16,18.81,0.68,18.81,12.6c0,5.7-5.24,9.41-13.8,9.41
			C174.47,305.06,169.4,303.58,166.66,301.64z"/>
		<path class="st0" d="M228,291.72h-23.89c0.85,4.45,4.56,7.3,9.86,7.3c3.42,0,6.1-1.08,8.27-3.31l3.82,4.39
			c-2.74,3.25-7.01,4.96-12.26,4.96c-10.2,0-16.82-6.56-16.82-15.62s6.67-15.56,15.73-15.56c8.89,0,15.39,6.21,15.39,15.73
			C228.11,290.18,228.05,291.04,228,291.72z M204.05,286.99h17.27c-0.57-4.39-3.93-7.41-8.61-7.41
			C208.1,279.58,204.74,282.54,204.05,286.99z"/>
		<path class="st0" d="M252.56,273.88v6.78c-0.63-0.11-1.14-0.17-1.65-0.17c-5.42,0-8.84,3.19-8.84,9.41v14.76h-7.13v-30.44h6.78
			v4.45C243.78,275.47,247.49,273.88,252.56,273.88z"/>
		<path class="st0" d="M288.24,274.22l-13.05,30.44h-7.35l-13.05-30.44h7.41l9.46,22.57l9.75-22.57H288.24z"/>
		<path class="st0" d="M320.33,291.72h-23.89c0.85,4.45,4.56,7.3,9.86,7.3c3.42,0,6.1-1.08,8.27-3.31l3.82,4.39
			c-2.74,3.25-7.01,4.96-12.26,4.96c-10.2,0-16.82-6.56-16.82-15.62s6.67-15.56,15.73-15.56c8.89,0,15.39,6.21,15.39,15.73
			C320.45,290.18,320.39,291.04,320.33,291.72z M296.39,286.99h17.27c-0.57-4.39-3.93-7.41-8.61-7.41
			C300.44,279.58,297.08,282.54,296.39,286.99z"/>
		<path class="st0" d="M344.9,273.88v6.78c-0.63-0.11-1.14-0.17-1.65-0.17c-5.42,0-8.84,3.19-8.84,9.41v14.76h-7.13v-30.44h6.78
			v4.45C336.12,275.47,339.83,273.88,344.9,273.88z"/>
	</g>
</g>
</svg>
