<svg width="95" height="94" viewBox="0 0 95 94" fill="none" xmlns="http://www.w3.org/2000/svg">
<g clip-path="url(#clip0_44_1435)">
<path d="M84.1038 17.8839L77.0887 10.8632C75.9376 9.71761 74.3789 9.0732 72.7559 9.0732H23.1856C21.5571 9.0732 19.9984 9.71761 18.8528 10.8632L11.834 17.8839C10.6884 19.0295 10.0439 20.5882 10.0439 22.2167V71.787C10.0439 73.41 10.6884 74.9687 11.834 76.1198L18.8546 83.1349C20.0002 84.286 21.5589 84.9305 23.1874 84.9305H72.7577C74.3807 84.9305 75.9394 84.286 77.0905 83.1349L84.1057 76.1198C85.2568 74.9687 85.9012 73.41 85.9012 71.787V22.2148C85.8994 20.5864 85.255 19.0277 84.1038 17.8839ZM82.7452 69.0019C82.7452 70.9535 81.9705 72.8298 80.5898 74.2049L75.1775 79.6173C73.8006 80.9979 71.9261 81.7726 69.9745 81.7726H25.967C24.0154 81.7726 22.1446 80.9979 20.764 79.6173L15.3516 74.2049C13.9747 72.828 13.1962 70.9535 13.1962 69.0019V24.9944C13.1962 23.0428 13.9765 21.172 15.3516 19.7914L20.764 14.3791C22.1446 13.0021 24.0154 12.2237 25.967 12.2237H69.9745C71.9261 12.2237 73.8024 13.0039 75.1775 14.3791L80.5898 19.7914C81.9705 21.172 82.7452 23.0428 82.7452 24.9944V69.0019Z" fill="#2C2A2B"/>
<path d="M80.5898 19.7914L75.1774 14.3791C73.8005 13.0021 71.926 12.2237 69.9744 12.2237H25.967C24.0154 12.2237 22.1445 13.004 20.7639 14.3791L15.3497 19.7914C13.9728 21.172 13.1943 23.0429 13.1943 24.9945V69.0019C13.1943 70.9535 13.9746 72.8298 15.3497 74.2049L20.7621 79.6173C22.1427 80.9979 24.0135 81.7727 25.9651 81.7727H69.9725C71.9241 81.7727 73.8005 80.9979 75.1756 79.6173L80.5879 74.2049C81.9686 72.828 82.7433 70.9535 82.7433 69.0019V24.9945C82.7452 23.0429 81.9704 21.172 80.5898 19.7914ZM80.643 67.6745C80.643 69.5068 79.9178 71.2656 78.6161 72.5599L73.5306 77.6455C72.2344 78.9472 70.4774 79.6723 68.6451 79.6723H27.298C25.4657 79.6723 23.7069 78.9472 22.4071 77.6455L17.3215 72.5599C16.0254 71.2638 15.3002 69.5068 15.3002 67.6745V26.3273C15.3002 24.4951 16.0254 22.7363 17.3215 21.4364L22.4071 16.3509C23.7087 15.0547 25.4657 14.3295 27.298 14.3295H68.6451C70.4774 14.3295 72.2363 15.0547 73.5306 16.3509L78.6161 21.4364C79.9178 22.7381 80.643 24.4951 80.643 26.3273V67.6745Z" fill="#DEE8E7"/>
<path d="M78.6161 21.4364L73.5306 16.3509C72.2344 15.0547 70.4774 14.3295 68.6452 14.3295H27.298C25.4658 14.3295 23.7069 15.0547 22.4071 16.3509L17.3215 21.4364C16.0254 22.7381 15.3002 24.4951 15.3002 26.3273V67.6745C15.3002 69.5068 16.0254 71.2656 17.3215 72.5599L22.4071 77.6455C23.7088 78.9472 25.4658 79.6723 27.298 79.6723H68.6452C70.4774 79.6723 72.2363 78.9472 73.5306 77.6455L78.6161 72.5599C79.9178 71.2637 80.643 69.5068 80.643 67.6745V26.3273C80.643 24.4951 79.9178 22.7363 78.6161 21.4364ZM77.5036 65.6862C77.5036 67.3422 76.8426 68.9321 75.6713 70.1053L71.0759 74.7006C69.9046 75.872 68.3129 76.5329 66.6568 76.5329H29.2863C27.6248 76.5329 26.0404 75.872 24.8617 74.7006L20.2664 70.1053C19.0951 68.9339 18.4396 67.3422 18.4396 65.6862V28.3157C18.4396 26.6541 19.0951 25.0697 20.2664 23.8966L24.8617 19.2957C26.0386 18.1244 27.6248 17.469 29.2863 17.469H66.655C68.311 17.469 69.9009 18.1244 71.0741 19.2957L75.6695 23.8966C76.8408 25.0679 77.5017 26.6541 77.5017 28.3157V65.6862H77.5036Z" fill="#2C2A2B"/>
<path d="M77.5036 28.3157V65.6843C77.5036 67.3404 76.8427 68.9303 75.6714 70.1034L71.076 74.6988C69.9047 75.8701 68.3129 76.5311 66.6569 76.5311H29.2864C27.6249 76.5311 26.0405 75.8701 24.8618 74.6988L20.2665 70.1034C19.0951 68.9321 18.4397 67.3404 18.4397 65.6843V28.3157C18.4397 26.6541 19.0951 25.0697 20.2665 23.8966L24.8618 19.2957C26.0386 18.1244 27.6249 17.4689 29.2864 17.4689H66.6551C68.3111 17.4689 69.901 18.1244 71.0742 19.2957L75.6695 23.8966C76.8427 25.0697 77.5036 26.656 77.5036 28.3157Z" fill="#DEE8E7"/>
<path d="M30.7092 0H27.3054V6.91965H30.7092V0Z" fill="#2C2A2B"/>
<path d="M40.19 0H36.7861V6.91965H40.19V0Z" fill="#2C2A2B"/>
<path d="M49.6726 0H46.2688V6.91965H49.6726V0Z" fill="#2C2A2B"/>
<path d="M59.1553 0H55.7515V6.91965H59.1553V0Z" fill="#2C2A2B"/>
<path d="M68.636 0H65.2322V6.91965H68.636V0Z" fill="#2C2A2B"/>
<path d="M30.7092 87.0804H27.3054V94H30.7092V87.0804Z" fill="#2C2A2B"/>
<path d="M40.19 87.0804H36.7861V94H40.19V87.0804Z" fill="#2C2A2B"/>
<path d="M49.6726 87.0804H46.2688V94H49.6726V87.0804Z" fill="#2C2A2B"/>
<path d="M59.1553 87.0804H55.7515V94H59.1553V87.0804Z" fill="#2C2A2B"/>
<path d="M68.636 87.0804H65.2322V94H68.636V87.0804Z" fill="#2C2A2B"/>
<path d="M94.9707 29.7372V26.3334H88.0511V29.7372H94.9707Z" fill="#2C2A2B"/>
<path d="M94.9701 39.2193V35.8154H88.0504V39.2193H94.9701Z" fill="#2C2A2B"/>
<path d="M94.9713 48.7013V45.2974H88.0517V48.7013H94.9713Z" fill="#2C2A2B"/>
<path d="M94.9707 58.1833V54.7795H88.0511V58.1833H94.9707Z" fill="#2C2A2B"/>
<path d="M94.9701 67.6653V64.2615H88.0504V67.6653H94.9701Z" fill="#2C2A2B"/>
<path d="M7.89087 29.7385L7.89087 26.3346H0.97122L0.97122 29.7385H7.89087Z" fill="#2C2A2B"/>
<path d="M7.89026 39.2205L7.89026 35.8167H0.97061L0.97061 39.2205H7.89026Z" fill="#2C2A2B"/>
<path d="M7.8916 48.7025L7.8916 45.2987H0.971952L0.971952 48.7025H7.8916Z" fill="#2C2A2B"/>
<path d="M7.89099 58.1845L7.89099 54.7807H0.971342L0.971342 58.1845H7.89099Z" fill="#2C2A2B"/>
<path d="M7.89038 67.6666L7.89038 64.2627H0.970732L0.970732 67.6666H7.89038Z" fill="#2C2A2B"/>
<path d="M38.8094 42.1954H41.7506V46.4419C40.5315 47.2736 38.8534 47.7179 37.3755 47.7179C34.1332 47.7179 31.7667 45.5514 31.7667 42.4671C31.7667 39.3827 34.1332 37.2163 37.4471 37.2163C39.4263 37.2163 41.0198 37.9048 42.037 39.1532L39.8706 41.0607C39.239 40.3282 38.5083 39.9555 37.6179 39.9555C36.1252 39.9555 35.1797 40.9175 35.1797 42.4652C35.1797 43.9707 36.1271 44.975 37.5756 44.975C37.9924 44.975 38.3926 44.9034 38.8094 44.7308V42.1954Z" fill="#2C2A2B"/>
<path d="M52.6101 41.2333C52.6101 43.5576 50.8311 45.0209 48.0331 45.0209H46.5846V47.4884H43.1991V37.4458H48.0331C50.8311 37.4458 52.6101 38.909 52.6101 41.2333ZM49.1953 41.2333C49.1953 40.5026 48.751 40.0565 47.8183 40.0565H46.5846V42.4102H47.8183C48.751 42.4102 49.1953 41.9659 49.1953 41.2333Z" fill="#2C2A2B"/>
<path d="M53.484 42.9701V37.4476H56.8695V42.871C56.8695 44.4058 57.457 44.9805 58.4043 44.9805C59.3517 44.9805 59.9392 44.4077 59.9392 42.871V37.4476H63.2677V42.9701C63.2677 45.9829 61.4593 47.7179 58.3749 47.7179C55.2924 47.7179 53.484 45.9829 53.484 42.9701Z" fill="#2C2A2B"/>
<path d="M31.5685 55.3792L32.0715 54.3841C32.5636 54.7091 33.3163 54.9386 34.0176 54.9386C34.8438 54.9386 35.189 54.7091 35.189 54.3217C35.189 53.255 31.7356 54.2593 31.7356 52.0305C31.7356 50.973 32.6884 50.2827 34.1957 50.2827C34.9393 50.2827 35.7875 50.4607 36.2887 50.7637L35.7856 51.7587C35.2514 51.4448 34.719 51.3402 34.1847 51.3402C33.3897 51.3402 33.0134 51.6027 33.0134 51.968C33.0134 53.099 36.4668 52.0929 36.4668 54.2813C36.4668 55.3278 35.5047 56.0089 33.9332 56.0089C33.0023 56.0071 32.0715 55.7354 31.5685 55.3792Z" fill="#2C2A2B"/>
<path d="M42.8301 53.558H38.444C38.6001 54.375 39.2812 54.8982 40.2543 54.8982C40.8822 54.8982 41.3742 54.6999 41.7726 54.2905L42.4739 55.0965C41.9709 55.6932 41.1869 56.0071 40.2231 56.0071C38.3504 56.0071 37.135 54.8027 37.135 53.1394C37.135 51.476 38.3596 50.2827 40.0229 50.2827C41.6551 50.2827 42.8484 51.4228 42.8484 53.1706C42.8503 53.2752 42.8393 53.4331 42.8301 53.558ZM38.433 52.6896H41.6037C41.499 51.8836 40.8822 51.3291 40.0229 51.3291C39.1766 51.3291 38.5597 51.8726 38.433 52.6896Z" fill="#2C2A2B"/>
<path d="M47.3392 50.2827V51.5274C47.2235 51.5072 47.1299 51.4962 47.0362 51.4962C46.0412 51.4962 45.4133 52.0819 45.4133 53.2238V55.9337H44.1042V50.3451H45.349V51.1621C45.7272 50.5746 46.4083 50.2827 47.3392 50.2827Z" fill="#2C2A2B"/>
<path d="M53.8897 50.3451L51.4938 55.9337H50.1444L47.7485 50.3451H49.109L50.8458 54.4888L52.6358 50.3451H53.8897Z" fill="#2C2A2B"/>
<path d="M59.7814 53.558H55.3953C55.5514 54.375 56.2325 54.8982 57.2056 54.8982C57.8335 54.8982 58.3255 54.6999 58.7239 54.2905L59.4252 55.0965C58.9222 55.6932 58.1382 56.0071 57.1744 56.0071C55.3017 56.0071 54.0863 54.8027 54.0863 53.1394C54.0863 51.476 55.3109 50.2827 56.9742 50.2827C58.6064 50.2827 59.7997 51.4228 59.7997 53.1706C59.8034 53.2752 59.7924 53.4331 59.7814 53.558ZM55.3862 52.6896H58.5568C58.4522 51.8836 57.8353 51.3291 56.9761 51.3291C56.1297 51.3291 55.5128 51.8726 55.3862 52.6896Z" fill="#2C2A2B"/>
<path d="M64.2922 50.2827V51.5274C64.1765 51.5072 64.0829 51.4962 63.9892 51.4962C62.9942 51.4962 62.3663 52.0819 62.3663 53.2238V55.9337H61.0573V50.3451H62.302V51.1621C62.6802 50.5746 63.3614 50.2827 64.2922 50.2827Z" fill="#2C2A2B"/>
</g>
<defs>
<clipPath id="clip0_44_1435">
<rect width="94" height="94" fill="white" transform="translate(0.970703)"/>
</clipPath>
</defs>
</svg>
