<?xml version="1.0" encoding="utf-8"?>
<!-- Generator: Adobe Illustrator 24.3.0, SVG Export Plug-In . SVG Version: 6.00 Build 0)  -->
<svg version="1.1" id="Layer_1" xmlns="http://www.w3.org/2000/svg" xmlns:xlink="http://www.w3.org/1999/xlink" x="0px" y="0px"
	 viewBox="0 0 792 612" style="enable-background:new 0 0 792 612;" xml:space="preserve">
<style type="text/css">
	.st0{fill:#8DC63F;}
</style>
<path id="Reg_1_" d="M753.31,570.99v-3.04h1.95c1.07,0,2.51,0.08,2.51,1.38c0,1.4-0.75,1.65-2,1.65H753.31 M753.31,573.13h1.3
	l3.02,5.31h3.32l-3.35-5.53c1.73-0.13,3.15-0.95,3.15-3.28c0-2.89-2-3.83-5.38-3.83h-4.88v12.63h2.8V573.13 M767.52,572.14
	c0-7.41-5.77-11.72-12.19-11.72c-6.47,0-12.23,4.31-12.23,11.72s5.76,11.73,12.23,11.73C761.76,583.87,767.52,579.55,767.52,572.14
	 M764,572.14c0,5.4-3.97,9.03-8.67,9.03v-0.04c-4.83,0.04-8.72-3.59-8.72-8.99c0-5.4,3.9-9.01,8.72-9.01
	C760.03,563.13,764,566.74,764,572.14z"/>
<path id="NVIDIA_4_" d="M320.36,446.62l0.01,133.1h37.59v-133.1H320.36z M24.64,446.44v133.29h37.93V478.52l29.38,0.01
	c9.73,0,16.66,2.42,21.35,7.42c5.95,6.34,8.37,16.55,8.37,35.24v58.53h36.75v-73.64c0-52.56-33.5-59.65-66.28-59.65H24.64z
	 M380.89,446.63v133.1h60.97c32.49,0,43.09-5.4,54.55-17.52c8.11-8.5,13.34-27.17,13.34-47.57c0-18.71-4.43-35.4-12.17-45.79
	c-13.93-18.59-33.99-22.22-63.94-22.22H380.89z M418.18,475.61h16.16c23.45,0,38.61,10.53,38.61,37.85
	c0,27.33-15.16,37.86-38.61,37.86h-16.16V475.61z M266.16,446.63l-31.37,105.49l-30.06-105.49l-40.58,0l42.93,133.1h54.18
	l43.27-133.1H266.16z M527.25,579.73h37.6v-133.1l-37.61,0L527.25,579.73z M632.63,446.67l-52.49,133.01h37.06l8.31-23.51h62.12
	l7.86,23.51h40.24l-52.89-133.02L632.63,446.67z M657.03,470.94l22.77,62.31h-46.26L657.03,470.94z"/>
<path id="Eye_Mark_1_" class="st0" d="M270.66,134.84v-31.98c3.1-0.22,6.24-0.39,9.43-0.49c87.46-2.75,144.84,75.15,144.84,75.15
	s-61.97,86.07-128.42,86.07c-9.57,0-18.13-1.54-25.85-4.13v-96.97c34.05,4.11,40.89,19.15,61.37,53.27l45.53-38.38
	c0,0-33.23-43.58-89.25-43.58C282.21,133.8,276.38,134.23,270.66,134.84 M270.66,29.21v47.76c3.14-0.25,6.28-0.45,9.43-0.56
	c121.62-4.1,200.86,99.74,200.86,99.74s-91.02,110.67-185.83,110.67c-8.69,0-16.82-0.8-24.47-2.16v29.53
	c6.54,0.83,13.31,1.32,20.37,1.32c88.24,0,152.05-45.06,213.84-98.39c10.24,8.2,52.18,28.16,60.81,36.9
	c-58.76,49.18-195.67,88.82-273.29,88.82c-7.48,0-14.67-0.45-21.73-1.13v41.49h335.37v-354H270.66z M270.66,259.46v25.21
	c-81.61-14.55-104.26-99.38-104.26-99.38s39.18-43.41,104.26-50.45v27.66c-0.05,0-0.08-0.01-0.13-0.01
	c-34.15-4.1-60.83,27.81-60.83,27.81S224.65,244,270.66,259.46 M125.71,181.61c0,0,48.37-71.37,144.95-78.75V76.97
	c-106.97,8.58-199.61,99.18-199.61,99.18s52.46,151.68,199.61,165.56v-27.52C162.69,300.61,125.71,181.61,125.71,181.61z"/>
</svg>
