<?xml version="1.0" encoding="utf-8"?>
<!-- Generator: Adobe Illustrator 27.3.1, SVG Export Plug-In . SVG Version: 6.00 Build 0)  -->
<svg version="1.1" id="Layer_1" xmlns="http://www.w3.org/2000/svg" xmlns:xlink="http://www.w3.org/1999/xlink" x="0px" y="0px"
	 viewBox="0 0 512 382.28" style="enable-background:new 0 0 512 382.28;" xml:space="preserve">
<style type="text/css">
	.st0{fill:#8DC63F;}
</style>
<g>
	<path id="Reg_00000031193681954374796490000009722553672977227157_" d="M502.21,373.41v-2.1h1.34c0.74,0,1.73,0.06,1.73,0.95
		c0,0.96-0.52,1.14-1.38,1.14L502.21,373.41 M502.21,374.88h0.9l2.08,3.66h2.29l-2.31-3.81c1.19-0.09,2.17-0.65,2.17-2.26
		c0-1.99-1.38-2.64-3.71-2.64h-3.36v8.7h1.93v-3.65 M512,374.2c0-5.11-3.98-8.08-8.4-8.08c-4.46,0-8.43,2.97-8.43,8.08
		s3.97,8.08,8.43,8.08C508.03,382.28,512,379.31,512,374.2 M509.57,374.2c0,3.72-2.74,6.22-5.98,6.22v-0.03
		c-3.33,0.03-6.01-2.47-6.01-6.2c0-3.72,2.69-6.21,6.01-6.21C506.84,367.99,509.57,370.48,509.57,374.2z"/>
	<path id="NVIDIA_00000039105956313341618280000005668151203045554868_" d="M203.81,287.69l0.01,91.73h25.91v-91.73L203.81,287.69
		L203.81,287.69z M0,287.57v91.86h26.14v-69.75l20.25,0.01c6.71,0,11.48,1.67,14.71,5.11c4.1,4.37,5.77,11.41,5.77,24.29v40.34H92.2
		v-50.75c0-36.22-23.09-41.11-45.68-41.11L0,287.57L0,287.57z M245.53,287.7v91.73h42.02c22.39,0,29.7-3.72,37.6-12.07
		c5.59-5.86,9.19-18.73,9.19-32.79c0-12.9-3.05-24.4-8.39-31.56c-9.6-12.81-23.43-15.31-44.07-15.31L245.53,287.7L245.53,287.7z
		 M271.23,307.67h11.14c16.16,0,26.61,7.26,26.61,26.09c0,18.84-10.45,26.09-26.61,26.09h-11.14L271.23,307.67L271.23,307.67z
		 M166.46,287.7l-21.62,72.7l-20.72-72.7H96.15l29.59,91.73h37.34l29.82-91.73L166.46,287.7L166.46,287.7z M346.4,379.43h25.91
		V287.7H346.4L346.4,379.43z M419.03,287.72l-36.18,91.67h25.54l5.73-16.2h42.81l5.42,16.2h27.73l-36.45-91.68L419.03,287.72z
		 M435.85,304.45l15.69,42.94h-31.88L435.85,304.45z"/>
	<path id="Eye_Mark_00000050633769912003669100000013887219166391172484_" class="st0" d="M169.56,72.81V50.77
		c2.14-0.15,4.3-0.27,6.5-0.34c60.28-1.9,99.83,51.79,99.83,51.79s-42.71,59.32-88.51,59.32c-6.6,0-12.5-1.06-17.82-2.85V91.86
		c23.47,2.83,28.18,13.2,42.3,36.71l31.38-26.45c0,0-22.9-30.04-61.51-30.04C177.52,72.09,173.5,72.39,169.56,72.81 M169.56,0.01
		v32.92c2.16-0.17,4.33-0.31,6.5-0.39c83.82-2.83,138.43,68.74,138.43,68.74s-62.73,76.27-128.08,76.27
		c-5.99,0-11.59-0.55-16.86-1.49v20.35c4.51,0.57,9.17,0.91,14.04,0.91c60.82,0,104.79-31.06,147.38-67.81
		c7.06,5.65,35.96,19.41,41.91,25.43c-40.5,33.9-134.86,61.22-188.35,61.22c-5.16,0-10.11-0.31-14.98-0.78v28.6h231.14V0
		L169.56,0.01L169.56,0.01z M169.56,158.7v17.37c-56.25-10.03-71.86-68.49-71.86-68.49s27-29.92,71.86-34.77v19.06
		c-0.03,0-0.06-0.01-0.09-0.01c-23.54-2.83-41.92,19.17-41.92,19.17S137.85,148.04,169.56,158.7 M69.66,105.04
		c0,0,33.34-49.19,99.9-54.28V32.92c-73.72,5.91-137.57,68.36-137.57,68.36s36.16,104.54,137.57,114.11v-18.97
		C95.15,187.06,69.66,105.04,69.66,105.04z"/>
</g>
</svg>
