<svg id="Layer_1" data-name="Layer 1" xmlns="http://www.w3.org/2000/svg" viewBox="0 0 398 140.65"><defs><style>.cls-1{fill:#95bf47;}.cls-2{fill:#5e8e3e;}.cls-3{fill:#fff;}</style></defs><path class="cls-1" d="M108.24,27.44A1.39,1.39,0,0,0,107,26.28c-.5-.08-11.36-.83-11.36-.83l-8.29-8.29c-.74-.83-2.39-.58-3-.41-.08,0-1.65.5-4.22,1.33-2.5-7.22-6.93-13.86-14.72-13.86h-.66C62.49,1.33,59.76,0,57.45,0,39.3.08,30.65,22.71,27.92,34.27L15.24,38.16c-3.89,1.24-4,1.33-4.55,5L0,125.65l80.14,15,43.43-9.36c0-.08-15.25-103.06-15.33-103.84Zm-32.58-8c-2,.66-4.35,1.33-6.79,2.07V20.06a32.74,32.74,0,0,0-1.65-11C71.28,9.7,74,14.26,75.66,19.48ZM62.33,10a33.71,33.71,0,0,1,1.81,12.15v.75l-14,4.35C52.87,17,57.93,12,62.32,10.08ZM56.94,5a4.27,4.27,0,0,1,2.32.75c-5.84,2.72-12,9.59-14.67,23.35L33.51,32.48C36.63,22,43.93,5,56.94,5Z"/><path class="cls-2" d="M107,26.28c-.49-.08-11.36-.84-11.36-.84l-8.28-8.28a1.6,1.6,0,0,0-1.16-.49l-6,124,43.43-9.37L108.24,27.51A1.5,1.5,0,0,0,107,26.27Z"/><path class="cls-3" d="M65.39,50.31,60,66.22a24.89,24.89,0,0,0-10.44-2.5c-8.46,0-8.87,5.31-8.87,6.64,0,7.24,19,10,19,27.1,0,13.42-8.54,22-20,22-13.76,0-20.81-8.53-20.81-8.53l3.66-12.19S29.75,105,35.9,105a5.42,5.42,0,0,0,5.63-5.2v-.27C41.53,90,26,89.57,26,74c0-13.1,9.44-25.86,28.43-25.86,7.46.11,11,2.17,11,2.17Z"/><path d="M161.28,74c-3.1-1.67-4.7-3.1-4.7-5.07,0-2.49,2.17-4.1,5.71-4.1a20.13,20.13,0,0,1,7.61,1.66l2.86-8.68s-2.62-2-10.3-2c-10.71,0-18.15,6.14-18.15,14.76,0,4.87,3.46,8.62,8.09,11.3,3.75,2.18,5.07,3.62,5.07,5.89s-1.84,4.17-5.36,4.17a23.88,23.88,0,0,1-10.05-2.68l-3,8.68s4.52,3,12.08,3c11,0,18.92-5.42,18.92-15.2.06-5.3-3.93-9-8.71-11.78Zm43.9-18.27c-5.41,0-9.69,2.56-13,6.51l-.18,0,4.7-24.61H184.48l-11.9,62.66h12.26l4.1-21.42c1.61-8.09,5.79-13.1,9.7-13.1,2.73,0,3.81,1.85,3.81,4.53a28,28,0,0,1-.54,5.41l-4.64,24.52h12.26l4.82-25.33a45.44,45.44,0,0,0,.89-8c-.06-6.9-3.69-11.06-10.05-11.06Zm37.72,0c-14.75,0-24.51,13.33-24.51,28.1,0,9.52,5.89,17.14,16.9,17.14,14.47,0,24.27-13,24.27-28.1,0-8.81-5.17-17.14-16.64-17.14Zm-6,35.88c-4.17,0-5.95-3.56-5.95-8,0-7,3.61-18.5,10.29-18.5,4.35,0,5.79,3.75,5.79,7.38,0,7.54-3.64,19.08-10.13,19.08Zm54-35.88c-8.31,0-13,7.24-13,7.24h-.18l.73-6.52H267.62l-2.49,16.25-8.51,44.86h12.2l3.4-18.15h.23a14.16,14.16,0,0,0,7.21,1.61c14.39,0,23.79-14.76,23.79-29.67.06-8.21-3.61-15.58-12.55-15.58ZM279.19,91.8A7.69,7.69,0,0,1,274.12,90l2-11.49c1.44-7.62,5.41-12.73,9.69-12.73,3.75,0,4.88,3.45,4.88,6.72,0,8-4.67,19.29-11.52,19.29ZM321,38.13a7,7,0,0,0-5,2.06,6.8,6.8,0,0,0-2,5c0,3.62,2.32,6.14,5.79,6.14H320a6.93,6.93,0,0,0,7.2-6.65c0-.14,0-.29,0-.44a5.82,5.82,0,0,0-6.13-6.13Zm-17.12,62h12.25l8.33-43.42h-12.3m43.54-.06h-8.56l.41-2c.73-4.16,3.22-7.91,7.24-7.91a13.42,13.42,0,0,1,3.93.59l2.37-9.59a16.42,16.42,0,0,0-6.67-1.07,18.36,18.36,0,0,0-12,4.11c-4.17,3.56-6.13,8.68-7.12,13.86l-.4,2h-5.71l-1.79,9.22h5.71l-6.51,34.27h12.3l6.51-34.27h8.46l1.66-9.22Zm29.51.06L374.1,86.58h-.18l-3-29.87H358l7.38,39.86a2.81,2.81,0,0,1-.23,2,21.19,21.19,0,0,1-6.67,7.38,27.86,27.86,0,0,1-6.9,3.45l3.39,10.41a28.12,28.12,0,0,0,12-6.68c5.59-5.24,10.76-13.33,16.07-24.34l15-32.13H385.23Z"/></svg>