<?xml version="1.0" encoding="utf-8"?>
<!-- Generator: Adobe Illustrator 24.3.0, SVG Export Plug-In . SVG Version: 6.00 Build 0)  -->
<svg version="1.1" id="Layer_1" xmlns="http://www.w3.org/2000/svg" xmlns:xlink="http://www.w3.org/1999/xlink" x="0px" y="0px"
	 viewBox="0 0 512 123.88" style="enable-background:new 0 0 512 123.88;" xml:space="preserve">
<style type="text/css">
	.st0{fill:#27846D;}
	.st1{fill:#70C09C;}
	.st2{fill:#081D18;}
</style>
<g>
	<g>
		<g>
			<path class="st0" d="M80.25,91.61L49.53,76.25c-4.72-2.35-7.69-7.17-7.68-12.44V31.2l-13.97-7.11v46.68
				c0.01,5.27,2.97,10.1,7.68,12.48l43.56,21.76L80.25,91.61z"/>
			<path class="st0" d="M21.65,90.23c-4.72-2.37-7.7-7.2-7.72-12.48V23.59l-3.84-1.92c-3.56-1.65-7.79-0.1-9.44,3.46
				C0.25,26,0.03,26.94,0,27.9v56.89c0.01,5.28,3,10.11,7.72,12.48l51.91,25.96c3.56,1.65,7.79,0.1,9.44-3.46
				c0.41-0.88,0.63-1.83,0.66-2.79v-2.63L21.65,90.23z"/>
		</g>
		<path class="st1" d="M103.86,26.72L51.91,0.73c-1.93-0.98-4.22-0.98-6.15,0l0,0L31.54,7.84l0,0c1.97-1.03,4.32-1.03,6.29,0
			l51.91,25.99c4.77,2.3,7.82,7.11,7.86,12.41v56.89c0,2.68-1.55,5.12-3.98,6.26l0,0l0,0l14.22-7.11l0,0
			c2.33-1.21,3.76-3.64,3.7-6.26V39.13C111.54,33.87,108.56,29.07,103.86,26.72z"/>
		<path class="st1" d="M75.95,40.66L24.04,14.71c-1.96-1.01-4.29-1.01-6.26,0l0,0L3.56,21.82l0,0c1.98-1.01,4.32-1.01,6.29,0
			l51.91,25.96c4.74,2.35,7.73,7.19,7.72,12.48v56.89c0,2.68-1.55,5.12-3.98,6.26l0,0l0,0l14.22-7.11l0,0
			c2.38-1.14,3.89-3.55,3.88-6.19V53.21C83.64,47.91,80.68,43.05,75.95,40.66z"/>
	</g>
	<g>
		<path class="st2" d="M155.66,54.1h-9.64V43.83h9.64V28.47h11.77V43.9h13.26v10.28h-13.26v28.8c-0.16,1.66,0.3,3.31,1.28,4.66
			c1.22,1.05,2.81,1.55,4.41,1.39h8.75v10.17h-11.2c-4.13,0.38-8.23-0.9-11.41-3.56c-2.64-3.16-3.92-7.24-3.56-11.34L155.66,54.1z"
			/>
		<path class="st2" d="M232.36,49.23c4.12,4.05,6.19,10.54,6.19,19.45v30.44h-11.66v-29.8c0.26-4.29-1-8.53-3.56-11.98
			c-2.46-2.74-6.03-4.2-9.71-3.98c-4.11-0.13-8.05,1.66-10.67,4.84c-2.84,3.7-4.3,8.28-4.12,12.94v27.98h-11.66V23.56h11.66V52
			c3.91-5.71,10.47-9.01,17.39-8.75C222.18,43,227.99,45.15,232.36,49.23z"/>
		<path class="st2" d="M278.61,43.83v10.92h-5.19c-4.01-0.31-7.91,1.46-10.31,4.69c-2.41,3.55-3.65,7.76-3.56,12.05v27.63h-11.48
			V43.83h10.35l1.14,8.43c1.56-2.51,3.74-4.58,6.33-6.01c3.12-1.64,6.62-2.42,10.13-2.24L278.61,43.83z"/>
		<path class="st2" d="M283.73,56.63c2.16-4.14,5.45-7.58,9.49-9.92c4.26-2.4,9.08-3.63,13.97-3.56c4.94-0.12,9.83,0.99,14.22,3.24
			c3.99,2.11,7.31,5.28,9.6,9.17c2.4,4.25,3.62,9.06,3.56,13.94c0,1.48-0.12,2.95-0.36,4.41h-41.71v0.78
			c0.08,4.24,1.69,8.31,4.55,11.45c2.93,2.87,6.93,4.39,11.02,4.2c3.18,0.09,6.32-0.79,9-2.52c2.47-1.67,4.22-4.21,4.91-7.11h11.66
			c-0.98,5.45-3.91,10.35-8.25,13.8c-4.71,3.71-10.58,5.63-16.57,5.4c-5.25,0.11-10.43-1.11-15.08-3.56
			c-4.19-2.25-7.64-5.67-9.92-9.85c-2.43-4.54-3.66-9.64-3.56-14.79C280.16,66.47,281.35,61.29,283.73,56.63z M322.84,65.55
			c-0.3-3.7-2.04-7.13-4.84-9.56c-2.84-2.39-6.46-3.66-10.17-3.56c-3.62-0.06-7.14,1.2-9.88,3.56c-2.78,2.39-4.5,5.77-4.8,9.42
			L322.84,65.55z"/>
		<path class="st2" d="M344.18,56.63c2.16-4.14,5.45-7.58,9.49-9.92c4.27-2.41,9.11-3.64,14.01-3.56c4.94-0.13,9.83,0.99,14.22,3.24
			c3.99,2.11,7.31,5.28,9.6,9.17c2.4,4.25,3.62,9.06,3.56,13.94c0,1.48-0.11,2.95-0.32,4.41H353v0.78
			c0.05,4.24,1.66,8.32,4.52,11.45c2.93,2.87,6.93,4.39,11.02,4.2c3.19,0.09,6.32-0.79,9-2.52c2.47-1.68,4.23-4.21,4.94-7.11h11.63
			c-0.97,5.45-3.9,10.36-8.25,13.8c-4.71,3.71-10.58,5.63-16.57,5.4c-5.23,0.12-10.41-1.11-15.04-3.56
			c-4.21-2.24-7.67-5.66-9.96-9.85c-2.43-4.54-3.66-9.64-3.56-14.79C340.61,66.47,341.79,61.29,344.18,56.63z M383.29,65.55
			c-0.29-3.69-2.02-7.12-4.8-9.56c-2.86-2.38-6.48-3.65-10.2-3.56c-3.62-0.06-7.14,1.2-9.88,3.56c-2.78,2.39-4.5,5.77-4.8,9.42
			L383.29,65.55z"/>
		<path class="st2" d="M414.93,23.56v47.25l25.28-26.99h13.48L433.1,66.08l22.01,33.03h-13.83l-16.5-24.43l-9.85,10.35v14.22h-11.63
			v-75.7H414.93z"/>
		<path class="st2" d="M471.08,23.77c1.37,1.27,2.13,3.07,2.06,4.94c0.06,1.89-0.69,3.71-2.06,5.01c-2.84,2.7-7.29,2.7-10.13,0
			c-1.37-1.3-2.12-3.12-2.06-5.01c-0.06-1.87,0.69-3.67,2.06-4.94C463.82,21.16,468.2,21.16,471.08,23.77z M471.86,43.83v55.29
			H460.2V43.83H471.86z"/>
		<path class="st2" d="M485.76,54.1h-9.6V43.83h9.6V28.47h11.77V43.9h13.3v10.28h-13.3v28.8c-0.16,1.66,0.31,3.33,1.32,4.66
			c1.21,1.05,2.81,1.56,4.41,1.39H512v10.17h-11.24c-4.11,0.38-8.21-0.9-11.38-3.56c-2.64-3.16-3.92-7.24-3.56-11.34L485.76,54.1z"
			/>
	</g>
</g>
</svg>
