<?xml version="1.0" encoding="utf-8"?>
<!-- Generator: Adobe Illustrator 24.3.0, SVG Export Plug-In . SVG Version: 6.00 Build 0)  -->
<svg version="1.1" id="Layer_1" xmlns="http://www.w3.org/2000/svg" xmlns:xlink="http://www.w3.org/1999/xlink" x="0px" y="0px"
	 viewBox="0 0 522 98.56" style="enable-background:new 0 0 522 98.56;" xml:space="preserve">
<style type="text/css">
	.st0{fill-rule:evenodd;clip-rule:evenodd;fill:#004A8F;}
	.st1{fill-rule:evenodd;clip-rule:evenodd;fill:#EE303C;}
</style>
<g>
	<path class="st0" d="M0,40.67h17.5l3.31-7.9h8.86L17.69,81.46H7.21L3.25,97.18h50.29l4.51-15.72h-12.8l11.93-48.89l6.79-0.02
		l0.1,8.21l18.57-0.07l5.66-26.46L5.48,14.18L0,40.67L0,40.67z M94.43,14.22l-4.23,18.3l6.42,0.05l4.92,64.87l32.76-0.27
		l51.83-82.95h-39.38l-4.91,18.06l6.96,0.28l-22.82,38.5l-0.19-38.5h7.77l4.12-18.33L94.43,14.22L94.43,14.22z M243.56,39.99
		l-15.46,0.01l0.27-6.67c0,0-12.49-3.88-15.57,2.5c-3,6.4,7.79,10.27,11.11,11.92c16.94,8.05,17.08,18.14,15.02,25.56
		c-12.48,37.87-71.6,21.91-71.6,21.91l6.33-24.17h16.99l-0.31,7.52c4.16,2.5,18.03,0.26,18.6-5.26c0.56-5.57-3.91-6.39-18.03-14.45
		c-14.21-8.03-9.18-24.35-6.68-28.04c18.68-27.99,65.48-15.23,65.48-15.23L243.56,39.99L243.56,39.99z"/>
	<path class="st1" d="M477.38,11.72l0.61,11.99l17.37,19.2c0,0,0.25,2.42-2.44,2.42c-2.65,0-1.16,2.08-1.16,2.08l-13.23-0.9
		l0.89-2.39c0,0-9.88-11.71-17.4-3.02c-6.03,7.77,8.39,15.94,18.29,23.12c9.95,7.19,35.41,22.78,41.68,30.6l-18.56,0.3
		c0,0,13.54-12.28-42.01-19.8c-10.84-1.19-16.84,0.93-17.7,5.7l-6.59-3.92c0,0-24.32,8.41-53.43-4.77
		c-1.51,2.39-24.28,10.51-45.92,5.41c0,1.16-14.09,13.17-30.82,17.09c-8.51,5.07-28.57,5.7-37.27-2.7l17.12-3
		c0,0,1.56,4.21,3.57,4.82c10.84,3,37.32-27.31,39.94-27.31c2.72,0,6.57-1.5,11.06-8.12c4.51-6.62,15.67-27.29,31.83-21.88
		c0,0,7.61,3.51,20.1,7.77c11.4,3.93,23.38,2.12,43.48-16.51c5.73-4.79,19.19-17.06,34.24-10.79
		C472.23,16.54,477.38,11.72,477.38,11.72L477.38,11.72z M429.04,12.61c-12.34,5.41-16.83,13.23-16.83,13.23
		c3.92-2.12,6.61-1.23,6.61-1.23c-1.22,3.01-7.48,9.29-18.92,12.33c-5.16,1.34-5.39,1.79-3.56,2.07
		c13.81,4.23,28.17-7.78,34.19-12.28c25.84-21.34,40.17-12.91,40.17-12.91s4.52-3.62,4.83-4.81c-9.04-13.49-30.63-8.39-35.7-6.31
		c-5.1,2.13-15.32,7.82-15.32,7.82L429.04,12.61L429.04,12.61z M361.39,33.88c1.36,0,1.64-1.94,0.56-2.24
		c-6.97-1.97-10.6-0.82-14.76,0c-12.69,2.78-12.69,4.17-28.31-5.02c-15.5-9.11-25.52,4.47-25.52,4.47
		c13.03-4.17,19.2,3.06,19.2,3.06c-2.29-0.81-5.32,0.82-5.32,0.82s4.15,1.39,11.64,6.93c7.5,5.58,15.01,4.74,20.23,1.95
		C351.92,33.88,361.39,33.88,361.39,33.88L361.39,33.88z"/>
</g>
</svg>
