<?xml version="1.0" encoding="utf-8"?>
<!-- Generator: Adobe Illustrator 24.3.0, SVG Export Plug-In . SVG Version: 6.00 Build 0)  -->
<svg version="1.1" id="Layer_1" xmlns="http://www.w3.org/2000/svg" xmlns:xlink="http://www.w3.org/1999/xlink" x="0px" y="0px"
	 viewBox="0 0 465.23 148.02" style="enable-background:new 0 0 465.23 148.02;" xml:space="preserve">
<style type="text/css">
	.st0{fill:#A4A7A9;}
	.st1{fill:#005DA6;}
</style>
<g>
	<path class="st0" d="M260.43,75.24c-1.06-1.06-2.33-1.48-3.81-1.48h-34.91c-3.6,0-1.06-2.75-1.06-2.75l46.12-49.3
		c0,0,2.11-2.12,2.11-3.81V3.09c0-0.85-0.21-1.48-0.85-2.12c-0.63-0.63-1.27-0.63-2.12-0.63h-82.09c-2.75,0-3.6,2.12-2.54,3.81
		c1.27,2.12,9.31,15.44,9.31,15.44s0.85,1.69,4.02,1.69h35.54c2.33,0,0,2.75,0,2.75l-40.83,44.01c0,0-37.45-63.89-38.93-66.22
		c-1.69-2.54-12.06-2.33-13.33,0c-0.21,0.42-1.48,2.54-3.39,5.5c-7.19,12.27-24.12,41.04-29.83,50.56
		c-0.42,1.27-1.27,3.39-3.17,3.39H89.28c-1.27,0-2.12,1.9-2.12,1.9s-8.89,14.81-8.89,15.66c0,0.85,0.85,1.48,1.69,1.48h9.94
		c1.06,0,0.42,0.85,0.42,0.85l-33.43,57.12l-3.6,6.35c-1.69,2.12,0.42,2.33,0.42,2.33H75.1c1.48,0,2.96-0.85,3.6-2.33
		c0.21-0.42,34.91-59.24,36.39-62.2c1.06-1.69,2.96-2.54,4.87-2.33h17.56c0.63,0,1.27-0.21,1.69-0.85
		c0.42-0.63,9.52-16.29,10.15-17.14c0.42-0.85-0.21-1.06-0.64-1.06h-18.4c-2.96,0-1.06-2.75-1.06-2.75s9.31-15.23,10.58-17.98
		c1.27-2.33,2.54-2.33,3.6-0.21c0,0,1.06,1.69,2.54,4.23c7.19,12.06,26.45,45.27,27.5,46.76c1.27,2.12,3.81,3.39,6.35,3.39h87.8
		c3.17,0,3.6-1.06,2.96-2.12C270.8,92.59,261.7,77.14,260.43,75.24"/>
	<path class="st0" d="M277.78,92.16c0,0.64-0.21,2.75,3.17,2.75h55.64c1.69,0,3.17-0.63,4.02-2.11c1.27-2.12,8.89-16.08,8.89-16.08
		s1.9-2.75-2.96-2.75h-39.77c0,0-3.81,0.21-3.81-2.96V60.43c0,0-0.21-3.17,4.44-3.17h37.23c2.33,0,2.96-1.69,2.96-2.33V40.75
		c0-0.64-0.21-2.33-2.96-2.33H307.4c-4.65,0-4.44-3.17-4.44-3.17V24.67c0-3.17,3.81-2.96,3.81-2.96h39.77
		c4.87,0,2.96-2.75,2.96-2.75S342.1,5,340.62,2.88c-0.85-1.27-2.54-2.33-4.02-2.12h-55.64c-3.39,0-3.17,2.12-3.17,2.96V92.16z"/>
	<path class="st0" d="M444.5,94.91c2.54,0,2.33-1.9,1.06-3.17c-0.64-0.64-34.91-40.62-36.81-42.74c-1.06-1.06-1.06-2.54-0.21-3.6
		c0,0,34.7-39.99,36.39-41.68c2.54-2.54,1.06-3.39-0.21-3.39h-23.06c-2.33,0-4.44,1.06-5.92,2.75c-0.64,0.85-27.29,32.37-29.62,34.7
		c-0.42,0.42-0.85,0.42-1.27,0.21c-0.42-0.21-0.64-0.64-0.64-1.27V3.1c0-2.75-2.12-2.75-2.12-2.75h-21.16
		c-0.63,0-1.27,0.42-1.69,0.85c-0.42,0.42-0.64,1.27-0.64,1.9v89.28c0,2.33,1.91,2.33,1.91,2.33h21.58c0,0,1.9,0,1.9-2.33V57.04
		c0-0.85,0.21-1.9,0.85-1.9c0.85,0.42,1.48,1.06,1.9,1.69l29.62,35.54c1.06,1.48,2.75,2.33,4.44,2.33h23.69L444.5,94.91L444.5,94.91
		z"/>
	<path class="st1" d="M123.76,148.02c-8.67,0-15.66-6.98-15.66-15.65c0-8.89,6.77-15.66,15.66-15.66c6.77,0,12.06,3.6,14.17,9.31
		l0.21,0.42l-3.17,1.06v-0.63c-1.69-4.44-5.92-7.19-11.21-7.19c-6.98,0-12.48,5.5-12.48,12.48c0,6.98,5.5,12.48,12.48,12.48
		c5.29,0,9.31-2.75,11.21-7.19l0.21-0.42l3.17,0.85l-0.21,0.63C136.04,144.42,130.53,148.02,123.76,148.02"/>
	<path class="st1" d="M163.75,148.02c-8.67,0-15.44-6.98-15.44-15.66c0-8.89,6.77-15.66,15.44-15.66c8.67,0,15.44,6.98,15.44,15.66
		C179.19,141.03,172.42,148.02,163.75,148.02 M163.75,119.88c-6.98,0-12.27,5.5-12.27,12.48c0,6.98,5.5,12.48,12.27,12.48
		c6.77,0,12.27-5.5,12.27-12.48C176.02,125.38,170.52,119.88,163.75,119.88"/>
	<polygon class="st1" points="220.45,147.59 220.45,124.74 208.6,147.59 206.49,147.59 194.64,124.74 194.64,147.59 191.47,147.59 
		191.47,117.13 194.22,117.13 207.54,142.73 220.87,117.13 223.62,117.13 223.62,147.59 	"/>
	<path class="st1" d="M237.37,147.59v-30.47h12.91c6.14,0,10.37,3.81,10.37,9.31c0,5.5-4.23,9.31-10.37,9.31h-9.73v11.85H237.37z
		 M250.49,132.57c4.23,0,7.19-2.54,7.19-6.14c0-3.6-2.96-6.14-7.19-6.14h-9.73v12.48L250.49,132.57z"/>
	<path class="st1" d="M292.17,147.59l-3.6-8.04h-16.08l-3.6,8.04h-3.6l13.75-30.47h2.75l13.75,30.47H292.17z M287.3,136.38
		l-6.56-14.6l-6.56,14.6H287.3z"/>
	<polygon class="st1" points="328.98,147.59 309.09,123.05 309.09,147.59 305.92,147.59 305.92,117.13 308.67,117.13 328.56,141.88 
		328.56,117.13 331.73,117.13 331.73,147.59 	"/>
	<polygon class="st1" points="354.58,147.59 354.58,136.38 341.68,117.13 345.48,117.13 356.27,133.21 366.85,117.13 370.66,117.13 
		357.76,136.38 357.76,147.59 	"/>
	<polygon class="st1" points="11.42,49.22 11.42,21.92 0,21.92 0,18.75 26.23,18.75 26.23,21.92 14.81,21.92 14.81,49.22 	"/>
	<polygon class="st1" points="56.28,49.22 56.28,35.46 37.87,35.46 37.87,49.22 34.7,49.22 34.7,18.75 37.87,18.75 37.87,32.29 
		56.28,32.29 56.28,18.75 59.45,18.75 59.45,49.22 	"/>
	<polygon class="st1" points="71.09,49.22 71.09,18.75 93.09,18.75 93.09,21.92 74.47,21.92 74.47,32.5 91.82,32.5 91.82,35.46 
		74.47,35.46 74.47,46.04 93.09,46.04 93.09,49.22 	"/>
	<path class="st0" d="M456.98,79.05c4.44,0,8.25,3.6,8.25,8.04c0,4.65-3.81,8.25-8.25,8.25c-4.44,0-8.25-3.6-8.25-8.25
		C448.73,82.43,452.54,79.05,456.98,79.05 M456.98,94.07c3.81,0,6.77-2.96,6.77-6.98c0-4.02-2.96-6.98-6.77-6.98
		c-3.81,0-6.77,2.96-6.77,6.98C450.21,91.11,453.17,94.07,456.98,94.07 M453.81,82.43h3.6c2.33,0,3.38,0.85,3.38,2.75
		c0,1.69-1.06,2.54-2.54,2.54l2.75,4.23h-1.69l-2.54-4.02h-1.48v4.02h-1.48V82.43z M455.29,86.66h1.48c1.27,0,2.54,0,2.54-1.48
		c0-1.27-1.06-1.48-2.12-1.48h-1.9V86.66z"/>
</g>
</svg>
