<svg id="Layer_1" data-name="Layer 1" xmlns="http://www.w3.org/2000/svg" viewBox="0 0 511.56 512"><path d="M265.76,68.31c0,18.69,0,37.39,0,56.09,0,9.4-3.27,12.58-12.72,12.75-58.58,1.06-107.73,45.53-114.73,103.8-7.61,63.4,32.45,119.18,94.85,132,62.19,12.79,127.76-31.52,139.41-94.35a192.56,192.56,0,0,0,2.32-20.92c.57-7.74,3.73-11.44,11.29-11.46q57.19-.14,114.4,0c7.15,0,11.36,4.16,11.22,10.29-.14,5.93-4.24,9.52-11.21,9.56-11.48.07-23,.17-34.43,0-5.36-.1-7.59,2-8,7.38-6.64,85.46-69.7,160.16-152.69,181-7.52,1.9-12.63-.62-13.9-6.83s1.69-10.48,9.42-12.5a176.8,176.8,0,0,0,55-24.49c47.28-32.06,74.42-76.61,82-133.14.2-1.47.24-3,.32-4.43.32-6.15-.61-7.24-6.73-7.28-10.18-.06-20.36.1-30.54-.06-4.82-.08-6.81,1.87-7.5,6.71-8.66,61.31-50.42,106.62-110,119.63-3.06.67-6.17,1.2-9.29,1.59-8.12,1-8.41,1.25-8.41,9.69v94.41c0,9.69-3.33,14.4-10,14.24-6.39-.17-9.5-4.79-9.5-14.19s0-18.51,0-27.77c0-9-.52-9.66-9.51-10.54a191.44,191.44,0,0,1-69.87-20.36q-83.35-43-106.94-134c-1.77-6.81.64-12,6-13.52,6-1.72,10.74,1.49,12.68,9,12.87,49.67,41.08,88,85,114.56,23.47,14.2,49.09,22.12,76.33,25,4.22.44,6.26-1.56,6.26-5.69,0-11.48-.05-23,0-34.44,0-4.8-3-5.69-6.85-6.16a136,136,0,0,1-67-27.23c-29.76-22.74-47.29-52.88-53.18-89.83-.14-.91-.32-1.82-.47-2.73-1.23-7.63-1.68-8-9.66-8H45.19c-11.11,0-22.22,0-33.33,0-7.33,0-11.54-3.62-11.64-9.75-.1-6.33,4.24-10.13,11.84-10.17,10.74-.07,21.48,0,32.21,0,9.09,0,9.62-.39,10.36-9.59A196.62,196.62,0,0,1,77.29,158.7c27.45-51.3,69.24-85.34,124.87-102.34,6.93-2.12,11.71-.26,14,5.08,2.7,6.25-.73,12-8.8,14.27a169.11,169.11,0,0,0-47,20.84c-51.63,33.47-80.24,81-86.34,142.19-.58,5.83.81,7.37,6.67,7.42,10,.07,20-.09,30,.07,4.71.07,7-1.65,7.65-6.57,8.44-63.37,54.05-110.52,117-121.09,10.87-1.83,10.87-1.83,10.87-13.06q0-46.1,0-92.19a23.39,23.39,0,0,1,.84-7.1C248.45,2.07,251.7,0,256,0s7.56,2.05,8.88,6.22a24.45,24.45,0,0,1,.84,7.1C265.79,31.65,265.76,50,265.76,68.31Z" transform="translate(-0.22 0)"/><path d="M373,181.82c-6.66,0-13.33.18-20-.06-4.41-.15-7.66,1.37-10.76,4.52Q304,225,265.63,263.53a25,25,0,0,1-5,4.33c-4.2,2.4-8.32,1.69-11.65-1.73a9,9,0,0,1-1.43-11.69,23,23,0,0,1,3.6-4.19c26.18-26.42,52.43-52.76,78.43-79.34a14.7,14.7,0,0,0,3.69-9.1c.41-13.12.31-26.27.11-39.4a15.75,15.75,0,0,1,5-12.31Q371.34,77.51,404,44.62c3.59-3.59,7.3-6.42,12.7-4.18s6.24,6.67,6.17,11.84c-.14,10.54-.06,21.09,0,31.64,0,7,1.5,8.52,8.38,8.54,10.92,0,21.84.09,32.75,0,4.91,0,8.87,1.48,10.67,6.26s.06,8.27-3.54,11.81q-33.47,32.86-66.52,66.14c-3.67,3.69-7.54,5.5-12.76,5.25C385.55,181.59,379.25,181.82,373,181.82Zm.24-19.53c4.62,0,9.26.16,13.87-.08,1.88-.1,4.26-.54,5.5-1.76q20-19.65,39.53-39.71c1.31-1.33,2.46-4.35,1.81-5.67-.82-1.66-3.49-3.16-5.49-3.35-4.94-.48-10-.06-15-.19-6.82-.18-10.6-4-10.8-10.73-.12-4.25.32-8.54-.16-12.74-.28-2.47-1.3-6-3-6.82s-5.28.75-6.94,2.39q-18.75,18.51-36.95,37.58a11.12,11.12,0,0,0-2.86,6.73c-.32,9.24,0,18.5-.18,27.74-.09,4.87,2.34,6.63,6.8,6.61C364,162.26,368.58,162.28,373.2,162.29Z" transform="translate(-0.22 0)"/><path d="M255.56,338.92c-43.21-.73-79.54-35.1-81.69-77.84-2.21-43.86,29.49-81.66,72.41-86.36,2-.23,4-.54,6.07-.65,7.57-.4,12.34,3.17,12.54,9.31.2,6-4.1,9.14-11.3,10.39-8.64,1.5-17.65,2.94-25.49,6.58-25.92,12-39.37,41.26-33.09,69.58a62.51,62.51,0,0,0,59.48,48.47c35.26.59,61.12-24.18,63.59-61.09.36-5.3,1.89-9.54,7.26-11.21,7-2.17,12.84,2.93,12.81,10.92-.17,37-26.43,70.31-62.37,78.83C269.17,337.42,262.31,337.93,255.56,338.92Z" transform="translate(-0.22 0)"/></svg>