<svg id="Layer_1" data-name="Layer 1" xmlns="http://www.w3.org/2000/svg" viewBox="0 0 512 512"><path d="M17.38,256c7.73-2,15.47-4,23.2-6.06,13.34-3.52,20,.33,23.85,13.7.27,1,.6,1.9,1.09,3.44,1.73-1.27,3.31-2.39,4.84-3.56C81.23,255.25,92,246.78,103,238.67c18.69-13.78,39.14-18.19,61.89-11.87,40.93,11.36,82,22.3,123,33.44,22.53,6.13,33.14,17.87,38.83,43.26,1.78-.92,3.48-1.72,5.11-2.66q56.31-32.49,112.57-65c12.26-7.12,25-9.18,38.4-4.33,16.25,5.9,26.29,17.68,28.71,34.78,2.59,18.3-3.9,33.54-19.72,43.35-19.83,12.28-40.29,23.56-60.49,35.23-42.58,24.59-85.38,48.81-127.67,73.89-20.49,12.15-41.48,14.86-64.36,9.29-26.54-6.45-53.19-12.53-80-17.9-18.29-3.67-34.53,2.73-49.14,13.55-1.06.79-1.32,2.95-1.51,4.53-.13,1.08.51,2.25.79,3.38,2.47,9.84-1.85,17.82-11.5,20.58-10.09,2.9-20.24,5.57-30.42,8.13s-17.83-2-20.6-12.13q-9-33-17.81-66.1Q14.75,328.46.49,274.86C.42,274.57-4.34,261.6,17.38,256Zm85.93,152.56L107,406.3c19.74-12.54,40.95-16,63.73-10.61,24.81,5.83,49.69,11.34,74.5,17.16,16.06,3.77,31.39,2.79,45.93-5.62q95.24-55.05,190.41-110.17a32.8,32.8,0,0,0,10.79-10.75c6.52-10.47,4.33-24.45-4.33-33.17-9-9-22.47-10.92-34.07-4.26q-64,36.74-127.74,73.74a10.59,10.59,0,0,0-3.87,4.25c-11.06,22.29-33.07,32.56-57.13,26.17-22.86-6.06-45.64-12.41-68.44-18.68-6.2-1.71-8.78-5.33-7.55-10.29,1.19-4.78,5.54-6.72,11.66-5.07,22.83,6.16,45.67,12.3,68.47,18.58,9,2.48,17.51,1.64,25.54-3.09,11-6.51,17.32-19,15.25-31.39-2.37-14.24-10.91-23.16-24.86-27-41-11.12-82-22-122.91-33.54-18.67-5.27-35.24-2.13-50.46,9.37-13,9.85-25.92,19.92-39,29.74-2.41,1.81-2.79,3.4-2,6.25,6.2,22.65,12.19,45.36,18.27,68C93.81,373.37,98.5,390.73,103.31,408.59ZM16.45,273c15.45,57.63,30.73,114.62,46.11,172l31.62-8.51C78.76,379,63.48,322,48.09,264.56Z"/><path d="M331.31,137.62a86.89,86.89,0,0,1,33.31,24.26,76.56,76.56,0,0,1,33-27.69c-11.28-11-16.4-23.8-14.15-39.11a41.22,41.22,0,0,1,14.6-26,42.6,42.6,0,0,1,57,1.68c17.84,17.07,17.65,39.87-.79,63.32l4.2,2.31c24.42,13.49,37.83,34,39.28,62,.4,7.72-2.48,10.49-10.41,10.5q-48.81,0-97.61,0h-5.79c-1.47,13.49-1.93,13.89-15.45,13.89H232.33c-12.59,0-13.49-.82-14.5-13.89H118.47c-9.22,0-12-2.49-11.36-11.54,1.85-27.74,15.45-48,39.75-61.21,1.16-.63,2.39-1.13,4.19-2-11.64-11.47-16.73-25-13.67-40.94a41,41,0,0,1,16.2-25.62,42.51,42.51,0,0,1,56.82,4.87c12.62,13.25,19.09,39.11-2.79,61.7,12.52,5.83,23,14,30.36,24.47l31.52-22.14c-11.58-10.23-18.2-23.93-16.93-40.72a46.69,46.69,0,0,1,15.65-32,48.35,48.35,0,0,1,66.61,1.19C350.44,80.15,358.7,112.08,331.31,137.62ZM235.05,206.3H366.6C365,175,334.29,147.91,300.83,147.91S236.6,175,235.05,206.3Zm246-13.46c-.18-1.48-.25-2.29-.38-3.09a22.13,22.13,0,0,0-.57-2.94c-6.8-22.85-21.77-37.42-45.24-41.37-23.06-3.88-41.73,4.78-55.72,23.6-3.53,4.74-5.5,9.3-1.64,14.81a13.25,13.25,0,0,1,1.9,5.12c.61,3.3,2.48,4,5.61,3.94,21.83-.14,43.66-.07,65.48-.07Zm-357.28-.27h96.77c2.06-4.95,3.73-10,6.25-14.66,1.74-3.2,1.21-5.4-.61-8.15-20.78-31.4-66.26-33.92-90.26-4.88C129.38,172.83,125,181.83,123.81,192.57Zm176.85-60.72a32.44,32.44,0,1,0-32.28-32.71A32.64,32.64,0,0,0,300.66,131.85Zm-121.29-3.43a26.76,26.76,0,1,0-26.89-26.62A27,27,0,0,0,179.37,128.42Zm246.3,0a26.76,26.76,0,1,0-26.82-26.68A26.94,26.94,0,0,0,425.67,128.42Z"/></svg>