<svg id="Layer_1" data-name="Layer 1" xmlns="http://www.w3.org/2000/svg" viewBox="0 0 512 512"><path d="M253,512c-5.4-2.94-7.2-7.41-7.11-13.56.3-20.29.09-40.58.13-60.87,0-6.33,3.06-10.45,8.24-11.41a9.78,9.78,0,0,1,11.62,9.41c.2,22.28.11,44.57.06,66.86,0,4.76-3.41,7.26-6.94,9.57Z"/><path d="M260.29,116c41.6.27,83.23,14.36,121.76,38.22,39.57,24.51,72.7,56.08,100.3,93.49,5.09,6.9,5.13,9.72,0,16.56-35.84,47.86-79.23,86.81-134.28,111.37C280.65,405.69,214,402.18,148.89,368.4c-48.2-25-87.12-60.94-119.36-104.34-4.94-6.65-5-9.52,0-16.14,37-49.41,82-89,139.2-113.73C195.1,122.77,227.54,116,260.29,116Zm-5.48,260a205.78,205.78,0,0,0,82.83-17.64c50.21-21.95,90-56.94,123.83-99.35,2.08-2.61,1.46-4.2-.3-6.42-28.67-36.14-62-66.91-102.81-89C298.5,131.2,237,126.3,174,153.82c-50.08,21.84-89.65,56.84-123.41,99.09-2.34,2.92-1.17,4.57.61,6.82,24.94,31.45,53.68,58.77,87.84,80.06C174.72,362.05,213.17,375.71,254.81,376Z"/><path d="M266,43.28c0,10.31,0,20.62,0,30.93,0,7.19-4,11.76-10.06,11.72S246,81.34,246,74.08q0-31.18,0-62.36c0-7.2,4-11.76,10-11.72S266,4.59,266,11.85C266,22.33,266,32.8,266,43.28Z"/><path d="M119.7,129.25c-2,2.7-3.49,6.39-6.15,7.72s-6.53.61-9.78.15c-1.39-.19-2.65-1.9-3.82-3.06-13.07-13-26.24-26-39-39.25-2.31-2.4-4.47-6.41-4.17-9.43s3.28-6.9,6-8S70.63,77,72.72,79c14.69,14,28.93,28.43,43.15,42.89C117.5,123.55,118.14,126.17,119.7,129.25Z"/><path d="M444.43,76.21c9,.27,13.6,8.35,9.95,14.85a16.46,16.46,0,0,1-2.79,3.5q-20.07,20.13-40.19,40.22c-3.49,3.49-7.45,5-12.18,3-6.72-2.92-7.8-11.16-2.1-17,9.55-9.72,19.25-19.3,28.89-28.95,4-4,7.83-8.17,12.07-11.9C440.2,78,443.06,77,444.43,76.21Z"/><path d="M120.05,392.47c-2.11,3.64-3.12,6.59-5.09,8.6Q94.7,421.73,74.08,442c-4.73,4.69-10.45,4.89-14.66.86s-4.27-10.1.6-15q20.35-20.55,40.89-40.93c3.35-3.34,7.52-5.16,11.69-2.61C115.53,386.13,117.46,389.54,120.05,392.47Z"/><path d="M456.71,436.28c-2,2.7-3.5,6.39-6.16,7.71s-6.54.59-9.79.13c-1.39-.2-2.64-1.9-3.81-3.07-13.07-13-26.24-26-39.05-39.25-2.3-2.39-4.45-6.42-4.15-9.43s3.31-6.89,6.07-8,7.84-.36,9.93,1.64c14.69,14,28.93,28.43,43.15,42.89C454.52,430.58,455.16,433.21,456.71,436.28Z"/><path d="M256.53,166c46.8.21,85.72,36.61,89.3,83.53,3.52,45.88-29.32,87.65-74.89,95.28C210.32,354.94,157.3,302.2,167.13,241.52c1.11-6.83,5.54-10.72,11.39-10S188,236.89,187,244a73.15,73.15,0,0,0,3.1,35.45c11.56,32.65,46.07,52.23,79.73,45.26,34.74-7.2,58.78-38.91,56.09-74-3.46-45-48.19-75.06-91.25-61.41a47.65,47.65,0,0,1-4.75,1.52c-5.52,1.15-10.37-1.57-11.9-6.54s.72-9.92,5.84-12.29C231.16,168.57,245.58,165.93,256.53,166Z"/><path d="M255.85,296A40,40,0,1,1,296,256,40.11,40.11,0,0,1,255.85,296Zm.34-20A20,20,0,1,0,236,256.15,20.07,20.07,0,0,0,256.19,276Z"/><path d="M196,196a10,10,0,1,1-9.92,9.75A10.09,10.09,0,0,1,196,196Z"/></svg>