<svg xmlns="http://www.w3.org/2000/svg" xmlns:xlink="http://www.w3.org/1999/xlink" width="204" height="77" viewBox="0 0 204 77">
  <defs>
    <clipPath id="clip-path">
      <rect id="Rectangle_4" data-name="Rectangle 4" width="119.951" height="40.001" fill="#fff"/>
    </clipPath>
  </defs>
  <g id="Group_18" data-name="Group 18" transform="translate(0 -80)">
    <rect id="Rectangle_19" data-name="Rectangle 19" width="204" height="77" transform="translate(0 80)" fill="#af3a40"/>
    <g id="Logo" transform="translate(42 97.499)">
      <g id="Group_1" data-name="Group 1" clip-path="url(#clip-path)">
        <path id="Path_1" data-name="Path 1" d="M9.631,256.648a.686.686,0,0,1,.674-.674h.155a.749.749,0,0,1,.639.363l4.318,6.494,4.318-6.494a.73.73,0,0,1,.639-.363h.155a.686.686,0,0,1,.674.674v10.864a.69.69,0,0,1-.674.69.7.7,0,0,1-.69-.69V258.5l-3.87,5.682a.667.667,0,0,1-.57.346.7.7,0,0,1-.587-.346l-3.852-5.665v9.016a.665.665,0,1,1-1.33,0Zm18.507,10.571,4.905-10.726a.891.891,0,0,1,.864-.6h.069a.87.87,0,0,1,.846.6L39.728,267.2a.923.923,0,0,1,.087.346.656.656,0,0,1-.657.655.745.745,0,0,1-.674-.5l-1.261-2.781H30.59l-1.261,2.815a.683.683,0,0,1-.657.466.619.619,0,0,1-.622-.622.785.785,0,0,1,.087-.363m8.55-3.541-2.781-6.184-2.781,6.184Zm9.983-6.961a.689.689,0,0,1,.674-.691h4.526a4.764,4.764,0,0,1,3.437,1.208,3.341,3.341,0,0,1,.933,2.383v.035c0,1.987-1.348,3.144-3.23,3.506l3.006,3.87a.743.743,0,0,1,.225.5.714.714,0,0,1-.691.674.8.8,0,0,1-.639-.363l-3.4-4.422H48.035v4.094a.682.682,0,1,1-1.364,0Zm5.078,5.476c1.814,0,3.109-.934,3.109-2.488v-.035c0-1.484-1.14-2.383-3.092-2.383H48.035v4.906Zm11.4,4.888,4.042-5.13-3.835-4.837a.832.832,0,0,1-.225-.518.671.671,0,0,1,.674-.657.744.744,0,0,1,.605.346l3.645,4.733,3.592-4.681a.843.843,0,0,1,.657-.4.633.633,0,0,1,.622.639.745.745,0,0,1-.189.484l-3.852,4.87,3.989,5.1a.741.741,0,0,1,.225.5.675.675,0,0,1-.674.674.739.739,0,0,1-.6-.345L68,262.9l-3.766,4.906a.846.846,0,0,1-.673.4.631.631,0,0,1-.6-.639.74.74,0,0,1,.19-.483m16.914.345V256.717a.69.69,0,0,1,.674-.691h7.514a.622.622,0,0,1,0,1.243H81.429V261.4h6.046a.631.631,0,0,1,.622.622.619.619,0,0,1-.622.622H81.429v4.233h6.909a.622.622,0,1,1,0,1.243h-7.6a.69.69,0,0,1-.674-.692m15.777-10.778a.686.686,0,0,1,.674-.674h.19a.834.834,0,0,1,.69.4l7.341,9.362v-9.12a.665.665,0,1,1,1.33,0V267.53a.613.613,0,0,1-.622.64h-.07a.937.937,0,0,1-.707-.414l-7.5-9.587v9.362a.665.665,0,1,1-1.33,0Zm21.152.639h-3.507a.634.634,0,0,1-.639-.622.648.648,0,0,1,.639-.639h8.4a.648.648,0,0,1,.639.639.634.634,0,0,1-.639.622h-3.506v10.226a.691.691,0,0,1-1.382,0Z" transform="translate(-8.589 -228.202)" fill="#fff"/>
        <path id="Path_2" data-name="Path 2" d="M2.153,35.26a7.728,7.728,0,0,0,5.354,2.211c2.357,0,3.666-1.018,3.666-2.5,0-1.571-1.193-2.3-3.9-2.3-.815,0-2.124,0-2.415.029V29.092c.349.029,1.688.029,2.415.029,2.153,0,3.579-.7,3.579-2.153,0-1.542-1.571-2.328-3.608-2.328A7.079,7.079,0,0,0,2.3,26.677L.262,24.116a9.552,9.552,0,0,1,7.419-3.084c4.539,0,7.332,2.037,7.332,5.267,0,2.444-2.095,4.044-4.248,4.423A4.869,4.869,0,0,1,15.3,35.376c0,3.346-3,5.7-7.652,5.7-3.579,0-6.227-1.368-7.652-3.113Z" transform="translate(0 -18.756)" fill="#fff"/>
        <path id="Path_3" data-name="Path 3" d="M157.936,23.721h7.652c6.081,0,10.3,3.87,10.3,9.718s-4.219,9.689-10.3,9.689h-7.652Zm7.652,15.77a5.809,5.809,0,0,0,6.081-6.052c0-3.433-2.095-6.081-6.081-6.081h-3.521V39.491Z" transform="translate(-140.848 -21.154)" fill="#fff"/>
        <path id="Path_4" data-name="Path 4" d="M358.661,30.8a9.824,9.824,0,0,1,10.184-10.038,8.955,8.955,0,0,1,8.263,4.743l-3.55,1.746a5.315,5.315,0,0,0-4.714-2.822c-3.375,0-5.936,2.706-5.936,6.372s2.56,6.372,5.936,6.372a5.261,5.261,0,0,0,4.714-2.822l3.55,1.717a9.007,9.007,0,0,1-8.263,4.772A9.824,9.824,0,0,1,358.661,30.8" transform="translate(-319.856 -18.517)" fill="#fff"/>
        <rect id="Rectangle_3" data-name="Rectangle 3" width="3.695" height="19.407" transform="translate(59.638 2.566)" fill="#fff"/>
        <path id="Path_5" data-name="Path 5" d="M610.912,77.337a7.434,7.434,0,1,1,7.419,7.39,7.118,7.118,0,0,1-7.419-7.39m11.027,0c0-2.182-1.309-4.073-3.608-4.073s-3.579,1.891-3.579,4.073c0,2.211,1.28,4.1,3.579,4.1s3.608-1.891,3.608-4.1" transform="translate(-544.814 -62.405)" fill="#fff"/>
        <path id="Path_6" data-name="Path 6" d="M783.093,85.482a6.577,6.577,0,0,1-4.946,2.124c-3.084,0-4.539-1.688-4.539-4.423V73.2h3.7v8.525c0,1.949,1.018,2.59,2.59,2.59a4.137,4.137,0,0,0,3.2-1.6V73.2h3.7V87.256h-3.7Z" transform="translate(-689.907 -65.283)" fill="#fff"/>
        <path id="Path_7" data-name="Path 7" d="M931.539,41.324a5.455,5.455,0,0,1-4.335,2.153c-3.55,0-6.227-2.677-6.227-7.361,0-4.6,2.648-7.39,6.227-7.39a5.413,5.413,0,0,1,4.335,2.153V23.721h3.724V43.128h-3.724Zm0-7.71a4.021,4.021,0,0,0-3.2-1.6c-2.1,0-3.55,1.659-3.55,4.1,0,2.415,1.455,4.073,3.55,4.073a4.021,4.021,0,0,0,3.2-1.6Z" transform="translate(-821.332 -21.154)" fill="#fff"/>
        <text id="_" data-name="™" transform="translate(115.475 0.63)" fill="#fff" font-size="2" font-family="Roboto-Light, Roboto" font-weight="300"><tspan x="0" y="0">™</tspan></text>
      </g>
    </g>
  </g>
</svg>
