<svg width="18" height="24" viewBox="0 0 18 24" fill="none" xmlns="http://www.w3.org/2000/svg">
<path d="M17.0037 13.0106C16.9938 12.0883 16.4248 11.3328 15.5711 11.0875C14.9824 10.9109 14.4231 11.009 13.8933 11.3328C13.8638 11.2739 13.8442 11.2248 13.8246 11.1758C13.3242 10.1161 12.0879 9.69418 11.0576 10.2535C10.9104 10.332 10.881 10.3025 10.8123 10.175C10.4002 9.29189 9.50734 8.85035 8.5752 9.04659C8.38878 9.08584 8.20235 9.17415 8.00611 9.23302V8.9681C8.00611 7.66311 8.01592 6.35812 8.00611 5.05313C7.9963 3.72852 6.88755 2.8062 5.62181 3.04169C4.66024 3.2183 4.00284 4.0425 4.00284 5.10219C4.00284 6.87815 4.00284 8.66393 4.00284 10.4399C4.00284 11.2248 4.00284 12.0196 4.00284 12.8046C4.00284 12.9616 3.9636 13.0008 3.8066 13.0008C3.57112 12.991 3.33563 13.0106 3.10996 13.0302C1.58911 13.1676 0.244872 14.4432 0.0486331 15.964C-0.0691101 16.8667 0.0388212 17.7596 0.244872 18.6329C0.912084 21.3704 2.59974 23.1169 5.33727 23.843C5.57275 23.9019 5.82786 23.892 6.05354 24H6.33808C6.36752 23.9705 6.39696 23.9705 6.4362 24H13.0004C13.0102 23.9607 13.0396 23.9607 13.0789 23.9607C15.316 23.6664 16.9742 21.8512 17.0135 19.5748C17.0331 17.3867 17.0135 15.1987 17.0037 13.0106ZM16.0028 19.4472C15.993 21.2134 14.845 22.5969 13.1181 22.9403C12.8728 22.9894 12.6177 22.9992 12.3724 22.9992C10.5572 22.9992 8.7322 22.9992 6.91699 22.9992C4.14021 22.9992 1.85403 21.1741 1.24569 18.4759C1.07889 17.7302 0.970955 16.9648 1.04945 16.1995C1.15738 15.0417 2.1582 14.0899 3.31601 14.0114C3.54168 14.0016 3.82623 13.9231 3.97341 14.0311C4.12059 14.139 4.01266 14.4333 4.02247 14.6492C4.03228 15.2379 4.02247 15.8168 4.02247 16.4055C4.02247 16.6214 4.08134 16.8078 4.28739 16.9158C4.56212 17.0728 4.91535 16.9354 5.00366 16.6214C5.0331 16.5233 5.0331 16.4252 5.0331 16.3172C5.0331 14.4333 5.0331 12.5495 5.0331 10.6754C5.0331 8.80129 5.0331 6.92721 5.0331 5.05313C5.0331 4.46442 5.3667 4.07194 5.90636 3.99345C6.42639 3.91495 6.94642 4.31724 7.01511 4.83727C7.02492 4.90595 7.02492 4.97464 7.02492 5.04332C7.02492 6.97627 7.01511 8.91904 7.01511 10.852C7.01511 12.363 7.01511 13.8839 7.02492 15.3949C7.02492 15.6402 7.11323 15.8463 7.34871 15.9346C7.54495 16.0131 7.73138 15.9738 7.88837 15.8168C8.01593 15.6795 8.03555 15.5127 8.03555 15.336C8.03555 14.0801 8.03555 12.8242 8.03555 11.5683C8.03555 11.3622 8.03555 11.166 8.04536 10.9599C8.05517 10.4105 8.4869 9.97873 9.02655 9.97873C9.56621 9.97873 10.0176 10.4006 10.0274 10.9501C10.0372 12.363 10.0372 13.7759 10.0372 15.1889C10.0372 15.2772 10.0372 15.3655 10.0372 15.444C10.0568 15.7678 10.253 15.9738 10.5474 15.9738C10.8418 15.9738 11.038 15.7678 11.0478 15.4342C11.0576 15.1594 11.0478 14.8847 11.0478 14.61C11.0478 13.7171 11.0478 12.834 11.0576 11.9411C11.0674 11.4015 11.4894 10.9894 12.029 10.9795C12.5687 10.9697 13.02 11.372 13.0298 11.9117C13.0396 13.0695 13.0396 14.2273 13.0396 15.3753C13.0396 15.7187 13.2064 15.9346 13.491 15.964C13.8246 15.9934 14.0503 15.7776 14.0503 15.3949C14.0601 14.8062 14.0503 14.2273 14.0503 13.6386C14.0503 13.4031 14.0503 13.1676 14.0601 12.9321C14.0699 12.3925 14.5016 11.9705 15.0315 11.9705C15.5613 11.9607 16.0225 12.3728 16.0323 12.9125C16.0519 13.9231 16.0421 14.9436 16.0421 15.9542C16.0028 17.1414 16.0028 18.2992 16.0028 19.4472Z" fill="black"/>
<path d="M6.52436 0C6.7206 0.0883074 6.93646 0.0883074 7.15232 0.127555C10.6748 0.941946 12.1957 5.20033 9.96835 8.04579C9.81136 8.24203 9.64456 8.34996 9.39926 8.3009C9.20302 8.26165 9.08527 8.14391 9.0264 7.95748C8.95772 7.74162 9.06565 7.58463 9.18339 7.41782C10.1548 6.07359 10.2823 4.64105 9.55625 3.15944C8.78111 1.61897 7.01496 0.745707 5.37636 1.04988C3.57097 1.37367 2.22673 2.76697 2.03049 4.54293C1.91275 5.60262 2.17767 6.574 2.82526 7.41782C2.943 7.57481 3.04112 7.72199 2.99206 7.90842C2.95282 8.10466 2.82526 8.24203 2.62902 8.29109C2.41316 8.34015 2.23654 8.27146 2.08937 8.09485C1.61839 7.50613 1.2946 6.84873 1.1278 6.11284C0.490019 3.2085 2.40335 0.461161 5.37636 0.0490597C5.4058 0.0490597 5.43524 0.0392477 5.44505 0C5.79828 0 6.16132 0 6.52436 0Z" fill="black"/>
<path d="M6.33789 24C6.36733 23.9411 6.39676 23.9509 6.43601 24C6.39676 24 6.36733 24 6.33789 24Z" fill="black"/>
</svg>
