<?xml version="1.0" encoding="utf-8"?>
<!-- Generator: Adobe Illustrator 24.3.0, SVG Export Plug-In . SVG Version: 6.00 Build 0)  -->
<svg version="1.1" id="Layer_1" xmlns="http://www.w3.org/2000/svg" xmlns:xlink="http://www.w3.org/1999/xlink" x="0px" y="0px"
	 viewBox="0 0 186.2 251.02" style="enable-background:new 0 0 186.2 251.02;" xml:space="preserve">
<style type="text/css">
	.st0{fill:#262626;}
	.st1{opacity:0.5;fill:url(#SVGID_1_);}
	.st2{fill:url(#SVGID_2_);}
	.st3{fill:url(#SVGID_3_);}
	.st4{fill:#151515;}
	.st5{opacity:0.55;fill:#BCBAC6;}
	.st6{fill:#1C1C1C;}
	.st7{opacity:0.95;fill:url(#SVGID_4_);}
	.st8{opacity:0.55;fill:#CCCCCC;}
	.st9{opacity:0.55;fill:url(#SVGID_5_);}
	.st10{opacity:0.55;fill:url(#SVGID_6_);}
	.st11{opacity:0.55;fill:url(#SVGID_7_);}
	.st12{opacity:0.55;fill:url(#SVGID_8_);}
	.st13{opacity:0.55;}
	.st14{fill:url(#SVGID_9_);}
	.st15{opacity:0.35;fill:#CCCCCC;}
	.st16{opacity:0.75;fill:url(#SVGID_10_);}
	.st17{opacity:0.75;fill:url(#SVGID_11_);}
	.st18{opacity:0.55;fill:url(#SVGID_12_);}
	.st19{opacity:0.95;fill:url(#SVGID_13_);}
	.st20{fill:#CACCCC;}
	.st21{fill:#97979B;}
	.st22{opacity:0.32;}
	.st23{fill:url(#SVGID_14_);}
	.st24{fill:url(#SVGID_15_);}
	.st25{fill:#ABAFB2;}
</style>
<g>
	<path class="st0" d="M11.8,17.34L85.61,0.26l-3.9,249.51L6.09,192.7C2.26,189.81,0,185.26,0,180.43V32.28
		C0,25.13,4.89,18.94,11.8,17.34z"/>
	<linearGradient id="SVGID_1_" gradientUnits="userSpaceOnUse" x1="40.8566" y1="-0.4866" x2="45.9495" y2="237.3525">
		<stop  offset="0" style="stop-color:#FFFFFF"/>
		<stop  offset="0.1675" style="stop-color:#FBFCFB"/>
		<stop  offset="0.3297" style="stop-color:#EFF3F0"/>
		<stop  offset="0.4898" style="stop-color:#DCE5DC"/>
		<stop  offset="0.6485" style="stop-color:#C1D0C1"/>
		<stop  offset="0.8064" style="stop-color:#9DB59E"/>
		<stop  offset="0.9615" style="stop-color:#739574"/>
		<stop  offset="1" style="stop-color:#678C68"/>
	</linearGradient>
	<path class="st1" d="M11.8,17.34L85.61,0.26l-3.9,249.51L6.09,192.7C2.26,189.81,0,185.26,0,180.43V32.28
		C0,25.13,4.89,18.94,11.8,17.34z"/>
	<linearGradient id="SVGID_2_" gradientUnits="userSpaceOnUse" x1="46.4768" y1="202.9389" x2="35.5309" y2="218.2122">
		<stop  offset="0.1218" style="stop-color:#FFFFFF"/>
		<stop  offset="0.2361" style="stop-color:#FBFBFB"/>
		<stop  offset="0.3466" style="stop-color:#F0F0F0"/>
		<stop  offset="0.437" style="stop-color:#E0E0E0"/>
		<stop  offset="0.4895" style="stop-color:#D7D7D7"/>
		<stop  offset="0.5756" style="stop-color:#BEBEBE"/>
		<stop  offset="0.6844" style="stop-color:#969696"/>
		<stop  offset="0.8118" style="stop-color:#5F5F5F"/>
		<stop  offset="0.9531" style="stop-color:#191919"/>
		<stop  offset="1" style="stop-color:#000000"/>
	</linearGradient>
	<path class="st2" d="M0,171.8v8.63c0,4.83,2.26,9.38,6.09,12.27l75.62,57.07l1.22-21.06L0,171.8z"/>
	<linearGradient id="SVGID_3_" gradientUnits="userSpaceOnUse" x1="40.8177" y1="14.5272" x2="43.2424" y2="40.9444">
		<stop  offset="0.1218" style="stop-color:#FFFFFF"/>
		<stop  offset="0.2362" style="stop-color:#FBFBFB"/>
		<stop  offset="0.347" style="stop-color:#EFEFEF"/>
		<stop  offset="0.4564" style="stop-color:#DCDCDC"/>
		<stop  offset="0.565" style="stop-color:#C1C1C1"/>
		<stop  offset="0.6729" style="stop-color:#9D9D9D"/>
		<stop  offset="0.7804" style="stop-color:#727272"/>
		<stop  offset="0.8876" style="stop-color:#3F3F3F"/>
		<stop  offset="0.9921" style="stop-color:#050505"/>
		<stop  offset="1" style="stop-color:#000000"/>
	</linearGradient>
	<path class="st3" d="M80.05,24.18V4.51L13.43,19.92C7.2,21.36,2.78,26.96,2.78,33.4v4.14L80.05,24.18z"/>
	<g>
		<path class="st4" d="M173.25,242.52l-84.06,8.41c-7.95,0.8-14.45-4.46-14.45-11.74V12.54c0-7.3,6.51-12.9,14.47-12.52l84.15,4.01
			c7.13,0.34,12.85,6.14,12.85,12.97l-0.11,211.92C186.09,235.72,180.37,241.81,173.25,242.52z"/>
		<path class="st5" d="M168.64,227.72l-74.27,6.59c-6.97,0.62-12.66-4.27-12.66-10.92l0.01-206.95c0-6.66,5.7-11.81,12.68-11.51
			l74.34,3.25c6.34,0.28,11.45,5.6,11.44,11.88l-0.09,195.28C180.08,221.62,174.98,227.16,168.64,227.72z"/>
		<path class="st6" d="M167.77,226.73l-72.56,6.53c-6.81,0.61-12.37-4.23-12.37-10.82l0.01-205.11c0-6.6,5.57-11.71,12.39-11.41
			l72.63,3.22c6.2,0.27,11.18,5.55,11.18,11.78l-0.09,193.54C178.95,220.69,173.97,226.18,167.77,226.73z"/>
		<linearGradient id="SVGID_4_" gradientUnits="userSpaceOnUse" x1="130.9415" y1="245.461" x2="130.9415" y2="-4.6424">
			<stop  offset="0" style="stop-color:#FFFFFF"/>
			<stop  offset="1" style="stop-color:#000000"/>
		</linearGradient>
		<path class="st7" d="M167.77,226.73l-72.56,6.53c-6.81,0.61-12.37-4.23-12.37-10.82l0.01-205.11c0-6.6,5.57-11.71,12.39-11.41
			l72.63,3.22c6.2,0.27,11.18,5.55,11.18,11.78l-0.09,193.54C178.95,220.69,173.97,226.18,167.77,226.73z"/>
		<polygon class="st8" points="176.91,36.22 85.61,33.68 85.61,31.99 176.91,34.62 		"/>
		<polygon class="st8" points="176.89,61.71 85.61,60.61 85.61,58.92 176.89,60.1 		"/>
		<polygon class="st8" points="176.88,87.18 85.6,87.53 85.6,85.84 176.88,85.58 		"/>
		<polygon class="st8" points="176.83,206.25 85.6,213.34 85.6,211.65 176.83,204.64 		"/>
		
			<radialGradient id="SVGID_5_" cx="76.9227" cy="56.9565" r="27.6182" gradientTransform="matrix(1.17 0 0 1.18 41.2569 -33.1035)" gradientUnits="userSpaceOnUse">
			<stop  offset="0" style="stop-color:#FFFFFF"/>
			<stop  offset="1" style="stop-color:#444444"/>
		</radialGradient>
		<polygon class="st9" points="176.91,36.22 85.61,33.68 85.61,31.99 176.91,34.62 		"/>
		
			<radialGradient id="SVGID_6_" cx="76.917" cy="79.1643" r="27.5985" gradientTransform="matrix(1.17 0 0 1.18 41.2569 -33.1035)" gradientUnits="userSpaceOnUse">
			<stop  offset="0" style="stop-color:#FFFFFF"/>
			<stop  offset="1" style="stop-color:#444444"/>
		</radialGradient>
		<polygon class="st10" points="176.89,61.71 85.61,60.61 85.61,58.92 176.89,60.1 		"/>
		
			<radialGradient id="SVGID_7_" cx="76.9117" cy="101.4057" r="27.589" gradientTransform="matrix(1.17 0 0 1.18 41.2569 -33.1035)" gradientUnits="userSpaceOnUse">
			<stop  offset="0" style="stop-color:#FFFFFF"/>
			<stop  offset="1" style="stop-color:#444444"/>
		</radialGradient>
		<polygon class="st11" points="176.88,87.18 85.6,87.53 85.6,85.84 176.88,85.58 		"/>
		
			<radialGradient id="SVGID_8_" cx="76.8856" cy="205.167" r="27.6908" gradientTransform="matrix(1.17 0 0 1.18 41.2569 -33.1035)" gradientUnits="userSpaceOnUse">
			<stop  offset="0" style="stop-color:#FFFFFF"/>
			<stop  offset="1" style="stop-color:#444444"/>
		</radialGradient>
		<polygon class="st12" points="176.83,206.25 85.6,213.34 85.6,211.65 176.83,204.64 		"/>
		<g class="st13">
			<linearGradient id="SVGID_9_" gradientUnits="userSpaceOnUse" x1="124.018" y1="245.461" x2="124.018" y2="-4.6424">
				<stop  offset="0" style="stop-color:#000000"/>
				<stop  offset="1" style="stop-color:#FFFFFF"/>
			</linearGradient>
			<path class="st14" d="M95.23,5.93c-6.82-0.3-12.39,4.8-12.39,11.41l-0.01,205.1c0,6.59,5.56,11.43,12.37,10.82l-0.36,0.03
				L165.2,9.04L95.23,5.93z"/>
		</g>
		<g>
			<path class="st15" d="M136.99,154.11c0,2.42-2.09,4.48-4.68,4.6c-2.6,0.12-4.71-1.75-4.71-4.19c0-2.44,2.11-4.5,4.71-4.61
				C134.9,149.82,136.99,151.69,136.99,154.11z"/>
			<path class="st15" d="M136.99,140.08c0,2.42-2.09,4.47-4.68,4.57c-2.6,0.1-4.71-1.79-4.71-4.23c0-2.44,2.11-4.48,4.71-4.57
				C134.9,135.77,136.99,137.66,136.99,140.08z"/>
			
				<radialGradient id="SVGID_10_" cx="77.8174" cy="158.8343" r="2.1309" gradientTransform="matrix(1.17 0 0 1.18 41.2569 -33.1035)" gradientUnits="userSpaceOnUse">
				<stop  offset="0" style="stop-color:#FFFFFF"/>
				<stop  offset="0.8021" style="stop-color:#595959"/>
			</radialGradient>
			<path class="st16" d="M134.89,154.21c0,1.33-1.15,2.47-2.58,2.53c-1.43,0.07-2.59-0.97-2.59-2.3c0-1.34,1.16-2.47,2.59-2.53
				C133.73,151.84,134.89,152.87,134.89,154.21z"/>
			
				<radialGradient id="SVGID_11_" cx="77.8204" cy="146.9091" r="2.1307" gradientTransform="matrix(1.17 0 0 1.18 41.2569 -33.1035)" gradientUnits="userSpaceOnUse">
				<stop  offset="0" style="stop-color:#FFFFFF"/>
				<stop  offset="0.8021" style="stop-color:#595959"/>
			</radialGradient>
			<path class="st17" d="M134.89,140.16c0,1.33-1.15,2.46-2.58,2.51c-1.43,0.05-2.59-0.99-2.59-2.33c0-1.34,1.16-2.46,2.59-2.51
				C133.74,137.78,134.89,138.82,134.89,140.16z"/>
			<linearGradient id="SVGID_12_" gradientUnits="userSpaceOnUse" x1="112.3802" y1="182.8343" x2="151.7506" y2="182.8343">
				<stop  offset="0.2119" style="stop-color:#000000"/>
				<stop  offset="1" style="stop-color:#FFFFFF"/>
			</linearGradient>
			<path class="st18" d="M151.75,181.62c0,10.06-8.66,18.84-19.46,19.63c-10.94,0.8-19.92-6.9-19.91-17.2
				c0-10.3,8.98-19.11,19.92-19.66C143.11,163.84,151.75,171.56,151.75,181.62z"/>
			<linearGradient id="SVGID_13_" gradientUnits="userSpaceOnUse" x1="119.8651" y1="182.8264" x2="144.5509" y2="182.8264">
				<stop  offset="0" style="stop-color:#FFFFFF"/>
				<stop  offset="0.7881" style="stop-color:#000000"/>
			</linearGradient>
			<path class="st19" d="M144.55,182.07c0,6.34-5.47,11.85-12.25,12.31c-6.84,0.47-12.43-4.36-12.43-10.79
				c0-6.43,5.59-11.95,12.44-12.32C139.09,170.89,144.55,175.73,144.55,182.07z"/>
			<g class="st13">
				<path class="st20" d="M134,177.03l0,1.83c2.2,0.58,3.79,2.42,3.79,4.72c0,2.89-2.51,5.41-5.6,5.61c-3.11,0.2-5.64-2-5.64-4.91
					c0-2.27,1.55-4.29,3.71-5.16v-1.83c-3.21,0.99-5.6,3.85-5.6,7.11c0,3.89,3.38,6.82,7.53,6.55c4.12-0.27,7.46-3.63,7.46-7.48
					C139.65,180.19,137.24,177.6,134,177.03z"/>
				<path class="st20" d="M133.47,182.95c0,0.86-0.6,1.59-1.35,1.63l0,0c-0.74,0.05-1.35-0.61-1.35-1.47l0-6.01
					c0-0.86,0.6-1.59,1.35-1.63l0,0c0.74-0.04,1.35,0.62,1.34,1.47L133.47,182.95z"/>
			</g>
			<g>
				<path class="st21" d="M134.11,176.64v1.83c2.2,0.58,3.79,2.42,3.79,4.72c0,2.89-2.51,5.41-5.6,5.61c-3.11,0.2-5.64-2-5.64-4.91
					c0-2.27,1.55-4.29,3.71-5.16l0-1.83c-3.21,0.99-5.59,3.85-5.6,7.11c0,3.89,3.38,6.83,7.53,6.55c4.12-0.27,7.46-3.63,7.46-7.48
					C139.76,179.81,137.35,177.22,134.11,176.64z"/>
				<path class="st21" d="M133.59,182.57c0,0.86-0.6,1.59-1.35,1.63l0,0c-0.74,0.05-1.35-0.61-1.35-1.47l0-6.01
					c0-0.86,0.6-1.59,1.35-1.63l0,0c0.74-0.04,1.35,0.62,1.35,1.47L133.59,182.57z"/>
			</g>
			<g class="st22">
				<linearGradient id="SVGID_14_" gradientUnits="userSpaceOnUse" x1="124.7714" y1="183.606" x2="139.7601" y2="183.606">
					<stop  offset="0" style="stop-color:#FFFFFF"/>
					<stop  offset="0.2084" style="stop-color:#FCFCFC"/>
					<stop  offset="0.3606" style="stop-color:#F3F3F3"/>
					<stop  offset="0.4948" style="stop-color:#E3E3E3"/>
					<stop  offset="0.6188" style="stop-color:#CCCCCC"/>
					<stop  offset="0.7357" style="stop-color:#AFAFAF"/>
					<stop  offset="0.8473" style="stop-color:#8C8C8C"/>
					<stop  offset="0.9527" style="stop-color:#626262"/>
					<stop  offset="1" style="stop-color:#4D4D4D"/>
				</linearGradient>
				<path class="st23" d="M134.11,176.64v1.83c2.2,0.58,3.79,2.42,3.79,4.72c0,2.89-2.51,5.41-5.6,5.61c-3.11,0.2-5.64-2-5.64-4.91
					c0-2.27,1.55-4.29,3.71-5.16l0-1.83c-3.21,0.99-5.59,3.85-5.6,7.11c0,3.89,3.38,6.83,7.53,6.55c4.12-0.27,7.46-3.63,7.46-7.48
					C139.76,179.81,137.35,177.22,134.11,176.64z"/>
				<linearGradient id="SVGID_15_" gradientUnits="userSpaceOnUse" x1="130.8934" y1="179.6479" x2="133.5886" y2="179.6479">
					<stop  offset="0" style="stop-color:#FFFFFF"/>
					<stop  offset="0.2084" style="stop-color:#FCFCFC"/>
					<stop  offset="0.3606" style="stop-color:#F3F3F3"/>
					<stop  offset="0.4948" style="stop-color:#E3E3E3"/>
					<stop  offset="0.6188" style="stop-color:#CCCCCC"/>
					<stop  offset="0.7357" style="stop-color:#AFAFAF"/>
					<stop  offset="0.8473" style="stop-color:#8C8C8C"/>
					<stop  offset="0.9527" style="stop-color:#626262"/>
					<stop  offset="1" style="stop-color:#4D4D4D"/>
				</linearGradient>
				<path class="st24" d="M133.59,182.57c0,0.86-0.6,1.59-1.35,1.63l0,0c-0.74,0.05-1.35-0.61-1.35-1.47l0-6.01
					c0-0.86,0.6-1.59,1.35-1.63l0,0c0.74-0.04,1.35,0.62,1.35,1.47L133.59,182.57z"/>
			</g>
		</g>
	</g>
	<g>
		<polygon points="33.74,190 19.53,182.01 19.53,135.11 33.74,138.49 		"/>
		<g>
			<polygon class="st25" points="33.74,140.31 19.81,136.88 19.81,135.51 33.74,138.8 			"/>
			<polygon class="st25" points="33.74,142.91 19.81,139.24 19.81,137.87 33.74,141.4 			"/>
			<polygon class="st25" points="33.74,145.51 19.81,141.59 19.81,140.23 33.74,144 			"/>
			<polygon class="st25" points="33.74,148.1 19.81,143.95 19.81,142.58 33.74,146.6 			"/>
			<polygon class="st25" points="33.74,150.7 19.81,146.31 19.81,144.94 33.74,149.19 			"/>
			<polygon class="st25" points="33.74,153.3 19.81,148.66 19.81,147.3 33.74,151.79 			"/>
			<polygon class="st25" points="33.74,155.9 19.81,151.02 19.81,149.65 33.74,154.39 			"/>
			<polygon class="st25" points="33.74,158.5 19.81,153.38 19.81,152.01 33.74,156.99 			"/>
			<polygon class="st25" points="33.74,161.1 19.81,155.73 19.81,154.37 33.74,159.59 			"/>
			<polygon class="st25" points="33.74,163.7 19.81,158.09 19.81,156.72 33.74,162.19 			"/>
			<polygon class="st25" points="33.74,166.29 19.81,160.45 19.81,159.08 33.74,164.79 			"/>
			<polygon class="st25" points="33.74,168.89 19.81,162.81 19.81,161.44 33.74,167.39 			"/>
			<polygon class="st25" points="33.74,171.49 19.81,165.16 19.81,163.79 33.74,169.98 			"/>
			<polygon class="st25" points="33.74,174.09 19.81,167.52 19.81,166.15 33.74,172.58 			"/>
			<polygon class="st25" points="33.74,176.69 19.81,169.88 19.81,168.51 33.74,175.18 			"/>
			<polygon class="st25" points="33.74,179.29 19.81,172.23 19.81,170.86 33.74,177.78 			"/>
			<polygon class="st25" points="33.74,181.89 19.81,174.59 19.81,173.22 33.74,180.38 			"/>
			<polygon class="st25" points="33.74,184.49 19.81,176.95 19.81,175.58 33.74,182.98 			"/>
			<polygon class="st25" points="33.74,187.08 19.81,179.3 19.81,177.93 33.74,185.58 			"/>
			<polygon class="st25" points="33.74,189.68 19.81,181.66 19.81,180.29 33.74,188.17 			"/>
		</g>
	</g>
</g>
</svg>
