<svg width="68" height="48" viewBox="0 0 68 48" fill="none" xmlns="http://www.w3.org/2000/svg">
<path d="M67.7458 42.3029C67.472 42.7845 67.4815 43.3795 67.1321 43.8611C66.9999 43.7383 66.8677 43.625 66.7449 43.5022C60.2385 37.0336 53.732 30.5744 47.2162 24.1152C46.9329 23.8414 46.7819 23.6808 47.1596 23.3031C53.7416 16.7872 60.3046 10.2619 66.8771 3.73665C66.9527 3.6611 67.0376 3.59501 67.1604 3.48169C67.3964 4.01051 67.6136 4.49211 67.6325 5.03982C67.7553 5.24757 67.5947 5.51198 67.7458 5.71974C67.7458 17.911 67.7458 30.1117 67.7458 42.3029Z" fill="#FF5A50"/>
<path d="M67.7457 5.71974C67.5569 5.52143 67.5946 5.27591 67.6324 5.03983C67.6702 5.03983 67.7079 5.04926 67.7457 5.0587C67.7457 5.28534 67.7457 5.50255 67.7457 5.71974Z" fill="#FF5A50"/>
<path d="M4.01306 0.677045C4.88184 0.242655 5.76014 0.0821152 6.68558 0.0821152C9.54688 0.0821152 12.4082 0.0821152 15.2695 0.0821152C30.6525 0.0821152 46.0356 0.0821152 61.4281 0.0821152C62.4291 0.0821152 63.3829 0.214321 64.2894 0.658154C64.2517 0.875349 64.0628 0.969778 63.9306 1.11143C55.4883 9.51592 47.046 17.911 38.6037 26.3155C36.7906 28.1191 34.6753 28.7518 32.2012 27.9397C31.2852 27.6375 30.5297 27.0898 29.8592 26.4288C21.332 17.9582 12.8142 9.47816 4.29641 0.998112C4.20197 0.894236 4.12638 0.799807 4.01306 0.677045Z" fill="#FF5A50"/>
<path d="M64.2989 46.7034C63.3924 47.1567 62.4386 47.2889 61.447 47.2889C51.5033 47.2795 41.5689 47.2889 31.6252 47.2889C23.3718 47.2889 15.1089 47.2889 6.85552 47.2889C5.88287 47.2889 4.94801 47.1473 4.0509 46.7224C4.10756 46.4674 4.32472 46.3446 4.48526 46.1841C10.9256 39.7721 17.3754 33.379 23.8157 26.9576C24.1934 26.5799 24.3917 26.4949 24.8166 26.9293C25.8743 28.0341 26.8941 29.1768 28.1028 30.1211C32.1068 33.2279 37.4989 32.8502 41.2101 29.2334C42.0411 28.4213 42.8532 27.6092 43.6653 26.7782C43.8825 26.5515 44.0242 26.476 44.2886 26.7404C50.9178 33.3413 57.547 39.9232 64.1762 46.5146C64.2328 46.5713 64.2611 46.6373 64.2989 46.7034Z" fill="#FF5A50"/>
<path d="M1.19918 43.8894C0.783674 43.0206 0.604248 42.1518 0.604248 41.2453C0.604248 29.5356 0.604248 17.826 0.604248 6.1258C0.604248 5.21924 0.783656 4.35046 1.18027 3.5289C1.40691 3.595 1.5297 3.79331 1.68079 3.94441C8.13998 10.3658 14.5992 16.7872 21.0773 23.1898C21.4928 23.5958 21.4833 23.7847 21.0773 24.1907C14.5992 30.5933 8.14942 37.0241 1.68079 43.4361C1.53914 43.5683 1.38804 43.7005 1.19918 43.8894Z" fill="#FF5A50"/>
</svg>
