<svg width="46" height="36" viewBox="0 0 46 36" fill="none" xmlns="http://www.w3.org/2000/svg">
<path d="M38.3306 10.6799C38.3206 12.8399 36.5506 14.5999 34.3806 14.5899C32.2106 14.5799 30.4406 12.7899 30.4706 10.6399C30.5006 8.4699 32.2706 6.7299 34.4406 6.7499C36.5806 6.7699 38.3306 8.5399 38.3306 10.6799Z" fill="#FF5A50"/>
<path d="M45.5005 3.05989C45.5005 1.87989 44.9505 1.05989 43.9405 0.51989C43.4505 0.25989 42.9205 0.19989 42.3705 0.19989C29.4505 0.19989 16.5405 0.19989 3.62048 0.19989C1.91048 0.19989 0.920508 0.979888 0.520508 2.61989V32.9899C0.610508 33.4599 0.720486 33.9199 1.06049 34.3099C1.72049 35.0499 2.52046 35.4199 3.53046 35.4199C16.5005 35.4099 29.4805 35.4199 42.4505 35.4099C44.3105 35.4099 45.4905 34.2199 45.4905 32.3699V11.2599C45.5005 8.52989 45.4905 5.79989 45.5005 3.05989ZM42.6005 23.3399V23.8199C42.4305 23.8699 42.3805 23.7299 42.3005 23.6599C40.6105 22.1299 38.9205 20.5899 37.2305 19.0599C36.0205 17.9599 34.9305 17.9899 33.7805 19.1399C32.0605 20.8599 30.3405 22.5699 28.6305 24.2999C28.3905 24.5399 28.2905 24.5599 28.0505 24.2799C24.4705 19.9899 20.8905 15.7099 17.3005 11.4299C16.5505 10.5299 15.7305 10.2399 14.8005 10.5299C14.3505 10.6699 14.0205 10.9599 13.7105 11.3099C10.5405 14.9999 7.36048 18.6899 4.18048 22.3799C3.93048 22.6699 3.69046 22.9499 3.35046 23.3399V22.7899C3.35046 16.4299 3.36045 10.0599 3.34045 3.69989C3.34045 3.26989 3.45048 3.16989 3.87048 3.16989C16.5905 3.17989 29.3205 3.17989 42.0505 3.16989C42.5105 3.16989 42.5905 3.28989 42.5905 3.71989C42.6005 10.2599 42.6005 16.7999 42.6005 23.3399Z" fill="#FF5A50"/>
<path d="M38.3306 10.6799C38.3206 12.8399 36.5506 14.5999 34.3806 14.5899C32.2106 14.5799 30.4406 12.7899 30.4706 10.6399C30.5006 8.4699 32.2706 6.7299 34.4406 6.7499C36.5806 6.7699 38.3306 8.5399 38.3306 10.6799Z" fill="#FF5A50"/>
<path d="M38.3306 10.6799C38.3206 12.8399 36.5506 14.5999 34.3806 14.5899C32.2106 14.5799 30.4406 12.7899 30.4706 10.6399C30.5006 8.4699 32.2706 6.7299 34.4406 6.7499C36.5806 6.7699 38.3306 8.5399 38.3306 10.6799Z" fill="#FF5A50"/>
</svg>
