<?xml version="1.0" encoding="utf-8"?>
<!-- Generator: Adobe Illustrator 24.3.0, SVG Export Plug-In . SVG Version: 6.00 Build 0)  -->
<svg version="1.1" id="Layer_1" xmlns="http://www.w3.org/2000/svg" xmlns:xlink="http://www.w3.org/1999/xlink" x="0px" y="0px"
	 viewBox="0 0 2842 3098.6" style="enable-background:new 0 0 2842 3098.6;" xml:space="preserve">
<style type="text/css">
	.st0{fill:#E9CA32;}
	.st1{fill:#FFDE25;}
	.st2{fill:#FFFFFF;}
	.st3{fill:#131313;}
</style>
<g>
	<g>
		<path class="st0" d="M512.3,2840.9L329.5,607l2183,4.5l-193.3,2229.5l-890,257.7L512.3,2840.9z"/>
		<path class="st1" d="M1429.2,2882.9V819.7l899,3l-160.3,1845.9L1429.2,2882.9z"/>
		<g>
			<path class="st2" d="M1333,1064.7h-237.7v1373.2l-184.9-35.2v-184.9l-220.1-35.2v413.7l642.6,167.2V1064.7z M1511.2,1064.7h657.9
				l-44,263.2h-362.8v431.9h362.8l-44,871.7l-569.9,132v-272.9l385.1-132l22.2-360.9l-407.3,59V1064.7z"/>
		</g>
	</g>
	<g>
		<path class="st3" d="M0,346.2c31.4-3.3,63.1,0.2,94.5-5.5c21.6-3.9,34.9-12.2,39.5-36.8c8.7-46.4,8.7-92.7,6.5-139.3
			c-1-22-3.8-44-5-66c-0.4-8.5-3.3-11.2-11.7-10.9c-21,0.9-42.1,0.8-63.2,1.7c-8.6,0.4-12.9-1.1-12-11.3c1.5-17.5,1.9-35.1,2.2-52.6
			c0.1-6.4,2-8.6,8.6-8.5c57.2,0.5,114.4,0.7,171.6,0.8c5.7,0,9.3,0.4,9,8c-3.2,76.2,5.1,152.4,1,228.7
			c-1.4,26.6-5.2,52.8-10.4,78.9c-10,50.9-46.5,72.1-92.5,81.8c-40.1,8.4-80.9,5.4-121.5,5.8c-8.3,0.1-8.3-5-9.3-10.4
			C4.8,397,7.1,382.8,0,370.2C0,362.2,0,354.2,0,346.2z"/>
		<path class="st3" d="M2238.6,65.9c-1-22-1.5-44-2.2-65.9c-5,0-10,0-15.1,0c-12,0-24.1,0-36.1,0c-11,0-22.1,0-33.1,0
			c-6,0-12,0-18.1,0c0.1,1.1,0.2,2.2,0.4,3.2c-0.2,21-0.3,42-0.9,62.9c-0.2,7,1.7,9.6,9.1,9.5c29-0.4,58-0.4,87,0
			C2237.1,75.7,2238.9,72.9,2238.6,65.9z"/>
		<path class="st3" d="M1559.4,122.4c-34.3-12.5-65.6-27.3-99.7-33.6c-15.2-2.8-30.5-5.5-46.2-2.7c-28.3,5-45.6,20.9-52.8,48.6
			c-2.3,8.8-0.7,13.2,8.8,15.7c35.3,9.3,70.8,17.9,105.2,30.1c10.8,3.8,21.7,7.8,32.1,12.5c55.6,25.2,77.4,74,60.3,133
			c-15.2,52.6-55,76.6-103.9,89.1c-52.5,13.5-104.5,3.8-156.2-6.7c-13.7-2.8-31.3-2.1-39.7-10.4c-7.7-7.7-5.7-25.3-7.6-38.6
			c-2.6-18.3-4.9-36.7-7.3-55.1c-0.1-0.8,0.6-1.8,1.1-3.3c34.5,14.6,68.1,31.2,104.5,40.7c21.9,5.7,43.9,10.3,66.7,5.1
			c26-6,45-25.9,50-52.1c1.6-8.2-2.2-10.2-8.9-12.1c-30.8-8.6-61.5-17.6-92.3-26.5c-20.2-5.8-39.3-14.3-58.1-23.8
			c-42.4-21.6-55.2-57.8-53-102.2c2.9-57.2,38.6-87.7,87.8-106.2c50.4-19,101.6-12.3,152.5-1.6c15.7,3.3,31.1,7.6,46.7,11.1
			c6.7,1.5,10.1,3.9,9.9,11.9C1559,70.1,1559.4,95.2,1559.4,122.4z"/>
		<path class="st3" d="M2593.8,222.7c-3.8-31.9-13.9-61.9-37.9-84.7c-19.8-18.8-41.9-30.1-71.8-24.1
			c-56.9,11.3-114.4,13.6-171.7,1.3c-8-1.7-10.1,0.2-10.1,8.5c0.2,129.4,0.1,258.7-0.1,388c0,7.1,0.7,11,9.5,10.9
			c25.1-0.3,50.1,0.3,75.2,1.1c7,0.2,9.7-1.6,9.4-9.1c-0.6-14.5-0.2-29.1-0.2-43.6h-0.8c0-14,0.5-28.1-0.2-42.1
			c-0.5-8.9,1.2-12.1,11.3-11.5c20,1.3,40.1,1.7,60.1,0.6c51.1-2.7,92.2-21.4,111.9-72.9C2593.8,305.5,2598.8,264.6,2593.8,222.7z
			 M2495.1,302.7c-3.7,26.5-13.5,37.8-39.9,43.4c-19,4-38.4,6.3-58,9.5c0-54.4,0.1-107.9-0.1-161.5c0-6.3,2.1-8.9,8.6-9
			c25.6-0.3,51.1-1,76.7-1.6c3.9-0.1,6.5,0.4,7,5.4C2492.7,226.8,2500.4,264.4,2495.1,302.7z"/>
		<path class="st3" d="M1199.6,183.5c-2.7-25.8-17.4-40.5-36.6-53.1c-9.6-6.3-20.2-10.9-31.3-14.2c-53.6-15.9-107.2-7.5-160.8,0
			c-4.5,0.6-6.7,3-8.1,7.4c-6.6,20.3-13.7,40.5-20.6,60.7c6.3,2.5,11.3,0.9,16.2,0.5c32.4-2.6,64.5-10.1,97.2-7.2
			c25.9,2.2,47.9,11.7,65.1,34.5c-44.7,8.8-88,11.4-128.6,27.1c-53.9,20.9-73,55.2-63.3,112c5.2,30.5,22.4,50.8,51,61.2
			c36.2,13.2,71.9,9.5,106.8-5c7.8-3.2,14.9-4.1,23.2-2.8c26.2,4,52.8,6.2,78.8,11.3c15.1,3,15.7-2.8,15.6-14.8
			c-0.3-35.1,0.8-70.1,1-105.2C1205.2,258.4,1203.6,221,1199.6,183.5z M1110.2,283.4c-2.4,20.4-4.2,40.8-5.6,61.3
			c-0.5,7.9-3.5,10.2-11.2,9.7c-10-0.7-20-0.2-30-0.2v-1.7c-7.5,0-15,0.1-22.5,0c-18.9-0.3-18.8-0.3-16.3-18.4
			c1.6-11.4,3.9-22.8,4-34.2c0.1-10.5,3.6-14.7,14.2-16c19.3-2.3,38.5-5.9,57.7-9.4C1108.5,273,1111.2,274.8,1110.2,283.4z"/>
		<path class="st3" d="M566.5,282.9c0.1-32.1-1.8-64-5.6-96c-2.9-24.3-15.6-40.5-33.8-54c-16-11.9-34.4-18.2-53.9-21.5
			c-50.3-8.4-100,1.5-149.9,4.5c-5.7,0.3-7.5,2.8-7.7,8.4c-0.7,17.5-1.9,35.1-3.2,52.6c-0.6,7,0.6,9.9,8.8,8.5
			c17.8-2.9,35.7-5,53.7-6.7c39.5-3.7,77.1-0.3,109.4,31.2c-6.9,1.6-11.8,2.8-16.6,3.8c-34.3,7.1-69.2,11.4-102.9,21.3
			c-22.2,6.5-44.2,13.4-59,33.3c-22.9,30.5-24.4,82-2.2,114.9c19,28.2,53.8,48,98.9,33.9c30.2-9.5,60.9-15.4,93-10
			c19.7,3.3,40,3.4,59.8,6c8.8,1.1,10.9-1.1,10.8-9.8C565.8,363.2,566.4,323,566.5,282.9z M473.1,283.2c-1.9,19.5-3.2,39-4.5,58.5
			c-0.5,7.5-3.6,10.2-11.2,10.3c-17.5,0.4-35.1,1.6-52.6,2.6c-11.9,0.7-26.6,4.1-17.6-12.5c1.6-13.4,2.8-22.3,3.7-31.3
			c2.6-27.5,2.5-27.5,29.4-30.4c14.5-1.6,29-2.7,43.3-4.8C470.5,274.6,473.9,274.8,473.1,283.2z"/>
		<path class="st3" d="M602.2,108c30.3,5.9,58.6,11.7,87,16.9c7.6,1.4,9.3,6.8,11.4,12.3c17.3,46.4,34.4,92.8,51.6,139.1
			c2.4,6.5,5.1,12.9,8.4,21.1c7.9-15.2,11.2-30.3,15.8-44.8c13.1-42,26-84,38.1-126.3c2.6-9.1,6.3-11.8,15.4-11.7
			c24.1,0.3,48.1,0,72.2-0.8c8.2-0.3,9.1,2.2,6.8,9.3C877,221.6,842,318.9,803.7,415c-2.9,7.3-6.5,7.9-13.5,7
			c-26.4-3.4-52-10.2-77.8-16.3c-7-1.6-8.9-6.9-11.4-12.4C659.2,302.1,631.5,206.1,602.2,108z"/>
		<path class="st3" d="M2743.9,240.2c-2.7,32.1-3.7,64.1,8.6,94.9c3.7,9.2,8,14.3,19.2,14.7c20,0.6,39.9,4,59.8,5.4
			c8.5,0.6,10.9,3.4,10.3,11.9c-2.1,31.7-23.6,52.6-57.2,54c-33.1,1.4-64.4-7.9-95.6-16.9c-26.7-7.6-27.2-7.7-29.7-35.1
			c-4.4-49-5.5-98.1-5.9-147.2c-0.1-9.5-2.3-17.3-8-24.9c-11.7-15.6-22.4-32-34.1-47.6c-4.5-6-5.3-10.3,1.5-14.5
			c35.3-21.7,48.6-53.1,41.7-93.6c-1.4-8.2,1.8-11.3,10.6-11.1c21.5,0.6,43.1,0.8,64.7,0c10-0.4,11.7,3.9,11.7,12.3
			c0.1,19,1.4,38.1,1.2,57.1c-0.1,10.6,2.5,15,14.3,14.5c21.5-1,43.1,0.4,64.6-0.1c8.8-0.2,11,2.8,10.8,11.1
			c-0.4,15.5,0,31.1,0.8,46.6c0.4,7.4-2,9.4-9.2,9.2c-23-0.6-46.1-0.2-69.2-0.9c-8.2-0.2-11.6,1.7-11.2,10.6
			C2744.4,207.2,2743.9,223.7,2743.9,240.2z"/>
		<path class="st3" d="M1865.5,209.5c-23.5-9-44.2-17.4-65.3-24.8c-22.1-7.8-44.6-11-67.8-4.4c-7.6,2.2-13.7,6-18.2,12.4
			c-27,38.9-32,80.7-12.7,123.8c14.4,32.2,46.6,44.5,80.2,33.8c24.8-7.9,49.7-15.4,74.3-23.7c9-3.1,11.9-1.7,9.7,8.1
			c-4.7,21-9.2,42.1-13.2,63.2c-1.3,6.7-4.3,10-10.6,12.7c-64.3,28.1-153.6,11.3-205.5-35.4c-55-49.5-54.2-156.6-10.3-207.8
			c51.8-60.3,148.1-79.4,217.7-41c8.5,4.7,13.5,9.7,14.2,20.5C1859.1,166.7,1862.6,186.4,1865.5,209.5z"/>
		<path class="st3" d="M1905.6,260.8c0-46.1,0.5-92.3-0.3-138.4c-0.2-14.1,3.6-15.3,16-11.6c27.8,8.4,56.1,14.8,84,22.9
			c8.3,2.4,15.3,2,23.2-1c20.6-7.7,41.6-14.4,62.1-22.3c8.5-3.3,10.2-1.1,10.5,7.1c0.9,24,2,48.1,4,72.1c0.8,9.3-1.5,12.1-11,12.2
			c-26.6,0.5-53.1,2.6-79.7,3c-10.1,0.2-13.8,3-13.9,13.6c-0.6,60.7-2.3,121.3-2.6,182c-0.1,12.7-3.7,16-16,15.4
			c-20.5-0.9-41.1-0.5-61.7,0.4c-10.9,0.5-15.5-1.5-15.2-14.2c0.9-47.1,0.3-94.3,0.3-141.4C1905.3,260.8,1905.4,260.8,1905.6,260.8z
			"/>
		<path class="st3" d="M2142.8,264.8c0-46.1,0.2-92.1-0.2-138.2c-0.1-9.3,1.8-13,12.1-12.6c21.5,0.9,43.1,0.5,64.6,0.1
			c7.6-0.2,10.5,1.9,10.4,10c-0.2,94.1-0.3,188.3,0,282.4c0,8.7-3.9,9.6-11,9.5c-21.5-0.3-43.1-0.6-64.6,0.1
			c-9.4,0.3-11.7-2.5-11.6-11.6C2143,358,2142.8,311.4,2142.8,264.8z"/>
	</g>
</g>
</svg>
