<svg width="57" height="56" viewBox="0 0 57 56" fill="none" xmlns="http://www.w3.org/2000/svg">
<g clip-path="url(#clip0_45_14)">
<path d="M0.5 0H56.5V56H0.5V0Z" fill="url(#paint0_linear_45_14)"/>
<path d="M43.0853 30.0246L43.3541 28.132C45.8325 29.6166 45.8649 30.2298 45.8643 30.2466C45.8599 30.2501 45.4373 30.603 43.0853 30.0246ZM41.7251 29.6466C37.4411 28.3503 31.4751 25.6133 29.0608 24.4723C29.0608 24.4624 29.0636 24.4535 29.0636 24.4436C29.0636 23.5161 28.3089 22.7614 27.3808 22.7614C26.4539 22.7614 25.6992 23.5161 25.6992 24.4436C25.6992 25.3711 26.4539 26.1258 27.3808 26.1258C27.7881 26.1258 28.1578 25.9738 28.4496 25.7321C31.2903 27.0769 37.2101 29.7741 41.5256 31.0481L39.8191 43.0923C39.8141 43.1251 39.8121 43.1579 39.8121 43.1909C39.8121 44.2514 35.1171 46.1996 27.4457 46.1996C19.6932 46.1996 14.9485 44.2514 14.9485 43.1909C14.9486 43.1591 14.9465 43.1273 14.9424 43.0958L11.3768 17.051C14.4629 19.1755 21.1011 20.2994 27.4501 20.2994C33.7893 20.2994 40.4161 19.1794 43.5085 17.0615L41.7251 29.6466ZM11.0001 14.3341C11.0504 13.4132 16.3437 9.79941 27.4501 9.79941C38.5547 9.79941 43.8489 13.4123 43.9001 14.3341V14.6484C43.2911 16.7141 36.4311 18.8996 27.4501 18.8996C18.4536 18.8996 11.5901 16.7071 11.0001 14.6386V14.3341ZM45.3001 14.3494C45.3001 11.9241 38.346 8.39941 27.4501 8.39941C16.5537 8.39941 9.6001 11.9241 9.6001 14.3494L9.66572 14.8775L13.5494 43.2441C13.6426 46.4166 22.1025 47.5994 27.4457 47.5994C34.076 47.5994 41.1202 46.0749 41.2112 43.2463L42.8886 31.4185C43.8216 31.6416 44.5896 31.7558 45.2062 31.7558C46.0342 31.7558 46.5942 31.5534 46.9337 31.149C47.2124 30.8171 47.3187 30.4153 47.2391 29.9874C47.0575 29.0188 45.9076 27.9745 43.5654 26.6381L45.2286 14.9046L45.3001 14.3494Z" fill="white"/>
</g>
<defs>
<linearGradient id="paint0_linear_45_14" x1="0.5" y1="5600" x2="5600.5" y2="0" gradientUnits="userSpaceOnUse">
<stop stop-color="#1B660F"/>
<stop offset="1" stop-color="#6CAE3E"/>
</linearGradient>
<clipPath id="clip0_45_14">
<rect width="56" height="56" fill="white" transform="translate(0.5)"/>
</clipPath>
</defs>
</svg>
