<svg width="65" height="64" viewBox="0 0 65 64" fill="none" xmlns="http://www.w3.org/2000/svg">
<g clip-path="url(#clip0_45_19)">
<path d="M0.5 0H64.5V64H0.5V0Z" fill="url(#paint0_linear_45_19)"/>
<path d="M44.5976 41.6986C44.5976 40.3754 43.5208 39.2986 42.1976 39.2986C40.8746 39.2986 39.7976 40.3754 39.7976 41.6986C39.7976 43.0216 40.8746 44.0986 42.1976 44.0986C43.5208 44.0986 44.5976 43.0216 44.5976 41.6986ZM46.1976 41.6986C46.1976 43.9041 44.4033 45.6986 42.1976 45.6986C39.9921 45.6986 38.1976 43.9041 38.1976 41.6986C38.1976 39.4929 39.9921 37.6986 42.1976 37.6986C44.4033 37.6986 46.1976 39.4929 46.1976 41.6986ZM24.8136 30.1536C24.8136 28.8306 23.7368 27.7536 22.4136 27.7536C21.0896 27.7536 20.0136 28.8306 20.0136 30.1536C20.0136 31.4768 21.0896 32.5536 22.4136 32.5536C23.7368 32.5536 24.8136 31.4768 24.8136 30.1536ZM26.4136 30.1536C26.4136 32.3593 24.6186 34.1536 22.4136 34.1536C20.2081 34.1536 18.4136 32.3593 18.4136 30.1536C18.4136 27.9481 20.2081 26.1536 22.4136 26.1536C24.6186 26.1536 26.4136 27.9481 26.4136 30.1536ZM32.2841 17.6056C32.2841 18.9288 33.3608 20.0056 34.6841 20.0056C36.0081 20.0056 37.0841 18.9288 37.0841 17.6056C37.0841 16.2816 36.0081 15.2056 34.6841 15.2056C33.3608 15.2056 32.2841 16.2816 32.2841 17.6056ZM30.6841 17.6056C30.6841 15.4001 32.4791 13.6056 34.6841 13.6056C36.8896 13.6056 38.6841 15.4001 38.6841 17.6056C38.6841 19.8113 36.8896 21.6056 34.6841 21.6056C32.4791 21.6056 30.6841 19.8113 30.6841 17.6056ZM53.3001 32.0001C53.3001 24.5816 49.3226 17.7186 42.9096 14.0073C41.7601 14.2393 40.6481 14.5568 39.2609 15.0586L38.7169 13.5536C39.375 13.3148 40.0407 13.0971 40.7129 12.9011C38.1195 11.7812 35.3249 11.2024 32.5001 11.2001C31.1488 11.2001 29.8193 11.3401 28.5201 11.5936C29.4608 12.1441 30.2951 12.6928 31.1056 13.3073L30.1386 14.5816C28.9961 13.7161 27.8121 12.9826 26.2576 12.1681C18.4026 14.6386 12.7451 21.5666 11.8466 29.7026C13.4936 29.3688 15.0753 29.1873 16.8313 29.1441L16.8706 30.7433C15.0306 30.7888 13.4496 30.9841 11.7216 31.3641C11.7146 31.5761 11.7001 31.7906 11.7001 32.0001C11.7001 38.9266 15.1266 45.3088 20.7616 49.1576C19.7591 46.1729 19.2601 43.3521 19.2601 40.5968C19.2601 39.0256 19.5306 37.7353 19.8161 36.3696C19.8826 36.0536 19.9496 35.7321 20.0153 35.3986L21.5856 35.7081C21.5186 36.0473 21.4496 36.3761 21.3826 36.6986C21.1026 38.0361 20.8601 39.1911 20.8601 40.5968C20.8601 43.7233 21.5466 46.9561 22.9433 50.4666C25.9183 52.0113 29.1313 52.8001 32.5001 52.8001C34.7051 52.8001 36.8568 52.4481 38.9096 51.7713C39.7154 50.1816 40.3129 48.6816 40.8121 46.9594L42.3489 47.4048C41.9999 48.6107 41.5718 49.7921 41.0674 50.9416C42.3586 50.3608 43.5801 49.6426 44.7266 48.8041C44.4506 48.1273 44.1546 47.4546 43.8274 46.7991L45.2586 46.0833C45.5369 46.6401 45.7921 47.2096 46.0361 47.7826C50.6641 43.8201 53.3001 38.1281 53.3001 32.0001ZM54.9001 32.0001C54.9001 38.9816 51.7274 45.4393 46.1968 49.7193C44.8274 50.7833 43.3419 51.6666 41.7714 52.3776C41.1049 52.6801 40.4263 52.9601 39.7288 53.1951C37.4248 53.9946 34.9906 54.4001 32.5001 54.4001C28.8201 54.4001 25.1656 53.4833 21.9306 51.7488C14.6336 47.8451 10.1001 40.2776 10.1001 32.0001C10.1001 31.4513 10.1146 31.0336 10.1473 30.6473C10.6921 21.3001 17.1048 13.2098 26.1008 10.5328C28.1496 9.9146 30.3041 9.6001 32.5001 9.6001C36.3466 9.6001 40.1314 10.5906 43.4474 12.4633C50.5106 16.4201 54.9001 23.9073 54.9001 32.0001ZM30.3513 20.3706L29.3001 19.1648C27.5066 20.7298 26.1113 22.3913 24.4816 24.9008L25.8241 25.7721C27.3666 23.3953 28.6786 21.8306 30.3513 20.3706ZM27.9201 30.7416L27.4001 32.2546C31.0746 33.5161 34.2801 35.5288 37.4874 38.5888L38.5921 37.4313C35.2113 34.2063 31.8201 32.0808 27.9201 30.7416ZM38.6168 21.3346C41.6186 25.9121 43.3089 30.9371 43.6401 36.2706L42.0434 36.3696C41.7289 31.3171 40.1266 26.5536 37.2801 22.2121L38.6168 21.3346Z" fill="white"/>
</g>
<defs>
<linearGradient id="paint0_linear_45_19" x1="0.5" y1="6400" x2="6400.5" y2="0" gradientUnits="userSpaceOnUse">
<stop stop-color="#4D27A8"/>
<stop offset="1" stop-color="#A166FF"/>
</linearGradient>
<clipPath id="clip0_45_19">
<rect width="64" height="64" fill="white" transform="translate(0.5)"/>
</clipPath>
</defs>
</svg>
