<svg width="152" height="151" viewBox="0 0 152 151" fill="none" xmlns="http://www.w3.org/2000/svg">
<path d="M76.0706 95.591C50.8111 95.591 30.3343 75.4757 30.3343 50.6624C30.3343 25.849 50.8111 5.73389 76.0706 5.73389C101.33 5.73389 121.807 25.8492 121.807 50.6624C121.807 75.4758 101.33 95.591 76.0706 95.591ZM76.0706 14.7734C55.9257 14.7734 39.5371 30.8729 39.5371 50.6626C39.5371 70.4521 55.9257 86.5518 76.0706 86.5518C96.2164 86.5518 112.605 70.4521 112.605 50.6626C112.605 30.8729 96.2164 14.7734 76.0706 14.7734ZM138.918 145.266H135.034C133.602 145.266 132.395 144.242 132.157 142.855C131.764 140.58 131.225 138.354 130.503 136.226C126.826 123.296 118.429 112.024 106.886 104.631C97.4997 109.822 86.9602 112.54 76.0706 112.54C65.1522 112.54 54.5872 109.807 45.1831 104.589C33.605 111.981 25.1811 123.269 21.4978 136.227C21.4978 136.227 20.7715 138.906 19.747 143.069C19.4299 144.355 18.2574 145.266 16.9101 145.266H13.0822C11.6846 145.266 10.6043 144.055 10.7858 142.693C13.6113 121.52 26.8818 103.587 45.3491 94.0232C54.0597 99.9912 64.6453 103.5 76.0706 103.5C87.4704 103.5 98.0346 100.008 106.735 94.0639C125.16 103.639 138.394 121.551 141.214 142.692C141.396 144.055 140.316 145.266 138.918 145.266Z" fill="#FF5A50"/>
</svg>
