<svg width="320" height="90" viewBox="0 0 320 90" fill="none" xmlns="http://www.w3.org/2000/svg">
<path d="M112.45 45.675L116.8 30.87H121.81L115.15 51H110.08L103.54 30.87H108.61L112.87 45.675H112.45ZM127.736 34.32C126.826 34.32 126.121 34.09 125.621 33.63C125.131 33.16 124.886 32.5 124.886 31.65C124.886 30.82 125.131 30.16 125.621 29.67C126.121 29.17 126.826 28.92 127.736 28.92C128.616 28.92 129.311 29.17 129.821 29.67C130.331 30.16 130.586 30.82 130.586 31.65C130.586 32.5 130.331 33.16 129.821 33.63C129.311 34.09 128.616 34.32 127.736 34.32ZM125.336 51V36.135H130.136V51H125.336ZM141.367 51.48C139.957 51.48 138.712 51.295 137.632 50.925C136.552 50.545 135.707 49.98 135.097 49.23C134.497 48.47 134.202 47.515 134.212 46.365H138.547C138.567 46.885 138.767 47.245 139.147 47.445C139.537 47.645 140.062 47.745 140.722 47.745C141.122 47.745 141.452 47.695 141.712 47.595C141.972 47.495 142.167 47.365 142.297 47.205C142.427 47.035 142.492 46.855 142.492 46.665C142.492 46.415 142.402 46.215 142.222 46.065C142.042 45.915 141.762 45.765 141.382 45.615L137.797 44.22C136.737 43.78 135.917 43.225 135.337 42.555C134.767 41.875 134.482 41.07 134.482 40.14C134.482 38.83 135.087 37.77 136.297 36.96C137.507 36.15 139.162 35.745 141.262 35.745C143.232 35.745 144.747 36.205 145.807 37.125C146.867 38.045 147.402 39.215 147.412 40.635H143.017C143.017 40.315 142.882 40.04 142.612 39.81C142.342 39.57 141.892 39.45 141.262 39.45C140.742 39.45 140.332 39.535 140.032 39.705C139.732 39.875 139.582 40.1 139.582 40.38C139.582 40.76 139.897 41.06 140.527 41.28L144.607 42.915C145.617 43.315 146.412 43.815 146.992 44.415C147.572 45.015 147.862 45.765 147.862 46.665C147.862 47.485 147.577 48.265 147.007 49.005C146.447 49.735 145.677 50.33 144.697 50.79C143.717 51.25 142.607 51.48 141.367 51.48ZM159.181 51.48C157.421 51.48 155.871 51.085 154.531 50.295C153.201 49.505 152.161 48.33 151.411 46.77C150.661 45.21 150.286 43.275 150.286 40.965C150.286 38.645 150.656 36.705 151.396 35.145C152.146 33.585 153.191 32.41 154.531 31.62C155.871 30.82 157.421 30.42 159.181 30.42C161.721 30.42 163.656 31.02 164.986 32.22C166.316 33.42 167.106 34.975 167.356 36.885L162.256 37.77C162.026 36.91 161.661 36.2 161.161 35.64C160.671 35.07 160.011 34.785 159.181 34.785C158.441 34.785 157.786 35.01 157.216 35.46C156.656 35.9 156.221 36.575 155.911 37.485C155.601 38.395 155.446 39.555 155.446 40.965C155.446 42.345 155.606 43.49 155.926 44.4C156.246 45.3 156.686 45.97 157.246 46.41C157.816 46.85 158.461 47.07 159.181 47.07C160.211 47.07 160.981 46.8 161.491 46.26C162.001 45.71 162.256 45.045 162.256 44.265H167.326C167.326 45.815 167.011 47.13 166.381 48.21C165.761 49.28 164.846 50.095 163.636 50.655C162.426 51.205 160.941 51.48 159.181 51.48ZM177.489 51.48C176.119 51.48 174.859 51.2 173.709 50.64C172.569 50.07 171.654 49.21 170.964 48.06C170.284 46.9 169.944 45.43 169.944 43.65C169.944 41.81 170.284 40.31 170.964 39.15C171.654 37.99 172.569 37.135 173.709 36.585C174.859 36.025 176.119 35.745 177.489 35.745C178.829 35.745 180.064 36.025 181.194 36.585C182.324 37.135 183.229 37.99 183.909 39.15C184.599 40.31 184.944 41.81 184.944 43.65C184.944 45.43 184.599 46.9 183.909 48.06C183.229 49.21 182.324 50.07 181.194 50.64C180.064 51.2 178.829 51.48 177.489 51.48ZM177.309 47.295C177.769 47.295 178.214 47.175 178.644 46.935C179.084 46.695 179.449 46.31 179.739 45.78C180.029 45.24 180.174 44.53 180.174 43.65C180.174 42.28 179.929 41.315 179.439 40.755C178.949 40.195 178.359 39.915 177.669 39.915C177.209 39.915 176.749 40.035 176.289 40.275C175.839 40.515 175.464 40.91 175.164 41.46C174.874 42 174.729 42.73 174.729 43.65C174.729 44.98 174.984 45.92 175.494 46.47C176.014 47.02 176.619 47.295 177.309 47.295ZM208.162 51V42.39C208.162 41.61 207.972 41.035 207.592 40.665C207.222 40.285 206.757 40.095 206.197 40.095C205.377 40.095 204.707 40.45 204.187 41.16C203.667 41.86 203.407 43.065 203.407 44.775H201.517C201.517 43.005 201.677 41.54 201.997 40.38C202.317 39.21 202.757 38.29 203.317 37.62C203.877 36.94 204.517 36.46 205.237 36.18C205.967 35.89 206.742 35.745 207.562 35.745C208.822 35.745 209.852 36.03 210.652 36.6C211.462 37.17 212.057 37.955 212.437 38.955C212.827 39.955 213.022 41.1 213.022 42.39V51H208.162ZM188.797 51V36.225H193.027L193.537 38.31C194.047 37.42 194.682 36.77 195.442 36.36C196.212 35.95 197.047 35.745 197.947 35.745C199.217 35.745 200.252 36.03 201.052 36.6C201.862 37.17 202.457 37.955 202.837 38.955C203.217 39.955 203.407 41.1 203.407 42.39V51H198.577V42.39C198.577 41.61 198.387 41.035 198.007 40.665C197.627 40.285 197.167 40.095 196.627 40.095C196.077 40.095 195.572 40.25 195.112 40.56C194.652 40.87 194.282 41.37 194.002 42.06C193.732 42.74 193.597 43.645 193.597 44.775V51H188.797ZM237.048 51V42.39C237.048 41.61 236.858 41.035 236.478 40.665C236.108 40.285 235.643 40.095 235.083 40.095C234.263 40.095 233.593 40.45 233.073 41.16C232.553 41.86 232.293 43.065 232.293 44.775H230.403C230.403 43.005 230.563 41.54 230.883 40.38C231.203 39.21 231.643 38.29 232.203 37.62C232.763 36.94 233.403 36.46 234.123 36.18C234.853 35.89 235.628 35.745 236.448 35.745C237.708 35.745 238.738 36.03 239.538 36.6C240.348 37.17 240.943 37.955 241.323 38.955C241.713 39.955 241.908 41.1 241.908 42.39V51H237.048ZM217.683 51V36.225H221.913L222.423 38.31C222.933 37.42 223.568 36.77 224.328 36.36C225.098 35.95 225.933 35.745 226.833 35.745C228.103 35.745 229.138 36.03 229.938 36.6C230.748 37.17 231.343 37.955 231.723 38.955C232.103 39.955 232.293 41.1 232.293 42.39V51H227.463V42.39C227.463 41.61 227.273 41.035 226.893 40.665C226.513 40.285 226.053 40.095 225.513 40.095C224.963 40.095 224.458 40.25 223.998 40.56C223.538 40.87 223.168 41.37 222.888 42.06C222.618 42.74 222.483 43.645 222.483 44.775V51H217.683ZM252.48 51.48C251.24 51.48 250.075 51.16 248.985 50.52C247.895 49.88 247.01 48.965 246.33 47.775C245.66 46.585 245.325 45.175 245.325 43.545C245.325 41.915 245.66 40.52 246.33 39.36C247 38.19 247.88 37.295 248.97 36.675C250.06 36.055 251.23 35.745 252.48 35.745C253.72 35.745 254.8 35.995 255.72 36.495C256.64 36.985 257.38 37.65 257.94 38.49C258.51 39.33 258.88 40.28 259.05 41.34C259.23 42.39 259.195 43.475 258.945 44.595H249.12V42.165H255.435L254.745 42.615C254.775 42.265 254.76 41.91 254.7 41.55C254.65 41.19 254.545 40.86 254.385 40.56C254.225 40.25 253.995 40.005 253.695 39.825C253.405 39.635 253.03 39.54 252.57 39.54C252.06 39.54 251.615 39.665 251.235 39.915C250.865 40.155 250.575 40.51 250.365 40.98C250.165 41.44 250.065 42.005 250.065 42.675V44.565C250.065 45.195 250.155 45.74 250.335 46.2C250.515 46.66 250.78 47.02 251.13 47.28C251.49 47.53 251.94 47.655 252.48 47.655C252.92 47.655 253.305 47.565 253.635 47.385C253.965 47.205 254.195 46.92 254.325 46.53H259.095C258.945 47.45 258.575 48.285 257.985 49.035C257.405 49.785 256.645 50.38 255.705 50.82C254.775 51.26 253.7 51.48 252.48 51.48ZM263.006 51V36.135H267.806V51H263.006ZM266.786 44.7C266.786 42.69 267.041 41.04 267.551 39.75C268.061 38.46 268.706 37.505 269.486 36.885C270.266 36.265 271.061 35.955 271.871 35.955C272.031 35.955 272.191 35.965 272.351 35.985C272.511 35.995 272.661 36.015 272.801 36.045L272.846 40.875C272.596 40.845 272.341 40.825 272.081 40.815C271.821 40.795 271.576 40.785 271.346 40.785C270.646 40.785 270.026 40.915 269.486 41.175C268.956 41.435 268.541 41.85 268.241 42.42C267.951 42.99 267.806 43.75 267.806 44.7H266.786ZM281.78 51.48C280.49 51.48 279.29 51.155 278.18 50.505C277.08 49.855 276.19 48.94 275.51 47.76C274.84 46.58 274.505 45.2 274.505 43.62C274.505 41.89 274.84 40.445 275.51 39.285C276.19 38.115 277.08 37.235 278.18 36.645C279.29 36.045 280.49 35.745 281.78 35.745C282.87 35.745 283.82 35.93 284.63 36.3C285.45 36.67 286.13 37.155 286.67 37.755C287.21 38.355 287.61 39.015 287.87 39.735C288.14 40.455 288.275 41.16 288.275 41.85L283.475 41.805C283.405 41.375 283.23 40.985 282.95 40.635C282.68 40.275 282.28 40.095 281.75 40.095C281.33 40.095 280.93 40.205 280.55 40.425C280.18 40.635 279.875 40.995 279.635 41.505C279.405 42.015 279.29 42.72 279.29 43.62C279.29 44.5 279.405 45.195 279.635 45.705C279.875 46.215 280.18 46.575 280.55 46.785C280.93 46.995 281.33 47.1 281.75 47.1C282.43 47.1 282.885 46.945 283.115 46.635C283.355 46.315 283.475 45.915 283.475 45.435H288.275C288.275 46.495 288.04 47.485 287.57 48.405C287.1 49.325 286.385 50.07 285.425 50.64C284.475 51.2 283.26 51.48 281.78 51.48ZM297.978 51.48C296.738 51.48 295.573 51.16 294.483 50.52C293.393 49.88 292.508 48.965 291.828 47.775C291.158 46.585 290.823 45.175 290.823 43.545C290.823 41.915 291.158 40.52 291.828 39.36C292.498 38.19 293.378 37.295 294.468 36.675C295.558 36.055 296.728 35.745 297.978 35.745C299.218 35.745 300.298 35.995 301.218 36.495C302.138 36.985 302.878 37.65 303.438 38.49C304.008 39.33 304.378 40.28 304.548 41.34C304.728 42.39 304.693 43.475 304.443 44.595H294.618V42.165H300.933L300.243 42.615C300.273 42.265 300.258 41.91 300.198 41.55C300.148 41.19 300.043 40.86 299.883 40.56C299.723 40.25 299.493 40.005 299.193 39.825C298.903 39.635 298.528 39.54 298.068 39.54C297.558 39.54 297.113 39.665 296.733 39.915C296.363 40.155 296.073 40.51 295.863 40.98C295.663 41.44 295.563 42.005 295.563 42.675V44.565C295.563 45.195 295.653 45.74 295.833 46.2C296.013 46.66 296.278 47.02 296.628 47.28C296.988 47.53 297.438 47.655 297.978 47.655C298.418 47.655 298.803 47.565 299.133 47.385C299.463 47.205 299.693 46.92 299.823 46.53H304.593C304.443 47.45 304.073 48.285 303.483 49.035C302.903 49.785 302.143 50.38 301.203 50.82C300.273 51.26 299.198 51.48 297.978 51.48ZM104.509 58.6909L107.273 66.5273H107.382L110.145 58.6909H111.327L107.909 68H106.745L103.327 58.6909H104.509ZM112.632 68V61.0182H113.705V68H112.632ZM113.177 59.8545C112.968 59.8545 112.788 59.7833 112.636 59.6409C112.488 59.4985 112.414 59.3273 112.414 59.1273C112.414 58.9273 112.488 58.7561 112.636 58.6136C112.788 58.4712 112.968 58.4 113.177 58.4C113.386 58.4 113.565 58.4712 113.714 58.6136C113.865 58.7561 113.941 58.9273 113.941 59.1273C113.941 59.3273 113.865 59.4985 113.714 59.6409C113.565 59.7833 113.386 59.8545 113.177 59.8545ZM120.615 62.5818L119.651 62.8545C119.591 62.6939 119.501 62.5379 119.383 62.3864C119.268 62.2318 119.11 62.1045 118.91 62.0045C118.71 61.9045 118.454 61.8545 118.142 61.8545C117.715 61.8545 117.359 61.953 117.074 62.15C116.792 62.3439 116.651 62.5909 116.651 62.8909C116.651 63.1576 116.748 63.3682 116.942 63.5227C117.136 63.6773 117.439 63.8061 117.851 63.9091L118.888 64.1636C119.512 64.3152 119.977 64.547 120.283 64.8591C120.589 65.1682 120.742 65.5667 120.742 66.0545C120.742 66.4545 120.627 66.8121 120.397 67.1273C120.169 67.4424 119.851 67.6909 119.442 67.8727C119.033 68.0545 118.557 68.1455 118.015 68.1455C117.303 68.1455 116.713 67.9909 116.247 67.6818C115.78 67.3727 115.484 66.9212 115.36 66.3273L116.378 66.0727C116.475 66.4485 116.659 66.7303 116.928 66.9182C117.201 67.1061 117.557 67.2 117.997 67.2C118.497 67.2 118.894 67.0939 119.188 66.8818C119.484 66.6667 119.633 66.4091 119.633 66.1091C119.633 65.8667 119.548 65.6636 119.378 65.5C119.209 65.3333 118.948 65.2091 118.597 65.1273L117.433 64.8545C116.794 64.703 116.324 64.4682 116.024 64.15C115.727 63.8288 115.578 63.4273 115.578 62.9455C115.578 62.5515 115.689 62.203 115.91 61.9C116.134 61.597 116.439 61.3591 116.824 61.1864C117.212 61.0136 117.651 60.9273 118.142 60.9273C118.833 60.9273 119.375 61.0788 119.769 61.3818C120.166 61.6848 120.448 62.0848 120.615 62.5818ZM126.757 65.1455V61.0182H127.83V68H126.757V66.8182H126.684C126.52 67.1727 126.266 67.4742 125.92 67.7227C125.575 67.9682 125.139 68.0909 124.611 68.0909C124.175 68.0909 123.787 67.9955 123.448 67.8045C123.108 67.6106 122.842 67.3197 122.648 66.9318C122.454 66.5409 122.357 66.0485 122.357 65.4545V61.0182H123.43V65.3818C123.43 65.8909 123.572 66.297 123.857 66.6C124.145 66.903 124.511 67.0545 124.957 67.0545C125.223 67.0545 125.495 66.9864 125.77 66.85C126.049 66.7136 126.283 66.5045 126.47 66.2227C126.661 65.9409 126.757 65.5818 126.757 65.1455ZM131.849 68.1636C131.406 68.1636 131.005 68.0803 130.644 67.9136C130.284 67.7439 129.997 67.5 129.785 67.1818C129.573 66.8606 129.467 66.4727 129.467 66.0182C129.467 65.6182 129.546 65.2939 129.703 65.0455C129.861 64.7939 130.072 64.597 130.335 64.4545C130.599 64.3121 130.89 64.2061 131.208 64.1364C131.529 64.0636 131.852 64.0061 132.176 63.9636C132.6 63.9091 132.944 63.8682 133.208 63.8409C133.475 63.8106 133.669 63.7606 133.79 63.6909C133.914 63.6212 133.976 63.5 133.976 63.3273V63.2909C133.976 62.8424 133.853 62.4939 133.608 62.2455C133.366 61.997 132.997 61.8727 132.503 61.8727C131.991 61.8727 131.59 61.9848 131.299 62.2091C131.008 62.4333 130.803 62.6727 130.685 62.9273L129.667 62.5636C129.849 62.1394 130.091 61.8091 130.394 61.5727C130.7 61.3333 131.034 61.1667 131.394 61.0727C131.758 60.9758 132.116 60.9273 132.467 60.9273C132.691 60.9273 132.949 60.9545 133.24 61.0091C133.534 61.0606 133.817 61.1682 134.09 61.3318C134.366 61.4955 134.594 61.7424 134.776 62.0727C134.958 62.403 135.049 62.8455 135.049 63.4V68H133.976V67.0545H133.922C133.849 67.2061 133.728 67.3682 133.558 67.5409C133.388 67.7136 133.163 67.8606 132.881 67.9818C132.599 68.103 132.255 68.1636 131.849 68.1636ZM132.013 67.2C132.437 67.2 132.794 67.1167 133.085 66.95C133.379 66.7833 133.6 66.5682 133.749 66.3045C133.9 66.0409 133.976 65.7636 133.976 65.4727V64.4909C133.931 64.5455 133.831 64.5955 133.676 64.6409C133.525 64.6833 133.349 64.7212 133.149 64.7545C132.952 64.7848 132.759 64.8121 132.572 64.8364C132.387 64.8576 132.237 64.8758 132.122 64.8909C131.843 64.9273 131.582 64.9864 131.34 65.0682C131.1 65.147 130.906 65.2667 130.758 65.4273C130.613 65.5848 130.54 65.8 130.54 66.0727C130.54 66.4455 130.678 66.7273 130.953 66.9182C131.232 67.1061 131.585 67.2 132.013 67.2ZM138.08 58.6909V68H137.007V58.6909H138.08ZM140.044 68V61.0182H141.117V68H140.044ZM140.59 59.8545C140.381 59.8545 140.2 59.7833 140.049 59.6409C139.9 59.4985 139.826 59.3273 139.826 59.1273C139.826 58.9273 139.9 58.7561 140.049 58.6136C140.2 58.4712 140.381 58.4 140.59 58.4C140.799 58.4 140.978 58.4712 141.126 58.6136C141.278 58.7561 141.353 58.9273 141.353 59.1273C141.353 59.3273 141.278 59.4985 141.126 59.6409C140.978 59.7833 140.799 59.8545 140.59 59.8545ZM142.882 68V67.1818L146.845 62.0909V62.0182H143.009V61.0182H148.227V61.8727L144.373 66.9273V67H148.355V68H142.882ZM152.061 68.1636C151.619 68.1636 151.217 68.0803 150.857 67.9136C150.496 67.7439 150.21 67.5 149.998 67.1818C149.786 66.8606 149.68 66.4727 149.68 66.0182C149.68 65.6182 149.758 65.2939 149.916 65.0455C150.073 64.7939 150.284 64.597 150.548 64.4545C150.811 64.3121 151.102 64.2061 151.42 64.1364C151.742 64.0636 152.064 64.0061 152.389 63.9636C152.813 63.9091 153.157 63.8682 153.42 63.8409C153.687 63.8106 153.881 63.7606 154.002 63.6909C154.127 63.6212 154.189 63.5 154.189 63.3273V63.2909C154.189 62.8424 154.066 62.4939 153.82 62.2455C153.578 61.997 153.21 61.8727 152.716 61.8727C152.204 61.8727 151.802 61.9848 151.511 62.2091C151.22 62.4333 151.016 62.6727 150.898 62.9273L149.88 62.5636C150.061 62.1394 150.304 61.8091 150.607 61.5727C150.913 61.3333 151.246 61.1667 151.607 61.0727C151.97 60.9758 152.328 60.9273 152.68 60.9273C152.904 60.9273 153.161 60.9545 153.452 61.0091C153.746 61.0606 154.03 61.1682 154.302 61.3318C154.578 61.4955 154.807 61.7424 154.989 62.0727C155.17 62.403 155.261 62.8455 155.261 63.4V68H154.189V67.0545H154.134C154.061 67.2061 153.94 67.3682 153.77 67.5409C153.601 67.7136 153.375 67.8606 153.093 67.9818C152.811 68.103 152.467 68.1636 152.061 68.1636ZM152.225 67.2C152.649 67.2 153.007 67.1167 153.298 66.95C153.592 66.7833 153.813 66.5682 153.961 66.3045C154.113 66.0409 154.189 65.7636 154.189 65.4727V64.4909C154.143 64.5455 154.043 64.5955 153.889 64.6409C153.737 64.6833 153.561 64.7212 153.361 64.7545C153.164 64.7848 152.972 64.8121 152.784 64.8364C152.599 64.8576 152.449 64.8758 152.334 64.8909C152.055 64.9273 151.795 64.9864 151.552 65.0682C151.313 65.147 151.119 65.2667 150.97 65.4273C150.825 65.5848 150.752 65.8 150.752 66.0727C150.752 66.4455 150.89 66.7273 151.166 66.9182C151.445 67.1061 151.798 67.2 152.225 67.2ZM160.256 61.0182V61.9273H156.638V61.0182H160.256ZM157.692 59.3455H158.765V66C158.765 66.303 158.809 66.5303 158.897 66.6818C158.988 66.8303 159.103 66.9303 159.242 66.9818C159.384 67.0303 159.534 67.0545 159.692 67.0545C159.81 67.0545 159.907 67.0485 159.983 67.0364C160.059 67.0212 160.119 67.0091 160.165 67L160.383 67.9636C160.31 67.9909 160.209 68.0182 160.078 68.0455C159.948 68.0758 159.783 68.0909 159.583 68.0909C159.28 68.0909 158.983 68.0258 158.692 67.8955C158.404 67.7652 158.165 67.5667 157.974 67.3C157.786 67.0333 157.692 66.697 157.692 66.2909V59.3455ZM161.869 68V61.0182H162.942V68H161.869ZM162.415 59.8545C162.206 59.8545 162.025 59.7833 161.874 59.6409C161.725 59.4985 161.651 59.3273 161.651 59.1273C161.651 58.9273 161.725 58.7561 161.874 58.6136C162.025 58.4712 162.206 58.4 162.415 58.4C162.624 58.4 162.803 58.4712 162.951 58.6136C163.103 58.7561 163.178 58.9273 163.178 59.1273C163.178 59.3273 163.103 59.4985 162.951 59.6409C162.803 59.7833 162.624 59.8545 162.415 59.8545ZM167.743 68.1455C167.113 68.1455 166.56 67.9955 166.084 67.6955C165.611 67.3955 165.242 66.9758 164.975 66.4364C164.711 65.897 164.58 65.2667 164.58 64.5455C164.58 63.8182 164.711 63.1833 164.975 62.6409C165.242 62.0985 165.611 61.6773 166.084 61.3773C166.56 61.0773 167.113 60.9273 167.743 60.9273C168.373 60.9273 168.925 61.0773 169.398 61.3773C169.873 61.6773 170.243 62.0985 170.507 62.6409C170.773 63.1833 170.907 63.8182 170.907 64.5455C170.907 65.2667 170.773 65.897 170.507 66.4364C170.243 66.9758 169.873 67.3955 169.398 67.6955C168.925 67.9955 168.373 68.1455 167.743 68.1455ZM167.743 67.1818C168.222 67.1818 168.616 67.0591 168.925 66.8136C169.234 66.5682 169.463 66.2455 169.611 65.8455C169.76 65.4455 169.834 65.0121 169.834 64.5455C169.834 64.0788 169.76 63.6439 169.611 63.2409C169.463 62.8379 169.234 62.5121 168.925 62.2636C168.616 62.0152 168.222 61.8909 167.743 61.8909C167.264 61.8909 166.87 62.0152 166.561 62.2636C166.252 62.5121 166.023 62.8379 165.875 63.2409C165.727 63.6439 165.652 64.0788 165.652 64.5455C165.652 65.0121 165.727 65.4455 165.875 65.8455C166.023 66.2455 166.252 66.5682 166.561 66.8136C166.87 67.0591 167.264 67.1818 167.743 67.1818ZM173.617 63.8V68H172.544V61.0182H173.581V62.1091H173.672C173.835 61.7545 174.084 61.4697 174.417 61.2545C174.75 61.0364 175.181 60.9273 175.708 60.9273C176.181 60.9273 176.594 61.0242 176.949 61.2182C177.303 61.4091 177.579 61.7 177.776 62.0909C177.973 62.4788 178.072 62.9697 178.072 63.5636V68H176.999V63.6364C176.999 63.0879 176.856 62.6606 176.572 62.3545C176.287 62.0455 175.896 61.8909 175.399 61.8909C175.056 61.8909 174.75 61.9652 174.481 62.1136C174.214 62.2621 174.003 62.4788 173.849 62.7636C173.694 63.0485 173.617 63.3939 173.617 63.8ZM183.777 68V58.6909H186.923C187.653 58.6909 188.25 58.8227 188.714 59.0864C189.18 59.347 189.526 59.7 189.75 60.1455C189.974 60.5909 190.086 61.0879 190.086 61.6364C190.086 62.1848 189.974 62.6833 189.75 63.1318C189.529 63.5803 189.186 63.9379 188.723 64.2045C188.259 64.4682 187.665 64.6 186.941 64.6H184.686V63.6H186.905C187.405 63.6 187.806 63.5136 188.109 63.3409C188.412 63.1682 188.632 62.9348 188.768 62.6409C188.908 62.3439 188.977 62.0091 188.977 61.6364C188.977 61.2636 188.908 60.9303 188.768 60.6364C188.632 60.3424 188.411 60.1121 188.105 59.9455C187.798 59.7758 187.392 59.6909 186.886 59.6909H184.905V68H183.777ZM194.518 68.1455C193.888 68.1455 193.335 67.9955 192.859 67.6955C192.386 67.3955 192.017 66.9758 191.75 66.4364C191.486 65.897 191.355 65.2667 191.355 64.5455C191.355 63.8182 191.486 63.1833 191.75 62.6409C192.017 62.0985 192.386 61.6773 192.859 61.3773C193.335 61.0773 193.888 60.9273 194.518 60.9273C195.148 60.9273 195.7 61.0773 196.173 61.3773C196.648 61.6773 197.018 62.0985 197.282 62.6409C197.548 63.1833 197.682 63.8182 197.682 64.5455C197.682 65.2667 197.548 65.897 197.282 66.4364C197.018 66.9758 196.648 67.3955 196.173 67.6955C195.7 67.9955 195.148 68.1455 194.518 68.1455ZM194.518 67.1818C194.997 67.1818 195.391 67.0591 195.7 66.8136C196.009 66.5682 196.238 66.2455 196.386 65.8455C196.535 65.4455 196.609 65.0121 196.609 64.5455C196.609 64.0788 196.535 63.6439 196.386 63.2409C196.238 62.8379 196.009 62.5121 195.7 62.2636C195.391 62.0152 194.997 61.8909 194.518 61.8909C194.039 61.8909 193.645 62.0152 193.336 62.2636C193.027 62.5121 192.798 62.8379 192.65 63.2409C192.502 63.6439 192.427 64.0788 192.427 64.5455C192.427 65.0121 192.502 65.4455 192.65 65.8455C192.798 66.2455 193.027 66.5682 193.336 66.8136C193.645 67.0591 194.039 67.1818 194.518 67.1818ZM200.664 68L198.536 61.0182H199.664L201.173 66.3636H201.245L202.736 61.0182H203.882L205.355 66.3455H205.427L206.936 61.0182H208.064L205.936 68H204.882L203.355 62.6364H203.245L201.718 68H200.664ZM212.172 68.1455C211.499 68.1455 210.919 67.997 210.431 67.7C209.946 67.4 209.572 66.9818 209.308 66.4455C209.047 65.9061 208.917 65.2788 208.917 64.5636C208.917 63.8485 209.047 63.2182 209.308 62.6727C209.572 62.1242 209.938 61.697 210.408 61.3909C210.881 61.0818 211.432 60.9273 212.063 60.9273C212.426 60.9273 212.785 60.9879 213.14 61.1091C213.494 61.2303 213.817 61.4273 214.108 61.7C214.399 61.9697 214.631 62.3273 214.803 62.7727C214.976 63.2182 215.063 63.7667 215.063 64.4182V64.8727H209.681V63.9455H213.972C213.972 63.5515 213.893 63.2 213.735 62.8909C213.581 62.5818 213.359 62.3379 213.072 62.1591C212.787 61.9803 212.45 61.8909 212.063 61.8909C211.635 61.8909 211.266 61.997 210.953 62.2091C210.644 62.4182 210.406 62.6909 210.24 63.0273C210.073 63.3636 209.99 63.7242 209.99 64.1091V64.7273C209.99 65.2545 210.081 65.7015 210.263 66.0682C210.447 66.4318 210.703 66.7091 211.031 66.9C211.358 67.0879 211.738 67.1818 212.172 67.1818C212.453 67.1818 212.708 67.1424 212.935 67.0636C213.166 66.9818 213.364 66.8606 213.531 66.7C213.697 66.5364 213.826 66.3333 213.917 66.0909L214.953 66.3818C214.844 66.7333 214.661 67.0424 214.403 67.3091C214.146 67.5727 213.828 67.7788 213.449 67.9273C213.07 68.0727 212.644 68.1455 212.172 68.1455ZM216.694 68V61.0182H217.731V62.0727H217.803C217.931 61.7273 218.161 61.447 218.494 61.2318C218.828 61.0167 219.203 60.9091 219.622 60.9091C219.7 60.9091 219.799 60.9106 219.917 60.9136C220.035 60.9167 220.125 60.9212 220.185 60.9273V62.0182C220.149 62.0091 220.066 61.9955 219.935 61.9773C219.808 61.9561 219.673 61.9455 219.531 61.9455C219.191 61.9455 218.888 62.0167 218.622 62.1591C218.358 62.2985 218.149 62.4924 217.994 62.7409C217.843 62.9864 217.767 63.2667 217.767 63.5818V68H216.694ZM224.172 68.1455C223.499 68.1455 222.919 67.997 222.431 67.7C221.946 67.4 221.572 66.9818 221.308 66.4455C221.047 65.9061 220.917 65.2788 220.917 64.5636C220.917 63.8485 221.047 63.2182 221.308 62.6727C221.572 62.1242 221.938 61.697 222.408 61.3909C222.881 61.0818 223.432 60.9273 224.063 60.9273C224.426 60.9273 224.785 60.9879 225.14 61.1091C225.494 61.2303 225.817 61.4273 226.108 61.7C226.399 61.9697 226.631 62.3273 226.803 62.7727C226.976 63.2182 227.063 63.7667 227.063 64.4182V64.8727H221.681V63.9455H225.972C225.972 63.5515 225.893 63.2 225.735 62.8909C225.581 62.5818 225.359 62.3379 225.072 62.1591C224.787 61.9803 224.45 61.8909 224.063 61.8909C223.635 61.8909 223.266 61.997 222.953 62.2091C222.644 62.4182 222.406 62.6909 222.24 63.0273C222.073 63.3636 221.99 63.7242 221.99 64.1091V64.7273C221.99 65.2545 222.081 65.7015 222.263 66.0682C222.447 66.4318 222.703 66.7091 223.031 66.9C223.358 67.0879 223.738 67.1818 224.172 67.1818C224.453 67.1818 224.708 67.1424 224.935 67.0636C225.166 66.9818 225.364 66.8606 225.531 66.7C225.697 66.5364 225.826 66.3333 225.917 66.0909L226.953 66.3818C226.844 66.7333 226.661 67.0424 226.403 67.3091C226.146 67.5727 225.828 67.7788 225.449 67.9273C225.07 68.0727 224.644 68.1455 224.172 68.1455ZM231.331 68.1455C230.749 68.1455 230.235 67.9985 229.79 67.7045C229.344 67.4076 228.996 66.9894 228.744 66.45C228.493 65.9076 228.367 65.2667 228.367 64.5273C228.367 63.7939 228.493 63.1576 228.744 62.6182C228.996 62.0788 229.346 61.6621 229.794 61.3682C230.243 61.0742 230.761 60.9273 231.349 60.9273C231.803 60.9273 232.163 61.003 232.426 61.1545C232.693 61.303 232.896 61.4727 233.035 61.6636C233.178 61.8515 233.288 62.0061 233.367 62.1273H233.458V58.6909H234.531V68H233.494V66.9273H233.367C233.288 67.0545 233.176 67.2152 233.031 67.4091C232.885 67.6 232.678 67.7712 232.408 67.9227C232.138 68.0712 231.779 68.1455 231.331 68.1455ZM231.476 67.1818C231.906 67.1818 232.27 67.0697 232.567 66.8455C232.864 66.6182 233.09 66.3045 233.244 65.9045C233.399 65.5015 233.476 65.0364 233.476 64.5091C233.476 63.9879 233.4 63.5318 233.249 63.1409C233.097 62.747 232.873 62.4409 232.576 62.2227C232.279 62.0015 231.913 61.8909 231.476 61.8909C231.022 61.8909 230.643 62.0076 230.34 62.2409C230.04 62.4712 229.814 62.7848 229.663 63.1818C229.514 63.5758 229.44 64.0182 229.44 64.5091C229.44 65.0061 229.516 65.4576 229.667 65.8636C229.822 66.2667 230.049 66.5879 230.349 66.8273C230.652 67.0636 231.028 67.1818 231.476 67.1818ZM247.881 61.6H246.753C246.687 61.2758 246.57 60.9909 246.403 60.7455C246.24 60.5 246.04 60.2939 245.803 60.1273C245.57 59.9576 245.311 59.8303 245.026 59.7455C244.741 59.6606 244.444 59.6182 244.135 59.6182C243.572 59.6182 243.061 59.7606 242.603 60.0455C242.149 60.3303 241.787 60.75 241.517 61.3045C241.25 61.8591 241.117 62.5394 241.117 63.3455C241.117 64.1515 241.25 64.8318 241.517 65.3864C241.787 65.9409 242.149 66.3606 242.603 66.6455C243.061 66.9303 243.572 67.0727 244.135 67.0727C244.444 67.0727 244.741 67.0303 245.026 66.9455C245.311 66.8606 245.57 66.7348 245.803 66.5682C246.04 66.3985 246.24 66.1909 246.403 65.9455C246.57 65.697 246.687 65.4121 246.753 65.0909H247.881C247.796 65.5667 247.641 65.9924 247.417 66.3682C247.193 66.7439 246.914 67.0636 246.581 67.3273C246.247 67.5879 245.873 67.7864 245.458 67.9227C245.046 68.0591 244.605 68.1273 244.135 68.1273C243.341 68.1273 242.635 67.9333 242.017 67.5455C241.399 67.1576 240.912 66.6061 240.558 65.8909C240.203 65.1758 240.026 64.3273 240.026 63.3455C240.026 62.3636 240.203 61.5152 240.558 60.8C240.912 60.0848 241.399 59.5333 242.017 59.1455C242.635 58.7576 243.341 58.5636 244.135 58.5636C244.605 58.5636 245.046 58.6318 245.458 58.7682C245.873 58.9045 246.247 59.1045 246.581 59.3682C246.914 59.6288 247.193 59.947 247.417 60.3227C247.641 60.6955 247.796 61.1212 247.881 61.6ZM252.393 68.1455C251.763 68.1455 251.21 67.9955 250.734 67.6955C250.261 67.3955 249.892 66.9758 249.625 66.4364C249.361 65.897 249.23 65.2667 249.23 64.5455C249.23 63.8182 249.361 63.1833 249.625 62.6409C249.892 62.0985 250.261 61.6773 250.734 61.3773C251.21 61.0773 251.763 60.9273 252.393 60.9273C253.023 60.9273 253.575 61.0773 254.048 61.3773C254.523 61.6773 254.893 62.0985 255.157 62.6409C255.423 63.1833 255.557 63.8182 255.557 64.5455C255.557 65.2667 255.423 65.897 255.157 66.4364C254.893 66.9758 254.523 67.3955 254.048 67.6955C253.575 67.9955 253.023 68.1455 252.393 68.1455ZM252.393 67.1818C252.872 67.1818 253.266 67.0591 253.575 66.8136C253.884 66.5682 254.113 66.2455 254.261 65.8455C254.41 65.4455 254.484 65.0121 254.484 64.5455C254.484 64.0788 254.41 63.6439 254.261 63.2409C254.113 62.8379 253.884 62.5121 253.575 62.2636C253.266 62.0152 252.872 61.8909 252.393 61.8909C251.914 61.8909 251.52 62.0152 251.211 62.2636C250.902 62.5121 250.673 62.8379 250.525 63.2409C250.377 63.6439 250.302 64.0788 250.302 64.5455C250.302 65.0121 250.377 65.4455 250.525 65.8455C250.673 66.2455 250.902 66.5682 251.211 66.8136C251.52 67.0591 251.914 67.1818 252.393 67.1818ZM257.194 68V61.0182H258.231V62.1091H258.322C258.467 61.7364 258.702 61.447 259.026 61.2409C259.35 61.0318 259.74 60.9273 260.194 60.9273C260.655 60.9273 261.038 61.0318 261.344 61.2409C261.653 61.447 261.894 61.7364 262.067 62.1091H262.14C262.319 61.7485 262.587 61.4621 262.944 61.25C263.302 61.0348 263.731 60.9273 264.231 60.9273C264.855 60.9273 265.366 61.1227 265.763 61.5136C266.159 61.9015 266.358 62.5061 266.358 63.3273V68H265.285V63.3273C265.285 62.8121 265.144 62.4439 264.863 62.2227C264.581 62.0015 264.249 61.8909 263.867 61.8909C263.376 61.8909 262.996 62.0394 262.726 62.3364C262.456 62.6303 262.322 63.003 262.322 63.4545V68H261.231V63.2182C261.231 62.8212 261.102 62.5015 260.844 62.2591C260.587 62.0136 260.255 61.8909 259.849 61.8909C259.57 61.8909 259.309 61.9652 259.067 62.1136C258.828 62.2621 258.634 62.4682 258.485 62.7318C258.34 62.9924 258.267 63.2939 258.267 63.6364V68H257.194ZM268.319 68V61.0182H269.356V62.1091H269.447C269.592 61.7364 269.827 61.447 270.151 61.2409C270.475 61.0318 270.865 60.9273 271.319 60.9273C271.78 60.9273 272.163 61.0318 272.469 61.2409C272.778 61.447 273.019 61.7364 273.192 62.1091H273.265C273.444 61.7485 273.712 61.4621 274.069 61.25C274.427 61.0348 274.856 60.9273 275.356 60.9273C275.98 60.9273 276.491 61.1227 276.888 61.5136C277.284 61.9015 277.483 62.5061 277.483 63.3273V68H276.41V63.3273C276.41 62.8121 276.269 62.4439 275.988 62.2227C275.706 62.0015 275.374 61.8909 274.992 61.8909C274.501 61.8909 274.121 62.0394 273.851 62.3364C273.581 62.6303 273.447 63.003 273.447 63.4545V68H272.356V63.2182C272.356 62.8212 272.227 62.5015 271.969 62.2591C271.712 62.0136 271.38 61.8909 270.974 61.8909C270.695 61.8909 270.434 61.9652 270.192 62.1136C269.953 62.2621 269.759 62.4682 269.61 62.7318C269.465 62.9924 269.392 63.2939 269.392 63.6364V68H268.319ZM282.372 68.1455C281.699 68.1455 281.119 67.997 280.631 67.7C280.146 67.4 279.772 66.9818 279.508 66.4455C279.247 65.9061 279.117 65.2788 279.117 64.5636C279.117 63.8485 279.247 63.2182 279.508 62.6727C279.772 62.1242 280.138 61.697 280.608 61.3909C281.081 61.0818 281.632 60.9273 282.263 60.9273C282.626 60.9273 282.985 60.9879 283.34 61.1091C283.694 61.2303 284.017 61.4273 284.308 61.7C284.599 61.9697 284.831 62.3273 285.003 62.7727C285.176 63.2182 285.263 63.7667 285.263 64.4182V64.8727H279.881V63.9455H284.172C284.172 63.5515 284.093 63.2 283.935 62.8909C283.781 62.5818 283.559 62.3379 283.272 62.1591C282.987 61.9803 282.65 61.8909 282.263 61.8909C281.835 61.8909 281.466 61.997 281.153 62.2091C280.844 62.4182 280.606 62.6909 280.44 63.0273C280.273 63.3636 280.19 63.7242 280.19 64.1091V64.7273C280.19 65.2545 280.281 65.7015 280.463 66.0682C280.647 66.4318 280.903 66.7091 281.231 66.9C281.558 67.0879 281.938 67.1818 282.372 67.1818C282.653 67.1818 282.908 67.1424 283.135 67.0636C283.366 66.9818 283.564 66.8606 283.731 66.7C283.897 66.5364 284.026 66.3333 284.117 66.0909L285.153 66.3818C285.044 66.7333 284.861 67.0424 284.603 67.3091C284.346 67.5727 284.028 67.7788 283.649 67.9273C283.27 68.0727 282.844 68.1455 282.372 68.1455ZM286.894 68V61.0182H287.931V62.0727H288.003C288.131 61.7273 288.361 61.447 288.694 61.2318C289.028 61.0167 289.403 60.9091 289.822 60.9091C289.9 60.9091 289.999 60.9106 290.117 60.9136C290.235 60.9167 290.325 60.9212 290.385 60.9273V62.0182C290.349 62.0091 290.266 61.9955 290.135 61.9773C290.008 61.9561 289.873 61.9455 289.731 61.9455C289.391 61.9455 289.088 62.0167 288.822 62.1591C288.558 62.2985 288.349 62.4924 288.194 62.7409C288.043 62.9864 287.967 63.2667 287.967 63.5818V68H286.894ZM294.281 68.1455C293.626 68.1455 293.063 67.9909 292.59 67.6818C292.117 67.3727 291.753 66.947 291.499 66.4045C291.244 65.8621 291.117 65.2424 291.117 64.5455C291.117 63.8364 291.247 63.2106 291.508 62.6682C291.772 62.1227 292.138 61.697 292.608 61.3909C293.081 61.0818 293.632 60.9273 294.263 60.9273C294.753 60.9273 295.196 61.0182 295.59 61.2C295.984 61.3818 296.306 61.6364 296.558 61.9636C296.809 62.2909 296.966 62.6727 297.026 63.1091H295.953C295.872 62.7909 295.69 62.5091 295.408 62.2636C295.129 62.0152 294.753 61.8909 294.281 61.8909C293.863 61.8909 293.496 62 293.181 62.2182C292.869 62.4333 292.625 62.7379 292.449 63.1318C292.276 63.5227 292.19 63.9818 292.19 64.5091C292.19 65.0485 292.275 65.5182 292.444 65.9182C292.617 66.3182 292.859 66.6288 293.172 66.85C293.487 67.0712 293.856 67.1818 294.281 67.1818C294.559 67.1818 294.813 67.1333 295.04 67.0364C295.267 66.9394 295.459 66.8 295.617 66.6182C295.775 66.4364 295.887 66.2182 295.953 65.9636H297.026C296.966 66.3758 296.816 66.747 296.576 67.0773C296.34 67.4045 296.026 67.6652 295.635 67.8591C295.247 68.05 294.796 68.1455 294.281 68.1455ZM301.522 68.1455C300.849 68.1455 300.269 67.997 299.781 67.7C299.296 67.4 298.922 66.9818 298.658 66.4455C298.397 65.9061 298.267 65.2788 298.267 64.5636C298.267 63.8485 298.397 63.2182 298.658 62.6727C298.922 62.1242 299.288 61.697 299.758 61.3909C300.231 61.0818 300.782 60.9273 301.413 60.9273C301.776 60.9273 302.135 60.9879 302.49 61.1091C302.844 61.2303 303.167 61.4273 303.458 61.7C303.749 61.9697 303.981 62.3273 304.153 62.7727C304.326 63.2182 304.413 63.7667 304.413 64.4182V64.8727H299.031V63.9455H303.322C303.322 63.5515 303.243 63.2 303.085 62.8909C302.931 62.5818 302.709 62.3379 302.422 62.1591C302.137 61.9803 301.8 61.8909 301.413 61.8909C300.985 61.8909 300.616 61.997 300.303 62.2091C299.994 62.4182 299.756 62.6909 299.59 63.0273C299.423 63.3636 299.34 63.7242 299.34 64.1091V64.7273C299.34 65.2545 299.431 65.7015 299.613 66.0682C299.797 66.4318 300.053 66.7091 300.381 66.9C300.708 67.0879 301.088 67.1818 301.522 67.1818C301.803 67.1818 302.058 67.1424 302.285 67.0636C302.516 66.9818 302.714 66.8606 302.881 66.7C303.047 66.5364 303.176 66.3333 303.267 66.0909L304.303 66.3818C304.194 66.7333 304.011 67.0424 303.753 67.3091C303.496 67.5727 303.178 67.7788 302.799 67.9273C302.42 68.0727 301.994 68.1455 301.522 68.1455Z" fill="black"/>
<g clip-path="url(#clip0_90_56)">
<path d="M90 44.9761C90.0651 69.7811 69.88 89.9827 45.0022 90.0043C20.146 90.0217 -0.0130051 69.8679 6.29501e-06 45.0109C0.0130177 20.1928 20.081 0.0867835 44.9111 7.21685e-06C69.6718 -0.0824302 89.9306 20.1234 89.9957 44.9761H90ZM45.0629 2.24317C21.6597 2.06528 2.41579 21.1517 2.18159 44.5249C1.93871 68.4101 21.1436 87.6918 44.6942 87.8349C68.9172 87.9868 87.6406 68.2235 87.7881 45.3146C87.9399 21.6724 68.6049 2.10433 45.0629 2.24317Z" fill="black"/>
<path d="M45.0629 2.24318C68.6049 2.10433 87.9399 21.6724 87.7881 45.3146C87.6406 68.2235 68.9172 87.9825 44.6942 87.8349C21.1436 87.6874 1.93872 68.4101 2.1816 44.5249C2.41581 21.1517 21.6597 2.06529 45.0629 2.24318ZM45.0065 3.41466C22.0934 3.3973 3.4784 21.9761 3.4307 44.9197C3.37865 67.9979 21.8939 86.542 45.0239 86.581C67.8849 86.6157 86.4783 68.0847 86.5693 45.1714C86.6604 22.1713 68.0107 3.43201 45.0065 3.41466Z" fill="white"/>
<path d="M45.0065 3.41456C68.0064 3.43192 86.6604 22.1713 86.5693 45.1713C86.4783 68.0846 67.8849 86.6156 45.0239 86.5809C21.8939 86.5419 3.38299 67.9978 3.4307 44.9196C3.4784 21.976 22.0934 3.39721 45.0065 3.41456ZM69.8974 41.9128C71.5281 41.6872 71.8014 41.2967 71.1074 40.2164C70.6607 39.5222 69.9191 38.7759 69.1687 38.572C66.6315 37.8734 64.567 36.4893 62.5503 34.8666C59.8569 32.6929 57.1115 32.6148 54.1535 34.3677C53.7242 34.6193 53.3165 34.9057 52.8741 35.1269C51.6077 35.7691 50.3325 36.216 48.9273 35.4437C48.7104 35.3222 48.0685 35.4697 48.0252 35.6129C47.7216 36.6802 46.9669 36.3939 46.2036 36.3505V20.9304C46.7587 20.8696 47.2618 20.8175 47.8994 20.7481C46.9756 18.288 46.0908 15.9277 45.206 13.5674C45.1106 13.5674 45.0195 13.5717 44.9241 13.5761C44.0393 15.9364 43.1589 18.301 42.2438 20.7438C42.8206 20.8175 43.2587 20.8739 43.7748 20.939V36.5457C43.2326 36.3331 42.5604 36.2724 42.4563 35.9947C42.079 35.0055 41.5064 35.3222 40.8255 35.5174C40.2704 35.678 39.6198 35.8602 39.1037 35.7084C38.0628 35.409 37.0045 35.0185 36.1024 34.4327C33.4871 32.7406 30.2689 32.6365 27.8748 34.654C25.7106 36.4763 23.3815 37.8257 20.7055 38.6891C20.0636 38.8974 19.4174 39.4788 19.0401 40.0645C18.3028 41.2143 18.5847 41.7133 20.1243 41.9953C19.6126 42.6157 19.2699 43.2709 18.7321 43.6484C16.7023 45.0802 14.408 46.0998 11.9662 46.3124C10.3398 46.4556 8.64394 45.8438 6.98281 45.5488C6.82668 45.5227 6.70957 45.3101 6.5491 45.2537C6.23682 45.1409 5.91154 45.0758 5.59059 44.9934C5.52553 45.3535 5.35639 45.7267 5.41277 46.0651C5.62963 47.3277 6.75728 48.1651 8.37503 48.3907C9.69353 48.5729 10.9556 48.664 12.118 49.6229C19.5649 55.7754 27.0724 61.8497 34.5757 67.9327C37.0869 69.9676 39.6588 71.9244 42.1527 73.9767C42.5951 74.3411 42.8163 74.9876 43.0982 75.5256C43.2847 75.8814 43.4018 76.2763 43.5536 76.6537C43.9179 76.4975 44.2866 76.35 44.6422 76.1765C44.794 76.1027 44.9154 75.9769 45.0803 75.8511C45.2798 76.0116 45.4316 76.1591 45.605 76.2676C45.9737 76.4975 46.3597 76.7058 46.737 76.9184C46.8975 76.4845 47.0363 76.042 47.2185 75.6211C47.4136 75.1742 47.5481 74.6188 47.8907 74.3238C49.1528 73.2347 50.5017 72.2498 51.7985 71.1955C60.2429 64.3575 68.696 57.5282 77.1057 50.6469C78.5673 49.4537 80.0072 48.4124 81.972 48.3039C82.4751 48.2779 83.0823 48.074 83.4336 47.7355C83.967 47.2236 84.3704 46.551 84.7304 45.8915C84.8388 45.692 84.713 45.1887 84.5309 45.0585C84.3487 44.9283 83.954 45.0715 83.6591 45.1366C83.1343 45.2537 82.6182 45.4013 82.0977 45.5314C81.5903 45.6572 81.0872 45.7831 80.5754 45.8872C79.734 46.0608 78.7842 46.5424 78.0599 46.3211C75.8739 45.6529 73.7357 44.7808 71.6582 43.8219C71.0033 43.5226 70.5913 42.6938 69.8887 41.9085L69.8974 41.9128Z" fill="#FB1807"/>
<path d="M69.8973 41.9129C70.6043 42.7025 71.0163 43.5269 71.6669 43.8263C73.7487 44.7851 75.8826 45.6572 78.0685 46.3254C78.7972 46.5467 79.7427 46.0651 80.5841 45.8915C81.0958 45.7874 81.599 45.6616 82.1064 45.5358C82.6269 45.4056 83.143 45.2581 83.6678 45.1409C83.9584 45.0758 84.3574 44.9327 84.5395 45.0628C84.7217 45.193 84.8475 45.6963 84.739 45.8959C84.3791 46.5554 83.9757 47.2279 83.4422 47.7399C83.0866 48.0783 82.4837 48.2822 81.9806 48.3083C80.0159 48.4167 78.5716 49.458 77.1143 50.6512C68.7046 57.5326 60.2515 64.3575 51.8071 71.1998C50.5103 72.2498 49.1615 73.2391 47.8994 74.3281C47.5567 74.6232 47.4223 75.1742 47.2271 75.6254C47.045 76.0463 46.9018 76.4888 46.7457 76.9227C46.3684 76.7058 45.9867 76.4975 45.6137 76.2719C45.4402 76.1634 45.2884 76.0159 45.0889 75.8554C44.9241 75.9769 44.7983 76.107 44.6509 76.1808C44.2952 76.3544 43.9266 76.5019 43.5622 76.6581C43.4148 76.2806 43.2977 75.8901 43.1068 75.53C42.8249 74.992 42.6037 74.3455 42.1613 73.981C39.6675 71.9288 37.0956 69.972 34.5843 67.9371C27.0811 61.854 19.5735 55.7797 12.1266 49.6273C10.9686 48.6684 9.70218 48.5773 8.38369 48.395C6.76593 48.1694 5.63394 47.332 5.42142 46.0694C5.36504 45.731 5.53419 45.3579 5.59924 44.9977C5.92019 45.0802 6.24981 45.1453 6.55775 45.2581C6.71822 45.3145 6.83533 45.5271 6.99146 45.5531C8.65259 45.8482 10.3484 46.4599 11.9748 46.3167C14.4166 46.1041 16.711 45.0845 18.7408 43.6527C19.2786 43.2752 19.6212 42.6201 20.133 41.9996C18.5933 41.7176 18.3114 41.2143 19.0487 40.0689C19.426 39.4831 20.0679 38.9017 20.7142 38.6935C23.3945 37.83 25.7236 36.4807 27.8835 34.6584C30.2776 32.6408 33.4957 32.7493 36.111 34.4371C37.0131 35.0228 38.0714 35.409 39.1123 35.7127C39.6284 35.8602 40.279 35.678 40.8342 35.5218C41.5108 35.3265 42.0833 35.0098 42.4649 35.999C42.569 36.2767 43.2413 36.3375 43.7834 36.5501V20.939C43.2673 20.8739 42.8293 20.8175 42.2524 20.7438C43.1675 18.301 44.048 15.9407 44.9328 13.5761C45.0282 13.5761 45.1193 13.5717 45.2147 13.5674C46.0995 15.9277 46.9842 18.288 47.908 20.7481C47.2705 20.8175 46.7674 20.8696 46.2122 20.9303V36.3462C46.9756 36.3895 47.7259 36.6759 48.0338 35.6086C48.0729 35.4697 48.7148 35.3222 48.9359 35.4393C50.3412 36.2117 51.6163 35.7648 52.8827 35.1226C53.3251 34.897 53.7372 34.615 54.1622 34.3633C57.1201 32.6104 59.8655 32.6885 62.5589 34.8623C64.5713 36.485 66.6402 37.8691 69.1774 38.5676C69.9277 38.7715 70.6694 39.5222 71.1161 40.212C71.81 41.2881 71.5368 41.6829 69.906 41.9085L69.8973 41.9129ZM76.5765 48.6727C76.1515 48.5469 75.8956 48.4297 75.6354 48.3994C71.6799 47.9134 68.2145 46.3167 65.2046 43.7352C64.927 43.4965 64.6364 43.0453 64.6624 42.7155C64.7795 41.0234 64.4195 40.1253 62.8885 39.4961C60.6159 38.5633 58.2912 37.7433 55.845 39.0406C55.5804 39.1837 55.2118 39.1187 54.9212 39.2315C54.4224 39.4224 53.915 39.622 53.4726 39.9127C52.9174 40.2728 52.4794 40.8542 51.8895 41.1102C50.6925 41.6308 50.3325 41.3748 50.1894 40.0645C50.1113 39.3703 49.7774 38.9972 49.0964 39.0449C48.1509 39.1056 47.2098 39.2315 46.1602 39.3399C46.1602 39.7782 46.1602 40.1947 46.1602 40.6112C46.1645 49.0676 46.1689 57.5282 46.1775 65.9846C46.1775 68.1149 45.8652 70.306 47.5047 72.15C57.0854 64.4139 66.7703 56.5911 76.5765 48.6727ZM13.7227 48.5729C23.503 56.4826 33.1921 64.3185 43.0027 72.2585C43.328 70.9612 43.8138 69.9156 43.8225 68.8656C43.9092 59.3072 43.9179 49.7487 43.9396 40.186C43.9396 39.8779 43.8572 39.5742 43.8094 39.2532C42.9507 39.1968 42.1743 39.149 41.398 39.0926C40.4785 39.0232 39.8627 39.2532 39.9364 40.3596C39.9928 41.1839 39.4376 41.5267 38.774 41.262C38.0454 40.9757 37.4382 40.4029 36.7486 39.9951C36.2325 39.6914 35.686 39.4354 35.1352 39.2011C34.8489 39.0796 34.4846 39.123 34.207 38.9885C31.7002 37.7649 29.3494 38.5806 27.0594 39.5916C25.6889 40.1947 25.3029 41.1666 25.433 42.6765C25.459 42.9715 25.2985 43.3837 25.0817 43.5833C23.3945 45.1279 21.5556 46.4773 19.335 47.1368C17.5437 47.6661 15.7135 48.0653 13.714 48.5686L13.7227 48.5729Z" fill="white"/>
<path d="M76.5722 48.6727C66.7659 56.591 57.0811 64.4139 47.5003 72.15C45.8609 70.3104 46.1732 68.1149 46.1732 65.9846C46.1645 57.5282 46.1602 49.0675 46.1558 40.6112C46.1558 40.1947 46.1558 39.7738 46.1558 39.3399C47.2054 39.2314 48.1466 39.1056 49.0921 39.0449C49.773 39.0015 50.107 39.3746 50.185 40.0645C50.3282 41.3748 50.6881 41.6308 51.8852 41.1101C52.475 40.8542 52.9131 40.2727 53.4682 39.9126C53.9106 39.6219 54.4181 39.4223 54.9169 39.2314C55.2074 39.123 55.5761 39.1837 55.8407 39.0405C58.2868 37.7432 60.6159 38.5589 62.8842 39.4961C64.4152 40.1252 64.7752 41.0234 64.6581 42.7155C64.6364 43.0453 64.9226 43.4965 65.2002 43.7351C68.2102 46.3167 71.6756 47.9134 75.631 48.3993C75.8956 48.4297 76.1472 48.5469 76.5722 48.6727Z" fill="#EC2F31"/>
<path d="M13.7184 48.5773C15.7178 48.074 17.5481 47.6748 19.3393 47.1455C21.5643 46.486 23.3989 45.141 25.086 43.592C25.3029 43.3924 25.4634 42.9802 25.4373 42.6852C25.3116 41.1753 25.6976 40.2034 27.0638 39.6003C29.3538 38.5893 31.7045 37.7736 34.2114 38.9972C34.4889 39.1317 34.8489 39.0883 35.1395 39.2098C35.6903 39.4398 36.2368 39.7001 36.7529 40.0038C37.4382 40.4073 38.0497 40.98 38.7784 41.2707C39.4376 41.5311 39.9971 41.1926 39.9407 40.3683C39.8627 39.2619 40.4785 39.0276 41.4023 39.1013C42.1787 39.1621 42.955 39.2055 43.8138 39.2619C43.8615 39.5786 43.9439 39.8866 43.9439 40.1947C43.9222 49.7531 43.9136 59.3115 43.8268 68.8743C43.8181 69.9243 43.3324 70.9699 43.0071 72.2672C33.1921 64.3315 23.5073 56.4956 13.7271 48.5816L13.7184 48.5773Z" fill="#EC2F31"/>
</g>
<defs>
<clipPath id="clip0_90_56">
<rect width="90" height="90" fill="white"/>
</clipPath>
</defs>
</svg>
